<svg xmlns="http://www.w3.org/2000/svg" width="24" height="24" fill="none" viewBox="0 0 24 24"><path fill="currentColor" d="M12 6c1.1 0 2-.9 2-2s-.9-2-2-2-2 .9-2 2 .9 2 2 2m8.754 1.017a1.07 1.07 0 0 0-1.273-.768C17.113 6.772 14.47 7 12 7s-5.114-.228-7.481-.751a1.07 1.07 0 0 0-1.273.768 1 1 0 0 0 .737 1.226 36 36 0 0 0 4.103.67c.516.055.914.486.914 1.006V21a1 1 0 1 0 2 0v-4a1 1 0 0 1 1.462-.887l.874-1.479A2.22 2.22 0 0 1 15 13.531V9.919c0-.52.398-.951.914-1.007a36 36 0 0 0 4.103-.669 1 1 0 0 0 .737-1.226"/><path fill="currentColor" fill-rule="evenodd" d="M22.855 19q0 .256-.032.49l1.076.823a.237.237 0 0 1 .065.317l-1.028 1.73c-.065.114-.198.156-.316.114l-1.28-.5a3.7 3.7 0 0 1-.867.49l-.193 1.323a.25.25 0 0 1-.252.213h-2.056a.26.26 0 0 1-.257-.213l-.193-1.323a3.8 3.8 0 0 1-.867-.49l-1.28.5c-.118.036-.252 0-.316-.115l-1.028-1.729a.25.25 0 0 1 .064-.317l1.087-.823a3 3 0 0 1-.037-.49c0-.161.021-.333.048-.49l-1.087-.823c-.107-.072-.128-.208-.064-.317l1.023-1.73a.26.26 0 0 1 .316-.114l1.28.5c.262-.193.55-.364.867-.49l.192-1.322a.25.25 0 0 1 .252-.214h2.056c.129 0 .236.089.257.214l.193 1.322c.316.126.6.292.867.49l1.28-.5c.118-.036.252 0 .316.115l1.028 1.729a.25.25 0 0 1-.064.317l-1.087.823c.027.157.037.323.037.49m-5.782 0c0 1.031.867 1.875 1.927 1.875s1.928-.844 1.928-1.875-.868-1.875-1.928-1.875-1.927.844-1.927 1.875" clip-rule="evenodd"/></svg>