<svg xmlns="http://www.w3.org/2000/svg" width="24" height="24" fill="none" viewBox="0 0 24 24"><g clip-path="url(#a)"><path fill="currentColor" fill-rule="evenodd" d="M3 4a1 1 0 0 0-1 1v14a1 1 0 0 0 1 1h9v-2H4V7h16v5h2V5a1 1 0 0 0-1-1zm10.97 5.686-.47 1.027-.46-1.027L12 9.224l1.04-.461.46-1.027.47 1.027 1.03.461zm2.53.53c-.725 0-1.13.715-.965 1.246l-1.775 1.766a1 1 0 0 0-.52 0l-1.275-1.265c.17-.531-.235-1.25-.965-1.25-.725 0-1.135.714-.965 1.25l-2.28 2.257c-.535-.164-1.255.238-1.255.957 0 .546.45.992 1 .992.725 0 1.13-.714.965-1.245l2.275-2.262c.15.045.37.045.52 0l1.275 1.265c-.17.531.235 1.25.965 1.25.725 0 1.135-.714.965-1.25l1.78-1.76c.535.163 1.255-.239 1.255-.958a1 1 0 0 0-1-.992m-8.75 1.489.25-.992 1-.248-1-.248-.25-.993-.25.992-1 .249 1 .248zM22.855 19q0 .256-.032.49l1.076.822a.237.237 0 0 1 .065.318l-1.028 1.73a.26.26 0 0 1-.316.114l-1.28-.5a3.7 3.7 0 0 1-.867.49l-.193 1.322a.247.247 0 0 1-.252.214h-2.056a.26.26 0 0 1-.257-.214l-.193-1.323a3.8 3.8 0 0 1-.867-.49l-1.28.5c-.118.037-.252 0-.316-.114l-1.028-1.729a.25.25 0 0 1 .064-.318l1.087-.823a3 3 0 0 1-.037-.49c0-.16.021-.332.048-.489l-1.087-.823c-.107-.073-.128-.208-.064-.317l1.023-1.73a.26.26 0 0 1 .316-.114l1.28.5c.262-.193.55-.365.867-.49l.192-1.323a.25.25 0 0 1 .252-.213h2.056c.129 0 .236.088.257.213l.193 1.323c.316.125.6.292.867.49l1.28-.5c.118-.037.252 0 .316.114l1.028 1.73a.25.25 0 0 1-.064.317l-1.087.823c.027.156.037.323.037.49m-5.782 0c0 1.031.867 1.875 1.927 1.875s1.928-.844 1.928-1.875-.868-1.875-1.928-1.875-1.927.844-1.927 1.875" clip-rule="evenodd"/></g><defs><clipPath id="a"><path fill="currentColor" d="M0 0h24v24H0z"/></clipPath></defs></svg>