<svg xmlns="http://www.w3.org/2000/svg" width="24" height="24" fill="none" viewBox="0 0 24 24"><path fill="#662D91" d="M1.025 11.26c2.133 4.9 7.544 5.721 14.002 1.569 2.978 2.756 3.72 6.025 1.235 9.315-1.31.551-2.75.856-4.262.856-6.075 0-11-4.925-11-11q.001-.372.025-.74m10.06-2.126c.963-4.013 3.652-6.314 7.879-5.649A10.98 10.98 0 0 1 23 12a11 11 0 0 1-6.141 9.87c3.305-4.707.604-9.675-5.774-12.736M12 1c2.358 0 4.542.742 6.333 2.005-6.012-.699-8.85 4.312-8.454 11.231-3.906 1.198-7.088.316-8.77-3.785C1.862 5.11 6.451 1 12 1"/></svg>