<svg xmlns="http://www.w3.org/2000/svg" width="24" height="24" fill="none" viewBox="0 0 24 24"><path fill="#000" d="M19.046 19.875c-.871 1.302-1.795 2.573-3.202 2.594-1.407.031-1.858-.83-3.454-.83-1.607 0-2.1.809-3.434.861-1.375.053-2.414-1.386-3.296-2.656-1.796-2.593-3.171-7.37-1.323-10.583.913-1.596 2.551-2.604 4.325-2.636 1.344-.02 2.625.914 3.455.914.819 0 2.372-1.124 4-.956.682.032 2.593.273 3.822 2.08-.095.062-2.279 1.343-2.258 4 .032 3.17 2.783 4.23 2.814 4.241-.031.074-.44 1.512-1.449 2.971M13.051 3.077c.767-.872 2.037-1.533 3.087-1.575.136 1.228-.357 2.467-1.092 3.349-.724.892-1.921 1.585-3.097 1.49-.158-1.207.43-2.467 1.102-3.264"/></svg>