<svg xmlns="http://www.w3.org/2000/svg" width="24" height="24" fill="none" viewBox="0 0 24 24"><path fill="#00B3E0" d="M12 22.5c5.799 0 10.5-4.701 10.5-10.5S17.799 1.5 12 1.5 1.5 6.201 1.5 12 6.201 22.5 12 22.5"/><path fill="#fff" d="M12 6.752c2.887 0 5.25 2.363 5.25 5.25s-2.363 5.25-5.25 5.25-5.25-2.362-5.25-5.25 2.362-5.25 5.25-5.25m1.286 6.273c.578-.734.498-1.784-.236-2.335-.71-.552-1.76-.42-2.363.315-.578.734-.498 1.784.236 2.336.736.552 1.787.42 2.363-.316m-2.808 3.413c.316.131.997.262 1.34.262l2.284-3.308c.734-1.103.552-2.598-.472-3.412-.918-.734-2.204-.71-3.123 0L7.33 12.42c.078.841.316 1.26.316 1.286l1.811-1.968c-.131.865.185 1.759.919 2.309.63.498 1.39.63 2.126.471z"/></svg>