<svg xmlns="http://www.w3.org/2000/svg" width="24" height="24" fill="none" viewBox="0 0 24 24"><path fill="#B7CA9D" fill-rule="evenodd" d="m5.22 14.357-1.626-.221-2.888.205 1.42 4.019z" clip-rule="evenodd"/><path fill="#4B612C" fill-rule="evenodd" d="M.706 9.767v3.65l1.46.168 2.848-1.874-2.847-2.108z" clip-rule="evenodd"/><path fill="#759C3E" fill-rule="evenodd" d="m2.167 14.605 3.053-.248v3.658l-3.053.175-1.178-1.906z" clip-rule="evenodd"/><path fill="#3C4929" fill-rule="evenodd" d="m3.633 9.061 1.587-.213-3.054-4.051-1.46 4.056z" clip-rule="evenodd"/><path fill="#759C3E" fill-rule="evenodd" d="m2.167 4.617 3.053.575v3.657l-3.053-.245zm0 4.996 3.053.162v3.66l-3.053.165z" clip-rule="evenodd"/><path fill="#3C4929" fill-rule="evenodd" d="m5.22 7.763 2.336-.437-3.2-3.495-2.19 3.588z" clip-rule="evenodd"/><path fill="#759C3E" fill-rule="evenodd" d="m4.355 3.748 3.2.719v2.861l-3.2-.431z" clip-rule="evenodd"/><path fill="#B7CA9D" fill-rule="evenodd" d="m7.556 15.866-2.33-.437-3.06.346 2.19 3.69z" clip-rule="evenodd"/><path fill="#759C3E" fill-rule="evenodd" d="m4.355 16.3 3.2-.432v2.872l-3.2.722-2.894-1.797z" clip-rule="evenodd"/><path fill="#3C4929" fill-rule="evenodd" d="m23.271 8.85-2.927.208-3.903-.522 3.18-4.802z" clip-rule="evenodd"/><path fill="#4B612C" fill-rule="evenodd" d="M2.167 15.776v-1.18l-1.461-.252v3.649l3.65 1.461V16.3z" clip-rule="evenodd"/><path fill="#B7CA9D" fill-rule="evenodd" d="m23.278 14.343-2.928-.207-3.909.524 3.18 4.703z" clip-rule="evenodd"/><path fill="#4B612C" fill-rule="evenodd" d="m19.622 3.734-3.18.716v4.086l3.18-.306 3.46-1.672zm0 5.592-3.18.208v4.086l3.18.202 3.46-2.15zm0 5.66-3.18-.31v4.086l3.18.719 3.2-2.92z" clip-rule="evenodd"/><path fill="#3C4929" fill-rule="evenodd" d="M8.644 2.556 5.447 6.628l3.253.477 3.297-.615z" clip-rule="evenodd"/><path fill="#3C4929" fill-rule="evenodd" d="m18.534 8.036-3.257.34-6.633-.889 3.353-6.78z" clip-rule="evenodd"/><path fill="#4B612C" fill-rule="evenodd" d="m11.997 14.706 6.278-3.101-6.278-3.125-3.353.383v5.462z" clip-rule="evenodd"/><path fill="#759C3E" fill-rule="evenodd" d="M11.997 8.48v6.225l6.537-.745V9.225z" clip-rule="evenodd"/><path fill="#B7CA9D" fill-rule="evenodd" d="m18.534 15.16-3.257-.344-6.633.892 3.353 6.8z" clip-rule="evenodd"/><path fill="#B7CA9D" fill-rule="evenodd" d="m11.977 16.692-3.253-.61-3.264.48 3.06 4.453z" clip-rule="evenodd"/><path fill="#4B612C" fill-rule="evenodd" d="M5.443 16.558v3.33l6.554 2.622 6.11-4.844-6.11-1.382-3.354-.577v1.618zM4.355 6.894v-3.15L.706 5.205v3.649l1.46-.25V7.418zm4.289-1.028V7.49l3.353-.575 6.035-1.381L11.997.689 5.443 3.31v3.324z" clip-rule="evenodd"/><path fill="#759C3E" fill-rule="evenodd" d="M11.997.685v6.23l6.537 1.124v-4.74zm11.297 8.171V5.204l-3.672-1.469v4.49zm0 4.562V9.772l-3.672-.42v4.487zm-11.297 2.867v6.223l6.537-2.616v-4.733zm11.297 1.703v-3.646l-3.672.63v4.486z" clip-rule="evenodd"/></svg>