<svg xmlns="http://www.w3.org/2000/svg" width="24" height="24" fill="none" viewBox="0 0 24 24"><g clip-path="url(#a)"><path fill="#0089D6" d="M4.13 15.074c1.147-.203 2.094-.37 2.105-.373l.02-.004-1.083-1.288c-.596-.708-1.083-1.29-1.083-1.294 0-.006 1.118-3.085 1.124-3.096.002-.004.763 1.31 1.845 3.184l1.855 3.215.014.025H2.044zm13.196-.312q-.787-.051-.91-.89c-.02-.148-.02-.152-.023-1.116l-.002-.933h.464l.001.902c.002.814.003.909.01.966.032.232.095.389.202.5.086.09.186.143.325.17.065.014.251.014.311 0a.7.7 0 0 0 .353-.19.93.93 0 0 0 .238-.457l.013-.06.002-.911.002-.91h.473v2.861h-.469v-.227c0-.154-.001-.226-.005-.225a.2.2 0 0 0-.027.041.95.95 0 0 1-.362.363 1 1 0 0 1-.596.116m5.317-.002a1.2 1.2 0 0 1-.54-.176c-.335-.207-.533-.55-.591-1.02a2.5 2.5 0 0 1-.006-.52c.038-.31.16-.613.332-.83a1.25 1.25 0 0 1 .712-.445c.109-.023.3-.034.415-.023.29.027.556.163.736.378.183.218.284.522.297.898.002.059.003.162.001.229l-.002.122-1.015.001-1.015.002v.045c0 .138.034.295.092.428.05.115.136.241.206.302.145.125.321.2.515.218.071.006.254 0 .336-.013a1.4 1.4 0 0 0 .678-.294c.005-.004.006.038.006.21v.216l-.048.03a1.7 1.7 0 0 1-.68.236 4 4 0 0 1-.43.006m.883-1.817c0-.23-.098-.487-.235-.619a.65.65 0 0 0-.359-.174 1 1 0 0 0-.278.008.73.73 0 0 0-.38.202 1.03 1.03 0 0 0-.299.6l-.003.024h1.554zM9.763 14.688c0-.003.345-.909.765-2.011l.764-2.005h.49l.02.052c.063.16 1.53 3.966 1.53 3.968s-.118.002-.262.002h-.26l-.212-.562-.211-.563h-1.702l-.008.02-.2.562-.194.543h-.261c-.207 0-.261 0-.26-.006m2.468-1.548-.316-.857c-.325-.88-.343-.933-.369-1.074q-.016-.099-.025-.008a1.4 1.4 0 0 1-.045.194c-.008.026-.154.428-.325.893-.17.465-.31.847-.31.85 0 .002.313.003.695.003zm1.258 1.481v-.073l.848-1.165.848-1.166-.768-.002-.768-.003v-.195l-.002-.194h2.22v.131l-.848 1.172-.848 1.174c0 .001.377.002.838.002h.838v.392h-2.358zm6.22.07c-.001-.002-.003-.648-.003-1.436v-1.432h.464v.295c0 .162.002.295.004.295a.3.3 0 0 0 .025-.059c.052-.149.143-.288.26-.398a.67.67 0 0 1 .518-.188c.1.002.152.01.213.03l.019.006v.48l-.055-.027a.6.6 0 0 0-.307-.061.58.58 0 0 0-.475.274c-.1.16-.173.368-.194.557-.004.035-.006.312-.007.86l-.001.807h-.229a4 4 0 0 1-.231-.003M0 14.681l1.134-1.968 1.134-1.965 1.32-1.109c.727-.61 1.324-1.11 1.326-1.11a.2.2 0 0 1-.02.053L3.457 11.66 2.05 14.682l-1.024.001c-.564 0-1.025 0-1.025-.002"/></g><defs><clipPath id="a"><path fill="#fff" d="M0 0h24v24H0z"/></clipPath></defs></svg>