<svg xmlns="http://www.w3.org/2000/svg" width="24" height="24" fill="none" viewBox="0 0 24 24"><path fill="#91B0F2" d="M1.091 17.458h1.636v3.819h3.818v1.636H1.091z"/><path fill="#0F46BD" d="M1.091 7.458v5l3.184 3.276 1.361-1.458 4.091 4.091-1.364 1.362 3.182 3.181h5a.91.91 0 0 0 .909-.909v-7.275L9.273 6.55H1.998a.91.91 0 0 0-.907.909"/><path fill="#062AA9" d="m4.5 13.692 8.409-12.595h10v10l-12.596 8.408z"/><path fill="#2560E0" d="M5.025 14.22a.91.91 0 0 1-.113-1.148l7.455-11.167a1.82 1.82 0 0 1 1.512-.808h8.12a.91.91 0 0 1 .91.909v8.118a1.82 1.82 0 0 1-.809 1.512l-11.167 7.455a.91.91 0 0 1-1.147-.113z"/><path fill="#0A44C2" d="m5.625 17.034 6.941-6.941 1.344 1.344-6.94 6.942z"/><path fill="#729AF2" d="m5.625 17.034 6.941-6.941 1.344 1.344-6.94 6.942z"/><path fill="#4C80F0" d="m8.079 17.268-1.344-1.344 5.832-5.831 1.344 1.344z"/><path fill="#0A44C2" d="M17.455 9.277a2.727 2.727 0 1 0 0-5.454 2.727 2.727 0 0 0 0 5.454"/><path fill="#91B0F2" d="M17.455 9.277a2.727 2.727 0 1 0 0-5.454 2.727 2.727 0 0 0 0 5.454"/><g opacity=".2"><path fill="url(#a)" d="m4.275 15.737 1.098-1.174 1.364 1.365-1.112 1.109 1.345 1.345 1.109-1.11 1.371 1.374-1.087 1.086 3.182 3.181h5a.91.91 0 0 0 .909-.909V14.73l4.646-3.097a1.82 1.82 0 0 0 .809-1.512V2.007a.91.91 0 0 0-.91-.91h-8.117a1.82 1.82 0 0 0-1.512.81L9.273 6.551H1.998a.91.91 0 0 0-.907.91v5z"/><path fill="url(#b)" d="M2.727 17.46H1.091v5.455h5.454v-1.637H2.727z"/></g><defs><linearGradient id="a" x1="12.007" x2="12.007" y1="1.103" y2="22.922" gradientUnits="userSpaceOnUse"><stop stop-color="#fff"/><stop offset="1" stop-color="#fff" stop-opacity="0"/></linearGradient><linearGradient id="b" x1="3.825" x2="3.825" y1="1.102" y2="22.92" gradientUnits="userSpaceOnUse"><stop stop-color="#fff"/><stop offset="1" stop-color="#fff" stop-opacity="0"/></linearGradient></defs></svg>