<svg xmlns="http://www.w3.org/2000/svg" width="24" height="24" fill="none" viewBox="0 0 24 24"><path fill="#2684FF" d="M20.472 13.41h-4.366a.57.57 0 0 0-.57.486 3.59 3.59 0 0 1-3.558 3.093l1.182 5.399a9.08 9.08 0 0 0 7.883-8.366.57.57 0 0 0-.57-.611m-7.556-.139 6.282-5.4a.57.57 0 0 0 0-.856l-6.282-5.408a.571.571 0 0 0-.94.434v10.796a.57.57 0 0 0 .94.434"/><path fill="url(#a)" d="M2.98 14.59a9.08 9.08 0 0 0 8.998 7.884v-5.486a3.586 3.586 0 0 1-3.586-3.577z"/><path fill="url(#b)" d="M2.895 13.323v.085h5.497a3.586 3.586 0 0 1 3.586-3.577l-1.18-5.4a9.08 9.08 0 0 0-7.903 8.892"/><defs><linearGradient id="a" x1="452.971" x2="452.971" y1="-877.434" y2="359.755" gradientUnits="userSpaceOnUse"><stop stop-color="#0052CC"/><stop offset="1" stop-color="#2684FF"/></linearGradient><linearGradient id="b" x1="457.169" x2="457.169" y1="11.284" y2="1248.47" gradientUnits="userSpaceOnUse"><stop stop-color="#0052CC"/><stop offset="1" stop-color="#2684FF"/></linearGradient></defs></svg>