<svg xmlns="http://www.w3.org/2000/svg" width="24" height="24" fill="none" viewBox="0 0 24 24"><path fill="#2684FF" d="M2.182 2.246a.66.66 0 0 0-.519.24.7.7 0 0 0-.154.566l2.856 17.905c.073.452.45.785.895.788h13.702a.68.68 0 0 0 .673-.583l2.856-18.107a.7.7 0 0 0-.154-.565.66.66 0 0 0-.518-.24zm12.027 12.94H9.835L8.651 8.799h6.617z"/><path fill="url(#a)" fill-rule="evenodd" d="M21.583 8.798H15.27l-1.06 6.389H9.836l-5.165 6.33a.9.9 0 0 0 .59.229h13.705a.68.68 0 0 0 .673-.584z" clip-rule="evenodd"/><defs><linearGradient id="a" x1="23.043" x2="15.432" y1="10.587" y2="21.052" gradientUnits="userSpaceOnUse"><stop offset=".18" stop-color="#0052CC"/><stop offset="1" stop-color="#2684FF"/></linearGradient></defs></svg>