<svg xmlns="http://www.w3.org/2000/svg" width="24" height="24" fill="none" viewBox="0 0 24 24"><g fill-rule="evenodd" clip-path="url(#a)" clip-rule="evenodd"><path fill="#ECB360" d="M22.5 12c0 5.8-4.7 10.5-10.5 10.5S1.5 17.8 1.5 12 6.201 1.5 12 1.5 22.5 6.201 22.5 12"/><path fill="#D76835" d="M19.7 10.95c0 5.22-4.074 9.45-9.1 9.45s-9.1-4.23-9.1-9.45S5.574 1.5 10.6 1.5s9.1 4.23 9.1 9.45"/><path fill="#D33A41" d="M20.4 9.9c0 4.64-3.604 8.4-8.05 8.4S4.3 14.54 4.3 9.9s3.604-8.4 8.05-8.4 8.05 3.76 8.05 8.4"/><path fill="#B6CB46" d="M19.7 10.6c0 4.253-3.29 7.7-7.35 7.7S5 14.853 5 10.6c0-4.252 3.29-7.7 7.35-7.7s7.35 3.448 7.35 7.7"/><path fill="#66AD4A" d="M19 11.3a7 7 0 1 1-14 0 7 7 0 0 1 14 0"/><path fill="#AED7DC" d="M16.2 9.9A5.6 5.6 0 1 1 5 9.9a5.6 5.6 0 0 1 11.2 0"/><path fill="#5BB1CF" d="M16.9 9.2a4.9 4.9 0 1 1-9.8 0 4.9 4.9 0 0 1 9.8 0"/><path fill="#25A8C3" d="M16.9 9.55c0 2.513-1.88 4.55-4.2 4.55s-4.2-2.037-4.2-4.55S10.38 5 12.7 5s4.2 2.037 4.2 4.55"/><path fill="#1B1A18" d="M12 14.1c-1.933 0-3.5-1.723-3.5-3.85S10.067 6.4 12 6.4s3.5 1.724 3.5 3.85-1.567 3.85-3.5 3.85"/><path fill="#FFFFFE" d="M13.91 9.14c-.333.558-.988.88-1.463.72s-.59-.742-.257-1.299.988-.88 1.463-.72.59.742.257 1.3"/></g><defs><clipPath id="a"><path fill="#fff" d="M1.5 1.5h21v21h-21z"/></clipPath></defs></svg>