<svg xmlns="http://www.w3.org/2000/svg" width="24" height="24" fill="none" viewBox="0 0 24 24"><path fill="#A2C2FA" d="M12.29 7.133h9.353a10.22 10.22 0 0 1-.54 10.303 10.45 10.45 0 0 1-4.013 3.586 10.63 10.63 0 0 1-5.293 1.138"/><path fill="#6199F6" d="m16.433 14.167-4.636 7.993a10.6 10.6 0 0 1-5.182-1.62 10.4 10.4 0 0 1-3.665-3.958 10.23 10.23 0 0 1 .478-10.339"/><path fill="#396BD7" d="M12.29 7.133h9.353a10.4 10.4 0 0 0-3.651-4 10.63 10.63 0 0 0-10.53-.514 10.45 10.45 0 0 0-4.034 3.624l4.718 7.924"/><path fill="#4687F4" stroke="#F1F1F1" stroke-width=".611" d="M12.29 16.066c2.378 0 4.307-1.9 4.307-4.244 0-2.345-1.929-4.245-4.308-4.245s-4.307 1.9-4.307 4.245c0 2.344 1.928 4.244 4.307 4.244Z"/></svg>