<svg xmlns="http://www.w3.org/2000/svg" width="24" height="24" fill="none" viewBox="0 0 24 24"><path fill="#fff" d="M21.628 12.069a9.63 9.63 0 1 1-19.261 0 9.63 9.63 0 0 1 19.261 0"/><path fill="#3C4655" d="M12 22.503a10.43 10.43 0 0 1-7.425-3.075A10.43 10.43 0 0 1 1.5 12.003c0-2.805 1.092-5.441 3.075-7.425A10.43 10.43 0 0 1 12 1.503c2.805 0 5.441 1.092 7.425 3.075a10.43 10.43 0 0 1 3.075 7.425 10.43 10.43 0 0 1-3.075 7.425A10.43 10.43 0 0 1 12 22.503M12 2.65a9.3 9.3 0 0 0-6.615 2.74 9.3 9.3 0 0 0-2.74 6.614c0 2.499.973 4.848 2.74 6.615A9.3 9.3 0 0 0 12 21.358a9.3 9.3 0 0 0 6.615-2.74 9.3 9.3 0 0 0 2.74-6.615 9.3 9.3 0 0 0-2.74-6.615A9.3 9.3 0 0 0 12 2.648"/><path fill="#3C4655" d="M8.602 9.31c0-.579.003-1.127-.002-1.676-.001-.125.077-.17.166-.214.39-.195.812-.292 1.231-.4 1.712-.437 3.39-.271 5.043.291.433.148.43.158.43.61v1.38c-.068.01-.098-.031-.135-.056-.973-.667-2.03-1.16-3.148-1.528a.63.63 0 0 0-.434.004 12.7 12.7 0 0 0-3.04 1.517c-.028.02-.056.037-.11.073"/><path fill="#6E717E" d="M10.373 5.292c0-.226.012-.452-.004-.676-.013-.184.076-.279.222-.35a3.2 3.2 0 0 1 1.016-.273c.58-.07 1.14.02 1.683.228.317.123.34.163.34.496 0 .433-.003.867.002 1.3 0 .116-.012.161-.152.133a7.4 7.4 0 0 0-2.978.006c-.124.026-.133-.02-.13-.118.004-.249 0-.498 0-.746"/><path fill="#3C4655" d="M19.776 14.44c-.306-.197-.6-.412-.91-.604-.622-.388-1.255-.759-1.963-.976-.215-.065-.433-.13-.662-.06-.226.07-.41.209-.587.358-.377.317-.707.683-1.06 1.024-.042.04-.068.11-.143.104-.02-.032-.005-.058.003-.085.352-1.167.91-2.22 1.736-3.122.086-.094.09-.14-.011-.227-1.189-1.018-2.503-1.814-4-2.296a.5.5 0 0 0-.333-.003c-1.485.526-2.839 1.279-4.032 2.313-.091.08-.079.119-.003.2.564.6.992 1.29 1.311 2.046.139.329.286.655.348 1.01.127.533.249 1.773.314 1.834-.859-.209-1.032-.303-1.573-.567-.71-.345-1.435-.563-2.24-.515-.483.03-.892.118-1.347.272-.08.028-.251.122-.219.19.011.032.02.034.033.064a8 8 0 0 0 1.855 2.61c1.621 1.513 3.542 2.298 5.76 2.304a7.9 7.9 0 0 0 4.078-1.12c1.787-1.05 3.036-2.551 3.723-4.513.04-.115.022-.176-.078-.24m-7.452-1.795c-.023 1.246-.187 1.838-.282 2.733a6 6 0 0 1-.037.249l-.06-.251c-.1-.814-.178-1.425-.272-2.24a16 16 0 0 1-.097-1.97c.004-.39.157-.778.242-1.166.057-.256.1-.488.182-.764.097.477.2.958.319 1.429.166.663.018 1.321.005 1.98"/><path fill="#777885" d="M9.47 14.154c.357.416.803.721 1.27.996.328.193.674.353 1.047.443a7 7 0 0 0 .445.084c.103.01.17.016.318.022a4.7 4.7 0 0 1-1.05.341c-1.038.131-1.947.033-2.876-.4-.57-.266-1.123-.556-1.755-.653a4.6 4.6 0 0 0-2.36.26c-.038.015-.066.075-.104.088-.148-.289-.236-.6-.337-.906-.025-.076-.025-.076.058-.164.833-.726 1.764-1.206 2.903-1.15.837.04 1.568.361 2.224.869z"/></svg>