<svg xmlns="http://www.w3.org/2000/svg" width="24" height="24" fill="none" viewBox="0 0 24 24"><path fill="#2EB99B" d="M12.471 8.852s2.462 2.49 1.737 6.661c2.462-.984 3.419-2.634 3.706-4.286 0 0 .846-3.128 2.144-4.43-2.578.405-2.838-.61-7.587 2.055m.493 7.586c.06-.319 1.007-3.564-.873-6.204C8.94 6.74 4.194 6.246 4.194 6.246c.925 1.8.956 3.474 1.974 6.893 1.219 3.539 5.745 3.785 6.08 3.785.305.482 1.002 1.128 2.598 1.463l.177-.846c-1.376-.282-1.88-.82-2.062-1.114M8.526 12.05c-.367-1.185-1.386-3.18-2.588-4.23 0 0 3.58.945 5.64 7.65-1.95-.589-2.778-2.515-3.06-3.426"/><path fill="#4E555D" d="M4.699 5.214c-2.005.945-2.806 3.255-2.806 6.769 0 3.463.8 5.787 2.806 6.797l-.223.88C1.396 18.585 0 16.182 0 12.014c0-4.169 1.396-6.605 4.476-7.665zm14.828-.862C22.604 5.406 24 7.812 24 12.012s-1.393 6.573-4.473 7.648l-.24-.863c2.005-1.01 2.806-3.336 2.806-6.796 0-3.528-.8-5.835-2.806-6.77z"/></svg>