<svg xmlns="http://www.w3.org/2000/svg" width="24" height="24" fill="none" viewBox="0 0 24 24"><g clip-path="url(#a)"><path fill="#607D8B" d="M12.114 22.396c5.4 0 9.777-4.44 9.777-9.915 0-5.476-4.377-9.915-9.777-9.915s-9.778 4.44-9.778 9.915c0 5.476 4.378 9.915 9.778 9.915"/><path fill="#FFE680" d="M10.803 21.537c5.4 0 9.778-4.44 9.778-9.915 0-5.476-4.378-9.915-9.778-9.915s-9.777 4.439-9.777 9.915 4.377 9.915 9.777 9.915"/><path fill="#607D8B" d="M16.754 9.528a.83.83 0 0 0-.34-.62q-.299-.22-.812-.22-.35 0-.59.1a.83.83 0 0 0-.369.266.64.64 0 0 0-.125.388q-.006.181.076.316a.8.8 0 0 0 .234.234q.148.096.342.168.195.07.415.119l.606.145q.441.098.81.263t.639.405.418.566q.15.327.155.748-.004.618-.317 1.073-.309.451-.895.701-.583.247-1.406.247-.817 0-1.422-.25a2.1 2.1 0 0 1-.942-.74q-.336-.495-.352-1.222h1.38q.023.34.194.566.174.224.464.34.293.111.662.111.361 0 .628-.105.27-.105.419-.293a.68.68 0 0 0 .148-.432.56.56 0 0 0-.135-.382 1 1 0 0 0-.389-.263 4 4 0 0 0-.622-.198l-.734-.184q-.854-.207-1.347-.649-.495-.441-.49-1.188a1.77 1.77 0 0 1 .325-1.07q.333-.458.912-.715a3.2 3.2 0 0 1 1.317-.257q.752 0 1.31.257.564.257.877.715t.322 1.06z"/><path fill="#fff" d="m16.754 9.528-.128.013.012.115h.116zm-1.742-.74.048.118h.001zm-.369.266-.102-.077-.001.001zm-.125.388.129.005v-.005zm.076.316-.11.067.002.002zm.234.234-.071.107.001.001zm.342.168-.045.12.002.001zm.415.119.03-.125h-.002zm.606.145-.03.124h.002zm.81.263-.052.117zm.639.405.085-.096zm.418.566-.117.053v.001zm.155.748h.128v-.001zm-.317 1.073-.105-.073zm-.895.701.05.119zm-2.828-.003-.05.119zm-.942-.74-.106.071v.001zm-.352-1.222v-.129h-.132l.003.132zm1.38 0 .127-.009-.008-.12h-.12zm.194.566-.103.077.001.002zm.464.34-.048.118.002.001zm1.29.006-.046-.12zm.419-.293.1.08zm.013-.814-.098.084h.001zm-.389-.263-.05.118zm-.622-.198-.031.125zm-.734-.184.031-.124zm-1.347-.649-.086.096zm-.49-1.188h.128zm.325-1.07-.104-.076zm3.54-.715-.054.117zm.876.715-.106.072zm.322 1.06v.128h.131l-.002-.13zm-1.238-.013a.96.96 0 0 0-.391-.71l-.152.207a.7.7 0 0 1 .287.529zm-.391-.71c-.229-.168-.53-.245-.89-.245v.257c.326 0 .567.07.738.195zm-.89-.245a1.7 1.7 0 0 0-.638.108l.098.238q.21-.088.54-.09zm-.636.108a.96.96 0 0 0-.424.309l.205.154a.7.7 0 0 1 .314-.225zm-.425.31a.77.77 0 0 0-.15.464h.257q0-.176.1-.312zm-.15.46a.7.7 0 0 0 .094.387l.22-.133a.43.43 0 0 1-.057-.245zm.096.39a.9.9 0 0 0 .27.271l.143-.214a.7.7 0 0 1-.196-.195zm.272.272q.162.105.367.18l.09-.24a1.7 1.7 0 0 1-.318-.156zm.37.181q.2.072.43.123l.055-.25a3 3 0 0 1-.4-.115zm.427.123.606.144.06-.25-.606-.144zm.608.145q.43.097.786.255l.104-.234a4.4 4.4 0 0 0-.834-.272zm.786.255q.352.158.605.384l.171-.192a2.6 2.6 0 0 0-.672-.426zm.605.384q.25.222.387.523l.234-.106a1.8 1.8 0 0 0-.45-.609zm.387.524q.139.297.143.695l.257-.002a1.9 1.9 0 0 0-.167-.8zm.143.693q-.004.584-.293 1.001l.211.146q.337-.491.34-1.146zm-.293 1.001q-.284.417-.84.656l.1.237c.41-.175.73-.423.951-.747zm-.84.656q-.553.236-1.356.237v.257q.843.001 1.456-.257zm-1.356.237q-.797-.002-1.373-.24l-.098.237q.634.26 1.471.26zm-1.373-.24a1.96 1.96 0 0 1-.885-.696l-.212.146q.364.524.998.787zm-.885-.695c-.207-.305-.32-.686-.33-1.152l-.257.006c.012.504.134.937.375 1.29zm-.458-1.02h1.38v-.258h-1.38zm1.251-.12c.017.245.088.46.22.634l.205-.154a.9.9 0 0 1-.169-.498zm.221.636q.199.253.518.38l.095-.24a.95.95 0 0 1-.41-.298zm.52.38q.319.12.708.12v-.256q-.35-.001-.616-.104zm.708.12q.38.002.676-.114l-.095-.239a1.6 1.6 0 0 1-.581.097zm.675-.114q.297-.113.472-.333l-.201-.159a.84.84 0 0 1-.364.253zm.472-.333a.8.8 0 0 0 .176-.51h-.257q0 .2-.12.351zm.176-.51a.7.7 0 0 0-.166-.467l-.194.169a.43.43 0 0 1 .103.297zm-.165-.466a1.15 1.15 0 0 0-.437-.298l-.1.236c.16.068.27.145.341.229zm-.436-.298a4 4 0 0 0-.643-.204l-.06.25q.361.086.602.19zm-.642-.204-.734-.184-.063.249.735.184zm-.735-.185q-.83-.203-1.291-.62l-.171.192c.349.312.819.536 1.401.678zm-1.291-.62c-.298-.266-.45-.625-.448-1.092h-.257c-.002.529.173.962.533 1.284zm-.448-1.093q-.002-.574.302-.994l-.209-.15q-.354.495-.35 1.146zm.301-.994q.31-.428.86-.672l-.104-.235q-.607.269-.964.756zm.86-.672a3.1 3.1 0 0 1 1.265-.246v-.257q-.76-.001-1.369.268zm1.265-.246q.728.001 1.257.245l.108-.234q-.592-.269-1.364-.268zm1.258.245q.533.245.823.67l.212-.145a2.2 2.2 0 0 0-.929-.759zm.823.67q.29.423.3.99l.257-.004a2 2 0 0 0-.345-1.13zm.428.86h-1.366v.256h1.366z"/><path fill="#607D8B" stroke="#fff" stroke-width=".257" d="m11.763 16.507-.044.886C-3.336 19.712-1.263-.49 11.132 3.643l-.299.601c-10.19-3.14-12.118 14.386.93 12.263Z"/><path fill="#607D8B" fill-rule="evenodd" stroke="#fff" stroke-width=".257" d="m5.331 7.281-.147.928 4.98 6.826 5.872-13.377-2.992.033-3.748 10.33z" clip-rule="evenodd"/></g><defs><clipPath id="a"><path fill="#fff" d="M1 1.524h22v20.938H1z"/></clipPath></defs></svg>