<svg xmlns="http://www.w3.org/2000/svg" width="24" height="24" fill="none" viewBox="0 0 24 24"><g clip-path="url(#a)"><path fill="#4DA9E1" d="M13.684 14.189a1.668 1.668 0 1 0-.277-3.324 1.668 1.668 0 0 0 .277 3.324m1.943-.024c-.36.398-.805.708-1.302.909l-.004.01c.377 1.45.967 2.836 1.751 4.112a6.4 6.4 0 0 1-2.203.697l-.109.014-.13.01-.259.02c-.16 0-.315.015-.482.005a6.6 6.6 0 0 1-1.93-.33 6.8 6.8 0 0 1-2.149-1.155c-.169-.126-.3-.255-.416-.355-.22-.211-.34-.338-.34-.338s.102.141.293.382c.1.116.216.264.369.415q.25.264.527.498a7 7 0 0 0 1.536.998 7.4 7.4 0 0 0 2.038.64c.18.035.374.046.561.07l.26.015.13.007.15.003a7.5 7.5 0 0 0 2.863-.54q.328.445.689.867l-.034.02-.287.178-.039.024-.01.007-.003.001c-.048.024.063-.03.05-.025l-.004.003-.021.01-.087.045-.184.093-.096.05-.05.024-.025.013-.006.003-.003.002.032-.013-.013.005-.213.094-.224.098-.029.013-.003.001.021-.007-.007.003-.014.006-.06.023-.12.047a8.8 8.8 0 0 1-3.437.58l-.153-.006-.172-.013-.345-.028c-.215-.034-.43-.049-.649-.097a9 9 0 0 1-2.496-.845 7 7 0 0 1-.549-.304c-.18-.101-.344-.216-.507-.326a9 9 0 0 1-1.544-1.346c-.196-.203-.344-.4-.474-.556-.127-.158-.214-.292-.28-.38l-.098-.135.084.145c.057.093.13.236.241.408.114.17.243.383.42.607q.286.387.613.742.387.421.824.793c.156.131.315.268.49.392q.256.196.54.375.582.377 1.213.667.655.3 1.348.5c.229.076.477.122.716.182l.341.063.17.031.19.027a9.8 9.8 0 0 0 3.919-.262l.124-.034.062-.017.085-.028.234-.075.22-.071.24-.093.193-.074.09-.035.023-.009.005-.002.059-.029.01-.005.042-.02.304-.148.379-.184q.386.371.799.714s1.312 1.352 2.035.796c.68-.522-.103-2.16-.103-2.16a15.18 15.18 0 0 0-5.62-7.412m-4.578-2.22-.008-.01a15.1 15.1 0 0 0-4.387-.617c.044-.808.242-1.6.582-2.333l.046-.1.06-.115.12-.23c.085-.136.155-.276.252-.412a6.6 6.6 0 0 1 1.302-1.463q.35-.296.74-.54a6.8 6.8 0 0 1 1.377-.67c.198-.076.377-.12.523-.164.295-.075.467-.11.467-.11s-.174.01-.48.045c-.151.024-.338.044-.547.093q-.356.073-.702.184a7 7 0 0 0-1.66.774 7.3 7.3 0 0 0-1.623 1.39c-.124.134-.237.292-.356.439l-.15.213-.076.106-.08.125a7.5 7.5 0 0 0-1.078 2.805l-.004.025q-.543.05-1.082.14v-.19l.002-.337v-.061c.006-.053-.007.07-.005.056v-.006l.002-.023.009-.098.018-.204.01-.108.004-.055.003-.028v-.01l-.005.034.002-.015.033-.23.036-.242.004-.03v-.005l-.004.023.001-.008.003-.015.012-.063.024-.127a8.8 8.8 0 0 1 1.329-3.222l.085-.127.103-.139.207-.278c.142-.164.268-.338.425-.499a9 9 0 0 1 2.04-1.669q.272-.167.548-.304c.181-.099.366-.178.545-.257a9.2 9.2 0 0 1 1.96-.597c.276-.059.52-.08.722-.108.202-.024.362-.027.47-.037l.167-.01-.167-.007c-.109-.001-.27-.014-.473-.011-.204.007-.454.003-.738.034q-.48.037-.953.127-.564.105-1.11.278c-.194.064-.394.126-.592.209a9.7 9.7 0 0 0-1.812.934q-.601.397-1.14.878c-.184.154-.354.34-.532.511l-.235.257-.116.127-.124.147A9.8 9.8 0 0 0 3.19 9.478l-.037.124-.018.06-.022.088-.06.237-.056.226-.049.253-.039.202-.018.096-.005.023-.001.006-.006.065-.002.011-.005.047-.035.335-.064.597q-.524.14-1.038.32s-1.835.429-1.73 1.335c.097.852 1.904 1.024 1.904 1.024 3.111.643 6.346.294 9.248-.998a3.54 3.54 0 0 1-.108-1.585m12.918-.985a10 10 0 0 0-.226-1.42c-.048-.237-.13-.475-.194-.713l-.113-.329-.057-.163-.07-.179a9.8 9.8 0 0 0-2.153-3.283l-.092-.092-.045-.045-.066-.061-.18-.166-.171-.158-.199-.163-.159-.131-.075-.062-.018-.015-.005-.004-.054-.037-.01-.006-.037-.027-.278-.192-.372-.257q.144-.573.243-1.16c.067-.39.512-1.812-.33-2.16-.794-.326-1.82 1.172-1.82 1.172a15.2 15.2 0 0 0-3.598 8.577 3.54 3.54 0 0 1 1.439.672l.011-.002a15.1 15.1 0 0 0 2.61-3.443 6.4 6.4 0 0 1 1.731 1.602l.066.088.072.108.145.216c.078.139.168.267.241.417.31.579.534 1.2.662 1.843q.093.45.121.909a7 7 0 0 1-.071 1.53c-.028.21-.075.388-.106.537-.076.295-.127.463-.127.463s.073-.158.19-.443c.05-.145.122-.318.18-.526q.105-.346.174-.703a7 7 0 0 0 .114-1.829 7.3 7.3 0 0 0-.445-2.09c-.057-.173-.143-.347-.215-.522l-.114-.234-.057-.117-.072-.13a7.5 7.5 0 0 0-1.919-2.264q.233-.518.425-1.05l.058.03.296.163.04.023.011.005.003.002-.047-.032.005.003.02.013.081.054.171.115.09.06.046.03.024.016.005.003.003.002-.027-.02.012.008.186.139.196.147.025.018.003.003-.017-.015.006.005.012.01.05.04.1.082A8.8 8.8 0 0 1 22.49 8.53l.07.136.073.156.146.315c.076.203.168.397.234.612.29.835.456 1.707.49 2.59q.018.319.006.627c0 .206-.02.406-.035.602a9 9 0 0 1-.413 2.006c-.08.27-.18.496-.251.686-.076.188-.15.33-.193.43l-.07.152.085-.144c.053-.095.141-.23.237-.41.09-.183.213-.4.323-.664q.195-.44.344-.898.176-.545.286-1.108c.037-.2.077-.406.1-.62q.045-.318.061-.654a10 10 0 0 0-.015-1.384"/></g><defs><clipPath id="a"><path fill="#fff" d="M0 0h24v24H0z"/></clipPath></defs></svg>