<svg xmlns="http://www.w3.org/2000/svg" width="24" height="24" fill="none" viewBox="0 0 24 24"><g clip-path="url(#a)"><path fill="#A179DC" d="M21.58 8.216q0-.526-.225-.924a1.77 1.77 0 0 0-.67-.652c-2.463-1.42-4.928-2.836-7.39-4.258-.664-.383-1.308-.369-1.966.02-.98.578-5.889 3.39-7.352 4.237-.602.349-.895.883-.895 1.576l-.001 8.568q0 .514.216.906.222.404.68.67c1.462.847 6.371 3.659 7.351 4.237.66.39 1.303.403 1.967.02 2.462-1.422 4.928-2.838 7.391-4.258q.456-.265.68-.67.216-.392.216-.906z"/><path fill="#280068" d="M12.362 12.473 3.3 17.69q.222.403.68.67c1.462.847 6.37 3.658 7.35 4.237.66.389 1.303.402 1.967.02 2.463-1.422 4.928-2.838 7.392-4.258a1.76 1.76 0 0 0 .679-.67z"/><path fill="#390091" d="M21.579 8.215q0-.526-.227-.924l-8.995 5.18 9.006 5.216q.217-.392.216-.906z"/><path fill="#fff" d="M17.695 10.515v.975h.976v-.975h.487v.975h.976v.488h-.976v.975h.976v.488h-.976v.975h-.488v-.975h-.975v.975h-.488v-.975h-.975v-.488h.976v-.975h-.976v-.488h.976v-.975zm.976 1.463h-.976v.975h.976z"/><path fill="#fff" d="M12.377 5.62a6.87 6.87 0 0 1 5.954 3.436l-.011-.02-2.994 1.723a3.42 3.42 0 0 0-2.91-1.686h-.04a3.424 3.424 0 1 0 2.985 5.103l-.015.025 2.989 1.731a6.87 6.87 0 0 1-5.882 3.441h-.076A6.874 6.874 0 0 1 5.5 12.498a6.877 6.877 0 0 1 6.877-6.877"/></g><defs><clipPath id="a"><path fill="#fff" d="M3 2h18.665v21H3z"/></clipPath></defs></svg>