<svg xmlns="http://www.w3.org/2000/svg" width="24" height="24" fill="none" viewBox="0 0 24 24"><g clip-path="url(#a)"><mask id="b" width="18" height="20" x="3" y="2" maskUnits="userSpaceOnUse" style="mask-type:luminance"><path fill="#fff" d="M20.206 2H3v19.72h17.206z"/></mask><g mask="url(#b)"><path fill="#23D96C" fill-rule="evenodd" d="M15.798 3.547a6 6 0 0 0-.464-.251 5 5 0 0 0-.483-.213c-.058-.02-.097-.039-.155-.058-.155-.058-.29-.116-.444-.155a8.3 8.3 0 0 0-2.572-.406c-4.543-.02-8.235 3.654-8.235 8.217 0 4.02 2.88 7.346 6.67 8.08v2.36c4.93-.736 9.298-4.66 9.627-9.802.193-3.094-1.353-6.245-3.944-7.772" clip-rule="evenodd"/><path fill="#173647" d="M9.67 21.642v-2.514A8.71 8.71 0 0 1 3 10.68C3 5.886 6.905 2 11.68 2c.928 0 1.837.135 2.707.425l.348.116.116.039c.058.02.096.039.154.058.155.058.31.135.503.232.174.077.329.174.483.27 2.707 1.586 4.37 4.892 4.157 8.198-.329 5.084-4.524 9.395-10.014 10.207zM11.7 2.889c-4.312 0-7.81 3.5-7.81 7.791 0 3.712 2.648 6.94 6.321 7.656l.367.077v2.204c4.795-.966 8.43-4.794 8.72-9.318.193-2.977-1.315-5.954-3.732-7.385-.135-.077-.29-.155-.425-.232-.174-.077-.31-.155-.445-.213-.058-.02-.096-.038-.135-.058l-.116-.038c-.097-.04-.213-.078-.31-.116a8 8 0 0 0-2.435-.368"/><path fill="#173647" fill-rule="evenodd" d="M10.037 6.504a.76.76 0 0 1 .676.251c.136.136.213.29.31.464.27.6.425 1.47.096 1.953-.618-.116-1.411-.696-1.682-1.295a1.5 1.5 0 0 1-.154-.56c0-.446.367-.774.754-.813M7.639 9.887c.174.136.348.232.522.31.6.251 1.547.29 2.069-.058-.135-.561-.812-1.199-1.411-1.45-.213-.078-.387-.136-.619-.136h-.135a.742.742 0 0 0-.426 1.334m2.572 1.45c-.33-.212-1.006-.135-1.392-.116-.232 0-.484.058-.696.155a1.4 1.4 0 0 0-.522.31c-.561.483-.194 1.391.599 1.333.213 0 .445-.058.619-.135.599-.27 1.314-.986 1.392-1.547m1.101.85c-.599.136-1.314.87-1.565 1.49a1.5 1.5 0 0 0-.136.56c-.038.735.967 1.14 1.392.56a2.4 2.4 0 0 0 .29-.521c.27-.56.368-1.566.02-2.088m1.083-3.034c.6-.136 1.295-.735 1.566-1.334.077-.174.135-.387.135-.56.02-.465-.348-.794-.754-.832a.83.83 0 0 0-.676.27c-.136.174-.213.348-.29.522-.27.6-.367 1.47.02 1.934m1.779 5.123c0-.174-.058-.387-.136-.56-.25-.6-.889-1.257-1.508-1.373-.348.483-.348 1.392-.096 1.99.077.175.174.349.29.484.502.503 1.508.116 1.45-.541m1.778-2.649c-.174-.135-.348-.212-.522-.29a1.8 1.8 0 0 0-.696-.154c-.406 0-1.005.019-1.353.232.135.56.793 1.179 1.392 1.43.213.077.387.135.619.135.792.04 1.16-.927.56-1.353" clip-rule="evenodd"/></g></g><defs><clipPath id="a"><path fill="#fff" d="M3 2h17.647v20H3z"/></clipPath></defs></svg>