<svg width="32" height="32" viewBox="0 0 32 32" fill="none" xmlns="http://www.w3.org/2000/svg">
<g clip-path="url(#clip0_234_17)">
<path d="M11.246 12.6991C12.5393 12.6991 13.5901 13.3906 14.129 14.5916L14.1695 14.686L16.3385 13.9472L16.2947 13.8359C15.4561 11.7849 13.5194 10.5131 11.246 10.5131C9.64614 10.5131 8.34607 11.0258 7.27165 12.0817C6.20398 13.1309 5.66508 14.4499 5.66508 16.0017C5.66508 17.5434 6.20734 18.8556 7.27165 19.9014C8.34607 20.9573 9.64614 21.4701 11.246 21.4701C13.5194 21.4701 15.4527 20.1949 16.2947 18.1472L16.3385 18.0359L14.1661 17.2971L14.129 17.3949C13.644 18.579 12.5663 19.2841 11.246 19.2841C10.3467 19.2841 9.58551 18.9703 8.986 18.3496C8.37638 17.7222 8.06988 16.9294 8.06988 16.0017C8.06988 15.0672 8.36964 14.2913 8.986 13.6335C9.58888 13.0128 10.3467 12.6991 11.246 12.6991Z" fill="#1B1E2E"/>
<path d="M20.6631 31.3071L20.0164 29.1717C25.8499 27.3973 29.7703 22.1043 29.7703 16.0017C29.7703 14.3184 29.4706 12.6721 28.8778 11.1136L30.9593 10.3208C31.6497 12.1357 32 14.0451 32 16.0051C31.9966 23.0927 27.443 29.2426 20.6631 31.3071Z" fill="url(#paint0_linear_234_17)"/>
<path d="M29.1675 11.967C27.3858 6.14442 22.0945 2.23458 15.9983 2.23458C15.1698 2.23458 14.3412 2.30879 13.5329 2.45385L13.1388 0.257726C14.0752 0.0890528 15.0384 0.00134277 15.9983 0.00134277C23.078 0.00134277 29.2247 4.5454 31.2961 11.3092L29.1675 11.967Z" fill="#69D3A7"/>
<path d="M1.02389 21.6421C0.343543 19.8407 0 17.9415 0 16.0017C0 7.73673 6.19387 0.891968 14.4086 0.0823364L14.6275 2.30208C7.55794 3.00038 2.22629 8.89045 2.22629 16.0017C2.22629 17.6716 2.52268 19.3077 3.10536 20.8561L1.02389 21.6421Z" fill="url(#paint1_linear_234_17)"/>
<path d="M24.8294 10.7155L21.7409 18.5554L18.6288 10.7155H16.0825L20.4475 21.4161L17.2681 29.1413L19.4944 29.5866L27.2342 10.7155H24.8294Z" fill="#1B1E2E"/>
<path d="M17.6689 28.1698L17.2007 29.3067C17.0929 29.5664 16.8471 29.7452 16.5709 29.7553C16.3789 29.7621 16.1903 29.7688 15.9949 29.7688C9.88191 29.7688 4.43911 25.6701 2.75845 19.8002L0.616356 20.4142C2.56983 27.232 8.89169 31.9953 15.9916 31.9987H15.9949C16.2172 31.9987 16.4395 31.9953 16.6618 31.9852C17.8036 31.938 18.8241 31.2194 19.262 30.1568L19.8952 28.6151L17.6689 28.1698Z" fill="url(#paint2_linear_234_17)"/>
</g>
<defs>
<linearGradient id="paint0_linear_234_17" x1="33.2257" y1="16.103" x2="18.9275" y2="25.3457" gradientUnits="userSpaceOnUse">
<stop offset="0.081" stop-color="#69D3A7"/>
<stop offset="1" stop-color="#69D3A7" stop-opacity="0"/>
</linearGradient>
<linearGradient id="paint1_linear_234_17" x1="10.6729" y1="0.203646" x2="1.67518" y2="19.2562" gradientUnits="userSpaceOnUse">
<stop stop-color="#69D3A7"/>
<stop offset="0.823" stop-color="#2AB586"/>
<stop offset="1" stop-color="#1CAE7F"/>
</linearGradient>
<linearGradient id="paint2_linear_234_17" x1="-0.0226337" y1="23.3271" x2="23.5156" y2="30.7025" gradientUnits="userSpaceOnUse">
<stop offset="0.077" stop-color="#1CAE7F"/>
<stop offset="0.164" stop-color="#1CA379"/>
<stop offset="0.316" stop-color="#1C8568"/>
<stop offset="0.516" stop-color="#1B554D"/>
<stop offset="0.719" stop-color="#1B1E2E"/>
</linearGradient>
<clipPath id="clip0_234_17">
<rect width="32" height="32" fill="white"/>
</clipPath>
</defs>
</svg>
