<svg xmlns="http://www.w3.org/2000/svg" width="24" height="24" fill="none" viewBox="0 0 24 24"><path fill="#00ABE4" d="m5.691 3.831-.104.095L9.229 7.52a5.37 5.37 0 0 0-.804 2.885 4.985 4.985 0 0 0 5.192 5.136 5.4 5.4 0 0 0 2.914-.804l3.66 3.642a10.3 10.3 0 0 1-8.285 4.039A10.253 10.253 0 0 1 1.5 12.136a10.06 10.06 0 0 1 4.19-8.305m2.034-1.39a10.6 10.6 0 0 1 4.436-.946 10.234 10.234 0 0 1 10.338 10.282 10.4 10.4 0 0 1-.945 4.446l-3.264-3.264a5.4 5.4 0 0 0 .804-2.837 4.994 4.994 0 0 0-5.202-5.193 5.3 5.3 0 0 0-2.838.804zm6.224 10.641a3.01 3.01 0 0 1-3.112-3.074 3.01 3.01 0 0 1 3.112-3.121 3.036 3.036 0 0 1 3.102 3.121 2.99 2.99 0 0 1-3.102 3.103z"/></svg>