<svg xmlns="http://www.w3.org/2000/svg" width="24" height="24" fill="none" viewBox="0 0 24 24"><path fill="url(#a)" d="M20.749 17.128a7 7 0 0 1-.861.385 8.4 8.4 0 0 1-2.945.533c-3.88 0-7.26-2.666-7.26-6.094a2.57 2.57 0 0 1 1.346-2.24c-3.511.148-4.414 3.806-4.414 5.947 0 6.062 5.587 6.677 6.792 6.677.649 0 1.625-.188 2.215-.377l.107-.033a10.5 10.5 0 0 0 5.463-4.33.33.33 0 0 0-.099-.452.35.35 0 0 0-.344-.016"/><path fill="url(#b)" d="M20.749 17.128a7 7 0 0 1-.861.385 8.4 8.4 0 0 1-2.945.533c-3.88 0-7.26-2.666-7.26-6.094a2.57 2.57 0 0 1 1.346-2.24c-3.511.148-4.414 3.806-4.414 5.947 0 6.062 5.587 6.677 6.792 6.677.649 0 1.625-.188 2.215-.377l.107-.033a10.5 10.5 0 0 0 5.463-4.33.33.33 0 0 0-.099-.452.35.35 0 0 0-.344-.016" opacity=".35"/><path fill="url(#c)" d="M10.47 21.303a6.5 6.5 0 0 1-1.861-1.747 6.622 6.622 0 0 1 2.42-9.844c.254-.123.689-.336 1.271-.328a2.67 2.67 0 0 1 2.108 1.066c.328.443.517.977.525 1.534 0-.016 2.01-6.53-6.562-6.53-3.601 0-6.562 3.421-6.562 6.416a10.7 10.7 0 0 0 .992 4.593 10.506 10.506 0 0 0 12.83 5.504 6.22 6.22 0 0 1-5.16-.664"/><path fill="url(#d)" d="M10.47 21.303a6.5 6.5 0 0 1-1.861-1.747 6.622 6.622 0 0 1 2.42-9.844c.254-.123.689-.336 1.271-.328a2.67 2.67 0 0 1 2.108 1.066c.328.443.517.977.525 1.534 0-.016 2.01-6.53-6.562-6.53-3.601 0-6.562 3.421-6.562 6.416a10.7 10.7 0 0 0 .992 4.593 10.506 10.506 0 0 0 12.83 5.504 6.22 6.22 0 0 1-5.16-.664" opacity=".41"/><path fill="url(#e)" d="M14.293 13.715c-.065.082-.27.205-.27.467 0 .214.14.419.385.591 1.181.82 3.404.714 3.413.714.877 0 1.73-.238 2.485-.681a5.03 5.03 0 0 0 2.494-4.34c.024-1.837-.657-3.06-.927-3.6C20.133 3.46 16.377 1.5 12.3 1.5 6.558 1.5 1.882 6.11 1.8 11.853c.041-2.994 3.019-5.414 6.563-5.414.287 0 1.927.025 3.445.828 1.337.706 2.042 1.55 2.526 2.396.509.877.6 1.977.6 2.42 0 .434-.222 1.09-.64 1.632"/><path fill="url(#f)" d="M14.293 13.715c-.065.082-.27.205-.27.467 0 .214.14.419.385.591 1.181.82 3.404.714 3.413.714.877 0 1.73-.238 2.485-.681a5.03 5.03 0 0 0 2.494-4.34c.024-1.837-.657-3.06-.927-3.6C20.133 3.46 16.377 1.5 12.3 1.5 6.558 1.5 1.882 6.11 1.8 11.853c.041-2.994 3.019-5.414 6.563-5.414.287 0 1.927.025 3.445.828 1.337.706 2.042 1.55 2.526 2.396.509.877.6 1.977.6 2.42 0 .434-.222 1.09-.64 1.632"/><defs><radialGradient id="b" cx="0" cy="0" r="1" gradientTransform="matrix(7.82312 0 0 7.43114 14.695 16.138)" gradientUnits="userSpaceOnUse"><stop offset=".72" stop-opacity="0"/><stop offset=".95" stop-opacity=".53"/><stop offset="1"/></radialGradient><radialGradient id="d" cx="0" cy="0" r="1" gradientTransform="rotate(-81.383 14.161 4.498)scale(11.7627 9.50498)" gradientUnits="userSpaceOnUse"><stop offset=".76" stop-opacity="0"/><stop offset=".95" stop-opacity=".5"/><stop offset="1"/></radialGradient><radialGradient id="e" cx="0" cy="0" r="1" gradientTransform="matrix(-.66415 16.60172 -35.36361 -1.41472 3.921 5.388)" gradientUnits="userSpaceOnUse"><stop stop-color="#35C1F1"/><stop offset=".11" stop-color="#34C1ED"/><stop offset=".23" stop-color="#2FC2DF"/><stop offset=".31" stop-color="#2BC3D2"/><stop offset=".67" stop-color="#36C752"/></radialGradient><radialGradient id="f" cx="0" cy="0" r="1" gradientTransform="matrix(2.2357 7.66369 -6.23331 1.81843 21.492 7.85)" gradientUnits="userSpaceOnUse"><stop stop-color="#66EB6E"/><stop offset="1" stop-color="#66EB6E" stop-opacity="0"/></radialGradient><linearGradient id="a" x1="6.616" x2="21.24" y1="16.022" y2="16.022" gradientUnits="userSpaceOnUse"><stop stop-color="#0C59A4"/><stop offset="1" stop-color="#114A8B"/></linearGradient><linearGradient id="c" x1="14.332" x2="5.196" y1="9.683" y2="19.634" gradientUnits="userSpaceOnUse"><stop stop-color="#1B9DE2"/><stop offset=".16" stop-color="#1595DF"/><stop offset=".67" stop-color="#0680D7"/><stop offset="1" stop-color="#0078D4"/></linearGradient></defs></svg>