<svg xmlns="http://www.w3.org/2000/svg" width="24" height="24" fill="none" viewBox="0 0 24 24"><path fill="#2B2E3A" d="M12 22.5c5.799 0 10.5-4.701 10.5-10.5S17.799 1.5 12 1.5 1.5 6.201 1.5 12 6.201 22.5 12 22.5"/><path fill="#9FEAF9" d="M9.745 7.387c-2.134-.389-3.82.018-4.492 1.182-.502.869-.359 2.02.347 3.252a.218.218 0 1 0 .38-.217c-.636-1.11-.76-2.104-.349-2.816.559-.967 2.063-1.33 4.035-.971a.219.219 0 0 0 .079-.43M6.71 13.318c.862.948 1.983 1.837 3.26 2.575 3.095 1.786 6.39 2.264 8.013 1.157a.218.218 0 1 0-.246-.361c-1.453.99-4.583.537-7.547-1.175-1.24-.716-2.325-1.577-3.157-2.49a.22.22 0 0 0-.38.136.22.22 0 0 0 .057.158"/><path fill="#9FEAF9" d="M17.459 13.047c1.396-1.65 1.884-3.31 1.213-4.472-.493-.855-1.537-1.306-2.924-1.325a.219.219 0 0 0-.005.438c1.247.016 2.146.405 2.55 1.106.558.965.123 2.445-1.168 3.97a.219.219 0 1 0 .334.283m-3.59-5.593c-1.263.27-2.607.8-3.898 1.545-3.195 1.845-5.279 4.564-4.99 6.536a.219.219 0 1 0 .434-.063c-.257-1.751 1.718-4.33 4.774-6.094 1.253-.723 2.554-1.235 3.771-1.496a.218.218 0 1 0-.091-.428"/><path fill="#9FEAF9" d="M8.697 16.906c.73 2.039 1.925 3.295 3.269 3.295.98 0 1.886-.668 2.593-1.844a.22.22 0 0 0-.24-.328.22.22 0 0 0-.135.102c-.635 1.057-1.415 1.632-2.218 1.632-1.116 0-2.182-1.12-2.857-3.005a.218.218 0 0 0-.406-.022.22.22 0 0 0-.006.17m6.671-.4c.378-1.207.581-2.601.581-4.053 0-3.624-1.268-6.749-3.075-7.55a.219.219 0 0 0-.177.4c1.611.715 2.815 3.68 2.815 7.15 0 1.409-.197 2.758-.561 3.923a.22.22 0 0 0 .228.286.22.22 0 0 0 .19-.155m4.12-.213a1.047 1.047 0 1 0-2.094 0 1.047 1.047 0 0 0 2.094 0m-.437 0a.61.61 0 1 1-1.221 0 .61.61 0 0 1 1.22 0M5.474 17.34a1.047 1.047 0 1 0 0-2.094 1.047 1.047 0 0 0 0 2.094m0-.438a.61.61 0 1 1 0-1.219.61.61 0 0 1 0 1.219"/><path fill="#9FEAF9" d="M11.963 5.967a1.047 1.047 0 1 0 0-2.094 1.047 1.047 0 0 0 0 2.094m0-.437a.61.61 0 1 1 0-1.22.61.61 0 0 1 0 1.22m.16 7.66a.757.757 0 1 1-.32-1.48.757.757 0 0 1 .32 1.48"/></svg>