<svg xmlns="http://www.w3.org/2000/svg" width="24" height="24" fill="none" viewBox="0 0 24 24"><path fill="url(#a)" d="M22.043 8.048c-.457-1.102-1.383-2.291-2.11-2.667.592 1.162.934 2.328 1.065 3.198l.002.018c-1.188-2.97-3.204-4.168-4.85-6.776a11 11 0 0 1-.248-.404 3 3 0 0 1-.116-.219 2 2 0 0 1-.163-.434.03.03 0 0 0-.018-.01.04.04 0 0 0-.02 0l-.004.004-.008.003.004-.005c-2.64 1.55-3.537 4.418-3.619 5.853a5.26 5.26 0 0 0-2.896 1.118 3 3 0 0 0-.272-.206c-.24-.84-.25-1.73-.03-2.576-1.08.493-1.92 1.272-2.53 1.96h-.005c-.417-.529-.387-2.274-.364-2.639-.005-.022-.31.16-.35.187a7.7 7.7 0 0 0-1.027.882 9 9 0 0 0-.982 1.18A8.9 8.9 0 0 0 2.09 9.708l-.014.07c-.02.092-.091.556-.104.657v.024q-.139.72-.173 1.454v.053c0 5.82 4.707 10.537 10.514 10.537 5.2 0 9.518-3.784 10.363-8.754q.025-.202.048-.406c.21-1.808-.023-3.707-.682-5.295M9.925 16.296c.049.023.095.05.145.072l.007.004zM21 8.601v-.01.012z"/><path fill="url(#b)" d="M22.043 8.046c-.457-1.102-1.382-2.292-2.11-2.667.592 1.162.934 2.328 1.065 3.198v.021c.993 2.696.452 5.437-.327 7.112-1.205 2.59-4.121 5.247-8.687 5.118-4.93-.14-9.275-3.81-10.087-8.614-.148-.758 0-1.143.075-1.758-.09.474-.125.611-.17 1.454v.054c0 5.82 4.707 10.537 10.513 10.537 5.2 0 9.518-3.784 10.364-8.754q.025-.202.047-.407c.208-1.807-.024-3.706-.683-5.294"/><path fill="url(#c)" d="M22.043 8.046c-.457-1.102-1.382-2.292-2.11-2.667.592 1.162.934 2.328 1.065 3.198v.021c.993 2.696.452 5.437-.327 7.112-1.205 2.59-4.121 5.247-8.687 5.118-4.93-.14-9.275-3.81-10.087-8.614-.148-.758 0-1.143.075-1.758-.09.474-.125.611-.17 1.454v.054c0 5.82 4.707 10.537 10.513 10.537 5.2 0 9.518-3.784 10.364-8.754q.025-.202.047-.407c.208-1.807-.024-3.706-.683-5.294"/><path fill="url(#d)" d="m16.933 9.284.066.048c-.264-.47-.593-.9-.977-1.277-3.268-3.275-.856-7.101-.45-7.296l.005-.006c-2.642 1.55-3.537 4.418-3.62 5.853.123-.008.245-.018.37-.018 1.97 0 3.687 1.086 4.606 2.696"/><path fill="url(#e)" d="M12.334 9.94c-.018.264-.942 1.167-1.265 1.167-2.99 0-3.475 1.812-3.475 1.812.131 1.527 1.193 2.784 2.477 3.45q.088.044.175.084.154.067.309.127c.44.155.901.244 1.368.263 5.24.246 6.256-6.28 2.474-8.175.968-.169 1.973.222 2.534.617-.918-1.61-2.635-2.696-4.606-2.696-.125 0-.247.01-.37.019a5.26 5.26 0 0 0-2.893 1.119c.161.136.342.318.723.694.715.707 2.545 1.434 2.549 1.52"/><path fill="url(#f)" d="M12.334 9.94c-.018.264-.942 1.167-1.265 1.167-2.99 0-3.475 1.812-3.475 1.812.131 1.527 1.193 2.784 2.477 3.45q.088.044.175.084.154.067.309.127c.44.155.901.244 1.368.263 5.24.246 6.256-6.28 2.474-8.175.968-.169 1.973.222 2.534.617-.918-1.61-2.635-2.696-4.606-2.696-.125 0-.247.01-.37.019a5.26 5.26 0 0 0-2.893 1.119c.161.136.342.318.723.694.715.707 2.545 1.434 2.549 1.52"/><path fill="url(#g)" d="M8.273 7.375c.086.056.156.102.219.145-.24-.84-.25-1.73-.03-2.576-1.08.494-1.92 1.272-2.53 1.96.05 0 1.574-.028 2.341.471"/><path fill="url(#h)" d="M1.897 12.214c.812 4.803 5.157 8.474 10.09 8.614 4.566.13 7.481-2.527 8.688-5.118.778-1.675 1.32-4.416.327-7.112v-.02l.002.018c.373 2.44-.866 4.805-2.802 6.404l-.006.014c-3.773 3.079-7.384 1.857-8.115 1.359l-.152-.076c-2.2-1.053-3.11-3.063-2.914-4.786-1.858 0-2.491-1.57-2.491-1.57s1.668-1.192 3.866-.155c2.035.96 3.947.155 3.947.155-.004-.086-1.833-.815-2.547-1.52-.381-.376-.562-.558-.723-.694a3 3 0 0 0-.272-.206 5 5 0 0 0-.219-.144c-.767-.5-2.292-.472-2.342-.471H6.23c-.417-.53-.387-2.275-.364-2.64-.005-.022-.31.16-.35.188a7.7 7.7 0 0 0-1.027.882 9 9 0 0 0-.982 1.18 8.9 8.9 0 0 0-1.411 3.192c-.008.02-.382 1.657-.198 2.506"/><path fill="url(#i)" d="M16.023 8.058c.383.377.712.807.976 1.277q.082.062.158.131c2.383 2.2 1.136 5.313 1.041 5.537 1.936-1.6 3.175-3.964 2.802-6.405-1.188-2.972-3.204-4.17-4.85-6.777a11 11 0 0 1-.249-.404 3 3 0 0 1-.115-.219 2 2 0 0 1-.163-.434.03.03 0 0 0-.018-.01.04.04 0 0 0-.02 0l-.004.004-.008.003c-.407.195-2.818 4.022.45 7.297"/><path fill="url(#j)" d="M17.156 9.464a2 2 0 0 0-.158-.131l-.065-.049c-.562-.395-1.567-.786-2.535-.617 3.782 1.895 2.766 8.421-2.474 8.175a4.7 4.7 0 0 1-1.368-.264 6 6 0 0 1-.309-.126 3 3 0 0 1-.175-.085l.007.005c.731.5 4.342 1.72 8.115-1.36L18.2 15c.093-.22 1.34-3.333-1.044-5.535"/><path fill="url(#k)" d="M7.594 12.92s.485-1.813 3.475-1.813c.323 0 1.247-.904 1.264-1.167.017-.262-1.912.805-3.947-.155C6.188 8.75 4.52 9.94 4.52 9.94s.634 1.57 2.49 1.57c-.194 1.724.715 3.732 2.915 4.786.049.023.095.05.146.072-1.284-.664-2.344-1.922-2.477-3.449"/><path fill="url(#l)" d="M22.043 8.048c-.457-1.102-1.383-2.291-2.11-2.667.592 1.162.934 2.328 1.065 3.198l.002.018c-1.188-2.97-3.204-4.168-4.85-6.776a11 11 0 0 1-.248-.404 3 3 0 0 1-.116-.219 2 2 0 0 1-.163-.434.03.03 0 0 0-.018-.01.04.04 0 0 0-.02 0l-.004.004-.008.003.004-.005c-2.64 1.55-3.537 4.418-3.619 5.853.123-.008.245-.019.37-.019 1.97 0 3.687 1.087 4.606 2.696-.561-.394-1.567-.785-2.535-.617 3.782 1.895 2.766 8.421-2.474 8.175a4.7 4.7 0 0 1-1.368-.263 6 6 0 0 1-.309-.127 3 3 0 0 1-.175-.085l.007.005-.152-.077q.072.038.145.072c-1.286-.665-2.346-1.923-2.479-3.45 0 0 .485-1.812 3.475-1.812.323 0 1.247-.904 1.264-1.167-.004-.085-1.833-.815-2.547-1.52-.38-.375-.562-.557-.722-.693a3 3 0 0 0-.273-.206 4.9 4.9 0 0 1-.029-2.576c-1.08.493-1.92 1.272-2.53 1.96h-.006c-.416-.529-.387-2.274-.363-2.639-.005-.022-.311.16-.35.187a7.7 7.7 0 0 0-1.028.882 9 9 0 0 0-.982 1.18 8.9 8.9 0 0 0-1.41 3.193l-.015.07c-.02.092-.109.563-.12.664 0 .008 0-.008 0 0q-.124.73-.158 1.47v.054c0 5.82 4.707 10.537 10.514 10.537 5.2 0 9.518-3.784 10.363-8.754q.025-.202.048-.406c.21-1.808-.023-3.707-.682-5.295"/><defs><radialGradient id="b" cx="0" cy="0" r="1" gradientTransform="matrix(21.9185 0 0 21.9666 19.845 3.165)" gradientUnits="userSpaceOnUse"><stop offset=".13" stop-color="#FFBD4F"/><stop offset=".19" stop-color="#FFAC31"/><stop offset=".25" stop-color="#FF9D17"/><stop offset=".28" stop-color="#FF980E"/><stop offset=".4" stop-color="#FF563B"/><stop offset=".47" stop-color="#FF3750"/><stop offset=".71" stop-color="#F5156C"/><stop offset=".78" stop-color="#EB0878"/><stop offset=".86" stop-color="#E50080"/></radialGradient><radialGradient id="c" cx="0" cy="0" r="1" gradientTransform="matrix(21.9185 0 0 21.9666 11.836 12.145)" gradientUnits="userSpaceOnUse"><stop offset=".3" stop-color="#960E18"/><stop offset=".35" stop-color="#B11927" stop-opacity=".74"/><stop offset=".43" stop-color="#DB293D" stop-opacity=".34"/><stop offset=".5" stop-color="#F5334B" stop-opacity=".09"/><stop offset=".53" stop-color="#FF3750" stop-opacity="0"/></radialGradient><radialGradient id="d" cx="0" cy="0" r="1" gradientTransform="matrix(15.879 0 0 15.9138 14.478 -1.82)" gradientUnits="userSpaceOnUse"><stop offset=".13" stop-color="#FFF44F"/><stop offset=".25" stop-color="#FFDC3E"/><stop offset=".51" stop-color="#FF9D12"/><stop offset=".53" stop-color="#FF980E"/></radialGradient><radialGradient id="e" cx="0" cy="0" r="1" gradientTransform="matrix(10.4363 0 0 10.4591 9.412 17.886)" gradientUnits="userSpaceOnUse"><stop offset=".35" stop-color="#3A8EE6"/><stop offset=".47" stop-color="#5C79F0"/><stop offset=".67" stop-color="#9059FF"/><stop offset="1" stop-color="#C139E6"/></radialGradient><radialGradient id="f" cx="0" cy="0" r="1" gradientTransform="matrix(5.3673 -1.33096 1.5666 6.31755 12.15 9.537)" gradientUnits="userSpaceOnUse"><stop offset=".21" stop-color="#9059FF" stop-opacity="0"/><stop offset=".28" stop-color="#8C4FF3" stop-opacity=".06"/><stop offset=".75" stop-color="#7716A8" stop-opacity=".45"/><stop offset=".97" stop-color="#6E008B" stop-opacity=".6"/></radialGradient><radialGradient id="g" cx="0" cy="0" r="1" gradientTransform="matrix(7.5081 0 0 7.5246 11.258 2.268)" gradientUnits="userSpaceOnUse"><stop stop-color="#FFE226"/><stop offset=".12" stop-color="#FFDB27"/><stop offset=".3" stop-color="#FFC82A"/><stop offset=".5" stop-color="#FFA930"/><stop offset=".73" stop-color="#FF7E37"/><stop offset=".79" stop-color="#FF7139"/></radialGradient><radialGradient id="h" cx="0" cy="0" r="1" gradientTransform="matrix(32.0332 0 0 32.1034 17.46 -2.506)" gradientUnits="userSpaceOnUse"><stop offset=".11" stop-color="#FFF44F"/><stop offset=".46" stop-color="#FF980E"/><stop offset=".62" stop-color="#FF5634"/><stop offset=".72" stop-color="#FF3647"/><stop offset=".9" stop-color="#E31587"/></radialGradient><radialGradient id="i" cx="0" cy="0" r="1" gradientTransform="rotate(84.245 6.627 8.444)scale(23.3997 15.3407)" gradientUnits="userSpaceOnUse"><stop stop-color="#FFF44F"/><stop offset=".06" stop-color="#FFE847"/><stop offset=".17" stop-color="#FFC830"/><stop offset=".3" stop-color="#FF980E"/><stop offset=".36" stop-color="#FF8B16"/><stop offset=".45" stop-color="#FF672A"/><stop offset=".57" stop-color="#FF3647"/><stop offset=".74" stop-color="#E31587"/></radialGradient><radialGradient id="j" cx="0" cy="0" r="1" gradientTransform="matrix(19.9983 0 0 20.0423 11.382 5.055)" gradientUnits="userSpaceOnUse"><stop offset=".14" stop-color="#FFF44F"/><stop offset=".48" stop-color="#FF980E"/><stop offset=".59" stop-color="#FF5634"/><stop offset=".66" stop-color="#FF3647"/><stop offset=".9" stop-color="#E31587"/></radialGradient><radialGradient id="k" cx="0" cy="0" r="1" gradientTransform="matrix(21.8883 0 0 21.9363 16.66 6.228)" gradientUnits="userSpaceOnUse"><stop offset=".09" stop-color="#FFF44F"/><stop offset=".23" stop-color="#FFE141"/><stop offset=".51" stop-color="#FFAF1E"/><stop offset=".63" stop-color="#FF980E"/></radialGradient><linearGradient id="a" x1="20.651" x2="3.16" y1="4.123" y2="20.961" gradientUnits="userSpaceOnUse"><stop offset=".05" stop-color="#FFF44F"/><stop offset=".11" stop-color="#FFE847"/><stop offset=".22" stop-color="#FFC830"/><stop offset=".37" stop-color="#FF980E"/><stop offset=".4" stop-color="#FF8B16"/><stop offset=".46" stop-color="#FF672A"/><stop offset=".53" stop-color="#FF3647"/><stop offset=".7" stop-color="#E31587"/></linearGradient><linearGradient id="l" x1="20.441" x2="5.558" y1="4.032" y2="18.884" gradientUnits="userSpaceOnUse"><stop offset=".17" stop-color="#FFF44F" stop-opacity=".8"/><stop offset=".27" stop-color="#FFF44F" stop-opacity=".63"/><stop offset=".49" stop-color="#FFF44F" stop-opacity=".22"/><stop offset=".6" stop-color="#FFF44F" stop-opacity="0"/></linearGradient></defs></svg>