<svg xmlns="http://www.w3.org/2000/svg" width="24" height="24" fill="none" viewBox="0 0 24 24"><g clip-path="url(#a)"><path fill="#171717" d="M20.9 22.301H4.1c-1.16 0-2.1-.909-2.1-2.03v-7.106c0-1.121.94-2.03 2.1-2.03s2.1.909 2.1 2.03v5.076h9.63L2.615 5.466a1.983 1.983 0 0 1 0-2.87 2.15 2.15 0 0 1 2.97 0l16.8 16.24c.6.58.78 1.454.455 2.212s-1.09 1.253-1.94 1.253m0-10.15a2.13 2.13 0 0 1-1.485-.595l-6.3-6.09a1.983 1.983 0 0 1 0-2.87 2.15 2.15 0 0 1 2.97 0l6.3 6.09c.82.792.82 2.078 0 2.87a2.13 2.13 0 0 1-1.485.595"/></g><defs><clipPath id="a"><path fill="#fff" d="M2 2h21v20.345H2z"/></clipPath></defs></svg>