<svg xmlns="http://www.w3.org/2000/svg" width="24" height="24" fill="none" viewBox="0 0 24 24"><mask id="a" width="23" height="23" x="0" y="1" maskUnits="userSpaceOnUse" style="mask-type:luminance"><path fill="#fff" d="M.975 1.014h22v22h-22z"/></mask><g mask="url(#a)"><path fill="#F03C2E" d="m22.56 11.035-9.605-9.606a1.42 1.42 0 0 0-2.004 0L8.957 3.424l2.53 2.53a1.683 1.683 0 0 1 2.13 2.146l2.44 2.438a1.683 1.683 0 0 1 2.107 2.237 1.685 1.685 0 0 1-1.558 1.04 1.69 1.69 0 0 1-1.654-1.354 1.7 1.7 0 0 1 .095-.973l-2.274-2.274V15.2a1.685 1.685 0 1 1-1.387-.05V9.11a1.687 1.687 0 0 1-.915-2.21L7.977 4.404 1.39 10.99a1.42 1.42 0 0 0 0 2.004l9.606 9.606a1.42 1.42 0 0 0 2.004 0l9.56-9.561a1.42 1.42 0 0 0 0-2.005"/></g></svg>