<svg xmlns="http://www.w3.org/2000/svg" width="24" height="24" fill="none" viewBox="0 0 24 24"><path fill="#2088FF" d="M5.878 1.503a4.38 4.38 0 0 0-4.374 4.373 4.38 4.38 0 0 0 3.5 4.285v6.21a3.513 3.513 0 0 0 3.497 3.5h.032a3.07 3.07 0 0 0 3.03 2.623 3.07 3.07 0 0 0 3.06-3.06 3.07 3.07 0 0 0-3.06-3.062 3.07 3.07 0 0 0-3.03 2.624h-.032a2.633 2.633 0 0 1-2.623-2.624v-4.41a3.04 3.04 0 0 0 2.17.912h.485a3.07 3.07 0 0 0 3.03 2.623 3.07 3.07 0 0 0 3.029-2.623h1.813a3.07 3.07 0 0 0 3.03 2.623 3.07 3.07 0 0 0 3.06-3.061 3.07 3.07 0 0 0-3.06-3.061 3.07 3.07 0 0 0-3.03 2.624h-1.813a3.07 3.07 0 0 0-3.03-2.624 3.07 3.07 0 0 0-3.029 2.624H8.05a2.17 2.17 0 0 1-2.13-1.75 4.38 4.38 0 0 0 4.332-4.373 4.38 4.38 0 0 0-4.373-4.373m0 .875a3.49 3.49 0 0 1 3.498 3.498 3.49 3.49 0 0 1-3.498 3.499A3.49 3.49 0 0 1 2.38 5.876a3.49 3.49 0 0 1 3.499-3.498m-.856 1.237c-.456.002-.894.368-.894.867v2.795c0 .663.773 1.093 1.336.744L7.7 6.634c.534-.331.537-1.148.005-1.483L5.47 3.742a.8.8 0 0 0-.447-.127m-.019.867L7.24 5.891 5.003 7.277zm6.56 5.768a2.18 2.18 0 0 1 2.186 2.186 2.18 2.18 0 0 1-2.186 2.187 2.18 2.18 0 0 1-2.187-2.187 2.18 2.18 0 0 1 2.187-2.186m7.871 0a2.18 2.18 0 0 1 2.187 2.186 2.18 2.18 0 0 1-2.186 2.187 2.18 2.18 0 0 1-2.187-2.187 2.18 2.18 0 0 1 2.186-2.186m-6.98 1.14a.44.44 0 0 0-.31.127l-1.033 1.033-.343-.342a.438.438 0 0 0-.617.62l.651.649a.437.437 0 0 0 .618 0l1.342-1.34a.438.438 0 0 0-.308-.748m7.871 0a.44.44 0 0 0-.31.127l-1.032 1.033-.343-.342a.438.438 0 0 0-.618.62l.652.649a.437.437 0 0 0 .618 0l1.342-1.34a.436.436 0 0 0-.309-.748m-8.762 5.857a2.18 2.18 0 0 1 2.186 2.186 2.18 2.18 0 0 1-2.186 2.187 2.18 2.18 0 0 1-2.187-2.187 2.18 2.18 0 0 1 2.187-2.186m-.875 1.53a.66.66 0 0 0-.656.656c0 .36.297.656.656.656a.66.66 0 0 0 .656-.656.66.66 0 0 0-.656-.656m1.75 0a.66.66 0 0 0-.657.656c0 .36.297.656.656.656a.66.66 0 0 0 .656-.656.66.66 0 0 0-.656-.656m-1.75.437c.123 0 .219.096.219.22a.215.215 0 0 1-.219.218.216.216 0 0 1-.219-.219c0-.123.096-.219.22-.219m1.75 0c.122 0 .218.096.218.22a.215.215 0 0 1-.219.218.215.215 0 0 1-.218-.219c0-.123.095-.219.218-.219"/><path fill="#79B8FF" d="M19.435 16.38a3.07 3.07 0 0 0-3.03 2.63l-.044-.002-.443.015a.437.437 0 0 0 .029.874l.443-.015h.015a3.07 3.07 0 0 0 3.03 2.621 3.07 3.07 0 0 0 3.06-3.06 3.07 3.07 0 0 0-3.06-3.062m0 .875a2.18 2.18 0 0 1 2.186 2.187 2.18 2.18 0 0 1-2.186 2.186 2.18 2.18 0 0 1-2.187-2.186 2.18 2.18 0 0 1 2.187-2.187"/></svg>