<svg xmlns="http://www.w3.org/2000/svg" width="24" height="24" fill="none" viewBox="0 0 24 24"><path fill="#FC6D26" d="m22.463 13.357-1.178-3.531-2.328-7.005a.4.4 0 0 0-.383-.27.4.4 0 0 0-.38.27l-2.328 7H8.133L5.805 2.82a.4.4 0 0 0-.381-.268.4.4 0 0 0-.381.27l-2.325 7-1.176 3.536a.77.77 0 0 0 .29.874l10.17 7.218 10.167-7.218a.77.77 0 0 0 .293-.874"/><path fill="#E24329" d="m12 21.444 3.867-11.625H8.134z"/><path fill="#FC6D26" d="M12 21.444 8.132 9.819H2.72z"/><path fill="#FCA326" d="m2.715 9.824-1.176 3.53a.77.77 0 0 0 .29.875L12 21.45z"/><path fill="#E24329" d="M2.718 9.821h5.418l-2.331-7a.4.4 0 0 0-.381-.27.4.4 0 0 0-.383.27z"/><path fill="#FC6D26" d="m12 21.444 3.867-11.625h5.421z"/><path fill="#FCA326" d="m21.285 9.824 1.174 3.53a.77.77 0 0 1-.289.875L12 21.444l9.282-11.62z"/><path fill="#E24329" d="M21.285 9.821H15.87l2.327-7a.4.4 0 0 1 .382-.27c.172 0 .325.11.381.27l2.328 7z"/></svg>