<svg xmlns="http://www.w3.org/2000/svg" width="24" height="24" fill="none" viewBox="0 0 24 24"><g clip-path="url(#a)"><path fill="#000" d="M16.638 15.984a3.1 3.1 0 0 1-.666 1.078 3 3 0 0 1-1.037.696 3.5 3.5 0 0 1-1.333.248q-1.135-.001-1.94-.563a2.6 2.6 0 0 1-1.056-1.537h1.096q.158.357.407.574.246.216.526.326.277.11.537.148c.174.026.315.037.433.037q.604.001 1.03-.215.428-.216.688-.555.266-.338.382-.77.117-.432.118-.863v-.667q-.346.468-.907.797a2.44 2.44 0 0 1-1.251.325 3.06 3.06 0 0 1-2.274-.973 3.3 3.3 0 0 1-.667-1.06 3.5 3.5 0 0 1-.24-1.296c0-.463.081-.892.24-1.3q.24-.61.667-1.059a3.2 3.2 0 0 1 1.003-.714q.58-.267 1.27-.267.705 0 1.282.345.578.347.91.825v-1.01h1.012v6.054q.004.77-.23 1.396m-.985-5.177a2.5 2.5 0 0 0-.47-.759 2.1 2.1 0 0 0-.685-.511 1.9 1.9 0 0 0-.833-.185 2 2 0 0 0-1.515.696 2.55 2.55 0 0 0-.618 1.685q0 .483.166.91c.111.29.26.538.452.753q.283.32.678.507a1.97 1.97 0 0 0 1.67 0q.39-.185.685-.507a2.5 2.5 0 0 0 .47-.752q.173-.434.174-.911a2.5 2.5 0 0 0-.174-.926m6.418-2.166q.583.267 1.01.722.428.456.67 1.066.248.612.249 1.3.001.69-.248 1.289-.246.599-.67 1.048-.428.451-1.011.707c-.39.17-.811.26-1.263.26a3 3 0 0 1-1.26-.26 3.2 3.2 0 0 1-1.01-.707 3.3 3.3 0 0 1-.678-1.048q-.246-.6-.248-1.289 0-.688.248-1.3.244-.61.678-1.066a3.3 3.3 0 0 1 1.01-.722 3 3 0 0 1 1.26-.267c.452.004.87.093 1.263.267m-.434 5.247q.391-.183.686-.5a2.3 2.3 0 0 0 .462-.744q.167-.434.167-.911 0-.495-.167-.93a2.4 2.4 0 0 0-.462-.759 2.3 2.3 0 0 0-.686-.51 1.9 1.9 0 0 0-.833-.193q-.444 0-.833.192-.39.189-.678.511a2.4 2.4 0 0 0-.455.76 2.6 2.6 0 0 0-.167.929q0 .483.167.91.166.435.455.745.29.317.678.5.39.184.833.185c.3 0 .574-.063.833-.185M1.052 16.473c-.17 0-.341-.04-.497-.126A1.05 1.05 0 0 1 0 15.421v-4.195a1.047 1.047 0 1 1 2.096 0v2.236l3.355-2.236L.471 7.9a1.054 1.054 0 0 1-.293-1.455 1.054 1.054 0 0 1 1.455-.293l6.3 4.2a1.05 1.05 0 0 1 0 1.748l-6.296 4.199a1.1 1.1 0 0 1-.585.174"/></g><defs><clipPath id="a"><path fill="#fff" d="M0 0h24v24H0z"/></clipPath></defs></svg>