<svg xmlns="http://www.w3.org/2000/svg" width="24" height="24" fill="none" viewBox="0 0 24 24"><path fill="#4285F4" d="M22.494 12.197c0-.881-.071-1.524-.226-2.19h-10.06v3.976h5.905c-.119.988-.761 2.476-2.19 3.476l-.02.133 3.18 2.464.22.022c2.025-1.87 3.191-4.62 3.191-7.881"/><path fill="#34A853" d="M12.209 22.673c2.893 0 5.321-.952 7.095-2.595l-3.381-2.62c-.905.632-2.12 1.072-3.714 1.072-2.834 0-5.238-1.869-6.096-4.452l-.125.01-3.308 2.56-.043.12a10.71 10.71 0 0 0 9.572 5.905"/><path fill="#FBBC05" d="M6.113 14.078a6.6 6.6 0 0 1-.357-2.12c0-.737.131-1.452.346-2.118l-.006-.142-3.35-2.601-.109.052a10.7 10.7 0 0 0-1.143 4.81c0 1.726.417 3.357 1.143 4.81z"/><path fill="#EB4335" d="M12.209 5.387c2.012 0 3.369.87 4.143 1.596l3.023-2.953c-1.857-1.726-4.273-2.785-7.166-2.785-4.19 0-7.81 2.404-9.572 5.904l3.465 2.69c.869-2.583 3.273-4.452 6.107-4.452"/></svg>