<svg xmlns="http://www.w3.org/2000/svg" width="24" height="24" fill="none" viewBox="0 0 24 24"><g clip-path="url(#a)"><path fill="#EA4335" d="m15.961 7.668 2.086-2.086.14-.878c-3.802-3.457-9.846-3.065-13.273.818a9.64 9.64 0 0 0-2.034 3.81l.747-.104 4.172-.688.322-.33c1.856-2.038 4.994-2.312 7.137-.578z"/><path fill="#4285F4" d="M21.02 9.27a9.4 9.4 0 0 0-2.834-4.567L15.258 7.63a5.2 5.2 0 0 1 1.91 4.128v.52a2.606 2.606 0 0 1 2.607 2.606c0 1.44-1.167 2.577-2.606 2.577h-5.22l-.512.556v3.126l.513.49h5.219c3.743.03 6.802-2.953 6.83-6.696a6.78 6.78 0 0 0-2.98-5.667"/><path fill="#34A853" d="M6.738 21.636h5.212v-4.172H6.738a2.6 2.6 0 0 1-1.069-.234l-.74.226-2.1 2.087-.183.71a6.76 6.76 0 0 0 4.092 1.383"/><path fill="#FBBC05" d="M6.738 8.1a6.778 6.778 0 0 0-4.092 12.15l3.023-3.023a2.606 2.606 0 1 1 3.448-3.447l3.023-3.024A6.77 6.77 0 0 0 6.738 8.1"/></g><defs><clipPath id="a"><path fill="#fff" d="M0 0h24v24H0z"/></clipPath></defs></svg>