<svg xmlns="http://www.w3.org/2000/svg" width="24" height="24" fill="none" viewBox="0 0 24 24"><path fill="#69B40F" d="M22.004 14.76c-1.27.01-2.473.02-2.808-.01-.678-.06-1.132-.505-1.184-1.161a6 6 0 0 1-.002-1.126c.062-.638.594-1.247 1.186-1.275.213-.012.781-.01 1.81-.007l2.994.007V9.94s-2.385-.003-3.102-.006a54 54 0 0 0-1.754.006c-.675.025-1.24.267-1.68.715-.416.423-.665 1.097-.701 1.779a9 9 0 0 0 0 1.134c.069.733.305 1.308.7 1.711a2.48 2.48 0 0 0 1.682.716c.503.006 4.855 0 4.855 0v-1.247s-1.322.006-1.996.012M8.487 10.008v1.246h2.954v4.72h1.247v-4.72h2.955v-1.246zm-1.295 2.356a2.4 2.4 0 0 0-.702-1.712c-.477-.486-1.204-.689-1.68-.714a50 50 0 0 0-2.428 0c-.54.023-.933.184-1.13.332q-.004.002-.004-.003V8H0v7.996h1.246s-.025-3.273.003-3.63c.05-.633.528-1.13 1.139-1.184.49-.042 1.958-.03 2.419 0 .633.044 1.1.541 1.137 1.21.012.246-.001 3.604-.001 3.604h1.248s.004-3.345 0-3.633"/></svg>