<svg xmlns="http://www.w3.org/2000/svg" width="24" height="24" fill="none" viewBox="0 0 24 24"><g clip-path="url(#a)"><g clip-path="url(#b)"><path fill="#1EBBEE" d="M24 12.337c0-1.897-.49-3.68-1.35-5.229 3.666-8.298-3.93-7.082-4.352-7a19.3 19.3 0 0 0-4.471 1.462 11 11 0 0 0-.612-.018C8.09 1.552 3.8 5.126 2.703 9.918c2.7-3.03 4.59-4.253 5.723-4.742q-.27.24-.532.49l-.17.164q-.173.165-.341.333-.1.1-.197.2-.15.15-.295.303l-.204.217a27 27 0 0 0-1.15 1.31 32 32 0 0 0-.41.504l-.2.254-.183.24-.206.272q-.072.096-.14.192a33 33 0 0 0-1.44 2.131l-.014.023q-.129.208-.255.418l-.009.015q-.316.525-.613 1.063c-.971 1.76-1.444 2.99-1.464 3.063-3.068 10.966 6.505 6.335 7.841 5.644a10.74 10.74 0 0 0 4.771 1.11c4.69 0 8.68-2.993 10.165-7.174h-5.667c-.839 1.417-2.453 2.377-4.308 2.377-2.717 0-4.92-2.06-4.92-4.599h15.426q.089-.683.089-1.389M21.985 1.724c.93.627 1.674 1.611.395 4.926a10.82 10.82 0 0 0-5.267-4.371c.998-.482 3.47-1.502 4.872-.555M2.248 21.99c-.756-.776-.89-2.666.78-6.109a10.8 10.8 0 0 0 4.695 5.74c-1.08.595-3.949 1.934-5.475.369m6.214-11.213c.086-2.468 2.234-4.445 4.874-4.445s4.787 1.977 4.873 4.445z"/></g></g><defs><clipPath id="a"><path fill="#fff" d="M0 0h24v24H0z"/></clipPath><clipPath id="b"><path fill="#fff" d="M0 0h24v23.626H0z"/></clipPath></defs></svg>