<svg xmlns="http://www.w3.org/2000/svg" width="24" height="24" fill="none" viewBox="0 0 24 24"><path fill="#000" d="M.112 17.717h1.984V9.268H.112zM1.1 8.16c.622 0 1.108-.478 1.108-1.076C2.208 6.478 1.722 6 1.1 6 .486 6 0 6.478 0 7.084 0 7.682.486 8.16 1.1 8.16m7.604-2.136c-3.355 0-5.46 2.287-5.46 5.946s2.104 5.938 5.46 5.938c3.348 0 5.452-2.28 5.452-5.938s-2.104-5.946-5.452-5.946m0 1.753c2.048 0 3.356 1.626 3.356 4.193 0 2.558-1.308 4.184-3.356 4.184-2.056 0-3.355-1.626-3.355-4.184 0-2.567 1.299-4.193 3.355-4.193m6.29 6.704c.087 2.12 1.825 3.427 4.47 3.427 2.782 0 4.536-1.37 4.536-3.555 0-1.713-.988-2.678-3.324-3.212l-1.323-.303c-1.41-.335-1.992-.78-1.992-1.546 0-.957.876-1.594 2.175-1.594 1.316 0 2.216.645 2.312 1.721h1.96c-.047-2.024-1.721-3.395-4.256-3.395-2.502 0-4.28 1.379-4.28 3.42 0 1.641 1.004 2.661 3.125 3.148l1.49.35c1.45.343 2.04.821 2.04 1.65 0 .957-.964 1.642-2.35 1.642-1.404 0-2.464-.693-2.591-1.753z"/></svg>