<svg xmlns="http://www.w3.org/2000/svg" width="24" height="24" fill="none" viewBox="0 0 24 24"><path fill="#F7DF1E" d="M1.5 1.505h21v21h-21z"/><path fill="#000" d="m7.022 19.056 1.607-.972c.31.55.592 1.015 1.268 1.015.649 0 1.058-.254 1.058-1.24v-6.71h1.973v6.737c0 2.044-1.198 2.974-2.946 2.974-1.579 0-2.495-.817-2.96-1.804M14 18.845l1.607-.93c.423.69.973 1.197 1.945 1.197.818 0 1.34-.409 1.34-.972 0-.677-.536-.917-1.439-1.311l-.493-.212c-1.424-.606-2.368-1.367-2.368-2.974 0-1.48 1.128-2.608 2.89-2.608 1.254 0 2.157.437 2.805 1.579l-1.537.987c-.338-.607-.704-.846-1.268-.846-.578 0-.945.366-.945.846 0 .592.367.831 1.213 1.198l.493.211c1.677.72 2.622 1.452 2.622 3.101 0 1.777-1.396 2.75-3.27 2.75-1.833 0-3.017-.875-3.595-2.017"/></svg>