<svg xmlns="http://www.w3.org/2000/svg" width="24" height="24" fill="none" viewBox="0 0 24 24"><path fill="#E76F00" d="M12.034 6.803C16.564 3.287 14.24 1 14.24 1c.346 3.635-3.743 4.494-4.838 6.991-.748 1.705.512 3.197 2.632 5.078-.188-.416-.477-.821-.77-1.23-.998-1.399-2.037-2.855.771-5.036"/><path fill="#E76F00" d="M12.757 13.841s1.363-1.1.284-2.321c-3.658-4.145 4-6.026 4-6.026-4.675 2.253-3.977 3.59-2.802 5.214 1.258 1.742-1.482 3.133-1.482 3.133"/><path fill="#5382A1" d="M16.769 17.12c4.197-2.145 2.257-4.206.902-3.929-.332.068-.48.127-.48.127s.123-.19.359-.272c2.68-.926 4.74 2.733-.865 4.182 0 0 .065-.057.084-.108m-8.734-2.716c-2.626-.345 1.44-1.295 1.44-1.295s-1.579-.105-3.52.818c-2.297 1.093 5.68 1.59 9.808.522.43-.289 1.023-.538 1.023-.538s-1.69.296-3.373.436c-2.058.17-4.269.203-5.378.057m.999 2.047c-1.464-.149-.505-.847-.505-.847-3.79 1.237 2.108 2.64 7.403 1.117-.562-.195-.92-.552-.92-.552-2.588.49-4.084.474-5.978.282m.639 2.218c-1.464-.166-.609-.654-.609-.654-3.44.945 2.092 2.897 6.472 1.052-.717-.275-1.231-.591-1.231-.591-1.954.363-2.86.392-4.632.193"/><path fill="#5382A1" d="M18.833 19.797s.632.513-.697.91c-2.528.752-10.521.98-12.742.03-.798-.342.699-.816 1.17-.915.49-.105.771-.085.771-.085-.888-.615-5.738 1.207-2.463 1.729 8.929 1.424 16.277-.641 13.96-1.669"/><path fill="#5382A1" d="M20.25 20.916c-.147 1.874-6.334 2.269-10.362 2.015-2.629-.166-3.155-.58-3.163-.586 2.515.408 6.757.482 10.195-.154 3.048-.565 3.33-1.275 3.33-1.275"/></svg>