<svg xmlns="http://www.w3.org/2000/svg" width="24" height="24" fill="none" viewBox="0 0 24 24"><path fill="#D33833" d="M19.064 9.745c0 3.997-3.17 7.241-7.081 7.241S4.9 13.742 4.9 9.745c0-3.998 3.17-7.242 7.082-7.242s7.081 3.244 7.081 7.242"/><path fill="#EF3D3A" d="M5.193 11.538s-.514-7.55 6.447-7.766l-.485-.811L7.38 4.229 6.3 5.468l-.942 1.804-.536 2.102.16 1.405"/><path fill="#231F20" d="M7.134 4.805a7.1 7.1 0 0 0-2.01 4.968c0 1.942.771 3.695 2.01 4.969a6.75 6.75 0 0 0 4.849 2.056 6.75 6.75 0 0 0 4.848-2.056 7.1 7.1 0 0 0 2.01-4.969c0-1.941-.77-3.695-2.01-4.968-1.245-1.268-2.952-2.056-4.848-2.056-1.89 0-3.604.782-4.849 2.056m-.314 10.24a7.52 7.52 0 0 1-2.135-5.272A7.54 7.54 0 0 1 6.82 4.497a7.2 7.2 0 0 1 5.163-2.188c2.016 0 3.843.84 5.162 2.188a7.52 7.52 0 0 1 2.136 5.276 7.52 7.52 0 0 1-2.136 5.271 7.186 7.186 0 0 1-10.325 0"/><path fill="#F0D6B7" d="m14.964 9.785-1.08.16-1.456.165-.942.023-.92-.028-.702-.217-.622-.674-.486-1.376-.108-.297-.646-.217-.376-.623-.269-.89.297-.783.703-.246.565.269.268.594.326-.052.108-.137-.108-.622-.029-.783.16-1.079-.006-.617.492-.788.862-.622 1.508-.646 1.673.246 1.456 1.05.674 1.08.434.782.109 1.942-.326 1.673-.594 1.485-.56.794"/><path fill="#335061" d="m14.05 14.45-3.855.16v.646l.326 2.267-.16.188-2.695-.92-.189-.325-.268-3.05-.634-1.827-.137-.434 2.158-1.484.674-.269.594.731.514.457.594.188.269.08.325 1.405.246.297.622-.217-.434.84 2.341 1.108z"/><path fill="#6D6B6D" d="m7.654 5.036.703-.245.565.268.268.594.326-.051.08-.326-.16-.622.16-1.485-.137-.81.485-.566 1.05-.834-.296-.406-1.485.731-.622.486-.349.754-.536.73-.16.863z"/><path fill="#DCD9D8" d="M8.762 2.502s.405-1 2.022-1.485.08-.348.08-.348l-1.754.673-.674.674-.296.537zm-.811 2.347s-.565-1.89 1.593-2.159l-.08-.325-1.484.348-.434 1.405.108.92z"/><path fill="#F7E4CD" d="m8.813 7.356.354-.343s.16.017.189.206c.028.188.108 1.89 1.268 2.804.108.085-.863-.137-.863-.137L8.9 8.538m4.876-1.696s.063-.817.286-.754.222.285.222.285-.537.343-.508.469m2.239-2.994s-.446.091-.486.485.486.08.566.052m-3.341-.505s-.594.08-.594.457.674.349.862.189M9.088 5.633s-1.023-.622-1.131-.028c-.109.593-.349 1.022.16 1.644l-.349-.108-.325-.834-.109-.811.623-.645.702.051.406.326zm.485-1.706s.457-2.375 2.775-2.832c1.908-.377 2.913.08 3.29.514 0 0-1.702-2.022-3.318-1.405-1.616.622-2.804 1.753-2.776 2.478.046 1.245.029 1.245.029 1.245m6.253-2.047s-.782-.029-.81.674c0 0 0 .108.05.217 0 0 .623-.703 1-.326"/><path fill="#F7E4CD" d="M12.406 2.844s-.138-1.074-1.051-.451c-.594.405-.537.97-.434 1.079.108.108.08.325.16.177s.057-.634.354-.771c.29-.137.782-.286.97-.034"/><path fill="#49728B" d="m9.87 10.133-2.536 1.13s1.051 4.18.514 5.477l-.377-.137-.028-1.593-.703-3.015-.297-.834 2.645-1.782zm.257 2.31.36.44v1.615h-.429s-.051-1.13-.051-1.267.051-.623.051-.623m.08 2.136-1.216.051.348.246.863.137"/><path fill="#335061" d="m14.29 14.477 1-.03.245 2.48-1.022.137z"/><path fill="#335061" d="m14.558 14.477 1.508-.08s.623-1.565.623-1.645.536-2.267.536-2.267L16.01 9.217 15.763 9l-.645.645v2.508z"/><path fill="#49728B" d="m15.232 14.29-.942.19.137.753c.348.16.942-.268.942-.268m-.109-5.401 1.891 1.405.052-.645-1.428-1.32z"/><path fill="#fff" d="m11.075 19.788-.56-2.267-.28-1.674-.045-1.239 2.53-.137h1.57l-.143 2.833.246 2.187-.029.405-2.05.16z"/><path fill="#DCD9D8" d="M13.942 14.45s-.137 2.805.268 4.804c0 0-.81.513-1.993.645l2.267-.08.269-.16-.326-4.42-.086-.948"/><path fill="#fff" d="m15.575 16.716 1.05-.297 1.994-.109.297-.919-.537-1.593-.623-.08-.862.268-.822.406-.44-.08-.343.137"/><path fill="#DCD9D8" d="M15.558 16.173s.702-.326.81-.297l-.296-1.485.348-.137s.246 1.405.246 1.565c0 0 1.507.08 1.644.08 0 0 .326-.623.246-1.268l.297.862.028.486-.433.645-.486.108-.81-.028-.27-.349-.942.137-.296.109"/><path fill="#fff" d="m14.496 14.262-.594-1.508-.623-.891s.137-.377.326-.377h.622l.594.217-.051 1z"/><path fill="#DCD9D8" d="M14.616 13.746s-.754-1.457-.754-1.674c0 0 .137-.325.325-.245.189.08.594.297.594.297v-.514l-.92-.189-.622.08 1.051 2.49.217.029"/><path fill="#fff" d="m11.315 10.189-.748-.08-.703-.217v.245l.343.377 1.08.486"/><path fill="#DCD9D8" d="M10.11 10.266s.834.348 1.108.269l.028.325-.754-.16-.457-.325z"/><path fill="#D33833" d="M15.575 11.576a5 5 0 0 1-1.234-.171c.023-.149-.022-.291.018-.4.102-.074.268-.074.422-.091a.73.73 0 0 0-.468-.052c-.006-.102-.052-.165-.08-.245.257-.092.862-.691 1.205-.497.165.097.234.634.245.902.012.217-.022.434-.108.554"/><path fill="#000" stroke="#D33833" stroke-width=".115" d="M15.575 11.576a5 5 0 0 1-1.234-.171c.023-.149-.022-.291.018-.4.102-.074.268-.074.422-.091a.73.73 0 0 0-.468-.052c-.006-.102-.052-.165-.08-.245.257-.092.862-.691 1.205-.497.165.097.234.634.245.902.012.217-.022.434-.108.554Z"/><path fill="#D33833" d="M13.388 10.828q.001.051-.006.102c-.143.092-.371.092-.531.172a1.5 1.5 0 0 1 .571.143c-.006.085-.006.177-.011.262-.263.177-.503.446-.811.617-.149.08-.657.285-.811.245-.086-.022-.097-.13-.132-.234-.074-.217-.245-.57-.262-.902-.017-.417-.063-1.12.388-1.034.366.069.788.235 1.068.389.177.103.274.217.537.24"/><path fill="#000" stroke="#D33833" stroke-width=".115" d="M13.388 10.828q.001.051-.006.102c-.143.092-.371.092-.531.172a1.5 1.5 0 0 1 .571.143c-.006.085-.006.177-.011.262-.263.177-.503.446-.811.617-.149.08-.657.285-.811.245-.086-.022-.097-.13-.132-.234-.074-.217-.245-.57-.262-.902-.017-.417-.063-1.12.388-1.034.366.069.788.235 1.068.389.177.103.274.217.537.24Z"/><path fill="#D33833" d="M13.645 11.324c-.04-.229-.086-.292-.069-.492.611-.405.72.697.069.492"/><path fill="#000" stroke="#D33833" stroke-width=".115" d="M13.645 11.324c-.04-.229-.086-.292-.069-.492.611-.405.72.697.069.492Z"/><path fill="#EF3D3A" d="M14.524 11.51s-.188-.27-.051-.35.268 0 .348-.136c.08-.137 0-.217.029-.377.028-.16.16-.189.297-.217.137-.029.514-.08.565.051l-.16-.485-.325-.109-1.023.594-.051.297v.594M11.692 12.4l-.103-1.262c-.057-.628.148-.52.697-.52.085 0 .514.098.542.16.149.303-.245.235.171.463.349.189.971-.114.829-.543-.08-.097-.412-.028-.532-.09q-.316-.165-.633-.326c-.269-.137-.886-.343-1.171-.149-.726.491.045 1.725.302 2.239"/><path fill="#231F20" d="M12.406 2.846c-.737-.171-1.103.308-1.325.805-.2-.046-.12-.32-.069-.457.131-.36.662-.845 1.096-.776.183.022.434.194.297.428m3.581.831h.034c.166.343.309.708.52 1.017-.143.33-1.062.616-1.05.034.2-.086.542-.017.719-.131-.103-.28-.246-.52-.223-.92m-3.209.013c.16.292.211.595.434.812.102.097.297.217.2.491-.023.063-.189.206-.286.234-.348.103-1.165.023-.89-.417.29.012.679.189.896-.023-.166-.262-.463-.788-.354-1.096m3.078 2.936c-.526.336-1.114.708-1.982.622-.183-.16-.257-.52-.074-.754.091.16.034.457.297.503.491.085 1.062-.303 1.416-.434.217-.371-.017-.503-.217-.743-.405-.485-.942-1.09-.925-1.816.166-.12.177.183.2.234.211.492.742 1.125 1.125 1.548.097.103.251.206.268.274.052.194-.131.434-.108.566m-6.956-.356c-.166-.097-.206-.508-.4-.52-.28-.016-.228.537-.228.863-.189-.171-.223-.708-.086-.982-.16-.08-.228.085-.32.143.12-.829 1.217-.383 1.034.496m7.287.701c-.246.468-.594.982-1.313.999-.018-.148-.029-.383 0-.474.554-.057.896-.337 1.313-.525m-3.449.305c.457.24 1.302.268 1.93.25.034.138.034.31.034.475-.805.034-1.753-.166-1.964-.725m-.086.443c.32.8 1.41.708 2.33.685-.04.103-.126.229-.24.269-.297.12-1.108.211-1.519-.006-.257-.137-.428-.451-.57-.634-.064-.085-.406-.308 0-.314"/><path fill="#81B0C4" d="M15.815 12.123c-.371.64-.731 1.296-1.17 1.856.182-.543.262-1.457.29-2.153.389-.183.72.04.88.297"/><path fill="#231F20" d="M17.82 14.42c-.418.086-.709.491-1.12.463.228-.314.617-.451 1.12-.463m.182.65c-.343.034-.742.09-1.085.062.166-.251.794-.16 1.085-.062m.12.566c-.383.005-.857 0-1.222-.029.217-.234.976-.086 1.222.029"/><path fill="#DCD9D8" d="M15.095 17.176c.057.48.246.965.223 1.49-.211.07-.331.132-.617.132-.017-.445-.08-1.13-.063-1.559.137.011.343-.097.457-.063"/><path fill="#F0D6B7" d="M14.479 10.095c-.195.126-.355.28-.543.417-.411.023-.634-.029-.93-.263.005-.017.033-.011.033-.034.44.194 1-.08 1.44-.12"/><path fill="#81B0C4" d="M12.183 13.083c.12-.52.594-.794 1.022-1.08.44.56.708 1.28 1.005 1.976-.702-.21-1.416-.548-2.027-.896"/><path fill="#231F20" d="M14.638 17.247c-.017.428.04 1.108.063 1.559.286 0 .406-.063.617-.131.023-.526-.166-1.011-.223-1.49-.114-.04-.32.068-.457.062m-4.408-2.421c.188 1.719.457 3.158.953 4.682 1.103.337 2.428.366 3.404.063-.177-.856-.103-1.901-.206-2.82-.08-.692-.04-1.383-.148-2.085-1.182-.246-2.85-.057-4.003.16m4.283-.149a24 24 0 0 0 .091 2.204 7 7 0 0 0 .737-.13c-.086-.709-.074-1.514-.251-2.142-.2.005-.377 0-.577.068m1.433-.12c-.137-.028-.291 0-.417 0 .063.6.206 1.262.257 1.896.2.006.309-.091.474-.12.012-.554-.045-1.319-.314-1.776m2.176 1.988c.423-.103.685-.617.565-1.148-.08-.354-.217-1.028-.37-1.257-.11-.165-.412-.388-.658-.234-.394.251-1.085.326-1.37.628.143.48.188 1.131.245 1.736.492.029 1.091-.137 1.502.04-.285.092-.65.092-.896.229.205.097.674.08.982.006m-3.918-2.565c-.297-.696-.565-1.416-1.005-1.976-.428.286-.896.56-1.022 1.08.617.348 1.33.685 2.027.896m.731-2.153c-.028.697-.108 1.61-.29 2.153.439-.565.799-1.216 1.17-1.856-.16-.257-.491-.48-.88-.297m-.828-.29c-.165-.018-.308.193-.525.102-.052.057-.097.114-.149.171.48.583.703 1.405 1.074 2.085.2-.657.177-1.37.223-2.085-.274.012-.428-.257-.623-.274m-.53-.703c-.018.2.028.263.068.49.65.207.542-.896-.069-.49m-.726-.24a4 4 0 0 0-1.068-.388c-.451-.086-.405.616-.388 1.033.017.331.188.68.262.902.035.103.046.212.132.235.154.034.668-.166.81-.246.309-.166.549-.434.812-.617.005-.085.005-.177.011-.262a1.4 1.4 0 0 0-.571-.143c.154-.08.388-.08.531-.171q-.001-.052.006-.103c-.263-.029-.36-.143-.537-.24m-2.684-.486c-.234.24.657.56.936.577 0-.148.086-.291.069-.4-.337-.057-.777-.017-1.005-.177m2.878.109c0 .023-.028.017-.034.034.303.234.525.286.93.263.183-.131.35-.291.543-.417-.445.04-1.005.314-1.439.12m2.639.8c-.012-.263-.08-.806-.246-.903-.343-.2-.948.406-1.205.497.028.08.074.143.08.246a.73.73 0 0 1 .468.051c-.154.017-.32.017-.422.091-.035.109.011.252-.018.4.36.103.777.154 1.234.172.086-.115.12-.332.109-.554m-5.911-.68c-.074-.051-.571-.697-.64-.668-.896.354-1.736.965-2.484 1.547.714 1.537 1.005 3.415 1.057 5.226.816.382 1.536.936 2.65.993a45 45 0 0 1-.32-2.58c-.28-.12-.68.005-.943-.035 0-.314.4-.137.434-.348.023-.16-.222-.172-.143-.423.206.074.315.24.532.303.2-.434 0-1.205.028-1.57.006-.07.034-.378.189-.326.137.045-.006.828.005 1.17.012.32-.04.623.092.823a31 31 0 0 1 3.33-.274c-.258-.109-.56-.212-.892-.4-.183-.103-.748-.314-.8-.486-.085-.274.218-.416.27-.65-.543.296-.646-.286-.778-.692a6 6 0 0 1-.21-.862c-.475-.24-.977-.463-1.377-.748m5.437-.594c.748-.36.885 1.354.588 1.907.045.166.2.229.262.377-.416.748-.88 1.445-1.307 2.182.314-.2.77-.034 1.142-.183.137-.051.234-.365.337-.617.285-.685.582-1.553.714-2.204.028-.149.114-.474.09-.605-.033-.24-.353-.417-.519-.56-.302-.274-.49-.508-.81-.765-.12.188-.395.314-.498.468m-7.145-6.63c-.354.394-.28 1.125-.24 1.65.646-.405 1.497.034 1.491.72.308-.006.114-.383.057-.628-.183-.794.308-1.65.023-2.376-.554.046-1.005.268-1.33.634M10.612.834c-.805.229-1.839.817-2.17 1.542.257-.04.434-.166.686-.183.097-.005.222.04.33.012.218-.057.406-.548.572-.731.16-.177.354-.257.485-.417.086-.04.211-.04.217-.166-.034-.04-.074-.068-.12-.057m4.198.217C13.97.577 12.554.223 11.663.67c-.72.36-1.69.953-2.022 1.701.309.726-.09 1.388-.12 2.125-.01.394.183.73.2 1.16-.108.176-.428.193-.65.182-.075-.377-.206-.8-.595-.845-.548-.063-.953.394-.976.868-.029.56.428 1.484 1.08 1.422.25-.023.313-.274.587-.274.149.297-.228.388-.268.6-.011.056.029.268.057.37.12.486.383 1.12.64 1.49.331.475.976.543 1.673.59.126-.27.582-.246.88-.178-.36-.143-.691-.485-.966-.788-.314-.348-.633-.72-.65-1.176.599.828 1.09 1.553 2.175 1.918.822.274 1.782-.125 2.416-.57.262-.183.417-.48.605-.743.697-1.005 1.022-2.433.954-3.82-.029-.572-.029-1.143-.223-1.525-.2-.4-.88-.766-1.28-.4-.073-.394.332-.634.806-.491-.337-.44-.69-.96-1.176-1.234m1.565 12.912c.656-.325 1.878-.873 2.284 0a7 7 0 0 1 .405 1.205c.109.469-.12 1.462-.605 1.616-.428.138-.925.132-1.44.029a.8.8 0 0 1-.176-.229c-.366-.01-.714.018-1 .172.029.274-.154.314-.33.371-.127.508.256 1.17.165 1.628-.063.33-.469.382-.766.44-.01.182.012.336.035.49-.069.252-.371.395-.663.429-.953.114-2.398.165-3.312-.166-.257-.628-.457-1.387-.668-2.101-.891.097-1.616-.383-2.296-.703-.234-.108-.56-.171-.65-.36-.087-.182-.052-.53-.075-.856-.051-.84-.103-1.65-.32-2.507-.097-.389-.274-.726-.394-1.097-.114-.342-.308-.77-.36-1.113-.074-.509.406-.537.708-.76.474-.343.846-.531 1.36-.84.154-.09.61-.32.662-.428.103-.21-.177-.508-.251-.674a2 2 0 0 1-.2-.742 1.44 1.44 0 0 1-.954-.611c-.325-.48-.554-1.365-.268-2.033.023-.051.131-.16.148-.24.035-.16-.063-.371-.068-.542-.029-.874.148-1.628.736-1.89.24-.954 1.097-1.268 1.902-1.742.303-.177.634-.292.977-.417 1.227-.451 3.118-.366 4.14.405.434.326 1.125 1.017 1.37 1.52.657 1.318.606 3.528.15 5.139-.064.217-.15.531-.275.794-.086.182-.354.542-.326.702.035.166.617.605.743.725.222.217.65.503.685.777.04.291-.125.691-.211.97a38 38 0 0 1-.862 2.64"/><path fill="#F7E4CD" d="M12.006 7.478c.034-.046.228-.12.502.011 0 0-.325.052-.297.594l-.137-.028c.006.005-.137-.486-.068-.577"/><path fill="#1D1919" d="M14.37 12.115c0 .08-.068.149-.148.149a.15.15 0 0 1-.149-.149c0-.08.069-.148.149-.148.085 0 .148.068.148.148m.149.689c0 .08-.07.148-.149.148a.15.15 0 0 1-.148-.148c0-.08.068-.149.148-.149.086 0 .149.063.149.149"/><path fill="#231F20" d="m6.74 21.544-.12.017c-.034.006-.068.012-.114.023q-.075.017-.091.069a.3.3 0 0 0-.023.114v1.393a.8.8 0 0 1-.08.354.75.75 0 0 1-.211.269 1 1 0 0 1-.309.16 1.3 1.3 0 0 1-.36.057q-.333.001-.536-.16a.53.53 0 0 1-.206-.44q-.001-.162.092-.274a.32.32 0 0 1 .257-.109q.152 0 .245.092a.3.3 0 0 1 .092.223.34.34 0 0 1-.08.21 1 1 0 0 1-.183.178v.023a.15.15 0 0 0 .068.063.25.25 0 0 0 .109.022.4.4 0 0 0 .337-.154q.12-.154.12-.462v-1.428c0-.04-.006-.08-.017-.108-.012-.03-.046-.052-.098-.075a.6.6 0 0 0-.13-.04q-.076-.015-.126-.023v-.137h1.347v.143zm2.113 1.961q-.061.102-.148.195a1 1 0 0 1-.2.154q-.12.068-.24.102c-.08.023-.177.035-.28.035-.177 0-.325-.023-.457-.075a.9.9 0 0 1-.314-.2.85.85 0 0 1-.188-.296 1.1 1.1 0 0 1-.063-.372c0-.12.023-.24.069-.348a.86.86 0 0 1 .497-.502q.188-.079.41-.08.249.002.412.062.16.062.263.166a.65.65 0 0 1 .148.24 1 1 0 0 1 .046.291v.114H7.603q-.002.368.142.554c.092.126.246.189.446.189a.5.5 0 0 0 .303-.092.8.8 0 0 0 .228-.234zm-.68-.68q-.001-.104-.01-.216a.5.5 0 0 0-.04-.183.26.26 0 0 0-.086-.126.2.2 0 0 0-.132-.04q-.138 0-.217.137-.084.139-.091.44zm3.199 1.105h-1.074v-.13a1 1 0 0 0 .08-.012l.074-.017a.13.13 0 0 0 .052-.057.3.3 0 0 0 .017-.108v-.834a.46.46 0 0 0-.069-.274c-.045-.063-.108-.092-.2-.092a.3.3 0 0 0-.13.023.4.4 0 0 0-.12.063.4.4 0 0 0-.086.074.3.3 0 0 0-.052.069v.953q0 .06.017.103a.12.12 0 0 0 .057.063q.026.019.069.029l.086.017v.131H9.008V23.8q.041-.001.09-.012.046-.008.08-.017a.13.13 0 0 0 .08-.063.3.3 0 0 0 .024-.108v-1.04a.3.3 0 0 0-.029-.108.3.3 0 0 0-.074-.086c-.023-.011-.046-.028-.08-.034a.3.3 0 0 0-.109-.017v-.131l.851-.046.029.028v.257h.006a2 2 0 0 0 .12-.108q.069-.06.13-.103a.74.74 0 0 1 .4-.103q.291.001.435.166.144.164.142.44v.873q0 .069.018.103c.011.029.04.046.074.063.017.006.04.017.068.023l.097.017v.137zm2.456 0h-.84a6 6 0 0 0-.286-.463c-.085-.126-.165-.246-.24-.348l-.102.091v.388c0 .04.006.08.017.103.011.029.034.046.074.063a.3.3 0 0 0 .074.023q.043.01.086.011v.132h-1.108v-.132q.041-.001.092-.011l.08-.017a.13.13 0 0 0 .08-.063.3.3 0 0 0 .022-.109v-1.987q-.001-.06-.028-.12a.2.2 0 0 0-.075-.097.3.3 0 0 0-.102-.034.5.5 0 0 0-.126-.017v-.132l.885-.045.029.028v1.839c.085-.08.188-.171.297-.274s.2-.189.262-.257q.061-.059.063-.091.007-.034.006-.04.002-.034-.057-.052c-.04-.011-.091-.028-.171-.04v-.125h.902v.125q-.18.05-.274.091a2 2 0 0 0-.349.217q-.066.053-.16.132l.32.468.309.457c.034.057.08.091.137.114a1 1 0 0 0 .165.035v.137zm1.142-.001h-1.125v-.132a.5.5 0 0 0 .091-.011c.028-.006.057-.012.074-.017a.13.13 0 0 0 .08-.063.2.2 0 0 0 .023-.109v-1.039c0-.04-.011-.08-.028-.108a.17.17 0 0 0-.07-.075c-.022-.011-.05-.028-.096-.04-.046-.011-.086-.023-.12-.023v-.13l.874-.046.028.028v1.416q.002.059.029.109a.16.16 0 0 0 .074.063.3.3 0 0 0 .08.028q.041.01.091.017v.132zm-.257-2.427a.3.3 0 0 1-.103.228.36.36 0 0 1-.246.097.38.38 0 0 1-.251-.097.3.3 0 0 1-.103-.228c0-.092.034-.166.103-.235a.364.364 0 0 1 .497 0 .3.3 0 0 1 .103.235m2.775 2.428h-1.073v-.13a1 1 0 0 0 .08-.012l.074-.017a.13.13 0 0 0 .051-.057.3.3 0 0 0 .017-.108v-.834a.46.46 0 0 0-.068-.274c-.046-.063-.109-.092-.2-.092a.3.3 0 0 0-.132.023c-.04.017-.08.034-.12.063a.4.4 0 0 0-.085.074.3.3 0 0 0-.052.069v.953q0 .06.018.103a.12.12 0 0 0 .057.063q.026.019.068.029l.086.017v.131h-1.085V23.8q.041-.001.091-.012.044-.008.08-.017a.13.13 0 0 0 .08-.063.3.3 0 0 0 .023-.108v-1.04a.3.3 0 0 0-.029-.108.3.3 0 0 0-.074-.086c-.023-.011-.046-.028-.08-.034a.3.3 0 0 0-.108-.017v-.131l.85-.046.03.028v.257h.005q.051-.04.12-.108.07-.06.131-.103a.74.74 0 0 1 .4-.103q.29.001.434.166.144.164.143.44v.873q0 .069.017.103c.011.029.04.046.074.063.017.006.04.017.069.023.028.006.057.011.097.017v.137zm.988.06q-.172 0-.337-.05a1 1 0 0 1-.257-.11l-.051.12h-.137l-.023-.662h.131a.8.8 0 0 0 .091.183c.04.069.092.126.143.183q.084.077.194.137a.54.54 0 0 0 .229.057.4.4 0 0 0 .24-.063c.051-.04.08-.108.08-.194a.2.2 0 0 0-.035-.12.4.4 0 0 0-.097-.08 1 1 0 0 0-.154-.063c-.057-.017-.125-.034-.205-.062a1.2 1.2 0 0 1-.206-.075.62.62 0 0 1-.303-.28.5.5 0 0 1-.045-.234q-.001-.249.21-.405c.144-.103.326-.154.555-.154q.161 0 .297.034.135.033.228.074l.04-.103h.137l.029.606h-.126a.75.75 0 0 0-.211-.32.48.48 0 0 0-.326-.137.35.35 0 0 0-.217.057.2.2 0 0 0-.08.16q.001.135.115.194.112.061.32.114.314.085.468.223a.5.5 0 0 1 .148.36.51.51 0 0 1-.228.45c-.171.104-.371.16-.617.16"/></svg>