<svg xmlns="http://www.w3.org/2000/svg" width="24" height="24" fill="none" viewBox="0 0 24 24"><g clip-path="url(#a)"><path fill="#C63D14" d="M20.801 12.331a1.953 1.953 0 0 0-2.158-1.942l2.682-7.91H9.927l2.679 7.903-.12-.004a1.953 1.953 0 0 0-.592 3.814 8.5 8.5 0 0 1-1.536 1.933 7.8 7.8 0 0 1-2.736 1.698c-1.192-.612-1.755-1.975-1.247-3.169q.087-.203.172-.408a1.953 1.953 0 1 0-1.566-.302c-.484 1.1-1.194 2.252-1.416 3.587-.265 1.6 0 3.298 1.383 4.257 3.222 2.233 6.72-1.385 10.408-2.294 1.337-.33 2.804-.277 3.981-.959a3.34 3.34 0 0 0 1.633-2.314 3.48 3.48 0 0 0-.623-2.638c.284-.34.454-.776.454-1.252m-6.361.007v-.007c0-.708-.377-1.328-.942-1.67L15.63 6.35l2.136 4.356a1.95 1.95 0 0 0-.87 1.625v.043z"/><path fill="#fff" d="M21.28 12.33a2.43 2.43 0 0 0-1.981-2.388L21.992 2H9.263l2.697 7.958a2.43 2.43 0 0 0-.753 4.435 8 8 0 0 1-1.175 1.383 7.4 7.4 0 0 1-2.367 1.52c-.864-.542-1.23-1.565-.85-2.457l.03-.07.055-.13a2.43 2.43 0 0 0 1.632-2.295c0-1.34-1.09-2.43-2.43-2.43s-2.43 1.09-2.43 2.43c0 .676.279 1.288.726 1.73q-.123.258-.254.528c-.41.84-.873 1.792-1.048 2.85-.348 2.1.213 3.778 1.581 4.726.83.575 1.674.802 2.522.802 1.598 0 3.214-.803 4.794-1.588 1.139-.565 2.316-1.15 3.478-1.437.433-.106.878-.17 1.35-.239.934-.134 1.9-.274 2.756-.77a3.81 3.81 0 0 0 1.864-2.645c.165-.95-.034-1.9-.518-2.707.226-.368.356-.801.356-1.264m-.955 0c0 .813-.662 1.476-1.476 1.476a1.48 1.48 0 0 1-1.475-1.476c0-.814.662-1.476 1.476-1.476.813 0 1.475.662 1.475 1.476m.336-9.376-2.378 7.013a2.4 2.4 0 0 0-.3.093l-2.35-4.791-2.356 4.763a2.4 2.4 0 0 0-.314-.085l-2.37-6.993zm-8.173 7.9c.814 0 1.476.662 1.476 1.476 0 .813-.662 1.476-1.476 1.476a1.48 1.48 0 0 1-1.476-1.476c0-.814.662-1.476 1.476-1.476m-6.386.014c.814 0 1.476.662 1.476 1.476 0 .813-.662 1.476-1.476 1.476a1.48 1.48 0 0 1-1.476-1.476c0-.814.663-1.476 1.476-1.476m14.4 5.27a2.86 2.86 0 0 1-1.403 1.983c-.696.404-1.531.524-2.415.651-.473.069-.963.14-1.441.257-1.265.312-2.49.92-3.674 1.509-2.37 1.177-4.418 2.194-6.348.856-1.414-.98-1.349-2.793-1.184-3.787.153-.92.565-1.768.964-2.588q.105-.212.202-.419.298.12.628.158c-.406 1.34.233 2.799 1.574 3.488l.184.094.194-.07a8.3 8.3 0 0 0 2.904-1.8 9 9 0 0 0 1.437-1.738q.178.027.364.027c1.34 0 2.43-1.09 2.43-2.43 0-.72-.316-1.368-.816-1.813l1.527-3.088 1.543 3.147a2.42 2.42 0 0 0-.752 1.755c0 1.34 1.09 2.43 2.43 2.43.514 0 .992-.162 1.385-.436.273.559.375 1.188.266 1.814"/></g><defs><clipPath id="a"><path fill="#fff" d="M3 2h18.997v21H3z"/></clipPath></defs></svg>