<svg xmlns="http://www.w3.org/2000/svg" width="24" height="24" fill="none" viewBox="0 0 24 24"><path fill="#2684FF" d="m22.249 11.41-9.343-9.037L12 1.497 4.967 8.3l-3.216 3.11a.81.81 0 0 0 0 1.176L8.177 18.8 12 22.497l7.033-6.802.109-.105 3.107-3.005a.81.81 0 0 0 0-1.176M12 15.102l-3.21-3.105L12 8.893l3.21 3.104z"/><path fill="url(#a)" fill-rule="evenodd" d="M12 8.895a5.107 5.107 0 0 1-.023-7.37L4.953 8.316l3.823 3.698z" clip-rule="evenodd"/><path fill="url(#b)" fill-rule="evenodd" d="M15.218 11.99 12 15.105a5.14 5.14 0 0 1 1.584 3.697c0 1.387-.57 2.718-1.584 3.698l7.042-6.81z" clip-rule="evenodd"/><defs><linearGradient id="a" x1="11.427" x2="6.072" y1="5.755" y2="8.093" gradientUnits="userSpaceOnUse"><stop offset=".18" stop-color="#0052CC"/><stop offset="1" stop-color="#2684FF"/></linearGradient><linearGradient id="b" x1="12.613" x2="17.958" y1="18.208" y2="15.887" gradientUnits="userSpaceOnUse"><stop offset=".18" stop-color="#0052CC"/><stop offset="1" stop-color="#2684FF"/></linearGradient></defs></svg>