<svg xmlns="http://www.w3.org/2000/svg" width="24" height="24" fill="none" viewBox="0 0 24 24"><path fill="#2684FF" d="M21.164 2h-9.633a4.35 4.35 0 0 0 4.349 4.348h1.774v1.714A4.35 4.35 0 0 0 22 12.407V2.836A.836.836 0 0 0 21.164 2"/><path fill="url(#a)" d="M16.399 6.8H6.765a4.35 4.35 0 0 0 4.345 4.346h1.775v1.719a4.35 4.35 0 0 0 4.348 4.343V7.636a.836.836 0 0 0-.836-.836"/><path fill="url(#b)" d="M11.633 11.592H2a4.35 4.35 0 0 0 4.348 4.349h1.78v1.713a4.35 4.35 0 0 0 4.34 4.345v-9.571a.836.836 0 0 0-.835-.836"/><defs><linearGradient id="a" x1="2633.96" x2="1591.32" y1="11.079" y2="1099.02" gradientUnits="userSpaceOnUse"><stop offset=".18" stop-color="#0052CC"/><stop offset="1" stop-color="#2684FF"/></linearGradient><linearGradient id="b" x1="2699.79" x2="1493.71" y1="23.715" y2="1210.32" gradientUnits="userSpaceOnUse"><stop offset=".18" stop-color="#0052CC"/><stop offset="1" stop-color="#2684FF"/></linearGradient></defs></svg>