<svg xmlns="http://www.w3.org/2000/svg" width="24" height="24" fill="none" viewBox="0 0 24 24"><path fill="#757575" d="M3.206 22.56c.212.006.424.041.636.04.508-.003.806-.276.855-.78q.026-.272.028-.547.002-2.648 0-5.297v-.194h.423v.154c0 1.908.006 3.815-.005 5.722-.002.386-.077.769-.391 1.042-.103.089-.234.146-.353.215-.043.025-.089.044-.128.075-.35.01-.703.01-1.065.01zm7.738-6.08c0 .969.008 1.923-.005 2.877-.005.3-.043.607-.111.899-.138.585-.51.995-1.06 1.206-.694.265-1.403.265-2.086-.038-.513-.227-.83-.65-.955-1.2a3.5 3.5 0 0 1-.086-.748c-.008-1.172-.004-2.343-.004-3.515v-.179h.423v.171c0 1.2-.003 2.4.002 3.6.001.285.052.567.175.827.213.452.574.73 1.056.827.411.084.83.085 1.23-.06.482-.176.792-.527.91-1.032.04-.166.057-.34.058-.512.005-1.214.003-2.428.003-3.642v-.178h.45zm1.832 3.376v1.692h-.41v-4.292h.348l.072.547c.123-.11.245-.24.387-.342.255-.183.549-.27.86-.268.258.002.523-.01.77.047.474.112.76.444.868.92.038.166.057.341.058.512.006.903.003 1.805.003 2.707v.166h-.394v-.167c0-.822.004-1.644-.003-2.466a3 3 0 0 0-.068-.639c-.095-.439-.402-.663-.826-.707a1.85 1.85 0 0 0-.917.111c-.408.17-.634.492-.685.915-.05.413-.044.833-.063 1.264m6.559-2.899v.279h1.227v.37h-1.227v.162c0 .883-.003 1.766.003 2.649.001.22.039.44.178.618.2.257.483.247.765.222.129-.012.256-.032.395-.05v.336c-.457.123-.923.18-1.355-.09-.245-.154-.369-.42-.375-.705-.022-.985-.024-1.97-.033-2.956v-.18h-.595c-.056-.233-.05-.275.156-.3.354-.043.528-.216.53-.578 0-.113.068-.225.07-.338.005-.183.101-.196.261-.162zm-1.833 2.049v2.542h-.41v-4.29h.41zm-.033-2.623c-.09.102-.187.11-.297.064-.128-.053-.13-.178-.141-.282a1 1 0 0 1 .034-.331c.025-.098.104-.15.21-.152a.25.25 0 0 1 .249.17c.058.174.068.358-.055.53"/><path fill="#25A162" d="M11.91 13.175c-.065-.027-.112-.077-.16-.077-.835-.01-1.613-.242-2.37-.628-.005-.592 0-1.156.02-1.714.162.068.307.143.46.191.787.254 1.596.294 2.41.185.607-.082 1.174-.29 1.626-.732.691-.675.86-1.522.744-2.442-.124-.981-.689-1.616-1.62-1.884-.375-.108-.78-.13-1.173-.14-.33-.01-.662.054-1.02.088.06-.676.121-1.344.183-2.027h3.09l.001-1.188c.004-.493.005-.966.022-1.442 1.063.37 1.933 1 2.623 1.869.646.814 1.077 1.736 1.238 2.776.004.023.05.04.075.06 0 .65 0 1.3-.016 1.965-.032.048-.056.08-.063.116a5.7 5.7 0 0 1-.561 1.676 6.1 6.1 0 0 1-1.533 1.906c-1.016.84-2.173 1.307-3.49 1.364-.048.002-.094.051-.141.078z"/><path fill="#DC524A" d="M14.11 1.369c-.002.473-.003.947-.025 1.439-1.421.02-2.821.02-4.21.02-.017.037-.027.048-.028.06l-.295 3.82c-.004.052-.008.14.017.153.252.126.444.382.791.303.578-.13 1.167-.19 1.757-.075.429.083.808.254 1.032.663.508.93.008 2.054-1.019 2.26-.894.177-1.745-.012-2.566-.374-.058-.025-.114-.053-.178-.083v1.197c-.005.563-.009 1.127-.017 1.71-.426-.26-.88-.498-1.262-.821a5.66 5.66 0 0 1-1.52-2.007c-.248-.55-.433-1.12-.497-1.723-.033-.305-.088-.612-.076-.916.042-1.04.267-2.03.792-2.946a6.1 6.1 0 0 1 1.26-1.564c.782-.69 1.68-1.171 2.712-1.37.1-.018.196-.06.282-.105a43 43 0 0 1 1.937.002.4.4 0 0 0 .112.064z"/><path fill="#FEFEFD" d="M9.4 10.757c-.015-.395-.015-.785-.015-1.203.064.03.12.058.178.083.822.362 1.672.551 2.567.373 1.026-.205 1.526-1.33 1.018-2.259-.223-.41-.602-.58-1.031-.663-.59-.115-1.18-.056-1.757.075-.347.08-.539-.176-.791-.303-.025-.013-.021-.1-.017-.153q.146-1.91.295-3.82c.001-.012.01-.023.027-.06h4.208c.019.383.019.768.019 1.169h-3.09l-.184 2.027c.359-.034.691-.098 1.022-.09.392.011.798.034 1.172.141.931.268 1.497.903 1.62 1.884.117.92-.053 1.768-.744 2.443-.452.44-1.018.65-1.627.732-.813.109-1.621.069-2.41-.185-.152-.049-.296-.123-.46-.191"/></svg>