<svg xmlns="http://www.w3.org/2000/svg" width="24" height="24" fill="none" viewBox="0 0 24 24"><g clip-path="url(#a)"><path fill="#599707" d="M3.02 8.593h.563L5.89 8.6v.383l-.408.008-.138.025-.09.049-.033.04-.024.066-.008.057-.008.424-.009 3.285-.024.22-.04.204-.042.122-.032.057h-.017l-.016.04-.057.099-.04.081-.074.09-.065.065-.074.09-.081.073-.074.057-.032.025H4.47v.016l-.057.024-.024.041-.106.065-.139.05-.212.065-.31.057-.269.032h-.269l-.318-.04-.342-.066v-.016l-.147-.049-.057-.016-.049-.017-.09-.065-.065-.057-.122-.073-.122-.114-.073-.082-.009-.024-.032-.017-.065-.073-.058-.09-.065-.13-.057-.074-.049-.146-.032-.155-.008-.074v-.236l.016-.139.065-.22.025-.049.04-.04.033-.05.04-.064.041-.041.033-.065.033-.008.008-.033h.032l.033-.033.033-.008.008-.024.17-.082.18-.057.05-.008h.13l.138.032.171.066.098.057.074.065.04.04.057.066.074.114.032.09.017.122v.261l-.025.114-.049.13-.032.05-.033.04-.147.098-.122.065-.09.017-.122-.009-.18-.04-.089-.008-.049.016-.049.032-.049.074-.008.065.025.106.057.114.065.082.122.122.171.073.172.05.138.024.09.008h.253l.163-.017.187-.057.098-.049.04-.032.025-.025.025-.04.057-.05.04-.024.058-.073.065-.13.057-.164.049-.252.016-.123.008-.122V9.326l-.016-.122-.033-.09-.04-.057-.082-.048-.073-.017H3.02l-.008-.016V8.6z"/><path fill="#D41209" d="M5.507 9.258h2.568l.009.008v.31l-.539.008-.081.016-.065.058-.025.032-.016.057-.008.139v2.91l.016.237.033.163.065.195.04.074.09.09.066.08.073.099.082.049.13.057.22.09.114.032.13.016h.27l.008-.008.147-.016.13-.041.18-.065.105-.041.041-.008.033-.025h.032l.008-.04.009.016h.016v-.016h.016v-.025l.016-.016-.008-.025.025-.008v.033h.016v-.04l.04-.01v-.015h.017l.008-.041h.025l.024-.025.017-.032.032-.033.05-.098.072-.17.074-.196.024-.106.008-.082v-2.633l-.016-.114-.04-.098-.074-.13-.098-.14-.065-.056-.155-.057-.122-.025-.188-.016v-.318h1.949l.016.008v.31l-.253.016-.098.025-.122.049-.057.049-.065.106-.057.097-.098.253-.008.049-.008.212-.008 2.478-.017.188-.04.187-.058.188-.065.13-.057.106-.04.04-.05.058-.032.04H9.9v.017l.017.008-.033.017-.008.016-.008.008v.024l-.033.017-.016.032-.073.033h.016v.016l-.033.025-.057.024-.024.016-.008.025-.041.016-.025.025-.04.016-.041.024.032-.008v.017l-.04.024-.074.024-.032.017.024.008-.032.016-.057.008-.082.033-.024.016-.155.041-.147.033-.18.024-.236.016h-.334l-.318-.016-.318-.04-.114-.025v-.008h.057l-.155-.041-.147-.049-.138-.065-.139-.09-.106-.065-.122-.082-.057-.057-.122-.179-.074-.114h-.016l-.049-.13-.033-.098-.04-.245-.017-.196-.008-.252L6.233 10l-.016-.253-.017-.065-.024-.024-.09-.041-.081-.025-.074-.008-.432-.008v-.31zm5.771 2.642h.147l.016.042.057.285.025.188.024-.025.098-.139.082-.081.065-.049.147-.114.081-.04.171-.05.147-.016h.106l.155.016.139.04.081.05.106.081.065.074.066.13.097.228.017.066.008.073.008.318v.856l.008.236.016.066.09.032.139.017.13.008.033.008v.18l-.008.007-1.256-.008-.008-.008v-.18l.147-.016.17-.016.05-.024.024-.057.008-.115v-1.027l-.016-.26-.024-.156-.033-.081-.057-.073-.098-.066-.09-.065-.048-.024-.05-.008h-.236l-.106.024-.081.065-.098.074-.09.081-.032.016-.066.139-.048.13-.025.155-.008.481v.302l.008.391.016.074.066.024.097.016.229.017v.187h-1.272l-.008-.008v-.18l.244-.016.106-.024.041-.033.008-.032.008-.106v-1.46l-.008-.138-.024-.114-.033-.066-.008-.024-.04-.016-.082-.025-.245-.008-.008-.032v-.115l.008-.04.294-.017zm4.942-.93h.162l.009.864.008.106.782.008v.229l-.008.008h-.562l-.22-.008V13.7l.016.228.016.074.05.057.105.073.073.025h.172l.081-.033.13-.098.05-.065.04-.13.033-.172.024-.18h.139l.049.009-.017.163-.024.13-.065.188-.074.155-.09.13-.064.057-.155.074-.114.024-.09.008h-.155l-.155-.016-.081-.024-.155-.082-.05-.065-.064-.122-.033-.13-.016-.188-.008-1.606-.09-.008h-.342v-.188l.008-.008.179-.033.09-.04h.04l-.016-.033.074-.016.016-.041h.016l.008.008v-.016h.025l.008-.057h.024l.041-.098.049-.098.073-.237.033-.114zm-1.618.957h.22l.009 2.12.008.089.032.016.057.025.114.008.237.008v.188h-1.386l-.008-.025v-.155l.008-.008.26-.008.123-.016.065-.041.025-.057v-1.696l-.04-.114-.058-.065-.106-.033-.065-.008-.253-.008-.008-.008v-.188l.008-.008zm.66 2.364v.065h.009v-.065zm-.806-3.793h.122l.082.025.04.04.074.106.033.066.008.024v.073l-.033.09-.049.065-.065.057-.065.025h-.163l-.066-.025-.049-.032-.048-.066-.025-.081v-.147l.033-.081.049-.074.057-.049zm-.56 3.887 1.32.008.074.009v.008l-.114.008-1.289-.008zm-3.236.009h1.044v.008l-.106.008-.538.008h-.39zm1.679-.009.913.008v.009l-.05.008-.864.008z"/><path fill="#D41209" d="M15.527 12.184h.35v.008l-.35.008zm-3.815 2.21h.204v.016l-.204-.008zm4.686-2.21h.17v.008h-.17zM7.194 14.32l.082.017.024.016-.065-.008-.04-.016zm2.406-.831.017.008-.024.024zm3.919.905h.048v.008h-.049zm-6.406-.104.04.009-.024.008zm2.372-.686.017.008-.017.017zm2.445.79.009.016-.017-.008zm3.871-2.51.016.008-.016.008z"/><path fill="#000" d="M19.405 14.698v-.414h.22a1.2 1.2 0 0 0 .32-.039.4.4 0 0 0 .234-.156q.086-.126.086-.367v-.477H18.1v-.476l2.218-3.648h1.086v3.609h.813v.515h-.813v.477q0 .242.086.367a.4.4 0 0 0 .234.156q.15.04.32.04h.102v.413zm-.757-1.968h1.617v-1.727q.008-.187.008-.375l.015-.39q.015-.196.031-.375a3 3 0 0 1-.125.25 15 15 0 0 1-.36.656 5 5 0 0 1-.132.219z"/></g><defs><clipPath id="a"><path fill="#fff" d="M0 0h24v24H0z"/></clipPath></defs></svg>