<svg xmlns="http://www.w3.org/2000/svg" width="24" height="24" fill="none" viewBox="0 0 24 24"><path fill="#A70B52" d="M11.999 22.499c5.799 0 10.5-4.701 10.5-10.5s-4.701-10.5-10.5-10.5-10.5 4.701-10.5 10.5c0 5.798 4.701 10.5 10.5 10.5"/><path fill="#fff" d="M14.559 15.695h-2.175V7.477h-.806v9.029h.806V16.5h2.175z"/><path fill="#fff" d="M19.982 12.334h-5.415v-.806h6.208q.012.233.012.47a8.79 8.79 0 1 1-8.407-8.782v.8a7.99 7.99 0 1 0 7.6 8.34z"/><path fill="#fff" d="M8.72 9.909a1.235 1.235 0 1 0 0-2.47 1.235 1.235 0 0 0 0 2.47"/></svg>