<svg xmlns="http://www.w3.org/2000/svg" width="24" height="24" fill="none" viewBox="0 0 24 24"><path fill="#202020" d="M20.007 16.847c-.15-.148-.219-.42-.296-.712-.074-.29-.16-.602-.431-.803v-.001a1.2 1.2 0 0 0-.335-.177c.378-.981.23-1.958-.15-2.84-.468-1.085-1.283-2.03-1.905-2.675-.696-.772-1.377-1.504-1.365-2.585.021-1.652.207-4.714-3.102-4.718q-.202 0-.42.016c-3.699.26-2.718 3.691-2.773 4.84-.068.84-.261 1.502-.92 2.323-.772.808-1.86 2.113-2.376 3.474-.243.641-.36 1.296-.252 1.915a1 1 0 0 0-.096.083c-.226.212-.394.47-.582.644-.174.153-.423.21-.696.296-.274.087-.574.214-.756.52v.002a.83.83 0 0 0-.115.446c0 .143.024.286.048.425.05.29.102.562.034.746-.216.52-.244.879-.091 1.14.153.262.465.376.82.441.71.132 1.671.099 2.429.45.81.373 1.633.505 2.289.374.229-.039.444-.125.628-.252.184-.126.332-.289.43-.475.514-.002 1.076-.192 1.978-.237.611-.042 1.377.191 2.254.15a1 1 0 0 0 .102.24l.002.002c.34.599.975.871 1.65.825s1.391-.396 1.972-1.003c.555-.59 1.473-.834 2.082-1.157.305-.162.552-.363.57-.657.02-.292-.177-.62-.627-1.06"/><path fill="#F8BF11" d="M20.357 17.892c-.011.18-.161.316-.435.461-.553.293-1.529.545-2.152 1.21-.543.566-1.203.875-1.784.916-.581.04-1.082-.171-1.379-.693v-.002c-.184-.307-.108-.79.046-1.3.155-.51.377-1.034.407-1.46.03-.546.066-1.023.171-1.39.105-.37.268-.617.56-.758l.04-.018c.033.472.3.954.771 1.058.514.119 1.257-.268 1.57-.586l.183-.005c.276-.006.506.008.743.188.181.135.268.392.344.676.075.286.134.597.358.818.43.422.57.703.556.885M9.888 19.23v.004c-.051.573-.42.885-.984.998-.565.114-1.332 0-2.097-.35-.847-.395-1.855-.355-2.5-.474-.324-.06-.536-.149-.632-.314-.096-.166-.099-.454.107-.948v-.001l.001-.003c.102-.275.027-.577-.022-.86-.05-.282-.074-.54.036-.72h.001c.141-.239.348-.325.605-.405.255-.081.559-.145.799-.355l.002-.002c.222-.207.391-.465.586-.648.165-.154.33-.257.578-.258h.007q.07 0 .14.01c.33.044.616.247.894.576l.799 1.28c.213.39.662.82 1.043 1.257.38.439.675.877.637 1.213"/><path fill="#D6A312" d="M13.875 7.305c-.065-.11-.195-.216-.42-.296-.465-.175-.666-.187-.925-.334-.42-.239-.77-.322-1.06-.322q-.21.001-.408.062c-.353.105-.587.33-.734.45-.03.026-.066.047-.156.106-.09.057-.225.145-.42.274-.176.113-.231.263-.171.437s.25.376.6.55c.217.111.367.263.538.383q.13.093.284.154c.107.04.233.068.39.076.371.02.644-.079.884-.199s.445-.268.679-.336c.48-.131.823-.396.931-.649a.38.38 0 0 0-.012-.356"/><path fill="#202020" d="M12.657 7.926c-.383.175-.828.387-1.303.387-.474 0-.85-.192-1.118-.38-.135-.092-.244-.187-.327-.254-.144-.1-.126-.239-.067-.235.099.01.114.125.175.177.084.068.189.158.317.246.255.178.595.35 1.02.35s.92-.218 1.224-.369c.172-.084.39-.235.568-.35.135-.088.13-.194.243-.182s.03.118-.127.237a3.5 3.5 0 0 1-.605.373"/><path fill="#fff" d="M18.506 15.085a3 3 0 0 0-.157 0h-.015c.133-.365-.159-.633-.931-.94-.801-.309-1.44-.279-1.548.35a1 1 0 0 0-.017.1q-.093.029-.18.07c-.377.181-.583.51-.697.912s-.147.888-.178 1.436c-.02.274-.149.645-.28 1.04-1.312.822-3.135 1.178-4.682.25a6 6 0 0 0-.35-.431l-.24-.27c.138.003.275-.02.402-.066a.5.5 0 0 0 .169-.102.5.5 0 0 0 .11-.151c.095-.224 0-.537-.303-.896-.301-.36-.813-.764-1.564-1.17-.552-.302-.861-.671-1.005-1.072-.146-.401-.126-.836-.015-1.264.214-.823.765-1.624 1.114-2.126.095-.06.035.113-.354.747-.348.58-1 1.916-.108 2.961a5.55 5.55 0 0 1 .566-2.209c.493-.984 1.527-2.688 1.608-4.047a4 4 0 0 0 .253.144c.189.1.332.243.516.373.24.178.548.272.863.264.36 0 .64-.104.872-.222.255-.126.457-.268.65-.322.405-.112.729-.31.912-.54.315 1.093 1.05 2.67 1.521 3.439.25.408.75 1.276.964 2.32a2 2 0 0 1 .449.05c.563-1.281-.479-2.663-.954-3.047-.192-.164-.203-.238-.105-.234.515.4 1.193 1.208 1.44 2.118.113.415.135.851.015 1.282q.09.032.18.071c.904.386 1.239.722 1.079 1.182"/><path fill="#E6E6E6" d="M12.06 11.615c-.834.003-1.649.331-2.337.943-.69.612-1.221 1.478-1.527 2.487l.092.05v.005c.705.393 1.207.788 1.518 1.157.328.39.474.77.334 1.098a.72.72 0 0 1-.405.373l-.061.02q.167.192.319.395c1.416.827 3.063.522 4.3-.226.12-.367.23-.706.245-.92.031-.546.063-1.043.186-1.475.123-.435.363-.83.816-1.047.026-.013.051-.02.077-.03a1 1 0 0 1 .032-.124c-.362-.82-.886-1.502-1.514-1.976-.63-.474-1.346-.726-2.073-.73zm3.555 2.839-.003.006v-.002l.002-.005z"/><path fill="#fff" d="M13.917 6.045c.007.311-.107.616-.322.864a7 7 0 0 0-.328-.119l-.19-.059c.043-.046.127-.099.16-.167a.8.8 0 0 0 .075-.32l.002-.014a.8.8 0 0 0-.053-.31.56.56 0 0 0-.161-.243.3.3 0 0 0-.107-.066.4.4 0 0 0-.127-.026h-.011a.37.37 0 0 0-.226.08.6.6 0 0 0-.184.23.8.8 0 0 0-.075.32v.013a1 1 0 0 0 .014.184 3 3 0 0 0-.531-.158 1.4 1.4 0 0 1-.015-.175v-.017a1.2 1.2 0 0 1 .132-.589c.08-.17.209-.32.375-.432a.9.9 0 0 1 .519-.162h.009a.9.9 0 0 1 .513.153c.17.11.303.257.386.427.094.181.14.36.145.57l.002.016zm-2.835.216a1.7 1.7 0 0 0-.416.164.7.7 0 0 0 .003-.197v-.01a.8.8 0 0 0-.072-.254.5.5 0 0 0-.143-.185.2.2 0 0 0-.083-.046.3.3 0 0 0-.096-.014.24.24 0 0 0-.165.086.46.46 0 0 0-.105.206.7.7 0 0 0-.02.27v.01a.8.8 0 0 0 .072.254.5.5 0 0 0 .175.206l-.153.105-.117.074a.9.9 0 0 1-.24-.316 1.3 1.3 0 0 1-.135-.502V6.11a1.25 1.25 0 0 1 .067-.514.86.86 0 0 1 .25-.385.5.5 0 0 1 .18-.114.59.59 0 0 1 .57.077.9.9 0 0 1 .297.357c.08.158.12.317.134.504a1.4 1.4 0 0 1-.003.225"/><path fill="#202020" d="M11.709 6.706c.015.044.098.038.146.059.04.018.075.06.12.06.045.002.114-.013.12-.052.007-.05-.079-.083-.133-.102-.07-.025-.16-.037-.226-.004-.015.007-.032.023-.027.038m-.483 0c-.015.044-.098.038-.144.059-.042.018-.075.06-.122.06-.045.002-.114-.013-.12-.052-.007-.05.079-.083.133-.102.07-.025.161-.037.227-.004.016.007.03.023.026.038"/></svg>