<svg xmlns="http://www.w3.org/2000/svg" width="24" height="24" fill="none" viewBox="0 0 24 24"><path fill="#1D1D1F" d="M11.259 14.248c0 1.767-.92 2.879-2.39 2.879s-2.39-1.118-2.39-2.879c0-1.772.92-2.884 2.39-2.884s2.39 1.112 2.39 2.884m2.05-6.232-.642.043c-.364.025-.525.155-.525.39 0 .247.204.382.488.382.39 0 .68-.253.68-.592zM22.5 12c0 5.861-4.639 10.5-10.5 10.5S1.5 17.861 1.5 12 6.139 1.5 12 1.5 22.5 6.139 22.5 12m-8.066-4.114c0 .853.469 1.372 1.235 1.372.648 0 1.056-.365 1.124-.884h-.506c-.069.285-.29.439-.618.439-.433 0-.698-.352-.698-.927 0-.568.265-.907.698-.907.346 0 .562.197.617.45h.507c-.068-.506-.463-.889-1.124-.889-.766-.006-1.235.513-1.235 1.346M7.374 6.59v2.62h.519V7.601c0-.34.24-.611.556-.611.308 0 .506.185.506.482v1.735h.506V7.553c0-.315.217-.562.556-.562s.507.173.507.537v1.68h.519v-1.81c0-.543-.31-.864-.84-.864-.365 0-.667.185-.797.47h-.043c-.118-.285-.365-.47-.723-.47-.352 0-.618.173-.729.47h-.037v-.42zm4.805 7.66c0-2.28-1.272-3.713-3.31-3.713s-3.311 1.433-3.311 3.712 1.272 3.706 3.31 3.706 3.311-1.433 3.311-3.706M12.5 9.25c.346 0 .63-.148.79-.413h.044v.37h.5v-1.79c0-.55-.37-.878-1.031-.878-.6 0-1.02.29-1.075.729h.5c.056-.192.26-.297.55-.297.352 0 .538.16.538.451v.229l-.71.043c-.624.037-.977.309-.977.784-.006.47.365.772.871.772m5.664 6.541c0-1.019-.593-1.612-2.088-1.94l-.796-.172c-.982-.216-1.365-.605-1.365-1.167 0-.73.692-1.168 1.587-1.168.939 0 1.556.482 1.637 1.273h.895c-.043-1.217-1.074-2.076-2.507-2.076-1.489 0-2.533.834-2.533 2.014 0 1.019.624 1.674 2.063 1.989l.797.173c.995.216 1.396.617 1.396 1.216 0 .705-.71 1.217-1.68 1.217-1.031 0-1.748-.47-1.853-1.241h-.896c.087 1.241 1.13 2.044 2.7 2.044 1.6 0 2.643-.834 2.643-2.162"/></svg>