<svg xmlns="http://www.w3.org/2000/svg" width="24" height="24" fill="none" viewBox="0 0 24 24"><path fill="#FF6700" fill-rule="evenodd" d="M21.24 22H2.76a.76.76 0 0 1-.76-.76V2.759c0-.42.34-.76.76-.76h18.48c.42 0 .76.34.76.76V21.24c0 .42-.34.759-.76.759" clip-rule="evenodd"/><path fill="#fff" d="M17.683 8.29h-1.574a.12.12 0 0 0-.122.12v7.179a.12.12 0 0 0 .122.119h1.574a.12.12 0 0 0 .122-.12V8.41a.12.12 0 0 0-.122-.12m-5.373 0H6.317a.12.12 0 0 0-.122.12v7.179c0 .065.055.119.122.119H7.89a.12.12 0 0 0 .122-.12V9.955a.12.12 0 0 1 .122-.12h3.39c.953 0 1.224.731 1.224 1.202v4.553c0 .065.055.119.122.119h1.573a.12.12 0 0 0 .122-.12v-5.092c0-.42-.05-1.025-.593-1.556-.567-.555-1.084-.65-1.663-.65"/><path fill="#fff" d="M11.208 11.15H9.556a.12.12 0 0 0-.123.118v4.321c0 .066.055.12.123.12h1.652a.12.12 0 0 0 .121-.12v-4.32a.12.12 0 0 0-.121-.12"/></svg>