<svg xmlns="http://www.w3.org/2000/svg" width="24" height="24" fill="none" viewBox="0 0 24 24"><path fill="#8D6748" fill-rule="evenodd" d="m20.486 17.656-8.115 4.692c-.348.203-.78.203-1.127 0l-8.115-4.692a1.13 1.13 0 0 1-.564-.969V7.313c0-.406.216-.767.564-.97l8.115-4.691c.348-.203.78-.203 1.127 0l8.115 4.7c.348.203.564.578.564.97v9.374a1.18 1.18 0 0 1-.564.97z" clip-rule="evenodd"/><path fill="#fff" d="M11.794 3.274c.11 0 .22.035.317.088l7.008 4.049a.66.66 0 0 1 .318.55v8.097a.64.64 0 0 1-.318.551l-7.008 4.044a.61.61 0 0 1-.635 0L4.472 16.61a.66.66 0 0 1-.317-.55V7.965c0-.225.119-.436.317-.55L11.48 3.37a.63.63 0 0 1 .313-.097m0-.335a.95.95 0 0 0-.485.137L4.3 7.12a.96.96 0 0 0-.484.833v8.092c0 .348.18.665.484.833l7.009 4.048a.95.95 0 0 0 .485.137c.167 0 .339-.049.484-.137l7.009-4.044a.96.96 0 0 0 .485-.832V7.953a.94.94 0 0 0-.485-.833l-7.009-4.048a.93.93 0 0 0-.485-.133m1.004 5.014a.117.117 0 0 0-.115-.115h-2.118a.117.117 0 0 0-.115.115c0 .383.057 1.7.621 2.343a.11.11 0 0 0 .08.036h.942a.11.11 0 0 0 .08-.036c.563-.63.62-1.947.625-2.343m-.833 2.052H11.3a.1.1 0 0 1-.08-.035c-.382-.445-.427-1.352-.44-1.67 0-.057.049-.114.115-.114h1.484c.058 0 .115.049.115.115 0 .317-.057 1.207-.44 1.67-.036.021-.058.034-.089.034m-.127-2.392s.405-.237.158-.665c-.145-.224-.216-.418-.158-.498-.146.181-.397.37-.124.776a.63.63 0 0 1 .124.387m-.445.036s.268-.159.101-.445c-.101-.146-.145-.282-.101-.326-.102.123-.26.246-.08.528.058.053.08.199.08.243"/><path fill="#fff" d="M12.312 8.955c-.049.304-.137.652-.326.881-.022.022-.049.035-.066.035h-.564c-.022 0-.057-.013-.066-.035-.137-.167-.225-.396-.282-.63 0 0 .652.088 1.026-.048.265-.106.278-.203.278-.203M4.907 10.78h.418l.687 1.062.688-1.062h.418v2.255h-.396v-1.612l-.71 1.062H6l-.696-1.049v1.613h-.396zm4.25 2.29q-.244 0-.47-.088a1.07 1.07 0 0 1-.609-.616 1.2 1.2 0 0 1-.088-.445v-.013a1.136 1.136 0 0 1 .705-1.062c.146-.066.304-.088.471-.088q.246 0 .472.088a1.07 1.07 0 0 1 .608.617c.057.136.088.3.088.445v.013a1.136 1.136 0 0 1-1.176 1.15m0-.36a.7.7 0 0 0 .305-.067q.132-.067.238-.167a1 1 0 0 0 .158-.247 1 1 0 0 0 .057-.304v-.013a1 1 0 0 0-.057-.317.8.8 0 0 0-.158-.26.8.8 0 0 0-.238-.168.6.6 0 0 0-.304-.066.7.7 0 0 0-.304.066 1 1 0 0 0-.238.168 1 1 0 0 0-.159.247 1 1 0 0 0-.057.304v.013c0 .114.022.216.057.317a.8.8 0 0 0 .159.26q.105.107.238.167a.7.7 0 0 0 .304.066m3.089.36a1.2 1.2 0 0 1-.45-.088 1.2 1.2 0 0 1-.36-.246 1.1 1.1 0 0 1-.239-.37 1.2 1.2 0 0 1-.088-.445v-.013a1.2 1.2 0 0 1 .326-.815 1.165 1.165 0 0 1 .841-.335c.102 0 .19.013.283.022l.238.066c.066.035.136.066.189.114l.167.146-.26.3a1.3 1.3 0 0 0-.282-.199.75.75 0 0 0-.643-.013 1 1 0 0 0-.238.167 1 1 0 0 0-.158.247 1 1 0 0 0-.057.304v.013a1 1 0 0 0 .057.317.8.8 0 0 0 .158.26.65.65 0 0 0 .238.168c.088.035.19.066.3.066.136 0 .26-.022.348-.08.106-.061.203-.136.295-.215l.26.26a1.3 1.3 0 0 1-.18.167c-.067.057-.137.088-.199.123a.8.8 0 0 1-.238.08c-.101.022-.198.022-.304.022zm1.709-2.29h.396v.934h1.084v-.934h.397v2.255h-.397v-.942h-1.08v.942h-.396zm3.621-.009h.361l.992 2.264h-.419l-.225-.546h-1.061l-.238.546h-.405zm.56 1.375-.384-.904-.383.904zM4.62 13.744H19v.123H4.62zM19 9.506h-6.115c0 .048-.014.079-.014.123h6.12v-.123zm-14.371 0v.123h5.758c0-.048-.014-.08-.014-.123z"/></svg>