<svg xmlns="http://www.w3.org/2000/svg" width="24" height="24" fill="none" viewBox="0 0 24 24"><g clip-path="url(#a)"><path fill="#F25022" d="M4 1h7.603v7.603H4z"/><path fill="#7FBA00" d="M12.393 1h7.603v7.603h-7.603z"/><path fill="#00A4EF" d="M4 9.393h7.603v7.603H4z"/><path fill="#FFB900" d="M12.393 9.393h7.603v7.603h-7.603z"/></g><path fill="#000" d="M8.343 21.645h-.529v-2.077q0-.255.032-.624h-.01q-.048.21-.086.302l-.958 2.399h-.367l-.96-2.381a2 2 0 0 1-.085-.32h-.01q.019.192.018.629v2.072h-.492v-3.21h.75l.844 2.138q.096.247.125.367h.011q.083-.253.134-.376l.86-2.128h.723zm.644-.128v-.548a1 1 0 0 0 .175.121 1.5 1.5 0 0 0 .655.168q.335 0 .5-.112a.37.37 0 0 0 .165-.325.34.34 0 0 0-.056-.197.6.6 0 0 0-.152-.154 1.5 1.5 0 0 0-.233-.132 11 11 0 0 0-.284-.134 5 5 0 0 1-.304-.177 1.4 1.4 0 0 1-.247-.197.9.9 0 0 1-.163-.246.8.8 0 0 1-.058-.32q0-.225.1-.392a.9.9 0 0 1 .27-.275 1.2 1.2 0 0 1 .38-.161q.212-.054.434-.054.503 0 .734.114v.526q-.273-.197-.703-.197-.118 0-.237.023a.7.7 0 0 0-.21.073.5.5 0 0 0-.15.133.32.32 0 0 0-.059.194q0 .108.045.186t.13.143q.087.065.21.128.126.06.289.132.168.088.316.183.15.096.261.213a.9.9 0 0 1 .18.26.74.74 0 0 1 .066.322q0 .244-.098.412a.8.8 0 0 1-.266.273q-.165.104-.383.152a2 2 0 0 1-.459.047 2.4 2.4 0 0 1-.439-.05 2 2 0 0 1-.232-.055.7.7 0 0 1-.177-.077m4.704-2.63h-.922v2.758h-.532v-2.757h-.92v-.452h2.374zm1.905 1.753h-1.562q.009.318.194.49.188.173.515.173.368 0 .674-.22v.419q-.314.197-.828.197-.506 0-.795-.311-.285-.314-.286-.88 0-.535.315-.87.318-.338.788-.338t.727.302q.258.301.258.839zm-.502-.367q-.002-.28-.132-.434a.44.44 0 0 0-.358-.157.5.5 0 0 0-.38.164.75.75 0 0 0-.19.427zm.853 1.3v-.48q.291.22.642.22.47 0 .47-.277a.2.2 0 0 0-.04-.132.4.4 0 0 0-.11-.098 1 1 0 0 0-.16-.076l-.207-.076a2 2 0 0 1-.255-.119.8.8 0 0 1-.188-.141.6.6 0 0 1-.112-.181.7.7 0 0 1-.038-.235q0-.166.079-.291a.7.7 0 0 1 .21-.213 1 1 0 0 1 .3-.13q.167-.044.347-.044.318 0 .568.096v.454a.96.96 0 0 0-.734-.145.5.5 0 0 0-.134.056.3.3 0 0 0-.087.087.24.24 0 0 0 0 .235.3.3 0 0 0 .091.092q.063.038.148.071l.2.07q.147.06.263.123.12.063.202.143a.5.5 0 0 1 .127.183q.045.104.045.247a.56.56 0 0 1-.08.304.7.7 0 0 1-.215.215 1 1 0 0 1-.311.125q-.175.043-.37.043a1.6 1.6 0 0 1-.65-.126m3.33.047a.9.9 0 0 1-.4.076q-.667 0-.667-.64v-1.295h-.383v-.408h.383v-.53l.519-.148v.678h.548v.408h-.548v1.146q0 .203.074.29.073.088.246.088a.36.36 0 0 0 .228-.076z"/><defs><clipPath id="a"><path fill="#fff" d="M4 1h16v16H4z"/></clipPath></defs></svg>