<svg xmlns="http://www.w3.org/2000/svg" width="24" height="24" fill="none" viewBox="0 0 24 24"><g clip-path="url(#a)"><path fill="url(#b)" d="m17.153 8.478-.008-.004-.014-.007a.07.07 0 0 1-.017-.056l.464-2.836 2.175 2.176-2.262.962-.02.004h-.009l-.012-.01a1 1 0 0 0-.297-.229m3.155-.173 2.326 2.326c.483.483.725.725.813 1.004q.02.062.032.126l-5.558-2.354-.009-.004c-.022-.009-.048-.019-.048-.042s.027-.033.049-.042l.007-.003zm3.076 4.202c-.12.226-.354.46-.75.856l-2.622 2.622-3.39-.707-.019-.003c-.03-.005-.062-.01-.062-.037a1.02 1.02 0 0 0-.393-.716c-.013-.014-.01-.036-.006-.055q0-.005.002-.009l.637-3.915.003-.014c.003-.03.009-.064.036-.064a1.04 1.04 0 0 0 .696-.4q.007-.009.016-.016c.02-.009.042 0 .062.009zm-3.975 4.08L15.098 20.9l.738-4.536.001-.006q0-.01.004-.017c.006-.015.021-.02.036-.027l.007-.003c.162-.069.305-.175.417-.31.015-.017.032-.033.054-.036h.018l3.036.624m-5.224 5.225-.486.486-5.373-7.765-.006-.009c-.008-.011-.017-.023-.015-.036q.001-.015.013-.025l.006-.008.045-.074.012-.02.002-.002q.01-.024.03-.036.021-.007.044-.001l5.953 1.228q.025.003.045.02.01.011.012.025a1.05 1.05 0 0 0 .616.705c.017.009.01.027.002.047l-.009.027c-.075.456-.718 4.379-.89 5.438m-1.015 1.014c-.358.355-.57.543-.808.618a1.2 1.2 0 0 1-.724 0c-.28-.088-.521-.33-1.004-.813l-5.396-5.396 1.41-2.186a.1.1 0 0 1 .023-.028c.015-.01.037-.006.055 0 .323.098.67.08.983-.05.016-.006.032-.01.045.001l.017.02zm-8.452-6.111-1.239-1.24 2.444-1.043.02-.004c.02 0 .033.02.043.039q.037.057.078.11l.008.01q.009.015-.005.03zm-1.786-1.786-1.566-1.566c-.266-.266-.46-.46-.594-.626l4.762.988.018.003c.03.005.062.01.062.038 0 .03-.036.044-.066.055l-.014.006zM.5 11.932q.008-.15.054-.297c.088-.28.33-.52.813-1.004L3.37 8.627q1.384 2.008 2.776 4.012c.016.022.034.046.015.064a1.7 1.7 0 0 0-.237.316.1.1 0 0 1-.03.038q-.011.005-.025 0h-.001zM3.907 8.09 6.6 5.396c.253.11 1.175.5 2 .848.623.264 1.192.504 1.371.582.018.007.034.015.042.033.005.01.002.024 0 .036a1.2 1.2 0 0 0 .314 1.096c.018.018 0 .044-.016.066l-.008.013-2.736 4.238a.1.1 0 0 1-.026.03c-.014.009-.035.005-.052 0a1.4 1.4 0 0 0-.325-.044c-.099 0-.206.018-.314.038-.012.002-.023.004-.033-.003a.1.1 0 0 1-.027-.03zm3.238-3.238 3.489-3.489c.483-.483.725-.725 1.004-.813a1.2 1.2 0 0 1 .724 0c.28.088.521.33 1.004.813l.756.756-2.48 3.843a.1.1 0 0 1-.025.028c-.015.01-.036.006-.054 0a1.26 1.26 0 0 0-1.152.222c-.017.017-.04.008-.061-.001-.324-.141-2.844-1.206-3.205-1.36m7.504-2.206 2.29 2.29-.551 3.42v.009l-.005.022c-.006.012-.018.015-.03.018a1.1 1.1 0 0 0-.365.19l-.026-.005-3.49-1.483-.007-.003c-.022-.009-.049-.02-.049-.043a1.3 1.3 0 0 0-.186-.549c-.016-.027-.035-.056-.02-.084zm-2.36 5.164 3.273 1.386c.018.008.038.016.046.034a.1.1 0 0 1 0 .035 1 1 0 0 0-.018.157v.092c0 .023-.024.033-.045.042l-.007.002c-.518.221-7.278 3.104-7.288 3.104s-.021 0-.031-.01c-.018-.018 0-.044.016-.066l.008-.012 2.69-4.164.004-.008c.016-.025.034-.053.063-.053l.027.004q.09.015.17.016c.408 0 .786-.198 1.014-.538a.1.1 0 0 1 .02-.024c.016-.012.04-.006.059.003m-3.747 5.51 7.368-3.142s.011 0 .021.01a1 1 0 0 0 .108.093l.016.01c.015.009.03.018.031.034l-.001.015-.631 3.877-.003.016c-.004.03-.008.064-.036.064a1.04 1.04 0 0 0-.824.508l-.003.005c-.009.014-.016.027-.03.034q-.021.007-.042 0L8.64 13.634c-.006-.002-.091-.312-.098-.312"/></g><defs><radialGradient id="b" cx="0" cy="0" r="1" gradientTransform="matrix(0 2298.06 -2653.19 0 -.273 11.673)" gradientUnits="userSpaceOnUse"><stop stop-color="#20C6B7"/><stop offset="1" stop-color="#4D9ABF"/></radialGradient><clipPath id="a"><path fill="#fff" d="M0 0h24v24H0z"/></clipPath></defs></svg>