<svg xmlns="http://www.w3.org/2000/svg" width="24" height="24" fill="none" viewBox="0 0 24 24"><path fill="#fff" d="m4.029 22.3-.403-.403 2.2-2.2-3.623-3.622.403-.403 4.025 4.026z"/><path fill="#fff" d="M21.637 19.414H6.227v.57h15.41z"/><path fill="#502D17" d="M5.335 2.294a.38.38 0 0 1 .507-.397l3.587 1.32-3.6 3.473zM18.018 2.294a.378.378 0 0 0-.507-.397l-3.588 1.32 3.601 3.473z"/><path fill="#794422" d="M11.72 21.36c4.78 0 8.656-3.327 8.656-7.431S16.5 6.498 11.72 6.498c-4.78 0-8.656 3.327-8.656 7.431s3.876 7.431 8.657 7.431"/><path fill="#502D17" d="M18.877 11.9c0 5.542-3.207 10.035-7.163 10.035S4.55 17.442 4.55 11.899 7.758 1.863 11.714 1.863s7.163 4.493 7.163 10.036"/><path fill="#fff" d="M8.824 12.29c1.845 0 3.34-1.703 3.34-3.805S10.67 4.68 8.824 4.68s-3.34 1.703-3.34 3.805 1.495 3.805 3.34 3.805"/><path fill="#fff" d="M16.705 16.05c0 2.563-2.234 4.643-4.99 4.643-2.754 0-4.988-2.08-4.988-4.644s2.234-4.644 4.989-4.644 4.99 2.08 4.99 4.644"/><path fill="#fff" d="M17.891 8.486c0 2.101-1.495 3.805-3.34 3.805s-3.34-1.704-3.34-3.805 1.495-3.806 3.34-3.806 3.34 1.704 3.34 3.806"/><path fill="#FF7F2B" d="M11.445 9.782a.76.76 0 0 1 .574.005c.582.243.999.54 1.365.973.122.144.13.35.03.51-.383.608-.845 1.065-1.435 1.519a.404.404 0 0 1-.49 0c-.59-.454-1.053-.911-1.435-1.52a.43.43 0 0 1 .03-.504c.38-.45.752-.744 1.361-.984"/><path fill="#D6D6D6" d="M11.385 13.692a.668.668 0 1 1-1.336 0zM13.42 13.692a.668.668 0 1 1-1.336 0zM10.368 15.03a.668.668 0 1 1-1.336 0zM12.402 15.03a.667.667 0 1 1-1.336 0zM14.427 15.03a.668.668 0 1 1-1.335 0zM9.36 16.33a.667.667 0 1 1-1.336 0zM11.385 16.33a.667.667 0 1 1-1.336 0zM13.42 16.33a.667.667 0 1 1-1.336 0zM15.444 16.33a.667.667 0 1 1-1.335 0zM10.368 17.658a.668.668 0 1 1-1.336 0zM12.402 17.658a.667.667 0 1 1-1.336 0zM14.427 17.658a.668.668 0 1 1-1.335 0zM11.385 18.957a.667.667 0 1 1-1.336 0zM13.42 18.957a.668.668 0 1 1-1.336 0z"/><path fill="#C2DDEB" d="M9.264 10a1.944 1.944 0 1 0 0-3.886 1.944 1.944 0 0 0 0 3.887"/><path fill="#000" d="M9.262 9.271a1.216 1.216 0 1 0 0-2.432 1.216 1.216 0 0 0 0 2.432"/><path fill="#fff" d="M9.57 8.06a.45.45 0 1 0 0-.9.45.45 0 0 0 0 .9"/><path fill="#C2DDEB" d="M14.021 10.002a1.944 1.944 0 1 0 0-3.889 1.944 1.944 0 0 0 0 3.889"/><path fill="#000" d="M14.019 9.271a1.216 1.216 0 1 0 0-2.432 1.216 1.216 0 0 0 0 2.432"/><path fill="#fff" d="M14.326 8.06a.45.45 0 1 0 0-.9.45.45 0 0 0 0 .9"/><path fill="#FF7F2B" d="M15.75 21.936c0 .512-.283.927-.63.927-.35 0-.632-.415-.632-.927 0 .512-.283.927-.632.927s-.632-.415-.632-.927c0 .512-.282.927-.631.927s-.632-.415-.632-.927c0-.725.846-1.312 1.89-1.312 1.042 0 1.888.587 1.888 1.312zM11.446 21.936c0 .512-.284.927-.632.927s-.632-.415-.632-.927c0 .512-.282.927-.631.927s-.631-.415-.631-.927c0 .512-.283.927-.632.927s-.631-.415-.631-.927c0-.725.845-1.312 1.888-1.312 1.044 0 1.89.587 1.89 1.312z"/></svg>