<svg xmlns="http://www.w3.org/2000/svg" width="24" height="24" fill="none" viewBox="0 0 24 24"><path fill="#539E43" d="M11.865 19.314a.5.5 0 0 1-.228-.06l-.72-.428c-.109-.06-.055-.08-.022-.092.146-.048.173-.06.325-.146.016-.01.038-.005.054.006l.553.33c.021.01.048.01.065 0l2.161-1.251q.033-.018.033-.06v-2.497q0-.044-.033-.06l-2.161-1.246c-.022-.011-.05-.011-.065 0l-2.162 1.246c-.022.01-.032.038-.032.06v2.497c0 .022.01.049.032.06l.59.34c.32.163.52-.026.52-.216v-2.465c0-.032.028-.065.066-.065h.276c.032 0 .065.027.065.065v2.465c0 .428-.233.677-.64.677-.124 0-.221 0-.498-.135l-.569-.325a.46.46 0 0 1-.227-.396v-2.497a.46.46 0 0 1 .227-.396l2.162-1.251a.48.48 0 0 1 .455 0l2.162 1.251a.46.46 0 0 1 .227.396v2.497a.46.46 0 0 1-.227.396l-2.162 1.251a.6.6 0 0 1-.227.05m.666-1.717c-.948 0-1.143-.434-1.143-.802 0-.033.027-.065.065-.065h.282c.032 0 .06.022.06.054.043.287.167.428.741.428.455 0 .65-.103.65-.347 0-.14-.054-.243-.763-.314-.59-.06-.96-.19-.96-.66 0-.44.37-.7.987-.7.693 0 1.035.239 1.078.759a.1.1 0 0 1-.016.049c-.011.01-.027.021-.044.021h-.281a.06.06 0 0 1-.06-.049c-.065-.297-.233-.395-.677-.395-.499 0-.558.173-.558.303 0 .157.07.206.742.293.666.087.98.211.98.677-.005.477-.395.748-1.083.748"/><path fill="#333" d="M5.158 9.546a.28.28 0 0 0-.141-.238L2.72 7.986a.3.3 0 0 0-.125-.038h-.022a.26.26 0 0 0-.124.038L.152 9.308a.28.28 0 0 0-.141.238L.016 13.1c0 .049.027.098.07.12a.12.12 0 0 0 .136 0l1.365-.78a.28.28 0 0 0 .141-.24v-1.662c0-.098.054-.19.141-.239l.58-.336a.26.26 0 0 1 .14-.038c.05 0 .098.011.136.038l.58.336c.086.049.14.141.14.239V12.2c0 .097.055.19.141.238l1.366.78a.13.13 0 0 0 .14 0 .14.14 0 0 0 .071-.119zm11.04-4.892a.15.15 0 0 0-.135 0 .14.14 0 0 0-.07.12v3.52a.1.1 0 0 1-.049.087.1.1 0 0 1-.098 0l-.574-.33a.28.28 0 0 0-.276 0l-2.297 1.327a.28.28 0 0 0-.141.239v2.649c0 .097.054.19.14.238l2.298 1.328a.28.28 0 0 0 .276 0l2.297-1.328a.28.28 0 0 0 .141-.238V5.662a.28.28 0 0 0-.14-.244zm-.21 6.74q0 .041-.033.06l-.786.454a.08.08 0 0 1-.07 0l-.786-.455c-.021-.01-.032-.038-.032-.06v-.91q0-.041.032-.06l.786-.454a.08.08 0 0 1 .07 0l.786.455c.022.01.032.038.032.06zm7.855-.932a.27.27 0 0 0 .135-.239V9.58a.28.28 0 0 0-.135-.239l-2.28-1.322a.28.28 0 0 0-.277 0l-2.297 1.328a.28.28 0 0 0-.141.238v2.65c0 .097.054.189.14.238l2.282 1.3c.086.049.19.049.27 0l1.382-.77a.14.14 0 0 0 .07-.119.14.14 0 0 0-.07-.119l-2.308-1.327a.14.14 0 0 1-.07-.12v-.828c0-.049.027-.098.07-.12l.72-.411a.13.13 0 0 1 .141 0l.72.412a.14.14 0 0 1 .071.119v.65c0 .049.028.098.07.12a.13.13 0 0 0 .142 0z"/><path fill="#539E43" d="M21.389 10.339a.05.05 0 0 1 .054 0l.439.254q.026.016.027.049v.51q-.002.03-.027.048l-.44.255a.05.05 0 0 1-.053 0l-.44-.255a.06.06 0 0 1-.026-.049v-.509q0-.033.027-.049z"/><path fill="url(#a)" d="M8.999 8.03a.28.28 0 0 0-.277 0l-2.28 1.317a.27.27 0 0 0-.136.238v2.639c0 .097.054.19.136.238l2.28 1.317a.28.28 0 0 0 .277 0l2.28-1.317a.27.27 0 0 0 .136-.238V9.585a.28.28 0 0 0-.135-.238z"/><mask id="b" width="6" height="7" x="6" y="7" maskUnits="userSpaceOnUse" style="mask-type:luminance"><path fill="#fff" d="M8.999 8.034a.28.28 0 0 0-.277 0L6.442 9.35a.27.27 0 0 0-.136.239v2.638c0 .098.054.19.136.239l2.28 1.316a.28.28 0 0 0 .277 0l2.28-1.316a.27.27 0 0 0 .136-.239V9.59a.28.28 0 0 0-.135-.239z"/></mask><g mask="url(#b)"><path fill="url(#c)" d="M11.285 9.35 8.993 8.034a.4.4 0 0 0-.07-.027l-2.568 4.399a.3.3 0 0 0 .076.065l2.291 1.316a.26.26 0 0 0 .212.027l2.41-4.41a.3.3 0 0 0-.06-.054"/></g><mask id="d" width="6" height="7" x="6" y="7" maskUnits="userSpaceOnUse" style="mask-type:luminance"><path fill="#fff" d="M8.999 8.034a.28.28 0 0 0-.277 0L6.442 9.35a.27.27 0 0 0-.136.239v2.638c0 .098.054.19.136.239l2.28 1.316a.28.28 0 0 0 .277 0l2.28-1.316a.27.27 0 0 0 .136-.239V9.59a.28.28 0 0 0-.135-.239z"/></mask><g fill-rule="evenodd" clip-rule="evenodd" mask="url(#d)"><path fill="url(#e)" d="M11.29 12.459a.3.3 0 0 0 .136-.173L8.912 7.995a.28.28 0 0 0-.195.032L6.442 9.338l2.454 4.475a.4.4 0 0 0 .103-.032z"/><path fill="url(#f)" d="m11.29 12.461-2.286 1.317a.3.3 0 0 1-.103.032l.044.082 2.535-1.469v-.032l-.065-.108a.25.25 0 0 1-.125.178"/><path fill="url(#g)" d="m11.29 12.461-2.286 1.317a.3.3 0 0 1-.103.032l.044.082 2.535-1.469v-.032l-.065-.108a.25.25 0 0 1-.125.178"/></g><defs><linearGradient id="a" x1="354.669" x2="104.671" y1="109.788" y2="502.608" gradientUnits="userSpaceOnUse"><stop stop-color="#41873F"/><stop offset=".329" stop-color="#418B3D"/><stop offset=".635" stop-color="#419637"/><stop offset=".932" stop-color="#3FA92D"/><stop offset="1" stop-color="#3FAE2A"/></linearGradient><linearGradient id="c" x1="222.292" x2="848.399" y1="329.021" y2="-11.145" gradientUnits="userSpaceOnUse"><stop offset=".138" stop-color="#41873F"/><stop offset=".403" stop-color="#54A044"/><stop offset=".714" stop-color="#66B848"/><stop offset=".908" stop-color="#6CC04A"/></linearGradient><linearGradient id="e" x1="-15.434" x2="512.34" y1="299.144" y2="299.144" gradientUnits="userSpaceOnUse"><stop offset=".092" stop-color="#6CC04A"/><stop offset=".286" stop-color="#66B848"/><stop offset=".597" stop-color="#54A044"/><stop offset=".862" stop-color="#41873F"/></linearGradient><linearGradient id="f" x1="-258.934" x2="268.835" y1="93.177" y2="93.177" gradientUnits="userSpaceOnUse"><stop offset=".092" stop-color="#6CC04A"/><stop offset=".286" stop-color="#66B848"/><stop offset=".597" stop-color="#54A044"/><stop offset=".862" stop-color="#41873F"/></linearGradient><linearGradient id="g" x1="345.724" x2="212.019" y1="-327.334" y2="373.272" gradientUnits="userSpaceOnUse"><stop stop-color="#41873F"/><stop offset=".329" stop-color="#418B3D"/><stop offset=".635" stop-color="#419637"/><stop offset=".932" stop-color="#3FA92D"/><stop offset="1" stop-color="#3FAE2A"/></linearGradient></defs></svg>