<svg xmlns="http://www.w3.org/2000/svg" width="24" height="24" fill="none" viewBox="0 0 24 24"><g fill="#015AFF" clip-path="url(#a)"><path d="M0 14.313h.822v-3.505l4.218 3.66v-1.101L0 8.996zM14.393 9.17h1.2l-2.97 2.571 2.954 2.557H14.38l-2.943-2.56zM16.584 9.174h.807v5.13h-.807zM20.589 9.77l.44-.774L24 14.303h-.891l-.635-1.135h-2.888l-.646 1.134h-.885l1.071-1.902h2.932zM8.062 9.066c-1.566 0-2.728 1.14-2.728 2.654 0 1.578 1.08 2.624 2.762 2.641 1.624 0 2.747-1.109 2.747-2.646 0-1.5-1.215-2.649-2.781-2.649m0 .72c1.12 0 1.974.858 1.974 1.934 0 1.095-.791 1.921-1.94 1.921-1.183 0-1.946-.875-1.96-1.921 0-1.089.875-1.934 1.926-1.934"/></g><defs><clipPath id="a"><path fill="#fff" d="M0 9h24v5.474H0z"/></clipPath></defs></svg>