<svg xmlns="http://www.w3.org/2000/svg" width="24" height="24" fill="none" viewBox="0 0 24 24"><path fill="url(#a)" d="M8.846 17.912c-1.164-1.37-1.91-3.396-1.96-5.669v-.492c.05-2.272.804-4.298 1.96-5.668 1.51-1.953 3.725-2.83 6.227-2.83 1.542 0 2.994.106 4.224.927a10.4 10.4 0 0 0-6.956-2.683H12.3c-5.8 0-10.5 4.7-10.5 10.5 0 5.627 4.43 10.23 10 10.492.164.008.336.008.5.008 2.69 0 5.143-1.009 6.997-2.674-1.23.82-2.6.853-4.142.853-2.494.008-4.807-.804-6.309-2.764"/><path fill="url(#b)" d="M8.847 6.083c.96-1.14 2.206-1.822 3.568-1.822 3.06 0 5.537 3.462 5.537 7.744s-2.477 7.744-5.537 7.744c-1.362 0-2.6-.69-3.568-1.821 1.509 1.952 3.748 3.199 6.242 3.199a7.56 7.56 0 0 0 4.208-1.288 10.53 10.53 0 0 0 3.503-7.842c0-3.109-1.353-5.906-3.503-7.826a7.54 7.54 0 0 0-4.208-1.288c-2.502 0-4.741 1.239-6.242 3.2"/><defs><linearGradient id="a" x1="10.549" x2="10.549" y1="1.839" y2="22.192" gradientUnits="userSpaceOnUse"><stop offset=".3" stop-color="#FF1B2D"/><stop offset=".438" stop-color="#FA1A2C"/><stop offset=".594" stop-color="#ED1528"/><stop offset=".758" stop-color="#D60E21"/><stop offset=".927" stop-color="#B70519"/><stop offset="1" stop-color="#A70014"/></linearGradient><linearGradient id="b" x1="15.822" x2="15.822" y1="3.039" y2="21.039" gradientUnits="userSpaceOnUse"><stop stop-color="#9C0000"/><stop offset=".7" stop-color="#FF4B4B"/></linearGradient></defs></svg>