<svg xmlns="http://www.w3.org/2000/svg" width="24" height="24" fill="none" viewBox="0 0 24 24"><path fill="#006B33" d="M6.293 12.565V9.641h.831v.193c0 .106.002.193.003.193.002 0 .055-.035.117-.078.735-.505 1.803-.657 2.76-.393.863.238 1.489.803 1.711 1.545.13.434.123.916-.02 1.335-.177.522-.542.941-1.068 1.229q-.69.377-1.575.377c-.489 0-.944-.09-1.346-.264a3 3 0 0 1-.486-.272l-.096-.068v2.051h-.831zm3.16.7c.468-.073.83-.236 1.102-.495.206-.196.35-.468.404-.767.022-.122.022-.41 0-.531a1.42 1.42 0 0 0-.522-.872 2.2 2.2 0 0 0-.478-.263 2.74 2.74 0 0 0-1.344-.121c-.78.125-1.307.55-1.449 1.167a1.6 1.6 0 0 0 .031.822c.188.583.74.971 1.52 1.068.158.02.589.014.737-.009m2.755-.7V9.641h.83v.193c0 .106.002.193.004.193s.048-.031.102-.07c.124-.088.369-.221.526-.285a3.6 3.6 0 0 1 2.232-.12c1.182.326 1.878 1.219 1.812 2.324-.05.844-.562 1.537-1.403 1.901a3.3 3.3 0 0 1-.907.242 5 5 0 0 1-.88 0c-.55-.072-1.031-.25-1.407-.522l-.079-.057v2.049h-.83zm3.18.695c.647-.106 1.103-.392 1.342-.843.14-.261.192-.61.14-.932-.107-.672-.645-1.137-1.468-1.27-.543-.087-1.157 0-1.574.224q-.638.343-.77 1.026a2.2 2.2 0 0 0 .001.544c.062.315.202.576.414.772.293.27.674.43 1.168.493.163.02.584.013.747-.014m-12.526.776a3.4 3.4 0 0 1-1.136-.288c-.729-.34-1.188-.917-1.313-1.643a3 3 0 0 1-.017-.6c.09-.872.674-1.562 1.599-1.888a3.6 3.6 0 0 1 1.64-.153c.996.14 1.749.647 2.08 1.4.27.612.235 1.356-.089 1.928a2.3 2.3 0 0 1-.634.702c-.385.276-.845.449-1.404.525a7 7 0 0 1-.727.018m.59-.762c.433-.05.797-.186 1.072-.4a1.43 1.43 0 0 0 .481-.696c.047-.155.056-.228.056-.44s-.01-.285-.056-.44c-.151-.511-.596-.892-1.217-1.042-.545-.131-1.18-.086-1.65.12-.34.147-.608.386-.765.681a1.55 1.55 0 0 0-.098 1.11c.115.398.417.73.833.917.227.102.508.172.786.198.107.01.446.005.558-.008m17.134.762-.135-.015a3.2 3.2 0 0 1-1.294-.426 2.18 2.18 0 0 1-.962-1.223 2.25 2.25 0 0 1-.05-1.074 2.13 2.13 0 0 1 .86-1.318c.604-.44 1.492-.636 2.349-.517.712.098 1.299.384 1.707.832.31.34.49.74.54 1.21a3 3 0 0 1-.003.497c-.112.932-.785 1.644-1.815 1.921a3 3 0 0 1-.876.114 7 7 0 0 1-.32 0m.547-.757c.548-.056.995-.254 1.282-.57a1.36 1.36 0 0 0 .352-.733 2 2 0 0 0 0-.482c-.1-.654-.626-1.128-1.404-1.267a2.5 2.5 0 0 0-.506-.044c-.872 0-1.55.361-1.81.966-.077.18-.113.366-.113.588 0 .294.063.527.203.76.259.426.75.698 1.398.776.134.016.462.02.598.006"/></svg>