<svg xmlns="http://www.w3.org/2000/svg" width="24" height="24" fill="none" viewBox="0 0 24 24"><path fill="url(#a)" d="M12 18.315c6.627 0 12-2.827 12-6.313 0-3.487-5.373-6.313-12-6.313S0 8.515 0 12.002s5.373 6.313 12 6.313"/><path fill="#6280B6" d="M12 17.847c6.369 0 11.531-2.616 11.531-5.844C23.531 8.776 18.37 6.16 12 6.16 5.632 6.16.469 8.776.469 12.003S5.632 17.847 12 17.847"/><path fill="#fff" d="m14.336 13.889.572-2.944a1.5 1.5 0 0 0-.32-1.473 2.5 2.5 0 0 0-1.714-.45h-.988l.284-1.457a.188.188 0 0 0-.184-.223h-1.372a.19.19 0 0 0-.184.152l-.608 3.125a1.76 1.76 0 0 0-.409-.904 2.38 2.38 0 0 0-1.886-.691H4.886a.19.19 0 0 0-.185.151l-1.229 6.326a.188.188 0 0 0 .185.223H5.03a.19.19 0 0 0 .184-.152l.297-1.53H6.54a4.4 4.4 0 0 0 1.344-.171 2.6 2.6 0 0 0 .986-.59c.23-.21.426-.455.582-.724l-.246 1.264a.188.188 0 0 0 .185.223h1.371a.19.19 0 0 0 .184-.152l.675-3.472h.938c.4 0 .514.08.548.114s.086.141.022.488l-.545 2.798a.188.188 0 0 0 .185.223h1.388a.19.19 0 0 0 .178-.154m-6.339-2.43c-.042.36-.213.693-.48.937-.337.21-.732.306-1.128.275h-.61l.441-2.272h.79c.58 0 .813.124.907.228a1 1 0 0 1 .08.833m12.186-1.744a2.38 2.38 0 0 0-1.885-.692h-2.65a.19.19 0 0 0-.184.152l-1.23 6.326a.188.188 0 0 0 .185.223h1.378a.19.19 0 0 0 .185-.152l.297-1.53h1.029c.454.012.907-.046 1.344-.172a2.6 2.6 0 0 0 .985-.59 2.94 2.94 0 0 0 .923-1.652 2.15 2.15 0 0 0-.377-1.913m-1.429 1.743a1.5 1.5 0 0 1-.48.936c-.338.21-.734.306-1.13.275h-.609l.442-2.273h.79c.58 0 .813.125.907.228a1.01 1.01 0 0 1 .08.834"/><path fill="#000004" d="M7.01 10.207a1.4 1.4 0 0 1 1.046.29 1.15 1.15 0 0 1 .125.994 1.67 1.67 0 0 1-.55 1.049 2.02 2.02 0 0 1-1.242.317h-.838l.514-2.648zm-3.358 5.327h1.379l.326-1.681h1.18a4.2 4.2 0 0 0 1.286-.164 2.4 2.4 0 0 0 .917-.55 2.75 2.75 0 0 0 .866-1.55 1.97 1.97 0 0 0-.33-1.752 2.2 2.2 0 0 0-1.744-.627H4.886zm6.966-8.007h1.37l-.33 1.682h1.217a2.37 2.37 0 0 1 1.586.4 1.33 1.33 0 0 1 .261 1.3l-.571 2.944h-1.388l.544-2.799a.76.76 0 0 0-.068-.651.96.96 0 0 0-.686-.172H11.46l-.705 3.624h-1.37zm7.148 2.68a1.4 1.4 0 0 1 1.047.29 1.15 1.15 0 0 1 .124.994 1.67 1.67 0 0 1-.55 1.049c-.37.238-.806.349-1.244.317h-.838l.514-2.648zm-3.357 5.327h1.378l.326-1.681h1.18a4.2 4.2 0 0 0 1.287-.164c.342-.113.656-.301.917-.55.452-.407.756-.952.865-1.55a1.97 1.97 0 0 0-.33-1.752 2.2 2.2 0 0 0-1.744-.627h-2.65z"/><defs><radialGradient id="a" cx="0" cy="0" r="1" gradientTransform="translate(7.205 7.91)scale(15.7577)" gradientUnits="userSpaceOnUse"><stop stop-color="#fff"/><stop offset=".5" stop-color="#4C6B96"/><stop offset="1" stop-color="#231F20"/></radialGradient></defs></svg>