<svg xmlns="http://www.w3.org/2000/svg" width="24" height="24" fill="none" viewBox="0 0 24 24"><g clip-path="url(#a)"><path fill="#2D4552" d="M7.91 13.161c-.895.255-1.483.7-1.87 1.146.37-.325.867-.623 1.537-.812.686-.195 1.27-.193 1.754-.1v-.378a3.9 3.9 0 0 0-1.42.144M6 9.984l-3.327.877s.06.086.172.2l2.822-.743s-.04.515-.388.976c.657-.497.72-1.31.72-1.31m2.785 7.822c-4.682 1.262-7.16-4.166-7.91-6.984-.346-1.3-.498-2.285-.538-2.92a1 1 0 0 1 .003-.173c-.243.015-.36.14-.336.506.04.635.192 1.62.538 2.92.75 2.818 3.227 8.246 7.91 6.984 1.019-.274 1.785-.775 2.36-1.413-.53.478-1.193.855-2.027 1.08m.88-11.144v.334H11.5c-.038-.118-.076-.225-.114-.334z"/><path fill="#2D4552" d="M11.91 9.408c.827.234 1.264.814 1.495 1.326l.92.262S14.2 9.202 12.579 8.74c-1.518-.431-2.452.843-2.566 1.008.442-.314 1.087-.572 1.899-.341m7.332 1.335c-1.52-.434-2.453.844-2.565 1.006.442-.314 1.086-.572 1.898-.34.825.235 1.262.814 1.493 1.327l.922.262s-.127-1.794-1.748-2.255m-.915 4.73-7.661-2.142s.083.42.401.965l6.45 1.804c.531-.308.81-.627.81-.627m-5.312 4.611c-6.066-1.626-5.332-9.358-4.35-13.021.403-1.51.819-2.632 1.163-3.384-.205-.043-.375.066-.544.408-.365.742-.833 1.95-1.286 3.642-.981 3.664-1.715 11.395 4.351 13.022 2.86.766 5.087-.399 6.747-2.227-1.576 1.427-3.588 2.228-6.08 1.56"/><path fill="#E2574C" d="M9.664 15.996v-1.56L5.33 15.665s.32-1.861 2.58-2.503c.686-.194 1.27-.193 1.754-.1V6.664h2.17a13 13 0 0 0-.657-1.683c-.318-.646-.643-.218-1.382.4-.52.436-1.836 1.363-3.816 1.897s-3.58.392-4.247.277C.785 7.39.29 7.182.337 7.903c.04.635.191 1.62.538 2.92.75 2.817 3.227 8.246 7.91 6.984 1.222-.33 2.086-.981 2.684-1.812zM2.67 10.862 6 9.985s-.097 1.28-1.345 1.61c-1.247.328-1.983-.733-1.983-.733"/><path fill="#2EAD33" d="M22.187 6.738c-.865.152-2.94.34-5.504-.347-2.566-.687-4.268-1.89-4.942-2.454-.956-.8-1.376-1.358-1.79-.516-.366.743-.834 1.951-1.287 3.643-.981 3.664-1.714 11.395 4.351 13.022 6.065 1.625 9.293-5.437 10.275-9.101.453-1.692.651-2.973.706-3.798.062-.936-.58-.664-1.809-.45M10 9.768s.956-1.486 2.577-1.025c1.623.46 1.748 2.255 1.748 2.255zm3.958 6.674c-2.852-.835-3.292-3.11-3.292-3.11l7.66 2.143s-1.546 1.793-4.368.967m2.708-4.674s.955-1.487 2.576-1.024c1.62.461 1.748 2.255 1.748 2.255z"/><path fill="#D65348" d="m8.15 14.865-2.82.8s.307-1.745 2.383-2.437L6.117 7.235l-.138.042c-1.98.534-3.58.393-4.247.277C.785 7.39.29 7.183.336 7.903c.04.635.192 1.62.538 2.92.75 2.818 3.228 8.246 7.91 6.984l.138-.043zm-5.48-4.002L6 9.986s-.097 1.28-1.345 1.61c-1.247.328-1.983-.733-1.983-.733"/><path fill="#1D8D22" d="m14.086 16.474-.129-.032c-2.851-.835-3.291-3.11-3.291-3.11l3.95 1.105 2.092-8.04-.026-.006c-2.565-.687-4.267-1.89-4.941-2.454-.956-.8-1.377-1.358-1.79-.516-.366.743-.834 1.951-1.287 3.643-.981 3.664-1.714 11.395 4.351 13.022l.125.028zM10 9.769s.956-1.487 2.577-1.026c1.623.46 1.748 2.255 1.748 2.255z"/><path fill="#C04B41" d="m8.293 14.826-.756.215c.179 1.007.494 1.974.988 2.827.086-.019.171-.035.259-.059.23-.062.442-.139.647-.222-.552-.82-.917-1.764-1.138-2.76m-.295-7.094c-.389 1.45-.736 3.539-.64 5.633q.253-.114.553-.201l.14-.031c-.171-2.237.198-4.516.613-6.067a30 30 0 0 1 .316-1.098c-.17.108-.352.219-.56.333-.14.433-.281.906-.422 1.431"/></g><defs><clipPath id="a"><path fill="#fff" d="M0 0h24v24H0z"/></clipPath></defs></svg>