<svg xmlns="http://www.w3.org/2000/svg" width="24" height="24" fill="none" viewBox="0 0 24 24"><path fill="#DFDEDF" d="M19.86 13.427H4.115v-.887c0-.597.484-1.08 1.08-1.08H18.78c.597 0 1.08.483 1.08 1.08z"/><path fill="#fff" d="M18.763 23.72H5.213a1.097 1.097 0 0 1-1.097-1.098v-9.199H19.86v9.2c0 .605-.49 1.096-1.096 1.096"/><path fill="#000" d="M19.664 13.245v-.796a.85.85 0 0 0-.851-.851H5.187a.85.85 0 0 0-.85.85v.797zm0 9.492v-9.135H4.336v9.135c0 .47.381.85.851.85h13.626a.85.85 0 0 0 .85-.85M5.267 11.24l.053-.58-.225.584.092-.004zm13.373-.976.078.976h.095q.075 0 .15.01zm1.08 1.389c.187.213.3.49.3.795v10.288a1.21 1.21 0 0 1-1.207 1.208H5.187a1.21 1.21 0 0 1-1.208-1.209V12.45c0-.323.128-.616.335-.833L5.52 8.494l.525-5.737.592.054-.473 5.17.167.064-.226.586-.24 2.61h12.257l-.68-8.444.593-.048.401 4.98zm-14.415.526a.27.27 0 1 1 0 .539.27.27 0 0 1 0-.54m.922 0a.27.27 0 1 1 0 .539.27.27 0 0 1 0-.54m.892 0a.27.27 0 1 1 0 .539.27.27 0 0 1 0-.54"/><path fill="#000" d="M6.236 18.03a.3.3 0 0 0 .071-.211.3.3 0 0 0-.07-.209q-.075-.08-.205-.079h-.43v.578h.43q.131.001.204-.079m-.204-.846q.277 0 .44.172.165.174.164.463a.65.65 0 0 1-.16.462.58.58 0 0 1-.444.175h-.43v.778h-.331v-2.05zm1.788 1.257v-.598h.357v1.35H7.82v-.122a.57.57 0 0 1-.424.163.52.52 0 0 1-.393-.16.57.57 0 0 1-.148-.408v-.823h.357v.747q0 .143.075.23a.25.25 0 0 0 .198.087q.336 0 .335-.466m1.75.37a.4.4 0 0 0 .106-.291.4.4 0 0 0-.106-.295.37.37 0 0 0-.273-.111q-.15 0-.268.113a.4.4 0 0 0-.116.293q0 .179.116.289a.38.38 0 0 0 .268.114q.164 0 .273-.111m-.21-1.008q.264 0 .464.203a.7.7 0 0 1 .198.514.7.7 0 0 1-.198.51.63.63 0 0 1-.465.204.7.7 0 0 1-.446-.146v.75h-.357v-1.995h.357v.109a.67.67 0 0 1 .446-.15m1.947 1.009a.4.4 0 0 0 .105-.292.4.4 0 0 0-.105-.295.37.37 0 0 0-.274-.111q-.15 0-.267.113a.4.4 0 0 0-.117.293q0 .179.117.289a.37.37 0 0 0 .267.114q.165 0 .274-.111m-.211-1.01q.264 0 .465.204a.7.7 0 0 1 .197.514.7.7 0 0 1-.197.51.63.63 0 0 1-.465.204.7.7 0 0 1-.447-.146v.75h-.357v-1.995h.357v.109q.18-.15.447-.15m1.19.56h.652a.32.32 0 0 0-.12-.186.36.36 0 0 0-.406.003.3.3 0 0 0-.126.184m.332-.56q.277.001.476.193.197.194.209.498v.121h-1.028q.029.142.122.228a.3.3 0 0 0 .216.086q.23 0 .335-.178l.32.067a.64.64 0 0 1-.257.311.74.74 0 0 1-.398.106.67.67 0 0 1-.492-.2.7.7 0 0 1-.2-.514q0-.314.202-.517a.67.67 0 0 1 .495-.2m1.67 1.1a.5.5 0 0 0 .224-.066l.102.298a.74.74 0 0 1-.351.1.55.55 0 0 1-.39-.136q-.14-.132-.14-.402v-.56h-.29v-.293h.29v-.408h.357v.408h.44v.293h-.44v.532q0 .233.197.233m.748-.54h.652a.32.32 0 0 0-.119-.186.36.36 0 0 0-.406.003.3.3 0 0 0-.127.184m.333-.56q.277.001.476.193.198.194.208.498v.121h-1.028q.03.142.122.228a.3.3 0 0 0 .217.086q.23 0 .335-.178l.32.067a.64.64 0 0 1-.258.311.74.74 0 0 1-.397.106.67.67 0 0 1-.493-.2.7.7 0 0 1-.2-.514q0-.314.203-.517a.67.67 0 0 1 .495-.2m1.271.56h.652a.32.32 0 0 0-.119-.186.36.36 0 0 0-.406.003.3.3 0 0 0-.127.184m.333-.56q.276.001.476.193.197.194.208.498v.121H16.63q.03.142.122.228a.3.3 0 0 0 .216.086q.232 0 .336-.178l.32.067a.64.64 0 0 1-.258.311.74.74 0 0 1-.397.106.67.67 0 0 1-.493-.2.7.7 0 0 1-.2-.514q0-.314.203-.517a.67.67 0 0 1 .495-.2m1.796.023q.061-.001.095.01l-.02.344h-.078q-.482 0-.481.579v.435h-.357v-1.35h.357v.247a.56.56 0 0 1 .484-.265"/><path fill="#00D8A2" d="m17.207 8.31 1.926-.93v-.93l-4.45-2.125 4.45-2.292v-.897l-1.86-.863-5.27 2.623L6.646.273l-1.727.93V2l4.184 2.29-4.185 2.127v.963l1.794.93 5.314-2.723z"/><path fill="#000" d="M17.449 7.932v-.4l1.45-.752v.45zM5.034 6.77l1.401.804v.32l-1.401-.709zm7.177-1.692 4.82 2.382v.479l-4.82-2.47zM6.852 7.53l4.944-2.45v.39l-4.943 2.5zm3.5-4.004-5-2.416L6.646.452l5.358 2.777L17.272.453l1.34.687-4.877 2.455a.265.265 0 0 0 0 .474l4.828 2.416-1.251.648-5.308-2.72L6.602 7.19l-1.234-.71L10.355 4a.265.265 0 0 0-.002-.476M5.098 1.928v-.44l4.665 2.328-.471.189zm9.566 2.102-.447-.211L18.9 1.462v.442zm.469.231 4.115-2.066a.12.12 0 0 0 .068-.11v-.978a.12.12 0 0 0-.067-.11l-1.92-.983a.12.12 0 0 0-.112 0L12.06 2.63a.12.12 0 0 1-.11 0L6.7.013a.12.12 0 0 0-.11 0L4.685.981a.12.12 0 0 0-.068.11v.993c0 .047.027.09.07.11L8.82 4.237 4.706 6.28a.12.12 0 0 0-.068.108l-.018.977a.12.12 0 0 0 .067.112l1.977 1a.12.12 0 0 0 .11 0l5.174-2.597a.12.12 0 0 1 .111 0l5.11 2.598a.12.12 0 0 0 .109 0l1.968-.952a.12.12 0 0 0 .07-.111v-1.02a.12.12 0 0 0-.07-.111z"/></svg>