<svg xmlns="http://www.w3.org/2000/svg" width="24" height="24" fill="none" viewBox="0 0 24 24"><g clip-path="url(#a)"><path fill="#696969" d="M6.522 1.056h10.646a.522.522 0 1 1 0 1.043H6.522a.522.522 0 0 1 0-1.043"/><path fill="#009FE3" d="M6.615 0h2.14v.494h-2.14z"/><path fill="#C7D302" d="M9.414 0h2.14v.494h-2.14z"/><path fill="#F07E16" d="M12.176 0h2.14v.494h-2.14z"/><path fill="#DF2815" d="M14.927 0h2.14v.494h-2.14zM14.927 2.643h2.14v3.619h-2.14z"/><path fill="#F07E16" d="M12.176 2.643h2.145v5.879h-2.145z"/><path fill="#C7D302" d="M9.414 2.643h2.14v8.806h-2.14z"/><path fill="#009FE3" d="M6.615 2.643h2.14v10.732h-2.14z"/><path fill="#696969" d="M2.206 21.585q-.263 0-.476-.058a1.7 1.7 0 0 1-.385-.153 1.4 1.4 0 0 1-.302-.225 2 2 0 0 1-.234-.271H.756l.027.29.018.237q.008.122.008.194v2.085H0v-7.071h.658l.116.658h.035q.103-.156.232-.291.129-.136.3-.236t.385-.16.48-.06q.418 0 .76.16.343.16.586.478t.375.79q.134.47.134 1.094 0 .627-.134 1.1t-.375.794a1.6 1.6 0 0 1-.585.483 1.75 1.75 0 0 1-.76.162m-.156-4.39q-.337 0-.571.103a.9.9 0 0 0-.378.31q-.145.21-.214.521a4 4 0 0 0-.078.734v.183q0 .448.06.798.06.349.205.587a.95.95 0 0 0 .385.36q.24.123.6.123.6 0 .883-.485t.283-1.392q0-.925-.283-1.384-.282-.458-.892-.458M4.608 16.613h.84l.957 2.726.127.374q.064.195.12.391.056.195.095.378.04.183.058.338h.027a6 6 0 0 1 .07-.302 20 20 0 0 1 .234-.832q.065-.21.114-.356l.885-2.717h.836l-1.93 5.52q-.125.36-.27.646a2 2 0 0 1-.335.487 1.3 1.3 0 0 1-.45.31 1.6 1.6 0 0 1-.613.108 2.8 2.8 0 0 1-.69-.075v-.645q.094.022.236.038.142.015.298.015.214 0 .37-.05a.8.8 0 0 0 .27-.15.9.9 0 0 0 .199-.24q.081-.142.149-.325l.253-.711z"/><path fill="#009FE3" d="M11.266 20.922q.08 0 .18-.009t.194-.022a2 2 0 0 0 .289-.062v.614a1 1 0 0 1-.147.053q-.089.027-.196.047a2.5 2.5 0 0 1-.449.042q-.276 0-.511-.071a.95.95 0 0 1-.407-.245 1.2 1.2 0 0 1-.27-.469 2.4 2.4 0 0 1-.097-.745v-2.833h-.69v-.36l.69-.347.347-1.023h.467v1.12h1.227v.61h-1.227v2.833q0 .431.14.65.14.217.46.217M14.807 21.585q-.49 0-.895-.164-.404-.165-.696-.48a2.2 2.2 0 0 1-.451-.784 3.3 3.3 0 0 1-.16-1.067q0-.605.147-1.08.146-.477.413-.808t.639-.505.82-.173q.441 0 .792.158t.596.444q.244.287.376.69.13.402.13.892v.502h-3.077q.023.858.362 1.263.341.405 1.012.405a3.257 3.257 0 0 0 .794-.087q.18-.042.35-.107.168-.063.342-.144v.72a4 4 0 0 1-.35.147 2.8 2.8 0 0 1-.724.16q-.195.018-.42.018m-.2-4.39q-.508 0-.803.347t-.345 1.01h2.188q0-.302-.06-.554a1.2 1.2 0 0 0-.187-.43.87.87 0 0 0-.322-.275 1.04 1.04 0 0 0-.472-.098M20.673 20.158q0 .355-.129.622-.13.267-.371.447-.243.18-.585.27-.343.088-.77.088-.485 0-.831-.078a2.2 2.2 0 0 1-.61-.229v-.738a4 4 0 0 0 .663.262q.187.054.385.087.198.034.393.034.29 0 .492-.05a.9.9 0 0 0 .329-.14.54.54 0 0 0 .185-.222.7.7 0 0 0 .057-.291.7.7 0 0 0-.044-.25.6.6 0 0 0-.162-.22 1.6 1.6 0 0 0-.323-.22 7 7 0 0 0-.525-.249 9 9 0 0 1-.576-.271 2 2 0 0 1-.433-.298 1.15 1.15 0 0 1-.274-.38 1.3 1.3 0 0 1-.096-.514q0-.311.123-.554.122-.242.345-.407t.533-.249a2.7 2.7 0 0 1 .694-.084q.431 0 .79.093.357.093.678.245l-.28.654a6 6 0 0 0-.594-.225 2 2 0 0 0-.62-.096q-.455 0-.672.15a.48.48 0 0 0-.218.424q0 .156.051.271t.176.218.333.207q.21.105.52.234.321.133.572.266.251.135.43.3.177.168.27.381t.094.511M23.337 20.922q.081 0 .18-.009.1-.008.194-.022A2 2 0 0 0 24 20.83v.614a1 1 0 0 1-.147.053q-.089.027-.196.047a2.5 2.5 0 0 1-.449.042q-.275 0-.511-.071a.95.95 0 0 1-.407-.245 1.2 1.2 0 0 1-.27-.469 2.4 2.4 0 0 1-.097-.745v-2.833h-.69v-.36l.69-.347.347-1.023h.467v1.12h1.227v.61h-1.227v2.833q0 .431.14.65.14.217.46.217"/></g><defs><clipPath id="a"><path fill="#fff" d="M0 0h24v24H0z"/></clipPath></defs></svg>