<svg xmlns="http://www.w3.org/2000/svg" width="24" height="24" fill="none" viewBox="0 0 24 24"><path fill="url(#a)" d="M11.914 1.575c-5.325 0-4.988 2.303-4.988 2.303V6.27h5.063v.75H4.91S1.5 6.6 1.5 12.004s3.01 5.184 3.01 5.184h1.737v-2.52s-.097-3.01 2.925-3.01h5.072s2.829.045 2.829-2.74V4.35s.429-2.784-5.132-2.784zm-2.8 1.603a.91.91 0 1 1-.887.933v-.015a.91.91 0 0 1 .911-.91z"/><path fill="url(#b)" d="M12.064 22.432c5.325 0 4.988-2.31 4.988-2.31v-2.385h-5.063v-.75h7.102s3.409.381 3.409-4.991c0-5.373-3.01-5.184-3.01-5.184h-1.76v2.487s.098 3.01-2.925 3.01H9.731S6.9 12.267 6.9 15.051v4.599s-.429 2.784 5.131 2.784h.03zm2.799-1.61a.91.91 0 1 1 .887-.933v.022a.91.91 0 0 1-.91.91z"/><defs><linearGradient id="a" x1="3.575" x2="13.54" y1="3.618" y2="13.56" gradientUnits="userSpaceOnUse"><stop stop-color="#387EB8"/><stop offset="1" stop-color="#366994"/></linearGradient><linearGradient id="b" x1="9.471" x2="20.856" y1="10.093" y2="20.033" gradientUnits="userSpaceOnUse"><stop stop-color="#FFE052"/><stop offset="1" stop-color="#FFC331"/></linearGradient></defs></svg>