<svg xmlns="http://www.w3.org/2000/svg" width="24" height="24" fill="none" viewBox="0 0 24 24"><g clip-path="url(#a)"><path fill="#FFC915" d="M0 8.156h24v7.2H0z"/><path fill="#111" d="M9.904 10.299c.376 0 .739.127 1.014.352v-.301h.515v3.28h-.515v-.3c-.27.223-.633.35-1.014.35-.466 0-.891-.173-1.195-.486a1.7 1.7 0 0 1-.467-1.202c0-.467.166-.895.467-1.205.305-.315.73-.488 1.195-.488m-3.567-.012c.422 0 .805.154 1.079.434.291.299.446.718.45 1.214v.169H5.212c.032.616.502 1.073 1.113 1.073.439 0 .753-.187.989-.59l.028-.048.447.288-.026.044c-.303.52-.8.796-1.439.796-.963 0-1.636-.694-1.636-1.687 0-.981.694-1.693 1.649-1.693m13.709 0c.422 0 .804.154 1.078.434.292.299.447.718.45 1.214v.169H18.92c.032.616.502 1.073 1.114 1.073.438 0 .752-.187.988-.59l.029-.048.447.288-.026.044c-.303.52-.8.796-1.439.796-.963 0-1.636-.694-1.637-1.687 0-.981.694-1.693 1.65-1.693m-15.556.056v.49H2.996v2.796h-.521v-3.286zm12.252-.044c.746 0 1.21.512 1.21 1.338v1.986h-.521v-1.986c0-.516-.295-.848-.753-.848-.588 0-.797.405-.797.784v2.05h-.521v-1.986c0-.523-.286-.848-.747-.848-.38 0-.785.295-.785.734v2.098h-.521v-3.278h.521v.318c.216-.235.522-.362.88-.362.53 0 .82.268.976.522.238-.333.618-.522 1.058-.522m-4.112-.924v4.248h-.521V9.375zm-2.752 1.446c-.635 0-1.114.504-1.114 1.172 0 .664.479 1.165 1.114 1.166.66 0 1.102-.47 1.102-1.166 0-.701-.442-1.172-1.102-1.172m-3.553-.045c-.525 0-.964.35-1.09.857h2.1c-.091-.515-.49-.857-1.01-.857m13.708 0c-.525 0-.964.35-1.09.857h2.1c-.091-.515-.49-.857-1.01-.857"/></g><defs><clipPath id="a"><path fill="#fff" d="M0 8h24v7.517H0z"/></clipPath></defs></svg>