<svg xmlns="http://www.w3.org/2000/svg" width="24" height="24" fill="none" viewBox="0 0 24 24"><path fill="#000" d="M5.857 10.431A2.94 2.94 0 0 1 8.819 7.47a2.94 2.94 0 0 1 2.963 2.962c0 .61-.523 1.046-1.046 1.046-.61 0-1.045-.523-1.045-1.046a.78.78 0 0 0-.784-.784.78.78 0 0 0-.785.784c0 .61-.522 1.046-1.045 1.046s-1.22-.436-1.22-1.046m12.199 4.967c0 .61-.523 1.046-1.046 1.046H7.077c-.61 0-1.046-.523-1.046-1.046 0-.61.523-1.045 1.046-1.045h10.02c.523 0 .959.522.959 1.045m-4.618-4.357c-.349-.522-.175-1.132.261-1.481l2.527-1.656c.523-.348 1.133-.174 1.482.262.348.523.174 1.133-.262 1.481l-2.527 1.656c-.174.087-.436.174-.61.174-.348.087-.697-.087-.871-.436m6.796 6.623c0 .174-.087.435-.261.523l-1.83 1.83q-.26.26-.523.26H6.293c-.175 0-.436-.086-.523-.26l-1.83-1.83q-.262-.262-.262-.523V6.336c0-.174.088-.436.262-.523l1.83-1.83q.13-.261.523-.261H17.62c.175 0 .436.087.523.261l1.83 1.83q.261.262.261.523zm1.569-13.158-2.44-2.44q-.522-.522-1.307-.523h-12.2c-.522 0-.958.175-1.393.61L2.11 4.506c-.436.436-.61.871-.61 1.394v12.2c0 .522.174 1.045.61 1.394l2.44 2.44q.522.522 1.307.522h12.199c.523 0 1.046-.174 1.394-.61l2.44-2.44c.349-.348.61-.87.61-1.394V5.9c-.087-.523-.261-.958-.697-1.394"/></svg>