<svg xmlns="http://www.w3.org/2000/svg" width="24" height="24" fill="none" viewBox="0 0 24 24"><g fill="#C00" clip-path="url(#a)"><path d="M10.271 14.839s1.058-.091 1.058-1.457-1.282-1.494-1.282-1.494H7.738v4.31h1.16v-1.04l1.004 1.04h1.717zm-.447-.883h-.925v-.985h.93s.26.096.26.49c0 .392-.265.495-.265.495m4.37-2.037h-1.178c-.84 0-1.125.761-1.125 1.124V16.2h1.179v-.756h1.106v.756h1.143v-3.156c0-.919-.834-1.124-1.125-1.124m-.018 2.303h-1.112v-1.046s0-.236.369-.236h.405c.326 0 .332.236.332.236v1.046zm1.68-2.303h1.228v4.28h-1.227zm2.951 3.173V11.92h-1.221v4.28h2.871v-1.107zm2.055.012V16.2h1.977c.405 0 1.1-.297 1.125-1.125v-.423c0-.707-.58-1.124-1.125-1.124h-.985v-.508h1.953v-1.1h-1.874c-.484 0-1.131.399-1.131 1.142v.381c0 .744.64 1.124 1.13 1.124 1.36.006-.326 0 .931 0v.532z"/><path d="M.423 16.191H5.2s-.913-4.165 2.11-5.852c.659-.32 2.757-1.517 6.19 1.022.11-.09.212-.163.212-.163S10.567 8.06 7.067 8.41c-1.76.157-3.923 1.759-5.193 3.875S.424 16.19.424 16.19m9.95-7.442.025-.405c-.054-.03-.206-.103-.586-.211l-.025.399q.298.1.587.217M9.8 10.031l-.025.38q.3.01.599.073l.024-.374a4 4 0 0 0-.598-.08M7.563 8.145h.06l-.12-.369q-.282 0-.581.036l.115.357q.262-.025.526-.024m.29 2.224.139.418q.262-.13.526-.212l-.133-.399q-.307.092-.532.193M5.108 8.78l-.272-.417a10 10 0 0 0-.471.26l.278.423c.157-.096.308-.187.465-.265m1.24 2.72.29.436c.103-.151.223-.29.356-.43l-.272-.41a3.3 3.3 0 0 0-.374.405m-.877 1.947.49.387q.036-.353.127-.707l-.436-.344a6 6 0 0 0-.181.665m-2.648-2.871-.43-.375q-.236.226-.446.454l.465.399a6 6 0 0 1 .411-.478M.997 13.277l-.695-.254c-.115.26-.242.563-.302.726l.695.254c.079-.206.206-.502.302-.726m4.383 1.705c.012.32.043.58.073.762l.725.26a8 8 0 0 1-.145-.786z"/></g><defs><clipPath id="a"><path fill="#fff" d="M0 0h24v24H0z"/></clipPath></defs></svg>