<svg xmlns="http://www.w3.org/2000/svg" width="25" height="25" fill="none" viewBox="0 0 24 24"><g filter="url(#a)"><path fill="url(#b)" d="M12.728 22c5.799 0 10.5-4.701 10.5-10.5S18.527 1 12.728 1s-10.5 4.701-10.5 10.5 4.7 10.5 10.5 10.5"/></g><path fill="url(#c)" d="M12.728 21.213c5.364 0 9.712-4.349 9.712-9.713s-4.348-9.712-9.712-9.712S3.015 6.136 3.015 11.5s4.349 9.713 9.713 9.713"/><path fill="#F3F3F3" d="M12.745 4.15c-.066 0-.123-.05-.123-.115V2.321c0-.066.057-.115.123-.115.065 0 .123.05.123.115v1.714c-.009.066-.058.115-.123.115"/><path fill="#fff" d="M12.745 4.158c-.074 0-.132-.057-.132-.123V2.321c0-.066.058-.123.132-.123.073 0 .13.057.13.123v1.714c0 .066-.065.123-.13.123m0-1.944c-.058 0-.115.05-.115.107v1.714c0 .058.049.107.115.107.057 0 .114-.05.114-.107V2.321c-.008-.058-.057-.107-.114-.107"/><path fill="#F3F3F3" d="M13.565 3.231c-.066-.008-.115-.057-.115-.123l.058-.763a.12.12 0 0 1 .13-.106c.066.008.116.057.116.123l-.058.763a.12.12 0 0 1-.131.106"/><path fill="#fff" d="M13.565 3.24a.133.133 0 0 1-.123-.132l.057-.763c.009-.065.066-.123.14-.115a.133.133 0 0 1 .123.132l-.058.763c-.008.073-.065.123-.139.114m.074-.993c-.058 0-.115.04-.115.098l-.057.763c0 .058.04.107.106.115.058 0 .115-.041.115-.098l.057-.763c0-.058-.049-.107-.106-.115"/><path fill="#F3F3F3" d="M14.18 4.298a.126.126 0 0 1-.098-.14l.336-1.682c.017-.065.074-.106.14-.09a.126.126 0 0 1 .098.14l-.336 1.681c-.009.058-.074.099-.14.09"/><path fill="#fff" d="M14.18 4.306a.134.134 0 0 1-.106-.148l.336-1.682a.13.13 0 0 1 .156-.098.134.134 0 0 1 .106.148l-.336 1.681c-.016.066-.082.107-.156.099m.386-1.912a.12.12 0 0 0-.132.083l-.336 1.681a.116.116 0 0 0 .09.131.12.12 0 0 0 .132-.082l.336-1.681c.008-.066-.033-.115-.09-.132"/><path fill="#F3F3F3" d="M15.165 3.56a.12.12 0 0 1-.09-.148l.204-.739c.017-.065.082-.098.148-.082a.12.12 0 0 1 .09.148l-.205.738c-.016.066-.082.099-.147.082"/><path fill="#fff" d="M15.165 3.568c-.066-.017-.115-.09-.09-.156l.204-.739a.13.13 0 0 1 .156-.09c.066.017.115.09.09.156l-.205.738c-.016.066-.082.107-.155.09m.27-.96a.114.114 0 0 0-.14.074l-.204.738c-.017.057.016.115.082.131a.114.114 0 0 0 .14-.074l.204-.738a.12.12 0 0 0-.082-.131"/><path fill="#F3F3F3" d="M15.567 4.716a.12.12 0 0 1-.066-.156l.656-1.583c.025-.058.099-.09.156-.058.066.025.09.099.066.156l-.657 1.584c-.024.057-.098.09-.155.057"/><path fill="#fff" d="M15.567 4.724a.13.13 0 0 1-.074-.164l.656-1.583c.024-.066.098-.09.172-.066a.127.127 0 0 1 .074.164l-.656 1.584c-.033.065-.107.098-.173.065m.746-1.796a.11.11 0 0 0-.148.057l-.656 1.583c-.024.058.008.115.066.14a.11.11 0 0 0 .147-.058l.657-1.583a.12.12 0 0 0-.066-.14"/><path fill="#F3F3F3" d="M16.674 4.191c-.057-.033-.082-.099-.057-.156l.344-.68a.12.12 0 0 1 .164-.05c.058.033.082.098.058.156l-.345.68a.12.12 0 0 1-.164.05"/><path fill="#fff" d="M16.674 4.2a.126.126 0 0 1-.058-.173l.345-.68a.125.125 0 0 1 .172-.058c.066.033.09.106.058.172l-.345.68a.126.126 0 0 1-.172.058m.451-.895c-.057-.024-.123-.008-.148.05l-.344.68c-.025.05 0 .115.05.148.057.024.122.008.147-.05l.344-.68c.025-.05 0-.115-.049-.148"/><path fill="#F3F3F3" d="M16.838 5.405c-.058-.041-.074-.115-.033-.164l.952-1.42c.032-.057.106-.065.164-.032.057.041.074.115.033.164l-.952 1.42a.11.11 0 0 1-.164.032"/><path fill="#fff" d="M16.838 5.413a.14.14 0 0 1-.041-.18l.951-1.42a.13.13 0 0 1 .181-.032.14.14 0 0 1 .041.18l-.952 1.42a.13.13 0 0 1-.18.032m1.083-1.616c-.05-.033-.123-.024-.156.025l-.952 1.419a.107.107 0 0 0 .033.148c.05.032.123.024.156-.025l.952-1.41a.117.117 0 0 0-.033-.157"/><path fill="#F3F3F3" d="M18.036 5.102c-.05-.042-.066-.115-.025-.165l.476-.598a.117.117 0 0 1 .164-.017c.05.041.066.115.024.164l-.475.6a.117.117 0 0 1-.164.016"/><path fill="#fff" d="M18.028 5.11c-.058-.041-.066-.123-.025-.18l.476-.6c.04-.057.123-.065.18-.016.058.041.066.123.025.18l-.476.6c-.04.057-.123.065-.18.016m.615-.78a.11.11 0 0 0-.156.017l-.476.599a.116.116 0 0 0 .025.155c.049.041.115.033.156-.016l.475-.599c.033-.049.025-.123-.024-.156"/><path fill="#F3F3F3" d="M17.954 6.332c-.05-.05-.05-.123 0-.164l1.214-1.206a.116.116 0 0 1 .164 0c.04.041.049.123 0 .164l-1.206 1.206a.12.12 0 0 1-.172 0"/><path fill="#fff" d="M17.945 6.34a.13.13 0 0 1 0-.18l1.214-1.206a.13.13 0 0 1 .181 0 .13.13 0 0 1 0 .18L18.126 6.34a.13.13 0 0 1-.18 0m1.387-1.378a.114.114 0 0 0-.156 0l-1.214 1.206a.114.114 0 0 0 0 .156c.04.04.115.04.156 0l1.214-1.206c.04-.041.04-.107 0-.156"/><path fill="#F3F3F3" d="M19.184 6.266c-.04-.049-.04-.123.008-.164l.583-.492a.117.117 0 0 1 .164.017c.04.049.04.123-.008.164l-.583.492a.117.117 0 0 1-.164-.017"/><path fill="#fff" d="M19.176 6.274c-.05-.057-.041-.139.008-.18l.582-.492c.05-.05.132-.041.18.016.05.058.042.14-.007.18l-.583.493c-.049.049-.13.04-.18-.017m.755-.648c-.041-.049-.107-.049-.156-.016l-.583.492a.114.114 0 0 0-.008.156c.041.05.107.05.156.016l.582-.492c.05-.04.05-.106.009-.156"/><path fill="#F3F3F3" d="M18.856 7.448a.11.11 0 0 1 .033-.164l1.427-.952c.058-.033.132-.016.164.033a.11.11 0 0 1-.032.164l-1.428.951c-.05.033-.123.017-.164-.032"/><path fill="#fff" d="M18.848 7.448a.13.13 0 0 1 .033-.18l1.427-.952a.126.126 0 0 1 .18.04.13.13 0 0 1-.032.181l-1.428.952a.126.126 0 0 1-.18-.041m1.624-1.075a.107.107 0 0 0-.148-.033l-1.427.952c-.05.033-.066.098-.025.156a.107.107 0 0 0 .148.032l1.427-.951a.116.116 0 0 0 .025-.156"/><path fill="#F3F3F3" d="M20.078 7.62a.12.12 0 0 1 .041-.164l.665-.378c.057-.032.13-.008.164.05a.12.12 0 0 1-.041.164l-.665.377c-.057.033-.131.008-.164-.05"/><path fill="#fff" d="M20.07 7.628c-.033-.066-.016-.14.041-.172l.665-.378a.13.13 0 0 1 .172.05c.033.065.016.14-.041.172l-.665.377c-.057.033-.14.008-.172-.049m.87-.492c-.033-.058-.099-.074-.148-.041l-.665.377a.12.12 0 0 0-.04.148c.032.057.098.074.147.04l.665-.376c.049-.025.065-.09.04-.148"/><path fill="#F3F3F3" d="M19.529 8.71c-.025-.065 0-.13.065-.155l1.583-.656c.058-.025.132.008.156.065.025.066 0 .132-.065.156l-1.584.656a.117.117 0 0 1-.155-.065"/><path fill="#fff" d="M19.52 8.72a.136.136 0 0 1 .066-.173l1.583-.656a.127.127 0 0 1 .164.073c.025.066 0 .14-.065.173l-1.584.656a.127.127 0 0 1-.164-.074m1.797-.747a.12.12 0 0 0-.14-.066l-1.583.656a.11.11 0 0 0-.057.148c.024.057.09.082.14.066l1.582-.657a.11.11 0 0 0 .058-.147"/><path fill="#F3F3F3" d="M20.685 9.121c-.024-.066.008-.131.074-.156l.722-.238c.057-.024.131.017.148.074.024.066-.009.131-.074.156l-.722.238c-.057.025-.123-.008-.148-.074"/><path fill="#fff" d="M20.677 9.13a.125.125 0 0 1 .082-.165l.722-.238c.066-.024.14.017.164.082a.125.125 0 0 1-.082.164l-.722.238a.14.14 0 0 1-.164-.082m.952-.312c-.017-.058-.082-.09-.14-.074l-.722.238c-.057.016-.082.082-.065.14.016.056.082.09.14.073l.721-.238a.113.113 0 0 0 .066-.14"/><path fill="#F3F3F3" d="M19.947 10.097a.113.113 0 0 1 .09-.14l1.682-.327c.066-.017.123.032.14.098a.112.112 0 0 1-.09.14l-1.683.328c-.065.008-.13-.033-.139-.099"/><path fill="#fff" d="M19.93 10.097a.13.13 0 0 1 .099-.156l1.682-.328c.065-.016.13.033.147.107a.13.13 0 0 1-.098.156l-1.682.328c-.065.016-.131-.033-.147-.107m1.912-.369a.11.11 0 0 0-.123-.09l-1.682.328c-.057.008-.098.074-.082.131a.11.11 0 0 0 .123.09l1.682-.328c.057-.016.098-.073.082-.13"/><path fill="#F3F3F3" d="M20.997 10.729c-.008-.066.033-.123.098-.131l.755-.09a.12.12 0 0 1 .131.106c.008.066-.033.123-.098.131l-.755.09c-.057.009-.123-.04-.131-.106"/><path fill="#fff" d="M20.989 10.729c-.008-.074.04-.14.106-.148l.755-.09a.13.13 0 0 1 .14.115c.008.074-.041.14-.107.148l-.755.09a.13.13 0 0 1-.14-.115m.992-.115c-.008-.057-.065-.107-.123-.098l-.754.09a.11.11 0 0 0-.09.123c.008.057.065.107.122.099l.755-.09a.11.11 0 0 0 .09-.124"/><path fill="#F3F3F3" d="M20.078 11.525c0-.066.05-.123.115-.123h1.715c.065 0 .114.057.114.123 0 .065-.049.123-.114.123h-1.715c-.066 0-.115-.058-.115-.123"/><path fill="#fff" d="M20.07 11.525c0-.074.057-.132.123-.132h1.714c.066 0 .123.058.123.132 0 .073-.057.13-.123.13h-1.714a.126.126 0 0 1-.123-.13m1.944.008c0-.057-.05-.115-.107-.115h-1.714c-.057 0-.107.05-.107.115 0 .057.05.115.107.115h1.715c.057-.008.106-.058.106-.115"/><path fill="#F3F3F3" d="M20.989 12.353c.008-.066.057-.115.123-.115l.763.058a.12.12 0 0 1 .106.13c-.008.066-.057.116-.123.116l-.762-.058c-.058-.008-.107-.065-.107-.131"/><path fill="#fff" d="M20.98 12.353a.133.133 0 0 1 .132-.123l.763.057c.065.009.123.066.115.14a.133.133 0 0 1-.132.123l-.762-.058c-.066-.008-.115-.073-.115-.139m1.002.074a.104.104 0 0 0-.099-.115l-.763-.057a.115.115 0 0 0-.115.106.104.104 0 0 0 .099.115l.763.057c.057 0 .106-.049.114-.106"/><path fill="#F3F3F3" d="M19.93 12.952a.126.126 0 0 1 .14-.098l1.682.336c.065.016.106.074.09.14a.126.126 0 0 1-.14.098l-1.681-.337c-.058-.008-.099-.073-.09-.14"/><path fill="#fff" d="M19.923 12.952a.134.134 0 0 1 .147-.107l1.682.337a.13.13 0 0 1 .098.155.134.134 0 0 1-.147.107l-1.682-.336c-.066-.017-.107-.082-.099-.156m1.91.386a.12.12 0 0 0-.081-.132l-1.682-.336a.116.116 0 0 0-.131.09.12.12 0 0 0 .082.131l1.682.337c.065.008.114-.033.13-.09"/><path fill="#F3F3F3" d="M20.669 13.936a.12.12 0 0 1 .055-.075.12.12 0 0 1 .093-.015l.738.205c.066.017.098.082.082.148a.12.12 0 0 1-.055.075.12.12 0 0 1-.093.015l-.738-.205c-.066-.016-.099-.082-.082-.148"/><path fill="#fff" d="M20.66 13.936c.017-.065.09-.115.157-.09l.738.205c.065.017.107.09.09.156-.016.066-.09.115-.156.09l-.738-.205c-.066-.016-.107-.082-.09-.156m.96.271a.115.115 0 0 0-.073-.14l-.739-.205c-.057-.016-.114.017-.131.082-.016.058.017.123.074.14l.738.205a.12.12 0 0 0 .131-.082"/><path fill="#F3F3F3" d="M19.512 14.33a.117.117 0 0 1 .156-.066l1.583.657c.058.024.09.098.066.155a.117.117 0 0 1-.156.066l-1.583-.656a.117.117 0 0 1-.066-.156"/><path fill="#fff" d="M19.504 14.322a.13.13 0 0 1 .164-.074l1.583.656c.066.025.09.099.066.172a.127.127 0 0 1-.164.074l-1.583-.656c-.066-.033-.09-.107-.066-.172m1.796.746a.11.11 0 0 0-.057-.147l-1.583-.657c-.058-.024-.115.009-.14.066a.11.11 0 0 0 .058.148l1.583.656c.057.016.123-.008.14-.066"/><path fill="#F3F3F3" d="M20.045 15.438c.033-.058.099-.083.156-.058l.681.345c.058.024.082.098.05.164-.033.057-.1.082-.156.057l-.681-.344a.124.124 0 0 1-.05-.165"/><path fill="#fff" d="M20.037 15.43a.125.125 0 0 1 .172-.058l.681.344c.066.033.09.107.058.173a.125.125 0 0 1-.172.057l-.681-.344c-.066-.025-.09-.107-.058-.173m.886.45c.025-.057.008-.123-.05-.147l-.68-.345c-.05-.024-.115 0-.148.05-.024.057-.008.122.05.147l.68.345c.058.024.123.008.148-.05"/><path fill="#F3F3F3" d="M18.84 15.593c.04-.057.106-.073.164-.033l1.427.952c.057.033.066.107.033.164-.041.058-.107.074-.164.033l-1.428-.952c-.057-.04-.073-.114-.032-.164"/><path fill="#fff" d="M18.831 15.585a.14.14 0 0 1 .18-.04l1.428.95a.13.13 0 0 1 .033.181.14.14 0 0 1-.18.041l-1.428-.951a.124.124 0 0 1-.033-.18m1.617 1.083c.032-.05.024-.123-.025-.156l-1.427-.952a.107.107 0 0 0-.148.033c-.033.05-.025.123.024.156l1.428.952c.049.033.115.016.148-.033"/><path fill="#F3F3F3" d="M19.143 16.783c.041-.05.115-.066.164-.025l.599.468c.05.04.057.115.016.164-.04.049-.114.066-.164.024l-.598-.467a.117.117 0 0 1-.017-.164"/><path fill="#fff" d="M19.135 16.775c.04-.058.123-.066.18-.025l.6.468c.057.04.065.123.024.18-.041.058-.123.066-.18.025l-.6-.468c-.057-.04-.065-.123-.024-.18m.787.615a.11.11 0 0 0-.016-.156l-.599-.468a.116.116 0 0 0-.156.025.11.11 0 0 0 .017.156l.599.468a.116.116 0 0 0 .155-.025"/><path fill="#F3F3F3" d="M17.92 16.7c.05-.049.124-.049.165 0l1.214 1.207a.115.115 0 0 1 0 .164c-.05.049-.123.049-.164 0l-1.214-1.206a.125.125 0 0 1 0-.164"/><path fill="#fff" d="M17.92 16.693a.13.13 0 0 1 .181 0l1.214 1.205a.13.13 0 0 1 0 .18.13.13 0 0 1-.18 0l-1.214-1.205a.116.116 0 0 1 0-.18m1.379 1.37a.114.114 0 0 0 0-.156L18.085 16.7a.114.114 0 0 0-.156 0 .114.114 0 0 0 0 .155l1.214 1.206c.041.05.107.05.156 0"/><path fill="#F3F3F3" d="M17.995 17.923c.049-.041.123-.041.164.008l.5.574a.12.12 0 0 1-.016.165c-.05.04-.123.04-.164-.009l-.5-.574c-.042-.04-.033-.115.016-.164"/><path fill="#fff" d="M17.987 17.923a.13.13 0 0 1 .18.008l.5.574c.05.05.041.132-.016.18a.13.13 0 0 1-.18-.007l-.501-.575c-.041-.057-.041-.139.016-.18m.656.747c.049-.042.049-.107.016-.156l-.5-.575a.114.114 0 0 0-.156-.008c-.05.041-.05.107-.017.156l.5.574c.042.05.107.05.157.008"/><path fill="#F3F3F3" d="M16.813 17.611a.11.11 0 0 1 .165.033l.95 1.42a.123.123 0 0 1-.032.163.11.11 0 0 1-.164-.032l-.951-1.42a.125.125 0 0 1 .032-.164"/><path fill="#fff" d="M16.813 17.603a.13.13 0 0 1 .18.033l.953 1.42a.126.126 0 0 1-.042.18.13.13 0 0 1-.18-.033l-.951-1.42a.125.125 0 0 1 .04-.18m1.083 1.616a.107.107 0 0 0 .033-.148l-.951-1.419c-.033-.049-.099-.057-.156-.024a.107.107 0 0 0-.033.147l.951 1.42c.033.04.107.057.156.024"/><path fill="#F3F3F3" d="M16.641 18.825a.12.12 0 0 1 .164.041l.378.665c.032.057.008.131-.05.164a.12.12 0 0 1-.164-.041l-.377-.665a.13.13 0 0 1 .049-.164"/><path fill="#fff" d="M16.641 18.817c.066-.033.14-.016.172.041l.378.665a.124.124 0 0 1-.05.172c-.065.033-.139.016-.172-.041l-.377-.665c-.033-.057-.016-.13.049-.172m.492.87c.05-.033.074-.099.041-.148l-.377-.665a.12.12 0 0 0-.148-.04c-.049.032-.073.098-.04.147l.377.665c.024.049.098.073.147.04"/><path fill="#F3F3F3" d="M15.55 18.284c.066-.025.131 0 .156.057l.664 1.584c.025.057-.008.13-.065.155-.058.025-.131 0-.156-.057l-.665-1.583c-.024-.058.009-.131.066-.156"/><path fill="#fff" d="M15.55 18.276c.066-.025.14 0 .172.066l.665 1.583a.13.13 0 0 1-.074.164.136.136 0 0 1-.172-.066l-.665-1.583c-.024-.058.008-.131.074-.164m.747 1.796c.057-.024.082-.09.057-.14l-.664-1.582c-.025-.058-.09-.082-.148-.058-.057.025-.082.09-.057.14l.664 1.583c.033.057.09.082.148.057"/><path fill="#F3F3F3" d="M15.148 19.449c.066-.025.131.008.156.074l.238.722c.024.057-.016.13-.074.147-.066.025-.131-.008-.156-.074l-.238-.722c-.024-.057.009-.122.074-.147"/><path fill="#fff" d="M15.14 19.44a.127.127 0 0 1 .164.074l.238.722c.024.066-.017.14-.082.164a.13.13 0 0 1-.164-.073l-.238-.722a.14.14 0 0 1 .082-.164m.32.944c.057-.016.09-.082.074-.14l-.238-.721c-.017-.058-.082-.082-.14-.066-.057.016-.09.082-.073.14l.237.721a.104.104 0 0 0 .14.066"/><path fill="#F3F3F3" d="M14.18 18.702a.112.112 0 0 1 .14.09l.344 1.682c.017.066-.033.123-.098.14-.066.016-.132-.025-.14-.09l-.344-1.682a.13.13 0 0 1 .098-.14"/><path fill="#fff" d="M14.18 18.694a.13.13 0 0 1 .156.098l.345 1.682c.016.066-.033.14-.099.148a.13.13 0 0 1-.156-.099l-.344-1.681c-.017-.066.024-.132.098-.148m.386 1.911c.057-.008.098-.065.09-.131l-.344-1.682c-.009-.057-.074-.098-.132-.082-.057.009-.098.066-.09.132l.345 1.681c.016.058.073.09.13.082"/><path fill="#F3F3F3" d="M13.557 19.769a.126.126 0 0 1 .14.098l.098.755a.12.12 0 0 1-.107.131.126.126 0 0 1-.14-.098l-.098-.755a.12.12 0 0 1 .107-.131"/><path fill="#fff" d="M13.557 19.76c.074-.008.14.041.147.107l.099.755a.13.13 0 0 1-.115.14c-.074.008-.14-.042-.148-.107l-.098-.755a.13.13 0 0 1 .115-.14m.123.985c.057-.008.107-.066.098-.123l-.098-.755a.11.11 0 0 0-.123-.09c-.058.008-.107.066-.099.123l.099.755a.11.11 0 0 0 .123.09"/><path fill="#F3F3F3" d="M12.712 18.85c.066 0 .123.05.123.115v1.714c0 .066-.058.115-.123.115-.066 0-.123-.05-.123-.115v-1.714c.008-.066.057-.115.123-.115"/><path fill="#fff" d="M12.712 18.842c.074 0 .131.057.131.123v1.714c0 .066-.057.123-.131.123s-.131-.057-.131-.123v-1.714c0-.066.065-.123.13-.123m0 1.944c.057 0 .115-.05.115-.107v-1.714c0-.058-.05-.107-.115-.107-.057 0-.115.05-.115.107v1.714c.008.058.058.107.115.107"/><path fill="#F3F3F3" d="M11.892 19.769c.065.008.114.057.114.123l-.057.763a.12.12 0 0 1-.131.106c-.066-.008-.115-.057-.115-.123l.057-.763a.12.12 0 0 1 .132-.106"/><path fill="#fff" d="M11.892 19.76a.133.133 0 0 1 .123.132l-.058.763c-.008.065-.066.123-.14.114a.133.133 0 0 1-.122-.13l.057-.764a.124.124 0 0 1 .14-.115m-.074.993c.057 0 .115-.041.115-.098l.057-.763c0-.058-.041-.107-.107-.115-.057 0-.114.04-.114.098l-.058.763c0 .058.05.107.107.115"/><path fill="#F3F3F3" d="M11.276 18.702a.126.126 0 0 1 .099.14l-.337 1.681c-.016.066-.074.107-.14.09a.126.126 0 0 1-.098-.139l.337-1.681c.008-.058.074-.099.14-.09"/><path fill="#fff" d="M11.276 18.694a.134.134 0 0 1 .107.148l-.336 1.682a.13.13 0 0 1-.156.098.134.134 0 0 1-.107-.148l.336-1.681c.017-.066.083-.107.156-.099m-.385 1.912a.12.12 0 0 0 .131-.082l.336-1.682a.116.116 0 0 0-.09-.131.12.12 0 0 0-.131.082l-.336 1.681c-.009.066.032.115.09.131"/><path fill="#F3F3F3" d="M10.292 19.44a.12.12 0 0 1 .09.148l-.205.738c-.016.066-.082.099-.147.083a.12.12 0 0 1-.09-.148l.204-.738c.017-.066.082-.099.148-.082"/><path fill="#fff" d="M10.292 19.432c.066.017.115.09.09.156l-.205.738a.13.13 0 0 1-.156.09c-.065-.016-.115-.09-.09-.155l.205-.738c.017-.066.082-.107.156-.09m-.27.96a.113.113 0 0 0 .139-.074l.205-.738c.016-.057-.017-.115-.082-.131a.114.114 0 0 0-.14.074l-.205.738a.12.12 0 0 0 .082.131"/><path fill="#F3F3F3" d="M9.89 18.284c.066.025.09.098.066.156l-.657 1.583c-.024.058-.098.09-.156.058-.057-.033-.09-.099-.065-.156l.656-1.584c.025-.057.098-.09.156-.057"/><path fill="#fff" d="M9.89 18.276a.127.127 0 0 1 .074.164l-.656 1.583c-.025.066-.099.09-.173.066a.13.13 0 0 1-.074-.165l.657-1.583c.033-.065.106-.098.172-.065m-.746 1.796a.11.11 0 0 0 .147-.057l.656-1.583c.025-.058-.008-.115-.065-.14a.11.11 0 0 0-.148.057l-.656 1.584a.12.12 0 0 0 .066.14"/><path fill="#F3F3F3" d="M8.783 18.809c.057.033.081.098.057.156l-.345.68a.12.12 0 0 1-.164.05c-.057-.033-.082-.099-.057-.156l.344-.68a.12.12 0 0 1 .165-.05"/><path fill="#fff" d="M8.783 18.8c.065.034.09.107.057.173l-.345.68a.125.125 0 0 1-.172.058.125.125 0 0 1-.057-.172l.344-.68a.125.125 0 0 1 .173-.058m-.452.895c.058.024.123.008.148-.05l.345-.68c.024-.05 0-.115-.05-.148-.057-.024-.123-.008-.147.05l-.345.68c-.024.05 0 .115.05.148"/><path fill="#F3F3F3" d="M8.618 17.595c.058.04.074.115.033.164l-.951 1.42c-.033.056-.107.065-.164.032-.058-.041-.074-.115-.033-.164l.951-1.42a.11.11 0 0 1 .164-.032"/><path fill="#fff" d="M8.618 17.587a.14.14 0 0 1 .041.18l-.951 1.42a.13.13 0 0 1-.18.032.14.14 0 0 1-.042-.18l.952-1.42a.13.13 0 0 1 .18-.032m-1.082 1.616c.049.032.123.024.155-.025l.952-1.419a.107.107 0 0 0-.033-.148c-.049-.032-.123-.024-.156.025l-.951 1.41a.117.117 0 0 0 .033.157"/><path fill="#F3F3F3" d="M7.42 17.898c.05.041.067.115.026.165l-.476.598a.117.117 0 0 1-.164.017c-.05-.041-.066-.115-.025-.164l.476-.6a.117.117 0 0 1 .164-.016"/><path fill="#fff" d="M7.429 17.89c.057.041.066.123.025.18l-.476.6c-.041.057-.123.065-.18.016-.058-.041-.066-.123-.025-.18l.476-.6c.04-.057.123-.065.18-.016m-.615.78c.049.04.115.032.156-.017l.475-.599a.116.116 0 0 0-.024-.155.11.11 0 0 0-.156.016l-.476.599c-.033.049-.024.123.025.156"/><path fill="#F3F3F3" d="M7.503 16.668c.05.05.05.123 0 .164l-1.214 1.206a.116.116 0 0 1-.164 0c-.041-.041-.05-.123 0-.164l1.206-1.206a.117.117 0 0 1 .172 0"/><path fill="#fff" d="M7.51 16.66a.13.13 0 0 1 0 .18l-1.213 1.206a.13.13 0 0 1-.18 0 .13.13 0 0 1 0-.18L7.33 16.66a.13.13 0 0 1 .18 0m-1.385 1.378a.114.114 0 0 0 .155 0l1.215-1.206a.114.114 0 0 0 0-.156.114.114 0 0 0-.156 0l-1.214 1.206c-.041.04-.041.107 0 .156"/><path fill="#F3F3F3" d="M6.272 16.734c.041.049.041.123-.008.164l-.582.492a.117.117 0 0 1-.164-.017c-.041-.049-.041-.123.008-.164l.582-.492a.117.117 0 0 1 .164.017"/><path fill="#fff" d="M6.28 16.725c.05.058.042.14-.008.18l-.582.493c-.05.05-.131.041-.18-.016-.05-.058-.042-.14.008-.18l.582-.493c.05-.05.131-.041.18.016m-.754.648c.041.05.107.05.156.017l.582-.492a.114.114 0 0 0 .008-.156c-.04-.05-.106-.05-.155-.017l-.583.493c-.05.04-.05.106-.008.155"/><path fill="#F3F3F3" d="M6.6 15.552a.11.11 0 0 1-.032.164l-1.428.952a.126.126 0 0 1-.164-.033.11.11 0 0 1 .033-.164l1.427-.951c.05-.033.124-.017.165.032"/><path fill="#fff" d="M6.609 15.552a.13.13 0 0 1-.033.18l-1.427.952a.126.126 0 0 1-.18-.04.13.13 0 0 1 .032-.181l1.427-.952a.126.126 0 0 1 .18.041m-1.624 1.075c.032.05.098.066.147.033l1.427-.952c.05-.033.066-.098.025-.156a.107.107 0 0 0-.148-.032l-1.427.951a.116.116 0 0 0-.024.156"/><path fill="#F3F3F3" d="M5.378 15.38a.12.12 0 0 1-.04.164l-.665.377a.12.12 0 0 1-.164-.049.12.12 0 0 1 .04-.164l.665-.377c.058-.033.131-.008.164.049"/><path fill="#fff" d="M5.386 15.372c.033.065.017.14-.04.172l-.665.377a.13.13 0 0 1-.172-.049c-.033-.065-.017-.14.04-.172l.665-.377a.13.13 0 0 1 .172.049m-.87.492c.034.057.1.074.148.041l.665-.377a.12.12 0 0 0 .041-.148c-.033-.057-.098-.074-.148-.041l-.664.377c-.05.025-.066.09-.041.148"/><path fill="#F3F3F3" d="M5.928 14.289c.024.066 0 .131-.066.156L4.28 15.1c-.057.025-.131-.008-.156-.066-.024-.065 0-.13.066-.155l1.583-.657a.117.117 0 0 1 .156.066"/><path fill="#fff" d="M5.936 14.28c.025.066 0 .14-.066.173l-1.583.656a.13.13 0 0 1-.164-.073.136.136 0 0 1 .066-.173l1.583-.656a.13.13 0 0 1 .164.074m-1.796.747c.024.058.09.082.139.066l1.583-.656a.11.11 0 0 0 .058-.148.12.12 0 0 0-.14-.066l-1.583.657a.11.11 0 0 0-.057.147"/><path fill="#F3F3F3" d="M4.771 13.879c.025.065-.008.131-.074.156l-.722.238c-.057.024-.13-.017-.147-.074a.12.12 0 0 1 .074-.156l.721-.238c.058-.025.124.008.148.074"/><path fill="#fff" d="M4.78 13.87a.125.125 0 0 1-.083.165l-.721.238c-.066.024-.14-.017-.164-.082a.125.125 0 0 1 .082-.164l.721-.238a.14.14 0 0 1 .165.082m-.952.313c.016.057.082.09.14.073l.721-.238c.058-.016.082-.082.066-.139s-.082-.09-.14-.074l-.721.238a.113.113 0 0 0-.066.14"/><path fill="#F3F3F3" d="M5.51 12.903a.113.113 0 0 1-.09.14l-1.682.327c-.066.017-.123-.033-.14-.098-.016-.066.025-.132.09-.14l1.682-.328c.066-.008.131.033.14.099"/><path fill="#fff" d="M5.526 12.903a.13.13 0 0 1-.099.156l-1.681.328c-.066.016-.131-.033-.148-.107a.13.13 0 0 1 .099-.156l1.681-.328c.066-.016.132.033.148.107m-1.911.369a.11.11 0 0 0 .123.09l1.681-.328c.058-.008.099-.074.082-.131a.11.11 0 0 0-.123-.09l-1.681.328c-.058.016-.099.073-.082.13"/><path fill="#F3F3F3" d="M4.46 12.271c.008.066-.033.123-.099.131l-.754.09a.12.12 0 0 1-.132-.106.113.113 0 0 1 .099-.131l.754-.09c.058-.009.123.04.132.106"/><path fill="#fff" d="M4.468 12.271c.008.074-.041.14-.107.148l-.755.09a.13.13 0 0 1-.14-.115c-.007-.074.042-.14.108-.148l.754-.09a.13.13 0 0 1 .14.115m-.993.115c.008.057.066.107.123.098l.755-.09a.11.11 0 0 0 .09-.123c-.008-.058-.066-.107-.123-.099l-.755.09a.11.11 0 0 0-.09.124"/><path fill="#F3F3F3" d="M5.378 11.475c0 .066-.049.123-.115.123H3.55c-.066 0-.115-.057-.115-.123 0-.065.05-.123.115-.123h1.714c.066 0 .115.058.115.123"/><path fill="#fff" d="M5.387 11.475c0 .074-.058.132-.124.132H3.55c-.066 0-.123-.058-.123-.132 0-.073.057-.13.123-.13h1.714c.066 0 .123.057.123.13m-1.945-.008c0 .058.05.115.107.115h1.714c.058 0 .107-.05.107-.115 0-.057-.05-.115-.107-.115H3.55c-.057.008-.107.058-.107.115"/><path fill="#E2E2E2" d="M4.468 10.647c-.009.066-.058.115-.123.115l-.763-.058a.12.12 0 0 1-.107-.13c.008-.067.058-.116.123-.116l.763.058c.057.008.107.065.107.13"/><path fill="#fff" d="M4.476 10.647a.133.133 0 0 1-.131.123l-.763-.058a.13.13 0 0 1-.115-.139.133.133 0 0 1 .131-.123l.763.057c.066.009.115.074.115.14m-1-.074a.104.104 0 0 0 .098.115l.763.057c.057 0 .106-.04.114-.106a.104.104 0 0 0-.098-.115l-.763-.058c-.057 0-.107.05-.115.107"/><path fill="#F3F3F3" d="M5.526 10.048a.126.126 0 0 1-.14.098l-1.681-.344c-.066-.016-.107-.074-.09-.14a.126.126 0 0 1 .139-.098l1.682.336c.057.017.098.082.09.148"/><path fill="#fff" d="M5.534 10.048a.134.134 0 0 1-.148.107l-1.681-.337a.13.13 0 0 1-.099-.155.134.134 0 0 1 .148-.107l1.682.336c.065.017.106.082.098.156m-1.911-.385a.12.12 0 0 0 .082.13l1.681.337a.116.116 0 0 0 .132-.09.12.12 0 0 0-.082-.131l-1.682-.337c-.066-.008-.115.033-.131.09"/><path fill="#F3F3F3" d="M4.788 9.064a.12.12 0 0 1-.148.09l-.738-.205c-.066-.017-.099-.082-.082-.148a.12.12 0 0 1 .147-.09l.739.205c.065.016.098.082.082.148"/><path fill="#fff" d="M4.796 9.064c-.017.065-.09.115-.156.09l-.738-.205a.13.13 0 0 1-.09-.156c.016-.066.09-.115.155-.09l.739.205c.065.016.106.082.09.156m-.96-.271c-.016.057.016.123.074.14l.738.204c.058.017.115-.016.131-.082.017-.057-.016-.123-.073-.139l-.739-.205a.12.12 0 0 0-.131.082"/><path fill="#F3F3F3" d="M5.944 8.67c-.024.065-.098.09-.156.065L4.205 8.08c-.057-.024-.09-.098-.066-.156.025-.065.099-.09.156-.065l1.584.656c.065.025.09.098.065.156"/><path fill="#fff" d="M5.952 8.678a.127.127 0 0 1-.164.074l-1.583-.656c-.066-.025-.09-.099-.066-.173a.127.127 0 0 1 .165-.073l1.583.656c.065.033.09.107.065.172m-1.796-.746a.11.11 0 0 0 .057.147l1.584.656c.057.025.114-.008.139-.065a.11.11 0 0 0-.057-.148l-1.584-.656c-.057-.016-.123.008-.14.066"/><path fill="#F3F3F3" d="M5.411 7.562c-.033.058-.098.082-.156.058l-.68-.345c-.058-.024-.083-.098-.05-.164.033-.057.099-.082.156-.057l.68.344c.058.033.083.107.05.164"/><path fill="#fff" d="M5.42 7.57a.125.125 0 0 1-.173.058l-.681-.344a.125.125 0 0 1-.057-.173.125.125 0 0 1 .172-.057l.68.344c.066.025.09.107.058.173m-.887-.45c-.024.057-.008.123.05.147l.68.345c.05.024.115 0 .148-.05.025-.057.008-.123-.05-.147l-.688-.345a.1.1 0 0 0-.14.05"/><path fill="#F3F3F3" d="M6.617 7.407c-.041.057-.107.073-.164.032l-1.42-.943c-.057-.033-.065-.107-.032-.164a.11.11 0 0 1 .164-.033l1.427.952c.05.033.066.106.025.156"/><path fill="#fff" d="M6.625 7.415a.14.14 0 0 1-.18.04l-1.42-.95a.13.13 0 0 1-.032-.181.14.14 0 0 1 .18-.041l1.42.951a.124.124 0 0 1 .032.18M5.009 6.332c-.033.05-.025.123.025.156l1.427.952c.05.032.115.016.148-.033.032-.05.024-.123-.025-.156l-1.427-.952a.107.107 0 0 0-.148.033"/><path fill="#F3F3F3" d="M6.313 6.217c-.04.05-.114.066-.164.025l-.598-.468a.117.117 0 0 1-.017-.164c.041-.049.115-.065.164-.024l.599.467c.05.041.057.115.016.164"/><path fill="#fff" d="M6.322 6.225c-.041.058-.123.066-.18.025l-.6-.468c-.057-.04-.065-.123-.024-.18.04-.058.123-.066.18-.025l.599.468c.058.04.066.123.025.18m-.788-.615a.11.11 0 0 0 .017.156l.598.467c.05.033.115.025.156-.024a.11.11 0 0 0-.016-.156l-.599-.468a.116.116 0 0 0-.156.025"/><path fill="#F3F3F3" d="M7.536 6.3c-.05.048-.123.048-.164 0L6.149 5.092a.116.116 0 0 1 0-.164c.05-.049.123-.049.164 0l1.215 1.206a.117.117 0 0 1 .008.164"/><path fill="#fff" d="M7.536 6.307a.13.13 0 0 1-.18 0L6.14 5.102a.13.13 0 0 1 0-.181.13.13 0 0 1 .18 0l1.215 1.206a.116.116 0 0 1 0 .18m-1.378-1.37a.114.114 0 0 0 0 .156L7.372 6.3a.114.114 0 0 0 .156 0 .114.114 0 0 0 0-.156L6.314 4.93c-.041-.04-.107-.04-.156.008"/><path fill="#F3F3F3" d="M7.462 5.077c-.05.041-.123.041-.164-.008l-.5-.575a.117.117 0 0 1 .016-.164c.049-.04.123-.04.164.009l.5.574c.041.04.033.115-.016.164"/><path fill="#fff" d="M7.47 5.077a.13.13 0 0 1-.18-.008l-.5-.574c-.05-.05-.042-.132.016-.18a.13.13 0 0 1 .18.007l.5.574c.042.058.042.14-.016.181m-.656-.746c-.05.04-.05.106-.017.155l.5.575c.042.04.107.049.157.008.049-.041.049-.107.016-.156l-.5-.574c-.041-.05-.107-.05-.156-.008"/><path fill="#F3F3F3" d="M8.643 5.389a.11.11 0 0 1-.164-.033l-.96-1.42a.124.124 0 0 1 .033-.163.11.11 0 0 1 .164.032l.952 1.42a.116.116 0 0 1-.025.164"/><path fill="#fff" d="M8.643 5.397a.13.13 0 0 1-.18-.033l-.952-1.42a.126.126 0 0 1 .041-.18.13.13 0 0 1 .18.033l.952 1.42a.125.125 0 0 1-.04.18M7.56 3.78a.107.107 0 0 0-.033.147l.952 1.42c.033.049.098.057.156.024a.107.107 0 0 0 .033-.147l-.952-1.411a.117.117 0 0 0-.156-.033"/><path fill="#F3F3F3" d="M8.815 4.174a.12.12 0 0 1-.164-.04l-.377-.665c-.033-.057-.008-.131.05-.164a.12.12 0 0 1 .163.041l.378.664c.024.058.008.132-.05.164"/><path fill="#fff" d="M8.815 4.183c-.065.032-.14.016-.172-.041l-.377-.665c-.033-.057-.017-.14.049-.172.066-.033.14-.017.172.041l.378.664c.032.058.016.132-.05.173m-.492-.87c-.05.033-.074.099-.04.148l.377.664c.032.05.098.066.147.041.05-.033.074-.098.041-.147l-.377-.665c-.025-.049-.099-.074-.148-.04"/><path fill="#F3F3F3" d="M9.906 4.716c-.065.025-.13 0-.155-.057l-.665-1.584c-.024-.057.008-.131.066-.156.065-.024.13 0 .155.058l.665 1.583c.025.057-.008.131-.066.156"/><path fill="#fff" d="M9.906 4.724a.136.136 0 0 1-.172-.065L9.07 3.075a.127.127 0 0 1 .074-.164.136.136 0 0 1 .172.066L9.98 4.56c.025.058-.008.131-.074.164M9.16 2.928c-.057.024-.082.09-.057.14l.664 1.582c.024.058.09.082.148.058.057-.025.082-.09.057-.14l-.664-1.583c-.033-.057-.09-.082-.148-.057"/><path fill="#F3F3F3" d="M10.308 3.551c-.065.025-.131-.008-.155-.074l-.238-.721c-.025-.058.016-.132.073-.148.058-.017.132.008.156.074l.238.722c.025.057-.008.123-.074.147"/><path fill="#fff" d="M10.317 3.56a.13.13 0 0 1-.165-.075l-.237-.721c-.025-.066.016-.14.082-.164a.127.127 0 0 1 .164.073l.238.722a.14.14 0 0 1-.082.164m-.32-.944c-.058.016-.09.082-.074.14l.238.721c.016.058.082.082.14.066.057-.016.09-.082.073-.14l-.238-.721a.104.104 0 0 0-.14-.066"/><path fill="#F3F3F3" d="M11.276 4.298c-.065.016-.131-.025-.14-.09l-.344-1.682c-.016-.066.033-.123.099-.14a.113.113 0 0 1 .14.09l.344 1.682a.13.13 0 0 1-.099.14"/><path fill="#fff" d="M11.276 4.306a.13.13 0 0 1-.156-.099l-.344-1.681c-.017-.066.033-.14.098-.148a.13.13 0 0 1 .156.099l.345 1.681c.016.066-.025.131-.099.148m-.385-1.912c-.058.009-.099.066-.09.132l.344 1.681c.008.058.074.099.131.082.058-.008.099-.065.09-.13l-.344-1.683a.12.12 0 0 0-.131-.082"/><path fill="#F3F3F3" d="M11.9 3.231a.126.126 0 0 1-.14-.098l-.098-.755a.12.12 0 0 1 .107-.131.126.126 0 0 1 .139.098l.098.755a.12.12 0 0 1-.106.131"/><path fill="#fff" d="M11.9 3.24c-.074.008-.14-.042-.148-.107l-.098-.755a.13.13 0 0 1 .114-.14c.074-.007.14.042.148.107l.099.755a.13.13 0 0 1-.115.14m-.123-.985c-.058.008-.107.066-.099.123l.099.755a.11.11 0 0 0 .123.09c.057-.008.107-.066.098-.123l-.098-.755a.11.11 0 0 0-.123-.09"/><path fill="url(#d)" fill-opacity=".2" d="M12.786 21.204c5.364 0 9.712-4.348 9.712-9.712s-4.348-9.713-9.712-9.713-9.713 4.349-9.713 9.713 4.349 9.712 9.713 9.712"/><g filter="url(#e)"><path fill="#000" fill-opacity=".05" d="m19.512 5.331-7.834 5.02h-.008v.009l-.009.008-4.889 8.064 7.186-5.783.008-.009v-.008z"/></g><path fill="#CD151E" d="m19.364 4.864-7.744 5.504 2.297 2.28z"/><path fill="#FA5153" d="m11.629 10.352 1.156 1.14 6.58-6.628z"/><path fill="#ACACAC" d="m11.629 10.352 2.297 2.28-7.744 5.504z"/><path fill="#EEE" d="m6.182 18.136 6.603-6.644-1.156-1.14z"/><defs><linearGradient id="b" x1="12.728" x2="12.728" y1="22" y2="1" gradientUnits="userSpaceOnUse"><stop offset=".25" stop-color="#DBDBDA"/><stop offset="1" stop-color="#fff"/></linearGradient><linearGradient id="d" x1="12.601" x2="8.068" y1="8.715" y2="16.848" gradientUnits="userSpaceOnUse"><stop stop-opacity="0"/><stop offset="1"/></linearGradient><filter id="a" width="23.727" height="23.727" x=".864" y=".318" color-interpolation-filters="sRGB" filterUnits="userSpaceOnUse"><feFlood flood-opacity="0" result="BackgroundImageFix"/><feColorMatrix in="SourceAlpha" result="hardAlpha" values="0 0 0 0 0 0 0 0 0 0 0 0 0 0 0 0 0 0 127 0"/><feOffset dy=".682"/><feGaussianBlur stdDeviation=".682"/><feColorMatrix values="0 0 0 0 0 0 0 0 0 0 0 0 0 0 0 0 0 0 0.266007 0"/><feBlend in2="BackgroundImageFix" result="effect1_dropShadow_41883_2630"/><feBlend in="SourceGraphic" in2="effect1_dropShadow_41883_2630" result="shape"/></filter><filter id="e" width="15.466" height="15.827" x="5.409" y="4.309" color-interpolation-filters="sRGB" filterUnits="userSpaceOnUse"><feFlood flood-opacity="0" result="BackgroundImageFix"/><feColorMatrix in="SourceAlpha" result="hardAlpha" values="0 0 0 0 0 0 0 0 0 0 0 0 0 0 0 0 0 0 127 0"/><feOffset dy=".341"/><feGaussianBlur stdDeviation=".682"/><feColorMatrix values="0 0 0 0 0 0 0 0 0 0 0 0 0 0 0 0 0 0 1 0"/><feBlend in2="BackgroundImageFix" result="effect1_dropShadow_41883_2630"/><feBlend in="SourceGraphic" in2="effect1_dropShadow_41883_2630" result="shape"/></filter><radialGradient id="c" cx="0" cy="0" r="1" gradientTransform="translate(14.092 9.367)scale(11.8555)" gradientUnits="userSpaceOnUse"><stop stop-color="#2ABCE1"/><stop offset=".114" stop-color="#2ABBE1"/><stop offset="1" stop-color="#3375F8"/></radialGradient></defs></svg>