<svg xmlns="http://www.w3.org/2000/svg" width="24" height="24" fill="none" viewBox="0 0 24 24"><g clip-path="url(#a)"><path fill="#000" d="m19.817 10.28.047 2.691h-.024l-.781-2.691h-1.281v3.39h.848l-.048-2.785h.024l.836 2.785h1.226v-3.39zm-16.149 0-.64 3.426h.925l.473-3.117h.02l.46 3.117h.918l-.633-3.426zm5.18 0-.423 2.613h-.023l-.426-2.613H6.577l-.066 3.426h.86l.022-3.082h.008l.575 3.082h.87l.575-3.082h.023l.023 3.082h.86l-.082-3.426zm-7.266 2.453a.47.47 0 0 1 .012.25c-.024.117-.106.23-.332.23-.22 0-.344-.125-.344-.308v-.333H0v.262c0 .77.605.996 1.25.996.617 0 1.133-.214 1.215-.777.048-.297.012-.492 0-.562-.16-.723-1.468-.926-1.558-1.329a.5.5 0 0 1 0-.184c.023-.113.101-.23.308-.23s.32.126.32.309v.207h.86v-.239c0-.746-.676-.86-1.157-.86-.61 0-1.113.204-1.203.754-.023.149-.035.289.012.461.137.708 1.364.915 1.536 1.352zm11.152 0a.46.46 0 0 1 .012.25c-.023.117-.106.23-.332.23-.219 0-.344-.125-.344-.308v-.333h-.918v.262c0 .758.595.989 1.239.989.617 0 1.121-.207 1.203-.782.047-.297.012-.48 0-.562-.137-.711-1.433-.926-1.524-1.317a.5.5 0 0 1 0-.184c.02-.113.102-.23.309-.23.195 0 .32.126.32.309v.207h.848v-.239c0-.746-.664-.86-1.145-.86-.61 0-1.102.192-1.192.754a1.3 1.3 0 0 0 .008.461c.14.708 1.344.903 1.515 1.352zm2.887.457c.242 0 .308-.16.332-.25a.5.5 0 0 0 .012-.128V10.28h.871v2.465c0 .067 0 .195-.012.226-.055.645-.562.851-1.192.851s-1.132-.206-1.191-.85c0-.032-.013-.161-.013-.227V10.28h.871v2.532c0 .047 0 .093.012.129 0 .09.07.25.309.25zm7.153-.035c.254 0 .332-.16.355-.25.012-.035.012-.093.012-.125v-.496h-.355v-.504H24v.918c0 .07 0 .114-.012.23-.059.63-.598.848-1.203.848-.61 0-1.145-.219-1.203-.848a2 2 0 0 1-.012-.23v-1.445c0-.055.012-.172.012-.226.078-.645.594-.852 1.203-.852.605 0 1.132.207 1.203.851.012.102.012.227.012.227v.117h-.86v-.195s0-.082-.012-.129c-.012-.078-.082-.25-.343-.25-.255 0-.32.16-.344.25a.7.7 0 0 0-.012.164v1.57c0 .043 0 .09.012.126 0 .09.09.25.332.25z"/></g><defs><clipPath id="a"><path fill="#fff" d="M0 0h24v24H0z"/></clipPath></defs></svg>