<svg xmlns="http://www.w3.org/2000/svg" width="24" height="24" fill="none" viewBox="0 0 24 24"><path fill="#7882FF" d="M9.92 1.5h4.8c4.44 0 8.08 3.6 8.08 8.12v4.8c0 4.44-3.6 8.08-8.12 8.08h-4.8c-4.4 0-8.08-3.6-8.08-8.12v-4.8c0-4.4 3.6-8.08 8.12-8.08"/><path fill="#4D5CC1" d="m17.798 12.228-.04-.68-.2-.4c1.32 1.2 2 2.48 1.6 3.48-.32.92-1.44 1.44-2.96 1.52-1.48.08-3.32-.24-5.2-.96a12.9 12.9 0 0 1-4.52-2.76c-1.08-1.08-1.56-2.2-1.2-3.12.36-.96 1.6-1.44 3.24-1.48h.04a5.7 5.7 0 0 0-1.68 2.2c.36 1 1.76 2.2 4.52 3.36 2.24.92 4.88 1.4 6.04.64h.08c.16-.6.28-1.2.28-1.8"/><path fill="#fff" d="M17.84 11.34a5.7 5.7 0 0 1-.24 2.44c-1.16.8-3.84.36-6.12-.6-2.76-1.2-4.16-2.36-4.48-3.36a5.7 5.7 0 0 1 1.64-2.2l.04-.04a5.68 5.68 0 0 1 9.16 3.76m-5.6 6.32a5.68 5.68 0 0 1-5.68-5.44 13.76 13.76 0 0 0 9.72 3.72 5.64 5.64 0 0 1-4.08 1.72z"/></svg>