<svg xmlns="http://www.w3.org/2000/svg" width="24" height="24" fill="none" viewBox="0 0 24 24"><path fill="#2CB134" d="M20.31 1.462a.135.135 0 0 1 .12.21l-5.19 7.05a.2.2 0 0 1-.3 0l-1.83-2.04a.212.212 0 0 0-.33.03l-1.11 1.41a.24.24 0 0 0 .03.24l3.3 3.42a.2.2 0 0 0 .3 0l6.48-7.29a.139.139 0 0 1 .24.09v17.73a.142.142 0 0 1-.15.15H2.13a.142.142 0 0 1-.15-.15v-20.7a.142.142 0 0 1 .15-.15zm-5.1 11.97a3.273 3.273 0 0 0-3.33 3.36c0 2.07 1.5 3.39 3.45 3.39a4.13 4.13 0 0 0 2.52-.78.186.186 0 0 0 .03-.24l-.54-.81a.18.18 0 0 0-.24-.03c-.47.32-1.022.497-1.59.51-1.05 0-1.71-.66-1.83-1.44a.065.065 0 0 1 .06-.06h4.53a.194.194 0 0 0 .18-.18v-.18c0-2.1-1.32-3.54-3.24-3.54m-4.47-1.14a4.8 4.8 0 0 0-3.24-1.08c-2.04 0-3.3 1.2-3.3 2.64 0 3.27 4.98 2.22 4.98 3.75 0 .48-.48.96-1.5.96a3.77 3.77 0 0 1-2.61-1.02.2.2 0 0 0-.3.03l-.78 1.08a.186.186 0 0 0 .03.24c.81.75 1.95 1.26 3.54 1.26 2.34 0 3.48-1.2 3.54-2.76 0-3.24-4.98-2.31-4.98-3.69 0-.51.45-.87 1.23-.87a3.72 3.72 0 0 1 2.37.81.19.19 0 0 0 .27-.03l.78-1.05a.19.19 0 0 0-.03-.27m4.5 2.46a1.51 1.51 0 0 1 1.59 1.38.065.065 0 0 1-.06.06h-3.06a.065.065 0 0 1-.06-.06c.1-.799.785-1.393 1.59-1.38"/></svg>