<svg xmlns="http://www.w3.org/2000/svg" width="24" height="24" fill="none" viewBox="0 0 24 24"><g clip-path="url(#a)"><path fill="#F06332" d="m2.487 10.754 4.157 4.218a3.056 3.056 0 0 0 4.36 0l3.291-3.348a1.207 1.207 0 0 1 1.722 0l1.63 1.659L13.5 17.51a6.52 6.52 0 0 1-4.671 1.956A6.53 6.53 0 0 1 4.158 17.5L0 13.283z"/><path fill="#029D74" d="M19.842 6.472 24 10.701l-2.497 2.539-4.157-4.229a3.04 3.04 0 0 0-4.36 0l-3.29 3.349a1.207 1.207 0 0 1-1.722 0l-1.63-1.658 4.156-4.23a6.533 6.533 0 0 1 9.342 0"/></g><defs><clipPath id="a"><path fill="#fff" d="M0 0h24v24H0z"/></clipPath></defs></svg>