<svg xmlns="http://www.w3.org/2000/svg" width="24" height="24" fill="none" viewBox="0 0 24 24"><path fill="#E01E5A" fill-rule="evenodd" d="M3.707 16.978a2.21 2.21 0 0 0 2.205-2.206v-2.205H3.707A2.21 2.21 0 0 0 1.5 14.77a2.21 2.21 0 0 0 2.205 2.205zm5.523-4.413a2.21 2.21 0 0 0-2.206 2.207v5.524a2.21 2.21 0 0 0 2.206 2.205 2.21 2.21 0 0 0 2.204-2.205V14.77a2.21 2.21 0 0 0-2.204-2.205" clip-rule="evenodd"/><path fill="#36C5F0" fill-rule="evenodd" d="M7.025 3.71a2.21 2.21 0 0 0 2.204 2.205h2.206V3.71A2.21 2.21 0 0 0 9.23 1.503a2.21 2.21 0 0 0-2.205 2.205zm4.41 5.523a2.21 2.21 0 0 0-2.206-2.205H3.706A2.21 2.21 0 0 0 1.5 9.233a2.21 2.21 0 0 0 2.205 2.205h5.526a2.21 2.21 0 0 0 2.204-2.205" clip-rule="evenodd"/><path fill="#2EB67D" fill-rule="evenodd" d="M14.77 11.44a2.21 2.21 0 0 0 2.206-2.206V3.708a2.21 2.21 0 0 0-2.204-2.205 2.21 2.21 0 0 0-2.205 2.205v5.526a2.21 2.21 0 0 0 2.204 2.206m5.524-4.412a2.21 2.21 0 0 0-2.206 2.205v2.205h2.206A2.21 2.21 0 0 0 22.5 9.234a2.21 2.21 0 0 0-2.205-2.205z" clip-rule="evenodd"/><path fill="#ECB22E" fill-rule="evenodd" d="M12.566 14.774a2.21 2.21 0 0 0 2.204 2.205h5.525a2.21 2.21 0 0 0 2.205-2.204 2.21 2.21 0 0 0-2.205-2.205H14.77a2.21 2.21 0 0 0-2.204 2.204m4.41 5.523a2.21 2.21 0 0 0-2.205-2.205h-2.206v2.205a2.21 2.21 0 0 0 2.206 2.205 2.21 2.21 0 0 0 2.204-2.205" clip-rule="evenodd"/></svg>