<svg xmlns="http://www.w3.org/2000/svg" width="24" height="24" fill="none" viewBox="0 0 24 24"><g fill="#0F0F0F" clip-path="url(#a)"><path d="M18.263 10.225v.47h.458c.2 0 .332.126.407.207.06.068 1.38 1.564 1.411 1.604.032.039.032.04.032.064v.742a.5.5 0 0 1-.01.101.16.16 0 0 1-.102.09 1 1 0 0 1-.13.009h-.46v.469h2.574v-.47h-.484a1 1 0 0 1-.13-.008.16.16 0 0 1-.1-.09.5.5 0 0 1-.011-.101v-.742a.1.1 0 0 1 .017-.069l1.428-1.629c.13-.146.2-.178.37-.178h.475v-.469h-2.121v.469h.32a.09.09 0 0 1 .076.144c-.006.01-.888 1.046-.899 1.056q-.015.014-.026-.004l-.879-1.052c-.061-.076-.013-.144.059-.144h.312v-.469zm-6.319 0v.47h.41c.297 0 .317.165.317.309V13.2c0 .131.008.311-.181.311h-.507v.47h2.164v-.47h-.528c-.21 0-.22-.096-.222-.3v-1.883l2.972 2.653h.756l-.04-2.996c.004-.22.018-.292.244-.292h.474v-.469h-2.208v.469h.485c.223 0 .26.086.263.292l.026 1.567-2.58-2.328zM2.196 9.99c-.465 0-.994.088-1.44.289-.417.186-.756.485-.756.98 0 .26.098.51.276.7.12.111.315.3.823.412.227.048.712.125 1.195.176s.952.096 1.144.147c.153.039.41.092.41.38s-.27.374-.318.393-.371.167-.954.167a4 4 0 0 1-1.136-.195c-.217-.078-.445-.18-.658-.44a.76.76 0 0 1-.137-.416H.117v1.478h.587v-.2a.083.083 0 0 1 .126-.072q.416.18.859.277c.308.065.507.111.89.111.404.008.807-.049 1.193-.168.257-.07.497-.19.71-.35a.97.97 0 0 0 .379-.778 1.1 1.1 0 0 0-.307-.765 1.4 1.4 0 0 0-.378-.259 3 3 0 0 0-.467-.163c-.304-.074-.987-.167-1.314-.2-.343-.035-.938-.085-1.175-.158-.072-.023-.22-.092-.22-.263q.001-.182.2-.307c.211-.132.636-.214 1.08-.214a3.1 3.1 0 0 1 1.25.244q.161.07.298.178c.15.127.252.3.294.49h.473v-1.287h-.527v.15c0 .048-.049.111-.145.059a4.1 4.1 0 0 0-1.727-.395m6.358-.001c-.832 0-1.715.289-2.214.742a1.84 1.84 0 0 0-.602 1.368 1.82 1.82 0 0 0 .602 1.372c.538.483 1.344.743 2.214.743.872 0 1.696-.257 2.22-.743a1.9 1.9 0 0 0 .594-1.372 1.83 1.83 0 0 0-.594-1.367c-.563-.51-1.3-.742-2.22-.742m0 .55c.455 0 .894.164 1.189.454.285.281.434.679.434 1.104 0 .445-.135.806-.434 1.104-.3.298-.727.457-1.189.457-.458 0-.895-.163-1.19-.457a1.54 1.54 0 0 1-.432-1.104c0-.423.147-.822.432-1.104.295-.292.735-.454 1.19-.454"/></g><defs><clipPath id="a"><path fill="#fff" d="M0 10h24v4.224H0z"/></clipPath></defs></svg>