<svg xmlns="http://www.w3.org/2000/svg" width="24" height="24" fill="none" viewBox="0 0 24 24"><g clip-path="url(#a)"><mask id="b" width="17" height="22" x="4" y="1" maskUnits="userSpaceOnUse" style="mask-type:luminance"><path fill="#fff" d="M20.5 1H4v22h16.5z"/></mask><g mask="url(#b)"><path fill="#574897" d="M6.2 23a2.2 2.2 0 0 1-1.292-3.982l12.1-8.8a2.2 2.2 0 0 1 2.585 3.558l-12.1 8.8A2.2 2.2 0 0 1 6.2 23"/><path fill="#45BAD9" d="M18.3 14.2a2.2 2.2 0 0 1-1.292-.423l-12.1-8.8a2.2 2.2 0 0 1 2.585-3.553l12.1 8.8A2.2 2.2 0 0 1 18.3 14.2"/><path fill="#004D96" d="M6.2 23A2.2 2.2 0 0 1 4 20.8V3.2a2.2 2.2 0 0 1 4.4 0v17.6A2.2 2.2 0 0 1 6.2 23"/><path fill="#574897" d="M17.008 13.782 14.56 12l-9.652 7.018a2.2 2.2 0 1 0 2.585 3.558L18.3 14.75z"/></g></g><defs><clipPath id="a"><path fill="#fff" d="M4 1h16.867v22H4z"/></clipPath></defs></svg>