<svg xmlns="http://www.w3.org/2000/svg" width="24" height="24" fill="none" viewBox="0 0 24 24"><path fill="#0E0F0D" d="M22.448 8.59a3 3 0 0 0-.037-.217 2 2 0 0 0-.054-.225l-.059-.09a4 4 0 0 0-.765-.443q-.327-.147-.663-.265a9.14 9.14 0 0 0-3.107-4.188 8.3 8.3 0 0 0-4.958-1.633 8.3 8.3 0 0 0-4.958 1.633A9.14 9.14 0 0 0 4.74 7.348q-.337.118-.662.265-.408.18-.765.442l-.059.09c-.023.08-.038.15-.054.225q-.022.11-.037.217a5 5 0 0 0-.044.441q-.024.446.026.889.05.442.17.872a4 4 0 0 0 .244.635l.054.105c.042.072.05.084.067.11l.079.072.141.067.137.058.075.03a11 11 0 0 0-1.876 2.158L1.5 15.142l1.032-.875a17 17 0 0 1 2.325-1.557l.02.16a6 6 0 0 0-.683.386c-.225.18-.235.458-.175.977q.09.639.273 1.256c.24.815.417.96.571.993q.129.027.261.024a3.5 3.5 0 0 0 .862-.12 8 8 0 0 0 1.125 2.194l-.068.019a293 293 0 0 0-1.596-.71l-.692-.3.409.616c.03.044.736 1.107 1.312 1.823.293.423.69.767 1.157 1.003.466.236.986.356 1.513.35q.263-.002.524-.03c.416-.047.728-.083.965-.112a6.75 6.75 0 0 0 5.755-.558c.59-.137 1.235-.286 1.554-.372l.181-.043a2.15 2.15 0 0 0 .919-.332 2.06 2.06 0 0 0 .663-.697 108 108 0 0 1 1.056-1.965l.304-.55-.593.248c-.031.013-.782.329-1.172.527q.286-.63.486-1.293.388.06.78.044a1.4 1.4 0 0 0 .316-.039c.154-.037.274-.137.498-.978q.173-.639.251-1.295c.05-.532.034-.817-.191-.998a5 5 0 0 0-.608-.344.24.24 0 0 1 .143-.026l.15-.556q.078-.033.175-.069l.275-.108.135-.059c.048-.021.09-.04.142-.066l.079-.073.037-.058a2.4 2.4 0 0 0 .178-.365q.084-.211.15-.425a5.4 5.4 0 0 0 .197-1.759 5 5 0 0 0-.044-.44z"/><path fill="#E1C5A2" d="M13.763 20.047q-.168.025-.334.037c-.075 0-.15.01-.216.01h-.026c.087-.186.15-.33.202-.44.101.11.23.246.375.392"/><path fill="#A89983" d="M13.628 11.736a5 5 0 0 1-.552.377l-.64.373q-.39.047-.77.149a.14.14 0 0 0-.099.095l-.651 2.074-3.486.747-1.098-.742-.32-2.497a37 37 0 0 1 2.459-.347 6 6 0 0 0-.311.39l-.596.827.868-.559q.71-.435 1.468-.787a41 41 0 0 1 3.724-.1zm-5.424 2.816c.307-.112.639-.15.965-.109h.277c.45-.004.825.037.82-.646-.005-.684-.322-1.237-.772-1.232-.451.006-.888.565-.86 1.248q-.002.206.074.4a.7.7 0 0 0-.295.115.7.7 0 0 0-.212.229zm11.463-2.25-.317 2.124-1.104.748-3.48-.382-.65-2.064a.14.14 0 0 0-.037-.06.15.15 0 0 0-.062-.035 5.5 5.5 0 0 0-.91-.163l.084-.005a14.3 14.3 0 0 0 2.705-.624 38 38 0 0 1 3.769.462zm-2.224 1.965c-.005-.016-.1-.29-.52-.243a.84.84 0 0 0 .056-.427c-.056-.682-.467-1.225-.918-1.21-.45.016-.74.58-.714 1.266.024.685.402.678.853.662.606-.01.938-.19 1.242-.048"/><path fill="#fff" d="M16.253 13.04a.2.2 0 0 1-.037.125.23.23 0 0 1-.1.084.24.24 0 0 1-.253-.043.22.22 0 0 1-.055-.241.22.22 0 0 1 .083-.102.235.235 0 0 1 .29.022.22.22 0 0 1 .072.155m-6.459.163a.2.2 0 0 1-.036.125.238.238 0 0 1-.355.042.22.22 0 0 1-.056-.242.23.23 0 0 1 .083-.102.236.236 0 0 1 .344.092.2.2 0 0 1 .02.085"/><path fill="#E1C5A2" d="M21.185 13.238a4 4 0 0 0-.413-.236l-.292 1.974a.14.14 0 0 1-.061.095l-.417.282-.025.124c.192.02.386-.006.566-.074a1.2 1.2 0 0 0 .466-.32q.157-.582.225-1.18c.047-.512.004-.623-.049-.665m-6.445 7.497a2 2 0 0 1-.735-.45l-.053-.053q-.254.05-.512.073c-.075 0-.143.009-.22.009h-.157c-.259.33-.622.57-1.035.684a6.5 6.5 0 0 0 2.712-.261m-8.914-4.835-.028-.089-.542-.366a.15.15 0 0 1-.06-.099l-.265-2.072a5 5 0 0 0-.482.274c-.053.042-.092.144-.036.641q.099.697.316 1.37a1.48 1.48 0 0 0 1.097.341m8.104-.096a.15.15 0 0 1-.076-.032.14.14 0 0 1-.046-.067l-.67-2.128a2 2 0 0 0-.59 0l-.65 2.067a.14.14 0 0 1-.042.062.15.15 0 0 1-.067.034l-.311.067a.5.5 0 0 1-.152.228.53.53 0 0 1-.252.119 34 34 0 0 1-3.75.941 3.2 3.2 0 0 1-.846-.386A9 9 0 0 0 7.5 18.468c.837-.238 1.56-.46 1.792-.53.47-.701 1.141-1.397 1.618-1.42q.125-.007.252-.007.333 0 .663.04a.8.8 0 0 1-.237-.415c.4.279.892.408 1.383.362a2.5 2.5 0 0 0 1.256-.527l.015-.132-.312-.034"/><path fill="#E1C5A2" d="M14.56 16.078a.66.66 0 0 1-.326-.17l-.008.067a.75.75 0 0 1-.106.316.8.8 0 0 1-.234.242 4.7 4.7 0 0 1 1.102-.254.56.56 0 0 1 .39.153l.053.042c.5.38 1.1.84 1.275.976.204.022.849.094 1.254.13.234.02.446.038.653.038q.1.002.189-.006.343-.639.586-1.316c-.318.234-.67.424-1.043.564a34 34 0 0 1-3.785-.781"/><path fill="#E0D896" d="m22.063 8.633-.022-.204a2 2 0 0 0-.023-.144 4.3 4.3 0 0 0-.625-.412 8 8 0 0 0-.75-.372 15 15 0 0 0-.783-.325 13 13 0 0 0-.399-.15q-.2-.074-.403-.145a10 10 0 0 1 1.382.327 8.04 8.04 0 0 0-2.964-3.795 8.5 8.5 0 0 0-4.67-1.504 8.5 8.5 0 0 0-4.669 1.504 8.04 8.04 0 0 0-2.962 3.795q.267-.082.54-.15.416-.11.841-.177-.203.07-.403.145-.2.073-.398.15c-.264.103-.525.208-.784.325a8 8 0 0 0-.75.372q-.331.179-.626.412l-.022.144-.023.204a5.8 5.8 0 0 0 .2 2.04q.056.196.13.386.038.094.08.184l.044.087.018.034.063.03.126.058c.07.03.168.072.25.11l.012-.011-.235-.863c.05-.013.495-.125 1.263-.266a4 4 0 0 1-.7-.197 2 2 0 0 1-.243-.113.8.8 0 0 1-.213-.157c.843.266 2.586.145 4.137-.009a44 44 0 0 1 4.268-.234q2.139.014 4.266.235c1.55.155 3.294.275 4.137.009a.8.8 0 0 1-.213.157 3 3 0 0 1-.243.113q-.253.096-.514.158l-.075.017c.842.15 1.332.274 1.384.29l-.225.822.135-.058.127-.058.064-.03.017-.034a3 3 0 0 0 .124-.271q.075-.19.13-.386a5.9 5.9 0 0 0 .203-2.04"/><path fill="#D7C184" d="M16.298 7.037a5.6 5.6 0 0 1-.173 1.657.13.13 0 0 0 0 .073q-.337-.035-.675-.06c.184-.395.293-.818.32-1.25a6 6 0 0 0 .53-.418m-6.457.415c.027.432.136.855.32 1.25q-.337.025-.675.06a.13.13 0 0 0 0-.073 5.7 5.7 0 0 1-.174-1.657q.254.225.53.418m9.226 1.822-.005.018.075.022q.315.095.617.224a2.28 2.28 0 0 1-.661-1.273 5.6 5.6 0 0 1-.024 1.008M9.034 6.92l-2.154.59a6.7 6.7 0 0 0-.069 1.64l.012-.006q.043-.62.213-1.219c.075-.174.525-.285.868-.362.344-.078.894-.238 1 .23q.082.365.244.705a6.3 6.3 0 0 1-.114-1.579m7.541.001a6 6 0 0 1-.13 1.653q.193-.373.282-.781c.106-.467.655-.308 1-.23.345.08.795.19.869.363.111.377.181.766.208 1.158a7 7 0 0 0-.075-1.577zm-6.75.182c.075.059.157.116.235.167a.13.13 0 0 1 .062.11c.02.443.132.877.33 1.277l.01.027a36 36 0 0 1 2.343-.072q1.172-.001 2.342.072l.011-.029c.198-.4.31-.833.33-1.276a.14.14 0 0 1 .063-.11q.113-.077.224-.162l.01-.027c.11-1.223 0-2.456-.326-3.643-.01.477-.127 4.566-1.178 4.566h-2.899c-1.116 0-1.206-4.61-1.206-4.61l-.058.164a10.2 10.2 0 0 0-.293 3.546M6.546 9.29l-.004-.018a5.5 5.5 0 0 1-.025-1.01 2.28 2.28 0 0 1-.663 1.274q.301-.13.618-.225z"/><path fill="#9F8F78" d="M19.977 15.478c-.018.088-.032.159-.061.27.267.063.543.083.817.06.133-.224.226-.47.276-.723a1.2 1.2 0 0 1-.466.318c-.18.07-.374.094-.566.075m-8.572 5.652a5.4 5.4 0 0 0 1.73.18 7.1 7.1 0 0 0 2.12-.47 2 2 0 0 1-.514-.104 6.5 6.5 0 0 1-2.711.26 3 3 0 0 1-.499.115c-.042.005-.075.01-.125.019m-5.543-5.105-.037-.123a1.5 1.5 0 0 1-1.097-.342q.076.297.246.555c.3.018.6-.012.888-.09m.618.683c.26.168.546.298.846.386a34 34 0 0 0 3.75-.942.53.53 0 0 0 .252-.119.5.5 0 0 0 .152-.228l-4.253.918h-.031a.15.15 0 0 1-.084-.026l-.166-.111-.497-.334-.2-.135.011.032.034.096c.015.04.075.211.186.462m13.036-.787q.041-.145.075-.293l-.15.1-.397.268-.43.29a.15.15 0 0 1-.101.025l-4.279-.47-.008.065c.09.086.203.145.326.17q1.87.498 3.785.781c.374-.14.725-.329 1.043-.564l.006-.017.055-.155.068-.2"/><path fill="#6E6A67" d="M14.989 10.351q-.05.064-.11.136-.38.465-.818.878a42 42 0 0 0-3.15.028c.986-.4 2.012-.7 3.062-.897q.498-.091 1.016-.145m-5.108.379a7.7 7.7 0 0 0-1.005.809c-.873.085-1.635.187-2.264.284a17.6 17.6 0 0 1 3.27-1.092m10.674 1.741-.355 2.4-1.703 1.152-4.44-.487-.668-2.126a.14.14 0 0 0-.044-.064.15.15 0 0 0-.072-.034 2.5 2.5 0 0 0-.864 0 .15.15 0 0 0-.073.034.14.14 0 0 0-.044.065l-.651 2.073-4.415.948-1.752-1.183-.345-2.694.229-.122q.162-.034.365-.072l.325 2.541A.14.14 0 0 0 6.11 15l1.204.815a.15.15 0 0 0 .083.025h.032l3.63-.78a.14.14 0 0 0 .107-.097l.655-2.077a4.7 4.7 0 0 1 1.019-.145c.344.01.686.06 1.018.145l.654 2.077q.014.04.047.067a.15.15 0 0 0 .077.032l3.63.399a.15.15 0 0 0 .1-.025l1.209-.813a.15.15 0 0 0 .06-.096l.322-2.173q.363.069.6.119m.447-1.503-.313 1.144a35 35 0 0 0-3.953-.583 9.7 9.7 0 0 0 1.84-.982c1.137.155 1.972.322 2.426.42m-16.279 0 .087.317c.243-.187.466-.342.653-.466a25 25 0 0 0-.74.149"/><path fill="#93232C" d="M16.98 10.33a96 96 0 0 0-1.435-.068 9 9 0 0 1-1.575 1.696c1.22-.347 2.37-.89 3.402-1.606l-.391-.023m-3.506-.121c-.242 0-.485-.006-.727-.007q-.535 0-1.07.012l-.658.301-.01.005a7.7 7.7 0 0 0-1.777 1.218c.072-.036.15-.072.225-.111a11.6 11.6 0 0 1 3.476-1.422q.27-.001.54.005m-4.044.076a83 83 0 0 0-1.97.113q-.264.019-.526.045l-.15.016a14.6 14.6 0 0 0-3.426 2.726l.063-.072a14 14 0 0 1 6.008-2.829m10.122 7.578-.04.02c-.282.126-.59.184-.9.17a8 8 0 0 1-.694-.04 68 68 0 0 1-1.33-.139l-.064-.006-.05-.04c-.008-.004-.736-.564-1.324-1.013l-.065-.052c-.062-.05-.062-.05-.099-.05a14 14 0 0 0-1.939.523l-.075.022-.075-.027a5.8 5.8 0 0 0-1.74-.284c-.075 0-.155 0-.23.006-.095.004-.626.249-1.305 1.285l-.044.067-.075.024c-.01 0-1.18.368-2.419.71l-.08.021-.075-.034c-.009 0-.492-.217-.954-.424l.102.046c.456.38 1.328 1.109 1.425 1.21l.054.053-.066-.073q.299.279.671.455.181.084.381.12.097.015.196.015.101.001.204-.005.41-.02.825-.06c.278-.025.549-.05.825-.082.277-.032.547-.061.818-.102.136-.019.27-.04.403-.072q.094-.019.184-.054a.8.8 0 0 0 .15-.106c.101-.085.2-.18.3-.273s.192-.19.287-.29c.161-.161.3-.334.45-.501l.06-.057q.05.032.097.072c.187.135.38.28.566.406q.355.249.736.462a1 1 0 0 0 .21.09l.024.006h.148c.142-.01.286-.03.43-.051q.432-.066.862-.149.431-.081.86-.17.429-.091.855-.193.21-.046.407-.129.196-.09.357-.227.334-.282.562-.652.114-.204.193-.423M14.189 4.811h.505V3.82h-3.698v.992h.505v-.507h1.047v3.064h-.431v.569h1.458v-.569h-.43v-3.06h1.046v.507"/><path fill="#731B2A" d="M18.016 10.397q-.315-.024-.629-.043h-.012a11.5 11.5 0 0 1-3.402 1.605l-.028.023c.873-.15 1.725-.4 2.538-.741q.754-.319 1.43-.77l.105-.072m-5.083-.198a11.6 11.6 0 0 0-3.476 1.423c.357-.176.78-.369 1.254-.56h.008l.15-.06.047-.018.13-.05.075-.028.117-.044.09-.033.11-.04.104-.036.103-.035.118-.04.095-.031.14-.045.075-.025.225-.068a18 18 0 0 1 1.176-.302q-.27-.001-.54-.005m-3.506.081a14 14 0 0 0-6.007 2.828l-.064.073a20 20 0 0 1 5.508-2.588l.236-.066a16 16 0 0 1 1.238-.283q-.454.015-.91.037m10.556 7.372-.023.01-.046.021-.038.017-.03.014-.046.02-.019.01-.051.024-.011.006-.054.025h-.006l-.111.055a3 3 0 0 1-.194.423c-.15.245-.34.465-.56.652a1.6 1.6 0 0 1-.358.227 2.4 2.4 0 0 1-.407.13c-.283.071-.569.132-.855.191q-.43.09-.86.17c-.287.054-.575.107-.862.15a5 5 0 0 1-.43.05h-.148l-.023-.004-.02-.005a1 1 0 0 1-.19-.085 9 9 0 0 1-.735-.462c-.187-.126-.38-.272-.567-.406l-.016.022.035.03-.025-.018.157.18.018.02c.08.09.415.466.812.846.141.14.31.25.497.325.187.074.387.112.59.11q.225-.003.444-.053l.45-.105c.464-.107.975-.226 1.32-.311l.065-.017.131-.034q.094-.024.202-.047c.264-.026.517-.112.74-.25.222-.139.407-.326.54-.547l.272-.518.396-.736.058-.107.03-.055-.07.032m-6.779 1.25-.027-.024c-.155.167-.293.34-.45.502q-.143.146-.288.29a4 4 0 0 1-.3.271.8.8 0 0 1-.15.107q-.09.034-.184.053c-.132.029-.267.05-.403.073q-.406.058-.817.102-.41.046-.825.082-.414.038-.825.06c-.07 0-.138.005-.205.005q-.099 0-.196-.016a1.5 1.5 0 0 1-.38-.12 2.6 2.6 0 0 1-.67-.454q.041.047.085.093l-.02-.018-.054-.052c-.097-.101-.97-.831-1.425-1.21l-.102-.046a24 24 0 0 0 .672.923q.093.121.184.234c.25.37.594.672.999.879.404.207.857.311 1.314.304q.237 0 .473-.027l.112-.012.102-.012c1.04-.115 1.326-.164 1.484-.19l.114-.019.045-.006a2.6 2.6 0 0 0 .702-.206 1.16 1.16 0 0 0 .583-.525c.288-.622.347-.77.349-.776l.101-.261"/><path fill="#0E0F0D" d="M16.027 13.267q.07 0 .127-.04a.22.22 0 0 0 .083-.101.21.21 0 0 0-.055-.241.23.23 0 0 0-.253-.043.23.23 0 0 0-.101.084.22.22 0 0 0 .035.28c.044.04.103.062.164.061m1.416 1.002c-.304-.145-.636.037-1.242.048-.45.015-.828.02-.853-.662-.025-.683.263-1.25.715-1.265.451-.016.861.527.917 1.209a.83.83 0 0 1-.055.427c.42-.048.515.227.52.244zM9.57 13.43a.24.24 0 0 0 .126-.04.22.22 0 0 0 .082-.103.215.215 0 0 0-.057-.24.23.23 0 0 0-.252-.042.23.23 0 0 0-.1.084.22.22 0 0 0 .035.28.23.23 0 0 0 .165.061m.695.358c.007.684-.368.642-.82.647h-.277a2.1 2.1 0 0 0-.965.11.7.7 0 0 1 .213-.23q.133-.091.295-.116a1 1 0 0 1-.075-.4c-.027-.682.409-1.243.86-1.247.45-.004.765.549.772 1.231zm8.541-4.699-.012.126q-.267-.07-.539-.13a19 19 0 0 0-1.804-.29l-.064-.007.01-.026q.026-.095.05-.191a6.2 6.2 0 0 0 .129-1.65l2.155.59a7 7 0 0 1 .075 1.578m-2.68-.396a.13.13 0 0 0 0 .072q-.337-.034-.675-.06c.184-.394.293-.818.32-1.25a6 6 0 0 0 .53-.417 5.6 5.6 0 0 1-.174 1.656zm-6.638.072a.13.13 0 0 0 0-.072 5.7 5.7 0 0 1-.174-1.657 6 6 0 0 0 .53.418c.027.432.136.855.32 1.249q-.337.025-.675.06zM9.16 8.8a18 18 0 0 0-1.806.287q-.27.061-.538.131l-.006-.061a6.7 6.7 0 0 1 .069-1.641l2.154-.592c-.03.529.009 1.059.113 1.579q.03.134.066.267l.01.025-.063.008zm10.8.84-.054-.025-.09-.043-.056-.03a6 6 0 0 0-.617-.225l-.075-.021.004-.018a5.6 5.6 0 0 0 .024-1.008 8 8 0 0 0-.099-.882.14.14 0 0 0-.034-.07.14.14 0 0 0-.066-.04l-.307-.084a5.38 5.38 0 0 0-1.075-3.403c.6 1.017.895 2.175.852 3.344l-1.905-.523h-.038a.1.1 0 0 0-.032 0h-.005l-.025.008-.008.004-.018.012h-.005l-.005.004-.133.123a8 8 0 0 0-.014-.756l-.006-.093a6.8 6.8 0 0 0-.852-2.933c.005.015.064.18.139.457.326 1.187.436 2.42.326 3.643v.02l-.008.006q-.113.088-.225.162a.14.14 0 0 0-.062.11c-.02.443-.132.877-.33 1.277l-.012.031a36 36 0 0 0-2.342-.072c-.781 0-1.563.021-2.343.072l-.01-.027c-.198-.4-.31-.834-.33-1.276a.13.13 0 0 0-.062-.11 5 5 0 0 1-.235-.168 10.2 10.2 0 0 1 .293-3.545c.09-.349.165-.56.171-.579a7.4 7.4 0 0 0-.867 3.783 4 4 0 0 1-.133-.123l-.006-.005H9.28l-.02-.01-.008-.006-.023-.007h-.08l-1.903.523A6.13 6.13 0 0 1 8.1 3.784a5.4 5.4 0 0 0-1.075 3.403l-.306.084a.14.14 0 0 0-.067.04.13.13 0 0 0-.034.07q-.075.438-.099.881-.033.506.025 1.01l.004.018-.075.021q-.315.095-.618.225l-.056.03-.09.043-.046.022-.03.016a4 4 0 0 1 .433-.127c.15-.036.294-.067.442-.094.3-.052.593-.099.892-.134s.6-.073.9-.094c.3-.02.6-.049.9-.066 1.2-.068 2.408-.09 3.614-.09s2.411.019 3.613.09c.3.017.6.042.9.066a21 21 0 0 1 1.793.228q.223.041.44.094.222.05.435.127l-.023-.013z"/><path fill="#0E0F0D" d="M13.142 4.308v3.064h.433v.569h-1.458v-.569h.43V4.308h-1.045v.507h-.506V3.82h3.699v.992h-.506v-.507h-1.05zm1.933.87V3.452h-4.459v1.726h1.266v-.507h.284v2.332h-.428v1.304h2.212V7.004h-.427v-2.33h.285v.508z"/></svg>