<svg xmlns="http://www.w3.org/2000/svg" width="24" height="24" fill="none" viewBox="0 0 24 24"><path fill="#E95420" d="M22.5 12.317c0 5.467-4.699 9.904-10.5 9.904S1.5 17.784 1.5 12.317c0-5.472 4.699-9.904 10.5-9.904s10.5 4.432 10.5 9.904"/><path fill="#fff" d="M5.116 10.619c-.757 0-1.366.623-1.366 1.385 0 .763.614 1.386 1.366 1.386s1.366-.623 1.366-1.386c0-.768-.614-1.385-1.366-1.385m9.758 6.294a1.4 1.4 0 0 0-.502 1.894 1.355 1.355 0 0 0 1.868.508 1.4 1.4 0 0 0 .501-1.894 1.367 1.367 0 0 0-1.867-.508m-6.79-4.909c0-1.37.67-2.579 1.699-3.31l-.998-1.697a6.04 6.04 0 0 0-2.456 3.497c.43.358.706.903.706 1.51s-.276 1.152-.706 1.51a6.02 6.02 0 0 0 2.456 3.497l.998-1.696a4.05 4.05 0 0 1-1.7-3.31m3.99-4.047c2.089 0 3.797 1.619 3.976 3.69l1.95-.032a6.03 6.03 0 0 0-1.765-3.902 1.9 1.9 0 0 1-1.638-.135 1.94 1.94 0 0 1-.936-1.375 6 6 0 0 0-1.586-.218c-.947 0-1.837.223-2.63.623l.952 1.723a3.9 3.9 0 0 1 1.678-.374m0 8.094a4 4 0 0 1-1.682-.373L9.44 17.4c.793.4 1.688.622 2.63.622.547 0 1.08-.078 1.586-.218a1.94 1.94 0 0 1 .936-1.375 1.89 1.89 0 0 1 1.638-.135 6.05 6.05 0 0 0 1.765-3.902l-1.95-.03c-.174 2.064-1.883 3.688-3.97 3.688m2.795-8.96a1.355 1.355 0 0 0 1.867-.51 1.396 1.396 0 0 0-.501-1.893 1.355 1.355 0 0 0-1.868.509 1.405 1.405 0 0 0 .502 1.893"/></svg>