<svg xmlns="http://www.w3.org/2000/svg" width="24" height="24" fill="none" viewBox="0 0 24 24"><path fill="#EF8301" d="M3.985 4.93a3.7 3.7 0 0 1 .556-.906c.802-.976 1.79-1.689 3.018-2.034.997-.278 1.993-.283 2.955.13.974.418 1.712 1.087 2.1 2.095.212.554.276 1.15.18 1.735-.223 1.423-1.017 2.466-2.181 3.262-.609.415-1.246.774-1.843 1.2-.652.466-1.214 1.013-1.59 1.729-.394.75-.568 1.544-.47 2.396.093.814.348 1.567.85 2.222.532.698 1.207 1.196 2.068 1.419.118.032.24.046.362.09-.29 0-.582.017-.87-.003a7 7 0 0 1-1.775-.356c-1.31-.447-2.225-1.327-2.845-2.54-.42-.826-.533-1.707-.472-2.623.078-1.208.574-2.233 1.321-3.154.435-.536.895-1.049 1.336-1.579.37-.446.66-.939.75-1.52.148-.942-.345-1.837-1.272-2.095-.768-.215-1.454-.003-2.068.478-.035.02-.05.066-.11.055"/><path fill="#EE8302" d="M12.594 8.819q.257-.106.513-.217c.814-.35 1.625-.704 2.355-1.217.058-.04.116-.087.177-.125.252-.165.37-.367.373-.698.006-.649.189-1.263.591-1.79.105-.133.105-.133.217-.003.36.412.545.901.65 1.428.017.084.049.12.13.145.75.24 1.399.64 1.894 1.26a3.97 3.97 0 0 1 .826 1.956c.043.29.058.585.043.877-.005.093-.046.14-.121.174a2.5 2.5 0 0 1-.736.191c-.834.102-1.6-.087-2.315-.53-.77-.48-1.604-.857-2.48-1.115-.692-.2-1.387-.33-2.117-.336"/><path fill="#EE8303" d="M7.823 12.833c.098-.322.255-.62.458-.887.55-.73 1.283-1.135 2.187-1.265 1.214-.174 2.27.185 3.23.906.84.632 1.35 1.478 1.567 2.5.188.88.153 1.753-.14 2.607-.04.116-.02.137.102.145.562.044 1.11.14 1.576.493.214.162.391.353.49.614.035.087.011.113-.07.118-.206.018-.411.044-.62.056q-1.467.084-2.934.13c-.791.026-1.582.012-2.376.026a.2.2 0 0 1-.078-.014c1.142-.38 2.014-1.06 2.396-2.231.38-1.165.174-2.248-.582-3.213-1.084-1.381-3.66-1.79-5.206.015"/><path fill="#EE8302" d="M10.372 17.41c-1.303.014-2.442-1.095-2.407-2.48.032-1.268 1.078-2.358 2.419-2.352s2.43 1.095 2.416 2.43a2.41 2.41 0 0 1-2.428 2.402M11.45 15a1.074 1.074 0 0 0-1.063-1.086h-.003a1.084 1.084 0 0 0-1.072 1.08c.006.594.49 1.08 1.075 1.078A1.073 1.073 0 0 0 11.45 15"/><path fill="#EE8303" d="M10.358 9.932c.124-.11.24-.15.356-.191.49-.186.996-.25 1.515-.235 1.477.04 2.842.449 4.079 1.26.59.388 1.22.69 1.923.82.319.058.64.08.956.13.423.067.814.206 1.078.574a.9.9 0 0 1 .17.484c.004.066 0 .086-.075.058-.674-.25-1.33-.189-1.97.127-.53.26-1.077.437-1.68.391a2.2 2.2 0 0 1-.547-.122c-.09-.029-.128-.107-.171-.185-.672-1.217-1.61-2.155-2.9-2.709a5.3 5.3 0 0 0-2.57-.408c-.04 0-.08 0-.164.006"/><path fill="#EC8407" d="M2.672 20.823c0-.284.003-.57-.002-.855-.003-.104.034-.142.133-.127.087.012.174.014.258.035.19.043.26.139.26.339q0 .687.003 1.376c0 .124.03.249.081.362q.14.295.513.263c.177-.014.316-.136.382-.324.053-.145.053-.293.055-.443.003-.412 0-.82 0-1.231 0-.212.093-.319.302-.354.353-.055.353-.055.353.299 0 .434.003.869 0 1.303q.005.292-.078.57c-.2.644-.811.806-1.327.73-.66-.095-.892-.555-.927-1.12-.017-.275-.003-.55-.003-.826z"/><path fill="#EC8306" d="M5.285 21.406c-.017-1.043.748-1.617 1.71-1.55.162.012.324.023.48.084.064.026.093.055.081.127-.052.279-.214.395-.495.342-.478-.09-.956.151-1.098.568-.24.71.25 1.359 1.026 1.252l.144-.015c.24-.026.406.136.392.38-.003.043-.012.07-.058.086-.638.224-1.727.157-2.077-.727a1.4 1.4 0 0 1-.105-.547"/><path fill="#EC8408" d="M8.2 21.313q0-.621-.003-1.246c0-.075.005-.136.09-.156.341-.076.686-.11 1.028-.018.669.183.78.991.376 1.307-.046.037-.04.064.006.098.299.212.35.516.273.837-.087.354-.336.557-.701.62a2.3 2.3 0 0 1-.96-.046c-.083-.02-.115-.06-.112-.15q.004-.626.003-1.246m.356.61c0 .126.003.25 0 .378-.003.072.029.098.098.11.18.031.365.031.545 0a.46.46 0 0 0 .411-.45c.018-.225-.107-.4-.341-.472-.206-.063-.418-.055-.63-.058-.074 0-.086.038-.086.102q.004.2.003.39m0-1.245c0 .116.003.232 0 .348-.003.07.023.096.09.093.173-.006.344.005.518-.032.23-.052.368-.186.374-.391.009-.255-.11-.429-.345-.478a1 1 0 0 0-.345-.023c-.33.043-.29-.03-.29.312-.005.055-.002.113-.002.171"/><path fill="#EB840A" d="M15.187 21.267c-.142.434-.275.834-.409 1.23-.043.137-.098.282-.266.285-.18.006-.23-.148-.273-.29q-.251-.847-.507-1.695c-.026-.08.003-.101.082-.098.173 0 .269.064.327.263.124.432.238.87.356 1.304.055-.017.05-.064.064-.104l.417-1.243c.035-.099.093-.17.203-.174.119-.003.185.064.22.171l.464 1.359c.066-.067.066-.162.09-.244.098-.341.179-.686.275-1.028q.089-.32.365-.301c.07.003.078.02.058.087-.177.585-.351 1.176-.528 1.761-.037.124-.104.238-.255.235-.15-.003-.208-.125-.249-.247q-.193-.578-.382-1.161a2 2 0 0 1-.052-.11m4.316.545c-.209 0-.414.003-.623 0-.08 0-.107.02-.095.11.052.487.521.614.828.544.119-.026.235-.092.365-.031.052.026.122.046.128.104.005.058-.061.095-.11.119-.377.182-.757.185-1.124-.015-.351-.191-.467-.521-.461-.904.003-.188.029-.373.11-.547.209-.437.602-.553 1.028-.475.409.072.664.417.684.869.009.226.009.226-.211.226zm-.191-.293c.15 0 .298-.006.449.003.11.006.122-.052.098-.136a.52.52 0 0 0-.53-.382c-.255.005-.49.19-.539.422-.017.079.006.096.076.093zm-6.747-.819c.568 0 1.04.472 1.043 1.037s-.492 1.058-1.055 1.049a1.06 1.06 0 0 1-1.034-1.046c-.002-.6.525-1.072 1.046-1.04m.71 1.049c.032-.342-.255-.722-.707-.742-.382-.017-.745.333-.736.721.009.43.34.73.724.727.406-.005.716-.304.719-.706m4.342-1.047a1 1 0 0 1 .394.066c.122.04.104.102.038.177-.096.107-.22.113-.348.081a.5.5 0 0 0-.255.009c-.095.029-.162.08-.174.188a.21.21 0 0 0 .12.226c.153.081.31.156.46.237.226.122.365.302.33.574-.032.255-.217.42-.501.492s-.53.018-.776-.121c-.108-.061-.084-.113-.003-.168a.29.29 0 0 1 .275-.035c.148.05.295.081.452.023.098-.037.168-.093.185-.2.018-.116-.02-.214-.122-.272a3 3 0 0 0-.286-.136 1.3 1.3 0 0 1-.244-.122c-.182-.121-.286-.284-.255-.512a.56.56 0 0 1 .345-.447.75.75 0 0 1 .365-.06"/><path fill="#EA8309" d="M20.474 22.01c.005-.234-.03-.515.069-.785.122-.333.585-.594.927-.524.044.009.052.026.055.067a.26.26 0 0 1-.136.252.8.8 0 0 1-.212.09q-.306.084-.304.4l-.006.952a1 1 0 0 1 0 .116c-.017.116-.072.209-.2.206-.127-.003-.19-.09-.194-.212-.005-.17 0-.344 0-.562m-10.26-.013c.017-.192-.015-.42.035-.652.11-.496.57-.652.95-.646.072 0 .075.046.07.098a.32.32 0 0 1-.256.281c-.292.079-.405.148-.408.577-.003.29 0 .58 0 .866 0 .168-.078.27-.2.264-.113-.006-.191-.113-.194-.261 0-.163.003-.328.003-.527"/></svg>