<svg xmlns="http://www.w3.org/2000/svg" width="24" height="24" fill="none" viewBox="0 0 24 24"><mask id="a" width="23" height="22" x="0" y="1" maskUnits="userSpaceOnUse" style="mask-type:luminance"><path fill="#fff" d="M16.554 22.84c.346.13.742.122 1.091-.04l4.53-2.084c.476-.219.778-.68.778-1.185V5.396c0-.505-.302-.966-.778-1.185l-4.53-2.084a1.42 1.42 0 0 0-1.562.254L7.41 9.947 3.634 7.205a.95.95 0 0 0-1.17.05l-1.21 1.054c-.4.347-.4.948-.002 1.297l3.276 2.858-3.276 2.858a.852.852 0 0 0 .001 1.296l1.212 1.054a.95.95 0 0 0 1.17.05L7.41 14.98l8.671 7.566a1.4 1.4 0 0 0 .472.295m.903-15.153-6.58 4.777 6.58 4.776z"/></mask><g mask="url(#a)"><path fill="#0065A9" d="m22.188 4.214-4.533-2.087a1.42 1.42 0 0 0-1.563.254L1.252 15.32a.852.852 0 0 0 .001 1.297l1.212 1.054a.95.95 0 0 0 1.171.05l17.87-12.966c.6-.435 1.46-.026 1.46.693V5.4c0-.505-.302-.966-.778-1.185"/></g><mask id="b" width="23" height="22" x="0" y="1" maskUnits="userSpaceOnUse" style="mask-type:luminance"><path fill="#fff" d="M16.554 22.84c.346.13.742.122 1.091-.04l4.53-2.084c.476-.219.778-.68.778-1.185V5.396c0-.505-.302-.966-.778-1.185l-4.53-2.084a1.42 1.42 0 0 0-1.562.254L7.41 9.947 3.634 7.205a.95.95 0 0 0-1.17.05l-1.21 1.054c-.4.347-.4.948-.002 1.297l3.276 2.858-3.276 2.858a.852.852 0 0 0 .001 1.296l1.212 1.054a.95.95 0 0 0 1.17.05L7.41 14.98l8.671 7.566a1.4 1.4 0 0 0 .472.295m.903-15.153-6.58 4.777 6.58 4.776z"/></mask><g mask="url(#b)"><path fill="#007ACC" d="M22.188 20.711 17.655 22.8a1.42 1.42 0 0 1-1.563-.254L1.252 9.605a.85.85 0 0 1 .001-1.297l1.212-1.054a.95.95 0 0 1 1.171-.05l17.87 12.966c.6.435 1.46.026 1.46-.694v.05c0 .506-.302.966-.778 1.185"/></g><mask id="c" width="23" height="22" x="0" y="1" maskUnits="userSpaceOnUse" style="mask-type:luminance"><path fill="#fff" d="M16.554 22.84c.346.13.742.122 1.091-.04l4.53-2.084c.476-.219.778-.68.778-1.185V5.396c0-.505-.302-.966-.778-1.185l-4.53-2.084a1.42 1.42 0 0 0-1.562.254L7.41 9.947 3.634 7.205a.95.95 0 0 0-1.17.05l-1.21 1.054c-.4.347-.4.948-.002 1.297l3.276 2.858-3.276 2.858a.852.852 0 0 0 .001 1.296l1.212 1.054a.95.95 0 0 0 1.17.05L7.41 14.98l8.671 7.566a1.4 1.4 0 0 0 .472.295m.903-15.153-6.58 4.777 6.58 4.776z"/></mask><g mask="url(#c)"><path fill="#1F9CF0" d="M17.641 22.8a1.42 1.42 0 0 1-1.564-.254c.508.485 1.375.142 1.375-.545V2.926c0-.686-.867-1.03-1.375-.545a1.42 1.42 0 0 1 1.564-.254l4.532 2.084c.476.22.78.68.78 1.185v14.135c0 .505-.304.966-.78 1.185z"/></g><mask id="d" width="23" height="22" x="0" y="1" maskUnits="userSpaceOnUse" style="mask-type:luminance"><path fill="#fff" d="M16.554 22.84c.346.13.742.122 1.091-.04l4.53-2.084c.476-.219.778-.68.778-1.185V5.396c0-.505-.302-.966-.778-1.185l-4.53-2.084a1.42 1.42 0 0 0-1.562.254L7.41 9.947 3.634 7.205a.95.95 0 0 0-1.17.05l-1.21 1.054c-.4.347-.4.948-.002 1.297l3.276 2.858-3.276 2.858a.852.852 0 0 0 .001 1.296l1.212 1.054a.95.95 0 0 0 1.17.05L7.41 14.98l8.671 7.566a1.4 1.4 0 0 0 .472.295m.903-15.153-6.58 4.777 6.58 4.776z"/></mask><g mask="url(#d)"><path fill="url(#e)" fill-opacity=".25" d="M16.554 22.84c.346.13.742.122 1.091-.04l4.53-2.084c.476-.219.778-.68.778-1.185V5.396c0-.505-.302-.966-.778-1.185l-4.53-2.084a1.42 1.42 0 0 0-1.563.254l-8.67 7.566-3.778-2.742a.95.95 0 0 0-1.17.05l-1.21 1.054c-.4.347-.4.948-.002 1.297l3.276 2.858-3.276 2.858a.852.852 0 0 0 .001 1.296l1.212 1.054a.95.95 0 0 0 1.17.05L7.41 14.98l8.671 7.566a1.4 1.4 0 0 0 .472.295m.903-15.153-6.58 4.777 6.58 4.776z"/></g><defs><linearGradient id="e" x1="1100.96" x2="1100.96" y1="1.997" y2="2095.31" gradientUnits="userSpaceOnUse"><stop stop-color="#fff"/><stop offset="1" stop-color="#fff" stop-opacity="0"/></linearGradient></defs></svg>