<svg xmlns="http://www.w3.org/2000/svg" width="24" height="24" fill="none" viewBox="0 0 24 24"><path fill="#0072B8" fill-rule="evenodd" d="M1.5 1.537h21v20.92h-21z" clip-rule="evenodd"/><path fill="#fff" fill-rule="evenodd" d="M17.235 11.484c.171-.032 1.337 0 1.604 0a3.6 3.6 0 0 1 .78.037 1.182 1.182 0 0 1-.101 2.288c-.182.032-1.326 0-1.604 0q-.392.027-.78-.032a1.187 1.187 0 0 1-.78-1.55 1.11 1.11 0 0 1 .876-.743zm3.929 1.374a1.9 1.9 0 0 0-.647-1.7 1.8 1.8 0 0 0-.786-.39 6 6 0 0 0-1.127-.016h-1.176a1.76 1.76 0 0 0-.936.24 1.93 1.93 0 0 0-.267 3.1c.588.503 1.16.433 1.908.433h1.176a1.833 1.833 0 0 0 1.85-1.668zm-11.112-1.593q.11.261.288.48l.92 1.37c.181.266.433.651.62.908a1.16 1.16 0 0 0 1.01.534 1.16 1.16 0 0 0 .903-.614l.62-.91 1.07-1.602a.39.39 0 0 0-.375-.62.67.67 0 0 0-.39.374l-.615.908c-.208.3-.411.61-.62.909l-.31.454a.47.47 0 0 1-.46.3.82.82 0 0 1-.379-.385l-.272-.45-.62-.908-.62-.909a.45.45 0 0 0-.466-.288.385.385 0 0 0-.304.449m-7.221 0q.098.259.272.476l1.235 1.817c.305.46.604 1.01 1.31.983.705-.027.914-.566 1.245-1.069l.93-1.363.315-.417a.82.82 0 0 0 .24-.534.385.385 0 0 0-.464-.342.63.63 0 0 0-.374.342c-.209.315-.401.593-.62.909-.22.315-.401.63-.61.935-.107.155-.203.3-.31.454a.49.49 0 0 1-.449.316.75.75 0 0 1-.39-.385 42 42 0 0 1-1.544-2.277.46.46 0 0 0-.465-.294.385.385 0 0 0-.316.438zm6.312-.444c-.38.08-.32.401-.32.802v2.26a.87.87 0 0 0 .064.498.385.385 0 0 0 .69-.102c.037-.117 0-1.486 0-1.673V11.48a.9.9 0 0 0-.06-.497.37.37 0 0 0-.385-.16zm0-1.357a.5.5 0 0 0-.16.122l-.278.278c-.182.182-.032.252.192.481l.166.14c.182.181.246.048.486-.193.332-.326.321-.256-.192-.77a.17.17 0 0 0-.198-.07z" clip-rule="evenodd"/></svg>