<svg xmlns="http://www.w3.org/2000/svg" width="24" height="24" fill="none" viewBox="0 0 24 24"><g clip-path="url(#a)"><path fill="#FF9D00" d="M20.74 13.036c1.34 1.046 1.34 2.766 0 3.82l-6.308 4.957c-1.34 1.046-3.523 1.046-4.864 0L3.26 16.864c-1.34-1.045-1.34-2.765 0-3.82l6.308-4.957c1.34-1.045 3.523-1.045 4.864 0z"/><g filter="url(#b)"><path fill="#000" fill-opacity=".1" d="m9.583 18.719-6.335-4.98c-.64-.5-.993-1.17-.993-1.883 0-.712.354-1.382.993-1.883l6.335-4.988c.639-.5 1.502-.78 2.417-.78s1.77.28 2.417.78l6.336 4.98c.638.5.992 1.17.992 1.883 0 .712-.354 1.383-.992 1.883l-6.336 4.98c-.647.508-1.502.788-2.417.788s-1.77-.28-2.417-.78"/></g><path fill="#FC0" d="m9.583 18.719-6.335-4.98c-.64-.5-.993-1.17-.993-1.883 0-.712.354-1.382.993-1.883l6.335-4.988c.639-.5 1.502-.78 2.417-.78s1.77.28 2.417.78l6.336 4.98c.638.5.992 1.17.992 1.883 0 .712-.354 1.383-.992 1.883l-6.336 4.98c-.647.508-1.502.788-2.417.788s-1.77-.28-2.417-.78"/><g filter="url(#c)"><path fill="#000" fill-opacity=".1" d="m9.583 15.582-6.335-4.98c-.64-.5-.993-1.17-.993-1.883 0-.712.354-1.382.993-1.883l6.335-4.988c.639-.5 1.502-.78 2.417-.78s1.77.28 2.417.78l6.336 4.98c.638.5.992 1.17.992 1.883 0 .712-.354 1.382-.992 1.883l-6.336 4.98c-.647.508-1.502.788-2.417.788s-1.77-.28-2.417-.78"/></g><path fill="url(#d)" d="m9.583 15.582-6.335-4.98c-.64-.5-.993-1.17-.993-1.883 0-.712.354-1.382.993-1.883l6.335-4.988c.639-.5 1.502-.78 2.417-.78s1.77.28 2.417.78l6.336 4.98c.638.5.992 1.17.992 1.883 0 .712-.354 1.382-.992 1.883l-6.336 4.98c-.647.508-1.502.788-2.417.788s-1.77-.28-2.417-.78"/><path fill="#fff" d="M12.022 13.491c3.237 0 5.862-2.145 5.862-4.792s-2.625-4.791-5.862-4.791S6.16 6.053 6.16 8.699s2.624 4.792 5.862 4.792m0 .493c-3.57 0-6.466-2.366-6.466-5.285s2.895-5.284 6.466-5.284c3.57 0 6.465 2.366 6.465 5.284 0 2.92-2.894 5.285-6.465 5.285"/><path fill="#8CC8F6" d="M12.454 10.733c.324-.042.64-.133.929-.27l1.845.758-.966-1.448c.508-.655.508-1.485 0-2.14l.966-1.448-1.739.715-.05.765c.711.596.693 1.538-.046 2.113a2 2 0 0 1-.632.332zm-.863-4.061c-.535.07-.936.272-.936.272L8.81 6.185l.967 1.448c-.508.655-.508 1.485 0 2.14L8.81 11.22l1.787-.735.038-.716c-.747-.594-.741-1.545.012-2.142.175-.157.572-.324.631-.332z"/><path fill="#fff" fill-rule="evenodd" d="m11.135 8.541-.245 4.353 1.988-4.037.285-4.345zm-.026 3.516 1.593-3.231-1.396-.255z" clip-rule="evenodd"/></g><defs><filter id="b" width="19.882" height="15.686" x="2.059" y="4.205" color-interpolation-filters="sRGB" filterUnits="userSpaceOnUse"><feFlood flood-opacity="0" result="BackgroundImageFix"/><feColorMatrix in="SourceAlpha" result="hardAlpha" values="0 0 0 0 0 0 0 0 0 0 0 0 0 0 0 0 0 0 127 0"/><feOffset dy=".196"/><feGaussianBlur stdDeviation=".098"/><feColorMatrix values="0 0 0 0 0 0 0 0 0 0 0 0 0 0 0 0 0 0 0.07 0"/><feBlend in2="BackgroundImageFix" result="effect1_dropShadow_43377_24"/><feBlend in="SourceGraphic" in2="effect1_dropShadow_43377_24" result="shape"/></filter><filter id="c" width="19.882" height="15.686" x="2.059" y="1.068" color-interpolation-filters="sRGB" filterUnits="userSpaceOnUse"><feFlood flood-opacity="0" result="BackgroundImageFix"/><feColorMatrix in="SourceAlpha" result="hardAlpha" values="0 0 0 0 0 0 0 0 0 0 0 0 0 0 0 0 0 0 127 0"/><feOffset dy=".196"/><feGaussianBlur stdDeviation=".098"/><feColorMatrix values="0 0 0 0 0 0 0 0 0 0 0 0 0 0 0 0 0 0 0.07 0"/><feBlend in2="BackgroundImageFix" result="effect1_dropShadow_43377_24"/><feBlend in="SourceGraphic" in2="effect1_dropShadow_43377_24" result="shape"/></filter><linearGradient id="d" x1="976.765" x2="976.765" y1="1.068" y2="1530.48" gradientUnits="userSpaceOnUse"><stop stop-color="#34AADC"/><stop offset="1" stop-color="#007AFF"/></linearGradient><clipPath id="a"><path fill="#fff" d="M2 1h20v21.647H2z"/></clipPath></defs></svg>