<svg xmlns="http://www.w3.org/2000/svg" width="24" height="24" fill="none" viewBox="0 0 24 24"><path fill="#23B0E8" d="m12.012 1.654-9.65 4.627v6.26h1.781V7.12L12 3.319l7.857 3.8v6.868c-.024 1.021-.471 2.003-1.263 2.775C16.64 18.918 13.098 20.54 12 20.99c-2.416-.957-4.598-2.288-6.434-3.926h10.358c.6-.45 1.139-.956 1.608-1.507H2.597c1.447 4.207 9.39 7.096 9.39 7.096s7.956-2.868 9.404-7.098a5.1 5.1 0 0 0 .247-1.57V6.28z"/><path fill="#23B0E8" d="M16.64 8.616H7.385v1.309h9.256zm.779 2.293H6.618v1.308h10.8zm0 2.279H6.618v1.31h10.8zM14.14 6.332H9.898v1.31h4.244z"/></svg>