<svg xmlns="http://www.w3.org/2000/svg" width="24" height="24" fill="none" viewBox="0 0 24 24"><g clip-path="url(#a)"><path fill="#272525" d="M10.56 10.41c-.55 0-1.122.405-1.122.405v-.26c0-.057-.023-.08-.08-.08h-.7c-.057 0-.091.034-.091.08v5.548c0 .057.023.091.08.091h.711c.046 0 .08-.034.08-.091v-4.749s.33-.211.732-.211c.382 0 .684.191.684.584v4.376c0 .057.034.091.09.091h.701c.057 0 .08-.046.08-.091v-4.625c0-.696-.425-1.068-1.166-1.068m5.452-2.783h-.7c-.057 0-.091.035-.091.08v2.8a2 2 0 0 0-.713-.16c-1.138 0-1.92 1.099-1.92 3.212 0 1.81.76 2.781 1.753 2.781.418 0 .763-.242 1.016-.469l.153.262c.026.046.047.061.099.061h.403c.045 0 .08-.034.08-.09V7.706c0-.057-.023-.08-.08-.08m-2.497 5.745c0-1.164.338-2.317 1.027-2.317.234 0 .458.077.679.254v4.103a1.3 1.3 0 0 1-.625.182c-.75 0-1.08-.898-1.08-2.222m5.182-3.014c-1.167 0-1.743 1.542-1.743 3.22 0 1.757.821 2.741 1.878 2.741.464 0 .927-.184 1.23-.354.046-.026.055-.063.043-.109l-.088-.37c-.011-.046-.034-.069-.09-.069-.024 0-.408.114-.78.114-.865 0-1.261-.777-1.261-1.807v-.25s.43.06.688.06h1.63v-.477c0-1.758-.609-2.699-1.507-2.699m-.056 2.46c-.258 0-.728.065-.728.065s.006-.189.029-.37c.1-.964.328-1.451.721-1.451.342 0 .576.498.633 1.371.01.182.01.386.01.386zM7.236 11.08c-.26-.516-.721-.741-1.25-.741-.34 0-.87.131-1.224.292-.07.031-.113.059-.113.114 0 .033.016.07.034.103l.238.516c.025.058.064.071.097.071.035 0 .064-.017.096-.037.345-.223.598-.346.798-.346.265 0 .445.178.556.445.104.249.144.592.144.99v.116c-.218-.137-.595-.213-.783-.213-1.013 0-1.56.972-1.56 2.01 0 1.12.64 1.941 1.406 1.941.427 0 .814-.253 1.073-.572 0 0 .138.332.156.372s.037.054.09.054h.41c.044 0 .078-.034.078-.091v-3.218c0-.791-.04-1.394-.246-1.806m-.624 4.216c-.201.196-.442.299-.658.299s-.384-.101-.518-.288c-.163-.227-.24-.578-.24-.966 0-.614.225-1.244.7-1.244.236 0 .495.078.716.255zm17.295-4.82h-.625a.12.12 0 0 0-.123.084l-.412 1.098a63 63 0 0 0-.286.803h-.024c0-.002-.153-.433-.235-.649-.067-.175-.415-1.1-.46-1.215-.023-.06-.049-.122-.138-.122h-.684c-.076 0-.118.084-.094.135.025.052 1.114 2.559 1.114 2.559s-1.17 2.807-1.204 2.87.008.156.092.156h.6c.101 0 .141-.054.172-.14.086-.245.214-.583.396-1.107.12-.347.31-.957.31-.957h.022s.208.621.286.824c.196.514.446 1.184.473 1.255.027.074.066.125.136.125h.68c.067 0 .098-.077.067-.145-.076-.16-.722-1.745-1.17-2.786 0 0 1.163-2.593 1.186-2.657s.017-.132-.08-.132"/><path fill="red" d="M4.98 6.792h-.788c-.07 0-.113.035-.123.085s-1.182 3.658-1.267 3.959c-.06.213-.257.964-.305 1.144l-.407-1.123c-.1-.31-1.048-2.987-1.076-3.094-.015-.059-.042-.132-.144-.132H.1c-.075 0-.117.083-.093.135.02.041 1.409 3.775 1.97 5.2v3.137c0 .057.023.091.08.091h.728c.045 0 .08-.034.08-.091V12.99c.467-1.32 2.177-6.014 2.195-6.067.023-.064.016-.132-.08-.132"/></g><defs><clipPath id="a"><path fill="#fff" d="M0 6.801h24v9.548H0z"/></clipPath></defs></svg>