<svg xmlns="http://www.w3.org/2000/svg" width="24" height="24" fill="none" viewBox="0 0 24 24"><path fill="#18CDFF" d="M22 22.16V2H1.84v20.16H22"/><path fill="#003149" d="M1.5 12v10.5h21v-21h-21zm19.905 0v9.405H2.595V2.595h18.81z"/><path fill="#022F45" d="M18.768 5.8c-1.055 1.104-2.608 1.592-6.56 2.02-.805.09-1.77.249-2.139.358a7.04 7.04 0 0 0-4.16 3.504c-.458.905-.458.985.02.527.985-.965 2.428-1.463 4.926-1.702 2.658-.259 3.991-.567 5.285-1.214.896-.448 1.901-1.413 2.349-2.27.299-.576.756-1.641.697-1.641-.02 0-.21.189-.418.418M16.429 10.467c-.876.706-2.936 1.204-6.121 1.483-2.2.199-3.085.468-3.891 1.214-.498.458-.936 1.244-.936 1.702v.279l.259-.2c.557-.437 1.134-.527 4.02-.607 2.917-.08 3.365-.149 4.44-.656.776-.369 1.542-1.115 1.96-1.901.309-.598.607-1.414.538-1.483-.01-.02-.13.06-.27.169M12.896 15.465c-.14.09-.946.12-2.837.12-2.886.01-3.632.12-4.08.597l-.22.239.449.477c.248.27.666.588.925.717.577.299 1.632.388 2.3.21 1.024-.28 2.487-1.185 3.363-2.081.408-.428.428-.478.1-.279"/></svg>