<svg width="48" height="32" viewBox="0 0 48 32" fill="none" xmlns="http://www.w3.org/2000/svg">
<rect width="48" height="32" rx="4" fill="#224DBA"/>
<path d="M14.5666 20.8974H11.832L9.78129 12.8974C9.68396 12.5294 9.47729 12.204 9.17329 12.0507C8.38538 11.6433 7.5402 11.3578 6.66663 11.204V10.896H11.072C11.68 10.896 12.136 11.3587 12.212 11.896L13.276 17.6667L16.0093 10.896H18.668L14.5666 20.896V20.8974ZM20.188 20.8974H17.6053L19.7333 10.896H22.316L20.1893 20.896L20.188 20.8974ZM25.656 13.668C25.732 13.1294 26.188 12.8214 26.72 12.8214C27.582 12.7424 28.4492 12.902 29.2266 13.2827L29.6826 11.1294C28.9339 10.8283 28.135 10.6713 27.328 10.6667C24.8213 10.6667 22.9973 12.052 22.9973 13.9747C22.9973 15.4374 24.2893 16.2054 25.2013 16.668C26.188 17.1294 26.568 17.4374 26.492 17.8987C26.492 18.5907 25.732 18.8987 24.9733 18.8987C24.0531 18.8871 23.1462 18.677 22.3146 18.2827L21.8586 20.4374C22.7508 20.8004 23.7061 20.9835 24.6693 20.976C27.48 21.052 29.2266 19.668 29.2266 17.5907C29.2266 14.9747 25.656 14.8214 25.656 13.668ZM38.2653 20.8974L36.2133 10.896H34.0106C33.7757 10.8995 33.5476 10.9752 33.3573 11.1128C33.1669 11.2505 33.0235 11.4434 32.9466 11.6654L29.1493 20.8974H31.808L32.3386 19.436H35.6053L35.9093 20.8974H38.264H38.2653ZM34.392 13.588L35.152 17.3574H33.024L34.392 13.588Z" fill="white"/>
</svg>
