<svg xmlns="http://www.w3.org/2000/svg" width="24" height="24" fill="none" viewBox="0 0 24 24"><g clip-path="url(#a)"><path fill="#D1D5DB" d="M5.388 9.77v2.233a.136.136 0 0 1-.137.136h-.705a.137.137 0 0 1-.136-.136V8.37a.136.136 0 0 1 .136-.136H5.2a.137.137 0 0 1 .136.136v.512s.234-.73.926-.73c0 0 .685-.082.963.677 0 0 .233-.677.94-.677 0 0 1.053-.062 1.053 1.026l.008.599v2.232a.136.136 0 0 1-.137.137h-.705a.137.137 0 0 1-.137-.137L8.24 9.575c.02-.552-.426-.512-.426-.512-.562.01-.508.715-.508.715v2.232a.136.136 0 0 1-.137.137h-.705a.137.137 0 0 1-.137-.137V9.63s.042-.572-.46-.572c0 0-.497-.065-.48.712m18.178-.007v2.233a.136.136 0 0 1-.136.136l-.734.015a.137.137 0 0 1-.136-.137V9.63s.04-.572-.46-.572c0 0-.48-.023-.48.873v2.072a.136.136 0 0 1-.137.136h-.705a.137.137 0 0 1-.136-.136V8.37a.136.136 0 0 1 .136-.136h.653a.137.137 0 0 1 .136.136v.512s.234-.73.926-.73c0 0 .742-.112.991.663 0 0 .082.16.082.947m-5.092-1.625c-.902 0-1.633.76-1.633 2.038 0 1.126.565 2.038 1.633 2.038 1.009 0 1.633-.912 1.633-2.038 0-1.256-.73-2.038-1.633-2.038m.57 2.083c0 .482-.06.737-.06.737-.086.51-.456.51-.51.507-.06.003-.432-.003-.51-.507 0 0-.06-.255-.06-.737v-.08c0-.481.06-.737.06-.737.078-.504.45-.509.51-.507.054-.002.424-.002.51.507 0 0 .06.256.06.737zm-2.612-1.343v-.521a.137.137 0 0 0-.137-.137h-2.33a.136.136 0 0 0-.137.137v.517a.136.136 0 0 0 .136.136h1.216l-1.439 2.087s-.057.084-.055.178v.634s-.01.218.238.092c0 0 .439-.265 1.174-.265 0 0 .726-.01 1.21.287 0 0 .202.092.202-.11v-.552s.018-.146-.174-.237c0 0-.557-.306-1.288-.256zM3.865 11.49l-.22-.336c-.07-.125-.066-.266-.066-.266V9.34C3.61 8 2.124 8.116 2.124 8.116.804 8.116.61 9.142.61 9.142c-.055.207.105.212.105.212l.645.065s.11.025.15-.106c0 0 .085-.447.56-.447.517 0 .512.443.512.443v.371c-1.032.035-1.51.32-1.51.32-.637.362-.597 1.079-.597 1.079 0 1.168 1.114 1.118 1.114 1.118.712 0 1.133-.522 1.133-.522.126.221.357.431.357.431.115.126.235.02.235.02l.522-.446c.116-.085.03-.19.03-.19m-1.93-.015c-.335 0-.46-.332-.404-.66.056-.326.345-.584 1.05-.576v.199c.025.868-.367 1.037-.646 1.037m11.302.015-.221-.336c-.07-.125-.065-.266-.065-.266V9.34c.03-1.339-1.455-1.223-1.455-1.223-1.32 0-1.515 1.026-1.515 1.026-.055.207.105.212.105.212l.645.065s.11.025.15-.106c0 0 .085-.447.56-.447.517 0 .511.443.511.443v.371c-1.031.035-1.51.32-1.51.32-.637.362-.597 1.079-.597 1.079 0 1.168 1.114 1.118 1.114 1.118.712 0 1.134-.522 1.134-.522.125.221.356.431.356.431.115.126.236.02.236.02l.521-.446c.116-.085.03-.19.03-.19m-1.93-.015c-.335 0-.46-.332-.404-.66.055-.326.345-.584 1.05-.576v.199c.024.868-.367 1.037-.646 1.037"/><path fill="#F3971B" d="M15.012 14.427s-.059.102.013.125c0 0 .082.032.184-.062 0 0 .745-.65.763-1.834 0 0 .005-.148-.054-.188 0 0-.233-.207-1.072-.144 0 0-.731.05-1.13.404 0 0-.036.031-.036.071 0 0-.009.087.21.05 0 0 .732-.104 1.167-.05 0 0 .224.027.287.104 0 0 .103.085.05.367 0 0-.149.717-.382 1.157"/><path fill="#F3971B" d="M14.864 13.29s.109.142-.068.264c0 0-1.882 1.504-5.042 1.504 0 0-3.254.16-5.97-2.306 0 0-.096-.084-.037-.161 0 0 .053-.072.19.006 0 0 2.556 1.591 5.912 1.591 0 0 2.333.09 4.726-.932 0 0 .19-.099.289.034"/></g><defs><clipPath id="a"><path fill="#fff" d="M0 8h24v7.215H0z"/></clipPath></defs></svg>