<svg xmlns="http://www.w3.org/2000/svg" width="24" height="24" fill="none" viewBox="0 0 24 24"><path fill="#D1D5DB" d="M9.344 12a2.494 2.494 0 0 1 2.494-2.498A2.506 2.506 0 0 1 14.341 12a2.506 2.506 0 0 1-2.503 2.498A2.503 2.503 0 0 1 9.344 12m2.495-10.5c-4.9 0-9.006 3.36-10.172 7.895-.01.034-.01.063-.01.107 0 .273.223.506.502.506h4.232a.48.48 0 0 0 .45-.294c.875-1.89 2.783-3.213 5.001-3.213 3.032 0 5.5 2.468 5.5 5.503a5.51 5.51 0 0 1-5.503 5.503 5.5 5.5 0 0 1-4.997-3.213A.52.52 0 0 0 6.39 14H2.159a.5.5 0 0 0-.502.502c0 .034.013.065.013.105C2.826 19.14 6.938 22.5 11.84 22.5c5.797 0 10.5-4.703 10.5-10.5 0-5.793-4.703-10.5-10.5-10.5"/></svg>