<svg xmlns="http://www.w3.org/2000/svg" width="24" height="24" fill="none" viewBox="0 0 24 24"><path fill="#D1D5DB" fill-rule="evenodd" d="M11.962 1.46C6.15 1.46 1.453 6.274 1.453 12.228c0 4.76 3.01 8.788 7.186 10.214.522.107.713-.232.713-.517 0-.25-.017-1.105-.017-1.997-2.924.642-3.532-1.283-3.532-1.283-.47-1.248-1.166-1.568-1.166-1.568-.957-.66.07-.66.07-.66 1.06.071 1.618 1.105 1.618 1.105.94 1.64 2.453 1.177 3.062.891.087-.695.365-1.176.661-1.444-2.331-.25-4.785-1.176-4.785-5.311 0-1.177.418-2.14 1.079-2.888-.104-.267-.47-1.373.105-2.852 0 0 .887-.285 2.888 1.105a10 10 0 0 1 2.627-.356c.887 0 1.792.125 2.627.356 2-1.39 2.888-1.105 2.888-1.105.574 1.48.209 2.585.104 2.852.68.749 1.08 1.711 1.08 2.888 0 4.135-2.454 5.044-4.803 5.311.383.34.713.98.713 1.997 0 1.444-.017 2.602-.017 2.959 0 .285.192.624.713.517 4.176-1.426 7.186-5.455 7.186-10.214.017-5.954-4.698-10.766-10.491-10.766" clip-rule="evenodd"/></svg>