<svg xmlns="http://www.w3.org/2000/svg" width="24" height="24" fill="none" viewBox="0 0 24 24"><path fill="#E5E7EB" d="M1.83 21.509v1.476h-.804V19.45h.804v1.432h1.793V19.45h.802v3.535h-.802v-1.476zm4.056.059c0 .623.198.885.862.885.667 0 .858-.262.858-.885V19.45h.806v2.137c0 .453-.055.763-.226.95-.313.345-.771.487-1.438.487-.664 0-1.13-.142-1.443-.488-.176-.19-.218-.5-.218-.95V19.45h.8zm5.153-2.118 1.631 3.535h-.895l-.352-.84H9.761l-.341.84h-.852l1.617-3.535zm-1.017 2.064h1.142l-.582-1.36zm6.917 1.47h-.985l-.816-2.638-.713 2.639h-.98l-1.273-3.535h.863l.885 2.716.745-2.716h.949l.858 2.716.824-2.716h.825zm2.268-2.097h2.223v.615H19.2c.007.637.277.868.909.868h1.321v.615h-1.358c-.462 0-.82-.033-1.192-.31-.394-.29-.585-.753-.585-1.392 0-1.251.57-1.833 1.798-1.833h1.338v.616h-1.322c-.579 0-.871.267-.903.821m2.932-1.437v3.535h.84V19.45z"/><path fill="#9A080D" d="M10.47 13.94s.038-.03.018-.08h.001C7.91 8.22 4.382 3.942 4.382 3.942s-1.92 1.823-1.783 3.65c.073 1.383 1.11 2.201 1.11 2.201 1.677 1.635 5.73 3.696 6.671 4.163.012.006.062.02.09-.015"/><path fill="#ED1C24" d="M6.863 7.377q.318.586.72 1.12-.354-.564-.72-1.12"/><path fill="#ED1C24" d="M7.582 8.497a9 9 0 0 1-.72-1.12l-.286-.43a9.2 9.2 0 0 0 1.279 1.991z"/><path fill="#ED1C24" d="M7.855 8.939a9.2 9.2 0 0 1-1.279-1.993l-.2-.296c.405.953.969 1.83 1.666 2.597z"/><path fill="#ED1C24" d="M8.042 9.247A9.2 9.2 0 0 1 6.375 6.65l-.163-.238A9.3 9.3 0 0 0 8.19 9.494z"/><path fill="#ED1C24" d="M8.19 9.494a9.3 9.3 0 0 1-1.978-3.082l-.143-.206A9.35 9.35 0 0 0 8.318 9.71z"/><path fill="#EC1C24" d="M8.318 9.71a9.35 9.35 0 0 1-2.25-3.504l-.129-.184a9.4 9.4 0 0 0 2.493 3.883z"/><path fill="#EC1C24" d="M8.432 9.905a9.4 9.4 0 0 1-2.493-3.883l-.12-.17a9.47 9.47 0 0 0 2.716 4.233z"/><path fill="#EC1C24" d="M8.535 10.085A9.47 9.47 0 0 1 5.82 5.852l-.11-.154a9.53 9.53 0 0 0 2.922 4.554z"/><path fill="#EC1C24" d="M8.631 10.252A9.53 9.53 0 0 1 5.71 5.698l-.104-.146A9.6 9.6 0 0 0 8.72 10.41z"/><path fill="#EC1C24" d="M8.72 10.409a9.6 9.6 0 0 1-3.116-4.857l-.1-.138a9.65 9.65 0 0 0 3.3 5.143z"/><path fill="#EC1C24" d="M8.804 10.557a9.66 9.66 0 0 1-3.3-5.143l-.096-.13A9.7 9.7 0 0 0 8.884 10.7z"/><path fill="#EC1C24" d="M8.884 10.7a9.72 9.72 0 0 1-3.476-5.417l-.091-.125a9.78 9.78 0 0 0 3.642 5.678z"/><path fill="#EC1C24" d="M8.96 10.836a9.78 9.78 0 0 1-3.643-5.678l-.09-.12a9.84 9.84 0 0 0 3.805 5.929z"/><path fill="#EC1C24" d="M9.031 10.967a9.84 9.84 0 0 1-3.804-5.93l-.085-.114a9.9 9.9 0 0 0 3.96 6.171z"/><path fill="#EC1C24" d="M9.101 11.094a9.9 9.9 0 0 1-3.959-6.17l-.084-.113a9.96 9.96 0 0 0 4.11 6.405z"/><path fill="#EC1C24" d="M9.167 11.216a9.96 9.96 0 0 1-4.11-6.405l-.08-.107a10.02 10.02 0 0 0 4.256 6.633z"/><path fill="#EC1C24" d="M9.233 11.337a10.02 10.02 0 0 1-4.256-6.633l-.08-.105a10.09 10.09 0 0 0 4.397 6.853z"/><path fill="#EB1C24" d="M9.294 11.452A10.09 10.09 0 0 1 4.897 4.6l-.077-.1a10.15 10.15 0 0 0 4.535 7.067z"/><path fill="#EB1C24" d="M9.355 11.567A10.15 10.15 0 0 1 4.82 4.499L4.744 4.4a10.2 10.2 0 0 0 4.67 7.277z"/><path fill="#EA1C24" d="M9.414 11.677A10.2 10.2 0 0 1 4.744 4.4l-.074-.096a10.27 10.27 0 0 0 4.8 7.482z"/><path fill="#EA1C24" d="M9.47 11.786a10.27 10.27 0 0 1-4.8-7.482l-.073-.093a10.33 10.33 0 0 0 4.93 7.681z"/><path fill="#EA1C24" d="M9.526 11.892a10.33 10.33 0 0 1-4.93-7.681l-.072-.092a10.4 10.4 0 0 0 5.056 7.877z"/><path fill="#EA1C24" d="M9.58 11.996A10.4 10.4 0 0 1 4.524 4.12l-.07-.088a10.46 10.46 0 0 0 5.18 8.069z"/><path fill="#EA1C24" d="M9.634 12.1a10.46 10.46 0 0 1-5.18-8.069l-.07-.086a10.52 10.52 0 0 0 5.3 8.255z"/><path fill="#EA1C24" d="M9.685 12.2c-2.94-1.666-5-4.71-5.301-8.255l-.002-.003-.055.055a10.58 10.58 0 0 0 5.409 8.302z"/><path fill="#E91C23" d="M9.736 12.299a10.58 10.58 0 0 1-5.41-8.302l-.056.058a10.64 10.64 0 0 0 5.515 8.343z"/><path fill="#E91C23" d="M9.785 12.398A10.64 10.64 0 0 1 4.27 4.055l-.057.06a10.7 10.7 0 0 0 5.62 8.378z"/><path fill="#E91C23" d="M9.833 12.493a10.7 10.7 0 0 1-5.62-8.379l-.056.06a10.77 10.77 0 0 0 5.724 8.414z"/><path fill="#E91C23" d="M9.88 12.588a10.77 10.77 0 0 1-5.723-8.413l-.055.06a10.83 10.83 0 0 0 5.826 8.448z"/><path fill="#E81B23" d="M9.928 12.683a10.83 10.83 0 0 1-5.826-8.448l-.055.062a10.9 10.9 0 0 0 5.926 8.477z"/><path fill="#E81B23" d="M9.973 12.774a10.9 10.9 0 0 1-5.926-8.476l-.055.063a10.96 10.96 0 0 0 6.026 8.505z"/><path fill="#E81B23" d="M10.018 12.866A10.96 10.96 0 0 1 3.992 4.36l-.055.064a11.02 11.02 0 0 0 6.126 8.532z"/><path fill="#E81B23" d="M10.063 12.957a11.02 11.02 0 0 1-6.126-8.532l-.054.065a11.08 11.08 0 0 0 6.223 8.556z"/><path fill="#E71B23" d="M10.106 13.046A11.08 11.08 0 0 1 3.883 4.49q-.027.031-.053.065a11.14 11.14 0 0 0 6.318 8.579z"/><path fill="#E71B23" d="M10.148 13.134a11.14 11.14 0 0 1-6.318-8.58l-.053.067a11.2 11.2 0 0 0 6.413 8.6z"/><path fill="#E71B23" d="M10.19 13.222a11.2 11.2 0 0 1-6.413-8.6q-.027.032-.053.067a11.27 11.27 0 0 0 6.508 8.62z"/><path fill="#E71B23" d="M10.232 13.31a11.27 11.27 0 0 1-6.508-8.62l-.053.068a11.33 11.33 0 0 0 6.602 8.637z"/><path fill="#E61B23" d="M10.273 13.395A11.33 11.33 0 0 1 3.67 4.758l-.051.069a11.4 11.4 0 0 0 6.693 8.653z"/><path fill="#E61B23" d="M10.313 13.48A11.4 11.4 0 0 1 3.62 4.827l-.051.07a11.46 11.46 0 0 0 6.783 8.668z"/><path fill="#E61B23" d="M10.353 13.565a11.46 11.46 0 0 1-6.784-8.668l-.051.071a11.52 11.52 0 0 0 6.874 8.681z"/><path fill="#E61B23" d="M10.392 13.649a11.52 11.52 0 0 1-6.874-8.681l-.051.073a11.58 11.58 0 0 0 6.963 8.69z"/><path fill="#E51B22" d="M10.43 13.732A11.58 11.58 0 0 1 3.467 5.04l-.05.074a11.64 11.64 0 0 0 7.05 8.699z"/><path fill="#E51B22" d="M10.468 13.814a11.64 11.64 0 0 1-7.051-8.7l-.049.075a11.7 11.7 0 0 0 7.125 8.702.1.1 0 0 0-.006-.03h.002z"/><path fill="#E41B22" d="M10.494 13.891A11.7 11.7 0 0 1 3.367 5.19l-.048.075a11.77 11.77 0 0 0 7.145 8.683l.005-.006s.022-.019.023-.05"/><path fill="#E41B22" d="M10.465 13.946A11.77 11.77 0 0 1 3.32 5.264l-.048.077a11.82 11.82 0 0 0 4.986 7.502 57 57 0 0 0 2.135 1.118h.048a.1.1 0 0 0 .024-.015"/><path fill="#E41B22" d="M8.258 12.843A11.82 11.82 0 0 1 3.272 5.34l-.048.08a11.88 11.88 0 0 0 4.534 7.143q.25.141.5.279"/><path fill="#E41B22" d="M7.758 12.564A11.88 11.88 0 0 1 3.224 5.42l-.046.08a11.94 11.94 0 0 0 4.201 6.847z"/><path fill="#E41B22" d="M7.38 12.347A11.94 11.94 0 0 1 3.177 5.5l-.046.08a12 12 0 0 0 3.92 6.576z"/><path fill="#E41B22" d="M7.053 12.156a12 12 0 0 1-3.921-6.575l-.045.083c.55 2.48 1.86 4.673 3.676 6.32z"/><path fill="#E41B22" d="M6.763 11.984a12.05 12.05 0 0 1-3.676-6.32l-.045.086a12.1 12.1 0 0 0 3.459 6.075z"/><path fill="#E31A22" d="M6.501 11.824A12.1 12.1 0 0 1 3.042 5.75q-.022.042-.043.086a12.17 12.17 0 0 0 3.26 5.839z"/><path fill="#E21A22" d="M6.26 11.675a12.17 12.17 0 0 1-3.261-5.839l-.042.088a12.23 12.23 0 0 0 3.076 5.608z"/><path fill="#E11A22" d="M6.033 11.533a12.23 12.23 0 0 1-3.076-5.608l-.042.09a12.3 12.3 0 0 0 2.904 5.38z"/><path fill="#E11A22" d="M5.82 11.395a12.3 12.3 0 0 1-2.905-5.379l-.04.095a12.35 12.35 0 0 0 2.74 5.15q.1.068.204.134"/><path fill="#E01A22" d="M5.614 11.26a12.35 12.35 0 0 1-2.739-5.15l-.038.097a12.4 12.4 0 0 0 2.58 4.922z"/><path fill="#E01A22" d="M5.417 11.129a12.4 12.4 0 0 1-2.58-4.922l-.038.1a12.5 12.5 0 0 0 2.426 4.69q.094.067.192.132"/><path fill="#E01A22" d="M5.225 10.998A12.5 12.5 0 0 1 2.8 6.306l-.036.104a12.5 12.5 0 0 0 2.28 4.46q.09.065.182.128"/><path fill="#E01A22" d="M5.043 10.87a12.5 12.5 0 0 1-2.28-4.46l-.034.109a12.6 12.6 0 0 0 2.135 4.223z"/><path fill="#DF1A21" d="M4.864 10.743A12.6 12.6 0 0 1 2.73 6.518l-.031.112a12.7 12.7 0 0 0 1.989 3.98q.087.066.177.131"/><path fill="#DE1A21" d="M4.687 10.612a12.6 12.6 0 0 1-1.99-3.982l-.029.118a12.7 12.7 0 0 0 1.848 3.734z"/><path fill="#DD1A21" d="M4.516 10.482a12.7 12.7 0 0 1-1.848-3.734q-.014.064-.026.127c.389 1.238.963 2.41 1.704 3.474z"/><path fill="#DD1A21" d="M4.346 10.35a12.8 12.8 0 0 1-1.704-3.475l-.022.133c.367 1.134.89 2.212 1.555 3.202z"/><path fill="#DC1921" d="M4.176 10.21A12.8 12.8 0 0 1 2.62 7.008l-.017.147a13 13 0 0 0 1.405 2.912q.081.072.168.143"/><path fill="#DC1921" d="M4.008 10.067a13 13 0 0 1-1.405-2.912 3 3 0 0 0-.01.16c.317.91.734 1.782 1.245 2.6q.084.077.17.152"/><path fill="#DB1921" d="M3.838 9.915c-.51-.818-.928-1.69-1.245-2.6a3 3 0 0 0 0 .187A13 13 0 0 0 3.67 9.76q.039.033.04.033.061.06.128.122"/><path fill="#DB1921" d="M3.67 9.76a13 13 0 0 1-1.077-2.258 3 3 0 0 0 .014.214q.374.978.898 1.886.08.083.165.158"/><path fill="#DA1920" d="M3.505 9.602a13 13 0 0 1-.898-1.886q.014.137.039.267.29.717.663 1.396.093.115.196.223"/><path fill="#D91920" d="M3.309 9.38q-.373-.68-.663-1.397.045.231.126.454.12.268.251.531.127.216.286.411"/><path fill="#D81920" d="M3.023 8.968a13 13 0 0 1-.251-.53q.1.276.251.53"/><path fill="#9A080D" d="M9.845 15.338c-.018-.061-.09-.061-.09-.061v-.003l-6.746.236c.731 1.306 1.965 2.32 3.249 2.01.886-.22 2.892-1.621 3.555-2.097l-.002-.002c.05-.046.034-.083.034-.083"/><path fill="#D81920" d="M9.645 15.278q.1.045.202.086c.002-.016-.002-.026-.002-.026-.018-.061-.09-.061-.09-.061v-.003z"/><path fill="#D71920" d="m9.847 15.364-.202-.086-.14.005q.154.069.31.134a.1.1 0 0 0 .032-.053"/><path fill="#D61820" d="M9.815 15.417a12 12 0 0 1-.31-.134l-.136.005q.195.089.392.172l.052-.037-.002-.002z"/><path fill="#D51820" d="M9.76 15.46a13 13 0 0 1-.39-.172l-.134.004q.231.11.467.21z"/><path fill="#D51820" d="M9.703 15.502a13 13 0 0 1-.467-.21l-.133.005q.27.129.542.246z"/><path fill="#D41820" d="M9.645 15.543a13 13 0 0 1-.542-.246l-.127.005q.3.147.61.282z"/><path fill="#D3171F" d="M9.587 15.583q-.31-.133-.611-.282l-.127.005q.335.168.68.318z"/><path fill="#D2171F" d="M9.53 15.624q-.345-.15-.682-.318l-.126.004q.367.189.75.355z"/><path fill="#D1171F" d="M9.471 15.665q-.38-.165-.75-.355l-.121.005q.399.21.813.39z"/><path fill="#D0171F" d="M9.413 15.706a13 13 0 0 1-.813-.392l-.122.005q.431.228.877.427z"/><path fill="#CF171E" d="M9.355 15.746q-.447-.198-.877-.427l-.121.004q.46.25.94.464z"/><path fill="#CE171E" d="M9.296 15.787q-.478-.214-.94-.464l-.116.004q.488.27.998.5z"/><path fill="#CD171E" d="M9.237 15.827q-.509-.23-.998-.5l-.116.004q.516.291 1.056.537z"/><path fill="#CC171E" d="M9.179 15.867q-.54-.245-1.056-.536l-.117.004q.545.312 1.115.572z"/><path fill="#CB161D" d="M9.12 15.907q-.57-.26-1.114-.572l-.114.004q.57.332 1.17.608z"/><path fill="#CA161D" d="M9.063 15.947q-.6-.275-1.171-.608l-.113.004q.598.353 1.225.644z"/><path fill="#C8161C" d="M9.004 15.987a14 14 0 0 1-1.225-.644l-.112.004q.621.372 1.28.68z"/><path fill="#C7161C" d="M8.946 16.026q-.657-.306-1.28-.679l-.111.004q.647.393 1.332.715z"/><path fill="#C6151B" d="M8.887 16.066a14 14 0 0 1-1.332-.715l-.108.004q.67.413 1.382.75z"/><path fill="#C4151B" d="M8.829 16.105a14 14 0 0 1-1.382-.75l-.109.003q.694.435 1.432.786z"/><path fill="#C2141B" d="M8.77 16.145a14 14 0 0 1-1.432-.786l-.108.004q.716.455 1.48.821z"/><path fill="#C1141B" d="M8.71 16.184a14 14 0 0 1-1.48-.822l-.107.004a14 14 0 0 0 1.528.857z"/><path fill="#BF131A" d="M8.652 16.223a14 14 0 0 1-1.53-.857l-.104.004q.76.496 1.575.892z"/><path fill="#BE131A" d="M8.593 16.262a14 14 0 0 1-1.574-.892l-.105.003q.78.516 1.62.927z"/><path fill="#BC1319" d="M8.534 16.3q-.84-.411-1.62-.927l-.105.004q.801.536 1.666.962z"/><path fill="#BB1319" d="M8.475 16.339a14 14 0 0 1-1.666-.962l-.104.004q.822.556 1.711.996z"/><path fill="#B91218" d="M8.416 16.377a14.5 14.5 0 0 1-1.71-.996l-.102.003q.84.577 1.753 1.031z"/><path fill="#B71218" d="M8.357 16.415a14.6 14.6 0 0 1-1.753-1.03l-.1.003q.858.596 1.794 1.065z"/><path fill="#B61117" d="M8.298 16.453a15 15 0 0 1-1.795-1.065l-.101.003q.878.618 1.836 1.1z"/><path fill="#B41117" d="M8.238 16.491q-.961-.484-1.836-1.1l-.101.004q.896.637 1.878 1.134z"/><path fill="#B21016" d="M8.178 16.53q-.98-.498-1.877-1.135l-.099.003a15 15 0 0 0 1.916 1.17z"/><path fill="#B01016" d="M8.118 16.567a15 15 0 0 1-1.916-1.169l-.098.004q.931.676 1.954 1.203z"/><path fill="#AF0F15" d="M8.058 16.605a15 15 0 0 1-1.954-1.203l-.098.003q.948.697 1.993 1.237z"/><path fill="#AD0F14" d="M7.999 16.642a15 15 0 0 1-1.993-1.237l-.098.004q.965.715 2.031 1.27z"/><path fill="#AB0E13" d="M7.94 16.679a15 15 0 0 1-2.032-1.27l-.097.003q.98.736 2.068 1.304z"/><path fill="#A90E13" d="M7.879 16.716a15 15 0 0 1-2.068-1.304l-.096.003q.998.755 2.103 1.338z"/><path fill="#A70D12" d="M7.819 16.752a15 15 0 0 1-2.103-1.337l-.095.003q1.011.775 2.137 1.37z"/><path fill="#A50C11" d="M7.758 16.79a15 15 0 0 1-2.137-1.371l-.096.003q1.027.794 2.173 1.403z"/><path fill="#A20B10" d="M7.697 16.825a15.3 15.3 0 0 1-2.172-1.403l-.095.003a15.3 15.3 0 0 0 2.206 1.437z"/><path fill="#A00A0F" d="M7.636 16.862a15.4 15.4 0 0 1-2.206-1.437l-.094.004a15.4 15.4 0 0 0 2.239 1.469z"/><path fill="#9E090E" d="M7.575 16.898a15.4 15.4 0 0 1-2.24-1.47l-.092.004q1.068.85 2.27 1.501z"/><path fill="#9C080D" d="M7.513 16.934a15.5 15.5 0 0 1-2.27-1.502l-.092.003c.72.579 1.49 1.092 2.3 1.534z"/><path fill="#9A080D" d="M9.944 14.73c.034-.052-.024-.1-.024-.1h.001c-2.963-2.002-8.708-5.073-8.708-5.073-.522 1.618.182 2.92.182 2.92.731 1.55 2.129 2.018 2.129 2.018.645.267 1.29.284 1.29.284.102.018 4.015.002 5.063-.002.044-.001.067-.047.067-.047"/><path fill="#E01A22" d="M7.675 13.211q.662.472 1.38.853c-.433-.276-.899-.563-1.38-.853"/><path fill="#E01A22" d="M9.056 14.064a12 12 0 0 1-1.38-.853l-.512-.305c.734.577 1.53 1.07 2.374 1.47q-.24-.158-.482-.312"/><path fill="#E01A22" d="M9.538 14.376c-.844-.4-1.64-.893-2.374-1.47l-.354-.21c.921.775 1.95 1.413 3.052 1.895z"/><path fill="#E01A22" d="M9.863 14.59a12.5 12.5 0 0 1-3.053-1.893l-.294-.173c1.014.9 2.173 1.637 3.439 2.175.001-.039-.035-.068-.035-.068h.002z"/><path fill="#DF1A21" d="M9.954 14.698a12.6 12.6 0 0 1-3.438-2.174l-.257-.15a12.7 12.7 0 0 0 3.668 2.38c.01-.012.017-.024.017-.024q.01-.014.01-.032"/><path fill="#DE1A21" d="M9.927 14.754a12.7 12.7 0 0 1-3.668-2.38l-.232-.135a12.7 12.7 0 0 0 3.798 2.538h.052a.07.07 0 0 0 .05-.023"/><path fill="#DD1A21" d="M9.825 14.777a12.7 12.7 0 0 1-3.798-2.538l-.214-.123a12.8 12.8 0 0 0 3.86 2.661z"/><path fill="#DD1A21" d="M9.673 14.777a12.8 12.8 0 0 1-3.86-2.661l-.197-.113a12.9 12.9 0 0 0 3.908 2.775z"/><path fill="#DC1921" d="M9.524 14.778a12.9 12.9 0 0 1-3.908-2.775l-.185-.107a12.9 12.9 0 0 0 3.948 2.883z"/><path fill="#DC1921" d="M9.38 14.779a12.9 12.9 0 0 1-3.95-2.883l-.178-.102a13 13 0 0 0 3.983 2.985z"/><path fill="#DB1921" d="M9.235 14.78a13 13 0 0 1-3.983-2.986l-.167-.095a13.1 13.1 0 0 0 4.012 3.08z"/><path fill="#DB1921" d="M9.097 14.78a13.1 13.1 0 0 1-4.012-3.08l-.162-.093A13.1 13.1 0 0 0 8.96 14.78z"/><path fill="#DA1920" d="M8.96 14.78a13.1 13.1 0 0 1-4.037-3.173l-.155-.087a13.2 13.2 0 0 0 4.057 3.26z"/><path fill="#D91920" d="M8.825 14.78a13.2 13.2 0 0 1-4.057-3.26l-.15-.085a13.3 13.3 0 0 0 4.075 3.346z"/><path fill="#D81920" d="M8.694 14.781a13.3 13.3 0 0 1-4.076-3.346l-.145-.082a13.3 13.3 0 0 0 4.09 3.429z"/><path fill="#D71920" d="M8.562 14.782a13.3 13.3 0 0 1-4.089-3.43l-.14-.079a13.4 13.4 0 0 0 4.102 3.51z"/><path fill="#D61820" d="M8.435 14.782a13.4 13.4 0 0 1-4.103-3.509l-.137-.077a13.5 13.5 0 0 0 4.114 3.586z"/><path fill="#D51820" d="M8.31 14.783a13.5 13.5 0 0 1-4.114-3.586l-.135-.076a13.5 13.5 0 0 0 4.123 3.662z"/><path fill="#D51820" d="M8.184 14.783A13.5 13.5 0 0 1 4.06 11.12l-.13-.072a13.6 13.6 0 0 0 4.13 3.734z"/><path fill="#D41820" d="M8.062 14.783a13.6 13.6 0 0 1-4.13-3.734l-.129-.072a13.65 13.65 0 0 0 4.138 3.807z"/><path fill="#D3171F" d="M7.941 14.784a13.7 13.7 0 0 1-4.138-3.807l-.124-.069a13.7 13.7 0 0 0 4.141 3.876z"/><path fill="#D2171F" d="M7.82 14.784a13.7 13.7 0 0 1-4.14-3.876l-.123-.068a13.8 13.8 0 0 0 4.146 3.944z"/><path fill="#D1171F" d="M7.703 14.784a13.8 13.8 0 0 1-4.146-3.944l-.121-.068a13.85 13.85 0 0 0 4.15 4.013z"/><path fill="#D0171F" d="M7.587 14.785a13.8 13.8 0 0 1-4.15-4.012l-.117-.065a13.9 13.9 0 0 0 4.15 4.077z"/><path fill="#CF171E" d="M7.47 14.785a13.9 13.9 0 0 1-4.15-4.077l-.117-.064a14 14 0 0 0 4.152 4.141z"/><path fill="#CE171E" d="M7.356 14.785a14 14 0 0 1-4.153-4.141l-.114-.064a14 14 0 0 0 4.155 4.206z"/><path fill="#CD171E" d="M7.244 14.786a14 14 0 0 1-4.155-4.206l-.111-.06a14.1 14.1 0 0 0 4.154 4.266z"/><path fill="#CC171E" d="M7.132 14.786a14.1 14.1 0 0 1-4.154-4.267l-.11-.061a14.2 14.2 0 0 0 4.152 4.328z"/><path fill="#CB161D" d="M7.02 14.786a14.2 14.2 0 0 1-4.153-4.328l-.11-.06a14.2 14.2 0 0 0 4.154 4.389z"/><path fill="#CA161D" d="M6.91 14.786a14.2 14.2 0 0 1-4.153-4.388l-.106-.059a14.3 14.3 0 0 0 4.151 4.447z"/><path fill="#C8161C" d="M6.803 14.787a14.3 14.3 0 0 1-4.151-4.448l-.107-.058a14.34 14.34 0 0 0 4.15 4.506z"/><path fill="#C7161C" d="M6.694 14.787a14.35 14.35 0 0 1-4.149-4.506l-.106-.058a14.4 14.4 0 0 0 4.147 4.564z"/><path fill="#C6151B" d="M6.586 14.787a14.4 14.4 0 0 1-4.147-4.564l-.102-.056a14.5 14.5 0 0 0 4.144 4.62z"/><path fill="#C4151B" d="M6.48 14.787a14.5 14.5 0 0 1-4.143-4.62l-.101-.056a14.5 14.5 0 0 0 4.14 4.676z"/><path fill="#C2141B" d="M6.376 14.787a14.5 14.5 0 0 1-4.14-4.676l-.102-.055a14.6 14.6 0 0 0 4.138 4.731z"/><path fill="#C1141B" d="M6.272 14.787a14.6 14.6 0 0 1-4.138-4.731l-.1-.055a14.64 14.64 0 0 0 4.133 4.786z"/><path fill="#BF131A" d="M6.167 14.787a14.65 14.65 0 0 1-4.133-4.786l-.098-.053a14.7 14.7 0 0 0 4.129 4.84z"/><path fill="#BE131A" d="M6.065 14.787a14.7 14.7 0 0 1-4.13-4.84l-.097-.053a14.8 14.8 0 0 0 4.125 4.893z"/><path fill="#BC1319" d="M5.963 14.787a14.8 14.8 0 0 1-4.125-4.892l-.098-.053a14.8 14.8 0 0 0 4.122 4.945z"/><path fill="#BB1319" d="M5.862 14.787A14.8 14.8 0 0 1 1.74 9.842l-.096-.052a14.9 14.9 0 0 0 4.116 4.997z"/><path fill="#B91218" d="M5.76 14.787A14.9 14.9 0 0 1 1.645 9.79l-.095-.051a14.96 14.96 0 0 0 4.11 5.048z"/><path fill="#B71218" d="M5.66 14.787A14.95 14.95 0 0 1 1.55 9.74l-.094-.051c.98 1.99 2.388 3.73 4.105 5.099z"/><path fill="#B61117" d="M5.56 14.787a15 15 0 0 1-4.104-5.099l-.094-.05a15.1 15.1 0 0 0 4.1 5.149z"/><path fill="#B41117" d="M5.462 14.787a15.1 15.1 0 0 1-4.1-5.15l-.093-.05a15.1 15.1 0 0 0 4.095 5.2z"/><path fill="#B21016" d="M5.363 14.787a15.1 15.1 0 0 1-4.094-5.2l-.025-.013h-.036l-.005.017a15.2 15.2 0 0 0 4.061 5.195z"/><path fill="#B01016" d="M5.265 14.786a15.2 15.2 0 0 1-4.062-5.195l-.027.089a15.25 15.25 0 0 0 3.991 5.106z"/><path fill="#AF0F15" d="M5.167 14.786a15.26 15.26 0 0 1-3.99-5.106q-.014.045-.026.09a15.3 15.3 0 0 0 3.92 5.015z"/><path fill="#AD0F14" d="M5.071 14.785a15.3 15.3 0 0 1-3.92-5.016l-.023.092a15.4 15.4 0 0 0 3.846 4.923z"/><path fill="#AB0E13" d="M4.974 14.784a15.4 15.4 0 0 1-3.846-4.923l-.021.096a15.45 15.45 0 0 0 3.77 4.825z"/><path fill="#A90E13" d="M4.877 14.783a15.4 15.4 0 0 1-3.77-4.826l-.02.099a15.5 15.5 0 0 0 3.689 4.722l.038.001z"/><path fill="#A70D12" d="M4.775 14.778a15.5 15.5 0 0 1-3.688-4.722l-.018.103a15.6 15.6 0 0 0 3.604 4.611z"/><path fill="#A50C11" d="M4.673 14.77A15.6 15.6 0 0 1 1.07 10.16l-.015.104a15.6 15.6 0 0 0 3.513 4.496z"/><path fill="#A20B10" d="M4.568 14.759a15.6 15.6 0 0 1-3.513-4.497l-.013.108c.87 1.65 2.027 3.131 3.417 4.374q.054.008.109.015"/><path fill="#A00A0F" d="M4.459 14.745a15.7 15.7 0 0 1-3.417-4.374l-.01.113a15.8 15.8 0 0 0 3.313 4.243z"/><path fill="#9E090E" d="M4.345 14.727a15.8 15.8 0 0 1-3.313-4.243l-.007.119a15.8 15.8 0 0 0 3.206 4.103q.06.012.114.02"/><path fill="#9C080D" d="M4.231 14.705a15.8 15.8 0 0 1-3.206-4.102l-.004.12a15.9 15.9 0 0 0 3.092 3.957q.06.015.118.025"/><path fill="#9A080D" d="M10.394 1.024c-.295.027-1.087.208-1.087.208-1.787.462-2.209 2.085-2.209 2.085-.326 1.02.009 2.143.009 2.143.596 2.648 3.53 7 4.162 7.913.043.046.08.03.08.03.068-.019.063-.084.063-.084a55 55 0 0 0 .248-3.689q.015-.527.019-1.054a34 34 0 0 0-.055-2.143 27 27 0 0 0-.082-1.036 25 25 0 0 0-.14-1.114 16 16 0 0 0-.17-.927l-.036-.164a15 15 0 0 0-.186-.717 15 15 0 0 0-.111-.353 10 10 0 0 0-.108-.298l-.068-.17-.033-.076a4 4 0 0 0-.118-.253l-.027-.05-.024-.046-.023-.04-.02-.036-.02-.03-.016-.028-.014-.022-.012-.018-.01-.014-.006-.01-.005-.005z"/><path fill="#F37355" d="M11.29 3.648"/><path fill="#F37254" d="m11.313 3.766-.023-.118a14 14 0 0 0-.113-.533c.008.407.085.81.227 1.19q-.041-.27-.091-.54"/><path fill="#F37153" d="M11.404 4.306a3.6 3.6 0 0 1-.227-1.192l-.02-.083h-.043a3.7 3.7 0 0 0 .327 1.527zm-.287-1.435-.003.16h.043z"/><path fill="#F37052" d="M11.114 3.031q0-.08.003-.16l-.049-.187q-.015.173-.016.347zm.327 1.527a3.7 3.7 0 0 1-.327-1.527h-.062c0 .621.15 1.207.415 1.724z"/><path fill="#F26E50" d="M11.052 3.031q0-.175.016-.347l-.045-.158a4 4 0 0 0-.033.505zm.416 1.724a3.76 3.76 0 0 1-.416-1.724h-.062c0 .689.182 1.335.5 1.894z"/><path fill="#F26D4F" d="M10.99 3.031q0-.257.033-.505l-.041-.14a4 4 0 0 0-.054.645zm.5 1.894a3.8 3.8 0 0 1-.5-1.894h-.061c0 .75.211 1.45.578 2.044z"/><path fill="#F26B4E" d="M10.928 3.031q0-.33.054-.645l-.04-.127q-.075.382-.076.772zm.579 2.044a3.9 3.9 0 0 1-.579-2.044h-.061c0 .807.241 1.558.655 2.183z"/><path fill="#F26A4D" d="M10.867 3.031q0-.397.075-.772l-.038-.117q-.1.439-.1.89zm.655 2.183a3.94 3.94 0 0 1-.655-2.183h-.062c0 .861.27 1.66.73 2.313z"/><path fill="#F2694C" d="M10.805 3.031q.001-.46.098-.89l-.037-.109a4 4 0 0 0-.123 1zm.73 2.313a4 4 0 0 1-.73-2.313h-.062c0 .913.3 1.756.805 2.435z"/><path fill="#F2674A" d="M10.743 3.031c0-.344.043-.68.123-.999l-.037-.102c-.098.359-.148.73-.148 1.101zm.805 2.436a4.07 4.07 0 0 1-.805-2.436h-.062c0 .963.328 1.849.878 2.552z"/><path fill="#F26649" d="M10.681 3.031q.002-.573.148-1.101l-.036-.098a4.2 4.2 0 0 0-.174 1.199zm.878 2.552a4.13 4.13 0 0 1-.878-2.552h-.061c-.002.971.334 1.912.95 2.663z"/><path fill="#F26448" d="M10.62 3.031c-.001-.406.058-.81.173-1.198l-.036-.093a4.3 4.3 0 0 0-.2 1.291zm.95 2.663a4.2 4.2 0 0 1-.95-2.663h-.062c0 1.058.384 2.025 1.02 2.77z"/><path fill="#F26347" d="M10.558 3.031c0-.438.066-.873.199-1.291l-.037-.088c-.149.444-.225.91-.224 1.38zm1.02 2.77a4.25 4.25 0 0 1-1.02-2.77h-.062c0 1.104.412 2.11 1.09 2.875z"/><path fill="#F16145" d="M10.496 3.031c0-.469.075-.935.224-1.38l-.036-.084c-.166.47-.25.966-.25 1.465zm1.09 2.875a4.32 4.32 0 0 1-1.09-2.875h-.062c0 1.148.44 2.193 1.16 2.975z"/><path fill="#F16044" d="M10.434 3.031c0-.513.088-1.006.25-1.464l-.036-.081a4.5 4.5 0 0 0-.276 1.545zm1.16 2.975a4.38 4.38 0 0 1-1.16-2.975h-.062a4.44 4.44 0 0 0 1.23 3.074z"/><path fill="#F15F43" d="M10.372 3.031c0-.527.093-1.05.275-1.545l-.036-.078a4.5 4.5 0 0 0-.3 1.623zm1.23 3.074a4.44 4.44 0 0 1-1.23-3.074h-.061c0 1.235.495 2.354 1.297 3.17z"/><path fill="#F15E42" d="M10.31 3.031c0-.572.107-1.12.3-1.623l-.036-.075a4.6 4.6 0 0 0-.325 1.698zm1.298 3.17a4.5 4.5 0 0 1-1.297-3.17h-.062c0 1.277.523 2.432 1.365 3.263z"/><path fill="#F15C41" d="M10.249 3.031c-.001-.582.11-1.158.325-1.698l-.037-.072a4.6 4.6 0 0 0-.35 1.77zm1.365 3.263A4.57 4.57 0 0 1 10.25 3.03h-.062c0 1.32.55 2.51 1.434 3.355z"/><path fill="#F15B40" d="M10.187 3.031c0-.627.125-1.225.35-1.77l-.038-.07a4.7 4.7 0 0 0-.374 1.84zm1.433 3.355a4.63 4.63 0 0 1-1.433-3.355h-.062a4.7 4.7 0 0 0 1.5 3.445z"/><path fill="#F1593F" d="M10.125 3.031c0-.653.133-1.275.373-1.84l-.038-.066a4.75 4.75 0 0 0-.397 1.906zm1.5 3.445a4.7 4.7 0 0 1-1.5-3.445h-.062c0 1.402.605 2.662 1.568 3.533z"/><path fill="#F1583E" d="M10.063 3.031c0-.678.142-1.322.397-1.906l-.04-.063a4.8 4.8 0 0 0-.419 1.97zm1.568 3.533a4.75 4.75 0 0 1-1.568-3.533h-.061c0 1.442.632 2.736 1.633 3.62z"/><path fill="#F0563D" d="M10.002 3.031c0-.701.15-1.368.418-1.969l-.026-.038-.026.003a4.9 4.9 0 0 0-.428 2.004zm1.633 3.62a4.82 4.82 0 0 1-1.633-3.62H9.94c0 1.482.66 2.81 1.7 3.706z"/><path fill="#F0553B" d="M9.94 3.031c0-.714.153-1.393.428-2.004l-.072.009a4.9 4.9 0 0 0-.418 1.995zm1.7 3.706a4.88 4.88 0 0 1-1.7-3.706h-.062a4.94 4.94 0 0 0 1.766 3.79z"/><path fill="#F0533A" d="M9.878 3.031c0-.71.15-1.385.418-1.995l-.072.01a5 5 0 0 0-.408 1.985zm1.766 3.79a4.94 4.94 0 0 1-1.766-3.79h-.062c0 1.561.713 2.956 1.831 3.875z"/><path fill="#F05239" d="M9.816 3.031c0-.705.146-1.376.408-1.984l-.072.012a5.1 5.1 0 0 0-.397 1.972zm1.831 3.874a5 5 0 0 1-1.83-3.874h-.062c0 1.6.74 3.027 1.896 3.957z"/><path fill="#F05138" d="M9.754 3.031c0-.7.142-1.366.398-1.972l-.072.013a5.1 5.1 0 0 0-.387 1.96zm1.897 3.957A5.07 5.07 0 0 1 9.754 3.03h-.061c0 1.64.767 3.099 1.961 4.039z"/><path fill="#F04F37" d="M9.693 3.031c0-.694.138-1.355.386-1.96l-.072.014a5.2 5.2 0 0 0-.376 1.946zm1.961 4.039A5.13 5.13 0 0 1 9.692 3.03h-.061c0 1.678.794 3.169 2.026 4.119z"/><path fill="#F04E36" d="M9.63 3.031c0-.667.128-1.327.377-1.946l-.072.014a5.3 5.3 0 0 0-.366 1.932zm2.027 4.119A5.19 5.19 0 0 1 9.63 3.03h-.062c0 1.716.82 3.24 2.09 4.199z"/><path fill="#F04D36" d="M9.569 3.031c0-.682.13-1.334.366-1.932l-.072.014a5.3 5.3 0 0 0-.356 1.918zM11.66 7.23a5.25 5.25 0 0 1-2.09-4.199h-.063c0 1.754.848 3.31 2.156 4.278z"/><path fill="#EF4B35" d="M9.507 3.031c0-.656.12-1.306.356-1.918l-.071.015a5.4 5.4 0 0 0-.346 1.903zm2.156 4.278a5.31 5.31 0 0 1-2.156-4.278h-.061c0 1.792.874 3.378 2.219 4.356z"/><path fill="#EF4A34" d="M9.445 3.031c0-.67.123-1.311.346-1.903l-.071.015a5.4 5.4 0 0 0-.337 1.888zm2.22 4.356a5.38 5.38 0 0 1-2.22-4.356h-.061c0 1.829.9 3.447 2.283 4.434z"/><path fill="#EF4833" d="M9.384 3.031c-.001-.644.113-1.284.336-1.889l-.071.016a5.5 5.5 0 0 0-.327 1.873zm2.283 4.434a5.44 5.44 0 0 1-2.283-4.434h-.062a5.5 5.5 0 0 0 2.347 4.511z"/><path fill="#EF4632" d="M9.322 3.031a5.5 5.5 0 0 1 .327-1.873l-.071.015A5.6 5.6 0 0 0 9.26 3.03zm2.347 4.511a5.5 5.5 0 0 1-2.347-4.51H9.26c0 1.903.955 3.583 2.41 4.587z"/><path fill="#EF4431" d="M9.26 3.031c0-.633.107-1.261.318-1.858l-.071.015a5.6 5.6 0 0 0-.309 1.843zm2.41 4.588a5.56 5.56 0 0 1-2.41-4.588h-.062c0 1.94.981 3.652 2.474 4.664z"/><path fill="#EF4330" d="M9.198 3.031c0-.646.109-1.265.309-1.843l-.071.015c-.2.59-.3 1.206-.3 1.828zm2.474 4.664a5.63 5.63 0 0 1-2.474-4.664h-.062a5.69 5.69 0 0 0 2.537 4.74z"/><path fill="#EF412F" d="M9.136 3.031c0-.64.106-1.254.3-1.827l-.07.015a5.8 5.8 0 0 0-.291 1.812zm2.537 4.74a5.69 5.69 0 0 1-2.537-4.74h-.061a5.75 5.75 0 0 0 2.6 4.814z"/><path fill="#EF3F2E" d="M9.075 3.031c0-.633.102-1.242.29-1.812l-.058.014-.012.003a5.8 5.8 0 0 0-.282 1.795zm2.6 4.814a5.75 5.75 0 0 1-2.6-4.814h-.062a5.81 5.81 0 0 0 2.663 4.89z"/><path fill="#EE3E2D" d="M9.013 3.031c0-.626.1-1.23.282-1.795l-.07.019A5.9 5.9 0 0 0 8.95 3.03zm2.663 4.89a5.81 5.81 0 0 1-2.663-4.89H8.95a5.87 5.87 0 0 0 2.725 4.963z"/><path fill="#EE3C2C" d="M8.951 3.031c0-.619.096-1.216.273-1.776l-.071.021a6 6 0 0 0-.264 1.755zm2.726 4.963A5.87 5.87 0 0 1 8.95 3.031H8.89a5.94 5.94 0 0 0 2.788 5.036z"/><path fill="#EE3A2C" d="M8.89 3.031c0-.61.091-1.2.262-1.755l-.07.023a6 6 0 0 0-.255 1.732zm2.787 5.036a5.94 5.94 0 0 1-2.788-5.036h-.062c0 2.16 1.14 4.053 2.85 5.11z"/><path fill="#EE382B" d="M8.827 3.031c0-.602.09-1.183.254-1.732l-.071.025a6 6 0 0 0-.244 1.707zm2.85 5.11a6 6 0 0 1-2.85-5.11h-.061a6.06 6.06 0 0 0 2.912 5.183z"/><path fill="#EE362A" d="M8.766 3.031c0-.577.081-1.152.243-1.707l-.072.027a6.1 6.1 0 0 0-.233 1.68zm2.912 5.183A6.06 6.06 0 0 1 8.766 3.03h-.062a6.12 6.12 0 0 0 2.974 5.255z"/><path fill="#EE3429" d="M8.704 3.031c0-.568.078-1.133.233-1.68l-.072.03a6.2 6.2 0 0 0-.223 1.65zm2.974 5.255A6.12 6.12 0 0 1 8.704 3.03h-.062a6.18 6.18 0 0 0 3.036 5.327z"/><path fill="#EE3229" d="M8.642 3.031c0-.572.078-1.125.223-1.65l-.073.03a6.3 6.3 0 0 0-.212 1.62zm3.037 5.327A6.18 6.18 0 0 1 8.642 3.03H8.58A6.25 6.25 0 0 0 11.68 8.43z"/><path fill="#EE3028" d="M8.58 3.031c0-.547.071-1.091.212-1.62l-.073.034a6.3 6.3 0 0 0-.2 1.586zm3.098 5.399A6.25 6.25 0 0 1 8.58 3.03h-.062a6.31 6.31 0 0 0 3.16 5.47z"/><path fill="#EE2E27" d="M8.518 3.031c0-.535.068-1.068.201-1.586l-.072.036a6.4 6.4 0 0 0-.19 1.55zm3.16 5.47a6.31 6.31 0 0 1-3.16-5.47h-.061a6.37 6.37 0 0 0 3.221 5.541z"/><path fill="#EE2C27" d="M8.457 3.031c0-.535.066-1.054.19-1.55l-.073.038a6.5 6.5 0 0 0-.179 1.512zm3.221 5.541a6.37 6.37 0 0 1-3.221-5.54h-.062c0 2.409 1.324 4.509 3.283 5.611z"/><path fill="#EE2A26" d="M8.395 3.031c0-.52.062-1.027.179-1.512L8.5 1.56a6.5 6.5 0 0 0-.167 1.471zm3.283 5.612a6.43 6.43 0 0 1-3.283-5.612h-.062a6.5 6.5 0 0 0 3.344 5.682z"/><path fill="#EE2826" d="M8.333 3.031q.002-.76.167-1.47l-.073.043a6.6 6.6 0 0 0-.156 1.427zm3.344 5.682a6.5 6.5 0 0 1-3.344-5.682h-.062a6.56 6.56 0 0 0 3.406 5.753z"/><path fill="#ED2625" d="M8.271 3.031q.002-.737.157-1.427-.038.022-.074.047a6.7 6.7 0 0 0-.144 1.38zm3.406 5.753A6.56 6.56 0 0 1 8.27 3.031H8.21a6.62 6.62 0 0 0 3.466 5.823z"/><path fill="#ED2325" d="M8.21 3.031q.002-.711.144-1.38l-.074.05a6.7 6.7 0 0 0-.133 1.33zm3.466 5.823A6.62 6.62 0 0 1 8.21 3.031h-.062a6.68 6.68 0 0 0 3.528 5.893z"/><path fill="#ED2024" d="M8.148 3.031q0-.684.132-1.33l-.073.052q-.12.634-.121 1.278zm3.527 5.893a6.68 6.68 0 0 1-3.527-5.893h-.062a6.74 6.74 0 0 0 3.588 5.962z"/><path fill="#ED1D24" d="M8.086 3.031q.001-.656.121-1.278-.038.029-.073.058-.11.604-.11 1.22zm3.588 5.962a6.74 6.74 0 0 1-3.588-5.962h-.062c0 2.62 1.48 4.895 3.649 6.031z"/><path fill="#ED1C24" d="M8.024 3.031q.001-.625.11-1.22l-.074.06a7 7 0 0 0-.098 1.16zm3.649 6.031a6.8 6.8 0 0 1-3.649-6.03h-.062a6.87 6.87 0 0 0 3.71 6.1z"/><path fill="#ED1C24" d="M7.962 3.031q.001-.594.098-1.16-.038.03-.073.064Q7.9 2.479 7.9 3.03zm3.71 6.1a6.87 6.87 0 0 1-3.71-6.1h-.061a6.93 6.93 0 0 0 3.77 6.17z"/><path fill="#ED1C24" d="M7.9 3.031q0-.56.087-1.096-.038.033-.073.068-.075.511-.075 1.028zm3.77 6.17a6.93 6.93 0 0 1-3.77-6.17H7.84a6.99 6.99 0 0 0 3.83 6.239z"/><path fill="#ED1C24" d="M7.839 3.031q0-.525.075-1.028l-.073.073a7 7 0 0 0-.064.955zm3.83 6.239a6.99 6.99 0 0 1-3.83-6.239h-.062a7.05 7.05 0 0 0 3.89 6.307z"/><path fill="#ED1C24" d="M7.777 3.031q0-.486.065-.955-.038.038-.073.077-.053.432-.054.878zm3.89 6.307a7.05 7.05 0 0 1-3.89-6.307h-.062a7.11 7.11 0 0 0 3.95 6.375z"/><path fill="#ED1C24" d="M7.715 3.031q0-.446.054-.878l-.071.081q-.045.397-.045.797zm3.95 6.375a7.11 7.11 0 0 1-3.95-6.375h-.062a7.18 7.18 0 0 0 4.01 6.443z"/><path fill="#ED1C24" d="M7.653 3.031q0-.404.045-.796-.038.044-.072.087a7 7 0 0 0-.034.71zm4.01 6.443a7.18 7.18 0 0 1-4.01-6.443h-.061a7.24 7.24 0 0 0 4.07 6.512z"/><path fill="#ED1C24" d="M7.592 3.031q0-.358.034-.709l-.07.093q-.026.307-.026.616zm4.07 6.511a7.24 7.24 0 0 1-4.07-6.51H7.53a7.3 7.3 0 0 0 4.13 6.579z"/><path fill="#ED1C24" d="M7.53 3.031q0-.311.026-.616l-.07.1a8 8 0 0 0-.018.516zm4.13 6.58a7.3 7.3 0 0 1-4.13-6.58h-.062a7.36 7.36 0 0 0 4.19 6.647z"/><path fill="#ED1C24" d="M7.468 3.031q0-.261.018-.516l-.068.106a8 8 0 0 0-.012.41zm4.19 6.647a7.36 7.36 0 0 1-4.19-6.647h-.062a7.42 7.42 0 0 0 4.25 6.714z"/><path fill="#ED1C24" d="M7.406 3.031q0-.206.012-.41l-.067.113a7 7 0 0 0-.007.297zm4.25 6.714a7.42 7.42 0 0 1-4.25-6.714h-.061c0 3 1.763 5.587 4.309 6.781z"/><path fill="#ED1C24" d="M7.344 3.031q0-.15.007-.297-.034.06-.066.123l-.002.174zm4.31 6.781a7.49 7.49 0 0 1-4.31-6.78h-.061A7.55 7.55 0 0 0 11.65 9.88z"/><path fill="#ED1C24" d="M7.283 3.031q0-.087.002-.174l-.064.132v.042zM11.65 9.88a7.55 7.55 0 0 1-4.368-6.848H7.22a7.61 7.61 0 0 0 4.428 6.916z"/><path fill="#ED1C24" d="m7.22 3.031.001-.042-.018.042za7.61 7.61 0 0 0 4.428 6.916l-.003.067a7.67 7.67 0 0 1-4.486-6.88l.043-.103z"/><path fill="#ED1C24" d="M11.646 10.014a7.67 7.67 0 0 1-4.486-6.88q-.031.083-.058.168a7.73 7.73 0 0 0 4.541 6.779z"/><path fill="#ED1C24" d="M11.643 10.08a7.73 7.73 0 0 1-4.54-6.778l-.005.015a3 3 0 0 0-.049.173 7.8 7.8 0 0 0 4.592 6.657z"/><path fill="#ED1C24" d="M11.64 10.147A7.8 7.8 0 0 1 7.05 3.49a3 3 0 0 0-.047.221 7.86 7.86 0 0 0 4.635 6.502z"/><path fill="#ED1C24" d="M11.638 10.213a7.86 7.86 0 0 1-4.635-6.502 3 3 0 0 0-.034.272 7.92 7.92 0 0 0 4.666 6.297z"/><path fill="#ED1C24" d="M11.635 10.28a7.92 7.92 0 0 1-4.666-6.297q-.014.173-.014.345a7.99 7.99 0 0 0 4.677 6.018z"/><path fill="#ED1C24" d="M11.632 10.346a7.99 7.99 0 0 1-4.677-6.019q.003.253.027.468a8.06 8.06 0 0 0 4.647 5.617z"/><path fill="#ED1C24" d="M11.629 10.412a8.06 8.06 0 0 1-4.647-5.617c.044.395.125.665.125.665l.027.115a8.12 8.12 0 0 0 4.492 4.903z"/><path fill="#ED1C24" d="M11.626 10.478a8.12 8.12 0 0 1-4.492-4.903q.094.378.24.791a8.2 8.2 0 0 0 4.248 4.178z"/><path fill="#ED1C24" d="M11.622 10.544a8.2 8.2 0 0 1-4.248-4.178q.11.31.236.614a8.25 8.25 0 0 0 4.009 3.63z"/><path fill="#ED1C24" d="M11.62 10.61a8.25 8.25 0 0 1-4.01-3.63q.095.229.196.455a8.3 8.3 0 0 0 3.81 3.24z"/><path fill="#ED1C24" d="M11.616 10.676a8.3 8.3 0 0 1-3.81-3.24q.081.18.168.366a8.37 8.37 0 0 0 3.638 2.94z"/><path fill="#ED1C24" d="M11.613 10.741a8.37 8.37 0 0 1-3.639-2.94q.074.156.15.311a8.43 8.43 0 0 0 3.485 2.695z"/><path fill="#ED1C24" d="M11.609 10.807a8.43 8.43 0 0 1-3.485-2.695q.067.137.136.273a8.5 8.5 0 0 0 3.345 2.487z"/><path fill="#ED1C24" d="M11.605 10.872A8.5 8.5 0 0 1 8.26 8.385l.125.246a8.55 8.55 0 0 0 3.217 2.306z"/><path fill="#ED1C24" d="M11.601 10.937a8.55 8.55 0 0 1-3.216-2.306l.116.222a8.6 8.6 0 0 0 3.097 2.15z"/><path fill="#ED1C24" d="M11.598 11.002A8.6 8.6 0 0 1 8.5 8.853l.11.207a8.7 8.7 0 0 0 2.983 2.008z"/><path fill="#ED1C24" d="M11.594 11.068A8.7 8.7 0 0 1 8.61 9.06l.105.193a8.7 8.7 0 0 0 2.874 1.88z"/><path fill="#ED1C24" d="M11.59 11.133a8.7 8.7 0 0 1-2.874-1.88l.1.182a8.8 8.8 0 0 0 2.77 1.763z"/><path fill="#ED1C24" d="M11.586 11.198a8.8 8.8 0 0 1-2.77-1.763l.097.173c.777.7 1.68 1.265 2.669 1.655z"/><path fill="#ED1C24" d="M11.581 11.263a8.9 8.9 0 0 1-2.668-1.655l.093.165a8.9 8.9 0 0 0 2.571 1.555z"/><path fill="#ED1C24" d="M11.577 11.328a8.9 8.9 0 0 1-2.57-1.555l.088.157a9 9 0 0 0 2.478 1.463z"/><path fill="#ED1C24" d="M11.573 11.392A9 9 0 0 1 9.095 9.93l.087.15a9 9 0 0 0 2.387 1.377z"/><path fill="#ED1C24" d="M11.569 11.457a9 9 0 0 1-2.387-1.377l.085.146a9 9 0 0 0 2.298 1.295z"/><path fill="#ED1C24" d="M11.564 11.522a9 9 0 0 1-2.297-1.296l.083.142c.677.506 1.42.916 2.21 1.218z"/><path fill="#ED1C24" d="M11.56 11.586a9.1 9.1 0 0 1-2.21-1.218l.08.135a9.2 9.2 0 0 0 2.125 1.147z"/><path fill="#ED1C24" d="M11.555 11.65a9.2 9.2 0 0 1-2.125-1.147l.079.132a9.2 9.2 0 0 0 2.042 1.08z"/><path fill="#ED1C24" d="M11.55 11.715a9.3 9.3 0 0 1-2.041-1.08l.077.129c.61.415 1.269.756 1.96 1.015z"/><path fill="#EC1C24" d="M11.546 11.78a9.3 9.3 0 0 1-1.96-1.016l.076.124c.588.389 1.219.71 1.88.956z"/><path fill="#EC1C24" d="M11.54 11.844a9.4 9.4 0 0 1-1.879-.956l.075.123a9.4 9.4 0 0 0 1.8.897z"/><path fill="#EC1C24" d="M11.536 11.908a9.4 9.4 0 0 1-1.8-.897l.073.118a9.5 9.5 0 0 0 1.723.843z"/><path fill="#EC1C24" d="M11.532 11.972a9.5 9.5 0 0 1-1.723-.843l.072.117q.785.475 1.646.79z"/><path fill="#EC1C24" d="M11.526 12.037a9.5 9.5 0 0 1-1.645-.79l.07.113q.752.442 1.57.74z"/><path fill="#EC1C24" d="M11.521 12.1a9.6 9.6 0 0 1-1.57-.74l.07.113a9.6 9.6 0 0 0 1.495.691z"/><path fill="#EC1C24" d="M11.516 12.164a9.7 9.7 0 0 1-1.494-.691l.068.109q.684.38 1.42.646z"/><path fill="#EC1C24" d="M11.51 12.228a10 10 0 0 1-1.42-.646l.069.109q.65.352 1.347.601z"/><path fill="#EC1C24" d="M11.506 12.292a10 10 0 0 1-1.347-.602l.066.105q.619.326 1.276.56z"/><path fill="#EC1C24" d="M11.5 12.356a10 10 0 0 1-1.275-.56l.068.105q.584.299 1.202.518z"/><path fill="#EC1C24" d="M11.495 12.42a10 10 0 0 1-1.202-.519l.065.101q.551.276 1.132.481z"/><path fill="#EC1C24" d="M11.49 12.483a10 10 0 0 1-1.133-.48l.066.101q.518.252 1.06.443z"/><path fill="#EB1C24" d="M11.484 12.546a10 10 0 0 1-1.06-.442l.063.1q.485.228.991.406z"/><path fill="#EB1C24" d="M11.479 12.61q-.51-.177-.991-.407l.063.098q.452.21.922.373z"/><path fill="#EA1C24" d="M11.473 12.674q-.47-.165-.922-.373l.064.098q.418.188.852.338z"/><path fill="#EA1C24" d="M11.467 12.737q-.434-.15-.852-.338l.062.095q.386.17.784.307z"/><path fill="#EA1C24" d="M11.462 12.801a10 10 0 0 1-.785-.307l.063.094q.353.152.716.276z"/><path fill="#EA1C24" d="M11.456 12.864q-.363-.125-.716-.276l.061.094q.32.133.649.246z"/><path fill="#EA1C24" d="M11.45 12.928a11 11 0 0 1-.649-.246l.061.092q.288.116.582.218z"/><path fill="#EA1C24" d="M11.444 12.992q-.295-.1-.582-.218l.062.092q.253.1.513.189z"/><path fill="#E91C23" d="M11.438 13.055a10 10 0 0 1-.514-.19l.06.09q.222.087.447.163z"/><path fill="#E91C23" d="M11.431 13.118q-.226-.076-.447-.163l.06.09q.189.071.381.136z"/><path fill="#E91C23" d="M11.426 13.18a11 11 0 0 1-.382-.135l.06.089q.158.057.315.11z"/><path fill="#E91C23" d="M11.42 13.244q-.158-.053-.315-.11l.059.087q.124.045.25.086z"/><path fill="#E81B23" d="m11.413 13.307-.249-.086.06.086q.087.03.175.06c.015-.023.013-.048.013-.048z"/><path fill="#E81B23" d="m11.399 13.367-.175-.06.045.066q.014.014.025.021h.076a.1.1 0 0 0 .029-.027"/><path fill="#9A080D" d="M12.628 13.4c.064.026.098-.037.098-.037h.002c.645-.938 3.561-5.265 4.157-7.903 0 0 .32-1.28.009-2.143 0 0-.44-1.648-2.23-2.084 0 0-.515-.13-1.061-.209 0 0-2 2.579-1.028 12.302h.002c.006.063.05.074.05.074"/><path fill="#FAB8A0" d="M14.84 3.02h-.061a.062.062 0 1 0 .062-.061.06.06 0 0 0-.062.062z"/><path fill="#F9B69E" d="M14.779 3.02a.062.062 0 1 1 .123 0 .062.062 0 0 1-.123 0h-.062a.124.124 0 1 0 .247 0 .124.124 0 0 0-.247 0z"/><path fill="#F9B59D" d="M14.717 3.02a.124.124 0 0 1 .123-.123.124.124 0 1 1-.123.124h-.062a.185.185 0 1 0 .37 0 .185.185 0 0 0-.37 0z"/><path fill="#F9B49B" d="M14.655 3.02a.186.186 0 1 1 .372 0 .186.186 0 0 1-.372 0h-.062a.247.247 0 1 0 .495 0 .247.247 0 0 0-.495 0z"/><path fill="#F9B39A" d="M14.593 3.02a.248.248 0 1 1 .496 0 .248.248 0 0 1-.496 0h-.062a.31.31 0 1 0 .62 0 .31.31 0 0 0-.62 0z"/><path fill="#F9B198" d="M14.531 3.02a.31.31 0 1 1 .62 0 .31.31 0 0 1-.62 0h-.062a.371.371 0 1 0 .743.001.371.371 0 0 0-.743 0z"/><path fill="#F9B097" d="M14.47 3.02a.37.37 0 0 1 .229-.343.371.371 0 1 1-.23.344h-.061a.433.433 0 0 0 .866 0 .433.433 0 1 0-.866 0z"/><path fill="#F9AE95" d="M14.408 3.02a.435.435 0 0 1 .599-.4.434.434 0 1 1-.6.4h-.061a.495.495 0 1 0 .99.001.495.495 0 0 0-.99 0z"/><path fill="#F9AD94" d="M14.346 3.02a.495.495 0 1 1 .99 0 .495.495 0 0 1-.99 0h-.062a.557.557 0 1 0 1.114.001.557.557 0 0 0-1.114 0z"/><path fill="#F8AC92" d="M14.284 3.02a.557.557 0 1 1 1.114 0 .557.557 0 0 1-1.114 0h-.062a.619.619 0 1 0 1.238.001.619.619 0 0 0-1.238 0z"/><path fill="#F8AB91" d="M14.222 3.02a.619.619 0 1 1 1.238 0 .619.619 0 0 1-1.238 0h-.062a.681.681 0 1 0 1.362.001.681.681 0 0 0-1.362 0z"/><path fill="#F8AA8F" d="M14.16 3.02a.68.68 0 1 1 1.362 0 .68.68 0 0 1-1.362 0h-.062a.743.743 0 1 0 1.486.001.743.743 0 0 0-1.486 0z"/><path fill="#F8A98E" d="M14.098 3.02a.743.743 0 1 1 1.486 0 .743.743 0 0 1-1.486 0h-.062a.805.805 0 1 0 1.61.001.805.805 0 0 0-1.61 0z"/><path fill="#F8A88D" d="M14.036 3.02a.805.805 0 1 1 1.61 0 .805.805 0 0 1-1.61 0h-.062a.867.867 0 1 0 1.734.001.867.867 0 0 0-1.734 0z"/><path fill="#F8A68B" d="M13.974 3.02a.867.867 0 1 1 1.733 0 .867.867 0 0 1-1.733 0h-.062a.928.928 0 1 0 1.857.002.928.928 0 0 0-1.857-.001z"/><path fill="#F8A58A" d="M13.913 3.02a.928.928 0 1 1 1.857 0 .928.928 0 0 1-1.857 0h-.062a.99.99 0 1 0 1.98.001.99.99 0 0 0-1.98 0z"/><path fill="#F8A489" d="M13.85 3.02a.99.99 0 1 1 1.981 0 .99.99 0 0 1-1.98 0h-.062a1.052 1.052 0 1 0 2.104.002 1.052 1.052 0 0 0-2.104-.001z"/><path fill="#F7A387" d="M13.789 3.02a1.052 1.052 0 1 1 2.104 0 1.052 1.052 0 0 1-2.104 0h-.062a1.114 1.114 0 1 0 2.228.002 1.114 1.114 0 0 0-2.228-.001z"/><path fill="#F7A186" d="M13.727 3.02a1.114 1.114 0 1 1 2.228 0 1.114 1.114 0 0 1-2.228 0h-.062a1.176 1.176 0 1 0 2.352.002 1.176 1.176 0 0 0-2.352-.001z"/><path fill="#F7A084" d="M13.665 3.02a1.176 1.176 0 1 1 2.353 0 1.176 1.176 0 0 1-2.353 0h-.062a1.238 1.238 0 1 0 2.476.002 1.238 1.238 0 0 0-2.476-.001z"/><path fill="#F79F83" d="M13.603 3.02a1.238 1.238 0 1 1 2.477 0 1.238 1.238 0 0 1-2.477 0h-.062a1.3 1.3 0 1 0 2.6.002 1.3 1.3 0 0 0-2.6-.001z"/><path fill="#F79E81" d="M13.541 3.02a1.3 1.3 0 1 1 2.6 0 1.3 1.3 0 0 1-2.6 0h-.062a1.362 1.362 0 1 0 2.724.002 1.362 1.362 0 0 0-2.724-.001z"/><path fill="#F79C80" d="M13.48 3.02a1.362 1.362 0 1 1 2.723 0 1.362 1.362 0 0 1-2.724 0h-.061a1.424 1.424 0 1 0 2.847.002 1.424 1.424 0 0 0-2.847-.001z"/><path fill="#F79B7F" d="M13.418 3.02a1.424 1.424 0 1 1 2.847 0 1.424 1.424 0 0 1-2.847 0h-.062a1.486 1.486 0 1 0 2.97.002 1.486 1.486 0 0 0-2.97-.001z"/><path fill="#F79A7D" d="M13.356 3.02a1.486 1.486 0 1 1 2.971 0 1.486 1.486 0 0 1-2.971 0h-.062a1.548 1.548 0 1 0 3.095.002 1.548 1.548 0 0 0-3.095-.001z"/><path fill="#F6997C" d="M13.294 3.02a1.548 1.548 0 1 1 3.095-.001 1.548 1.548 0 0 1-3.095.002h-.062a1.61 1.61 0 1 0 2.896-.965 3 3 0 0 0-.733-.547 1.61 1.61 0 0 0-2.163 1.512z"/><path fill="#F6987B" d="M13.232 3.02a1.61 1.61 0 0 1 2.164-1.511q-.15-.079-.31-.143A1.671 1.671 0 0 0 13.17 3.02zm2.897-.964a1.61 1.61 0 1 1-2.897.964h-.062a1.671 1.671 0 1 0 3.183-.71 3 3 0 0 0-.224-.254"/><path fill="#F69679" d="M13.17 3.02a1.67 1.67 0 0 1 1.916-1.654 3 3 0 0 0-.227-.08h-.018c-.957 0-1.733.777-1.733 1.735zm3.183-.71a1.671 1.671 0 1 1-3.183.711h-.062a1.733 1.733 0 1 0 3.386-.52 3 3 0 0 0-.141-.192"/><path fill="#F69578" d="M13.108 3.02c0-.957.776-1.734 1.733-1.734h.018a3 3 0 0 0-.193-.053 1.796 1.796 0 0 0-1.62 1.788zm3.386-.518q.078.253.079.519a1.733 1.733 0 1 1-3.465 0h-.062a1.795 1.795 0 1 0 3.554-.353 3 3 0 0 0-.106-.166"/><path fill="#F69477" d="M13.046 3.02c0-.932.71-1.699 1.62-1.787h-.003s-.06-.016-.162-.04a1.86 1.86 0 0 0-1.516 1.828zm3.554-.352a1.797 1.797 0 0 1-1.76 2.149c-.99 0-1.794-.804-1.794-1.796h-.062a1.857 1.857 0 1 0 3.702-.2 3 3 0 0 0-.086-.153"/><path fill="#F69376" d="M12.985 3.02c0-.91.653-1.666 1.516-1.826l-.143-.032a1.92 1.92 0 0 0-1.435 1.858zm3.7-.2q.012.1.012.2a1.857 1.857 0 1 1-3.712 0h-.062a1.919 1.919 0 1 0 3.835 0v-.055a3 3 0 0 0-.072-.145"/><path fill="#F69274" d="M12.923 3.02c0-.893.61-1.644 1.435-1.858l-.128-.027c-.465.15-.855.47-1.098.885a10 10 0 0 0-.268.895l-.003.106zm3.834-.055.001.056a1.919 1.919 0 1 1-3.835 0h-.062a1.98 1.98 0 0 0 3.958.083 3 3 0 0 0-.062-.14"/><path fill="#F69173" d="M12.86 3.02q0-.053.004-.105-.014.052-.027.106za1.98 1.98 0 0 0 3.958.083q.034.085.051.138a2.043 2.043 0 0 1-4.066-.08l.034-.141zm.272-1c.245-.42.636-.735 1.098-.885l-.118-.024c-.35.135-.657.363-.886.66a6 6 0 0 0-.094.249"/><path fill="#F69072" d="M13.226 1.77c.229-.296.535-.525.886-.659L14 1.09c-.263.115-.5.283-.697.494q-.037.086-.078.186m3.644 1.472a2.043 2.043 0 0 1-4.066-.08l-.042.185a2.104 2.104 0 0 0 4.152.03l-.02-.06q0-.002-.024-.075"/><path fill="#F68F71" d="M13.303 1.584c.195-.21.432-.378.697-.494l-.106-.02a2.2 2.2 0 0 0-.518.354q-.038.08-.073.16m3.611 1.793a2.105 2.105 0 0 1-4.152-.03l-.033.157a2.166 2.166 0 0 0 4.222.004 2 2 0 0 0-.037-.131"/><path fill="#F68D6F" d="M13.376 1.424q.234-.214.518-.353l-.102-.018a2.2 2.2 0 0 0-.344.228zm3.575 2.084a2.167 2.167 0 0 1-4.222-.004l-.027.14a2.228 2.228 0 0 0 4.278-.002 2 2 0 0 0-.03-.134"/><path fill="#F68C6E" d="M13.448 1.28q.162-.13.344-.227l-.1-.016q-.086.05-.17.11zm3.532 2.362a2.228 2.228 0 0 1-4.278.001l-.025.128a2.29 2.29 0 0 0 4.325.007z"/><path fill="#F58B6D" d="M13.522 1.147a2 2 0 0 1 .17-.11l-.09-.013s-.03.039-.08.123m3.48 2.631a2.29 2.29 0 0 1-4.325-.007l-.022.119a2.352 2.352 0 0 0 4.361.023z"/><path fill="#F58A6C" d="M17.016 3.914a2.351 2.351 0 0 1-4.36-.024l-.02.112a2.413 2.413 0 0 0 4.39.045z"/><path fill="#F5896B" d="M17.025 4.047a2.413 2.413 0 0 1-4.39-.045l-.018.108a2.475 2.475 0 0 0 4.412.067q0-.065-.004-.13"/><path fill="#F58769" d="M17.03 4.177a2.473 2.473 0 0 1-4.412-.067l-.017.103a2.535 2.535 0 0 0 4.428.092z"/><path fill="#F48668" d="M17.03 4.305a2.535 2.535 0 0 1-4.43-.092l-.015.1a2.597 2.597 0 0 0 4.44.116z"/><path fill="#F48567" d="M17.026 4.429a2.596 2.596 0 0 1-4.441-.116l-.015.096a2.66 2.66 0 0 0 4.45.14z"/><path fill="#F48466" d="M17.02 4.549a2.659 2.659 0 0 1-4.449-.14l-.015.094a2.72 2.72 0 0 0 4.454.163z"/><path fill="#F48264" d="M17.01 4.666a2.719 2.719 0 0 1-4.454-.163l-.012.093a2.78 2.78 0 0 0 4.455.185z"/><path fill="#F48163" d="M16.999 4.78a2.78 2.78 0 0 1-4.455-.185l-.012.09a2.84 2.84 0 0 0 4.454.207z"/><path fill="#F48062" d="M16.986 4.893a2.84 2.84 0 0 1-4.455-.207l-.011.088a2.902 2.902 0 0 0 4.45.228z"/><path fill="#F47F61" d="M16.97 5.002a2.902 2.902 0 0 1-4.451-.228l-.01.087a2.96 2.96 0 0 0 2.331 1.132 2.96 2.96 0 0 0 2.114-.885z"/><path fill="#F47D5F" d="M16.954 5.109a2.96 2.96 0 0 1-2.113.884 2.96 2.96 0 0 1-2.332-1.132l-.011.086a3.02 3.02 0 0 0 2.343 1.108 3.02 3.02 0 0 0 2.095-.841z"/><path fill="#F47C5E" d="M16.936 5.214a3.02 3.02 0 0 1-2.096.841 3.02 3.02 0 0 1-2.342-1.108l-.01.084a3.09 3.09 0 0 0 2.352 1.086 3.08 3.08 0 0 0 2.076-.8z"/><path fill="#F47B5D" d="M16.916 5.317a3.08 3.08 0 0 1-2.075.8 3.09 3.09 0 0 1-2.353-1.086l-.01.083a3.15 3.15 0 0 0 2.363 1.065 3.14 3.14 0 0 0 2.054-.76z"/><path fill="#F47A5C" d="M16.894 5.418c-.551.474-1.269.761-2.053.761-.94 0-1.785-.412-2.363-1.065l-.009.083a3.2 3.2 0 0 0 2.372 1.044 3.2 3.2 0 0 0 2.03-.722l.014-.06z"/><path fill="#F4795B" d="M16.87 5.519a3.2 3.2 0 0 1-2.03.722 3.2 3.2 0 0 1-2.371-1.044l-.009.081a3.27 3.27 0 0 0 2.38 1.025 3.26 3.26 0 0 0 2.007-.686z"/><path fill="#F37759" d="M16.847 5.617a3.26 3.26 0 0 1-2.006.686 3.27 3.27 0 0 1-2.38-1.025l-.009.08a3.33 3.33 0 0 0 2.389 1.007 3.33 3.33 0 0 0 1.98-.651q.015-.05.026-.097"/><path fill="#F37658" d="M16.822 5.713a3.32 3.32 0 0 1-1.982.652 3.33 3.33 0 0 1-2.388-1.007l-.008.08a3.4 3.4 0 0 0 2.396.989c.7 0 1.383-.215 1.955-.618z"/><path fill="#F37557" d="M16.795 5.81a3.4 3.4 0 0 1-1.954.617 3.4 3.4 0 0 1-2.397-.989l-.008.08a3.45 3.45 0 0 0 2.404.971 3.45 3.45 0 0 0 1.927-.586q.016-.047.028-.094"/><path fill="#F37456" d="M16.768 5.903c-.551.37-1.214.586-1.927.586a3.45 3.45 0 0 1-2.405-.972l-.007.078c.63.592 1.479.955 2.412.955a3.5 3.5 0 0 0 1.899-.555z"/><path fill="#F37355" d="M16.74 5.995a3.5 3.5 0 0 1-1.9.556 3.5 3.5 0 0 1-2.411-.955l-.007.078a3.57 3.57 0 0 0 2.419.939 3.57 3.57 0 0 0 1.87-.527z"/><path fill="#F37254" d="M16.711 6.086a3.57 3.57 0 0 1-1.87.527 3.58 3.58 0 0 1-2.42-.94l-.006.078a3.63 3.63 0 0 0 2.425.924c.672 0 1.301-.182 1.841-.499z"/><path fill="#F37153" d="M16.682 6.176a3.63 3.63 0 0 1-1.841.498c-.932 0-1.781-.349-2.426-.923l-.006.077a3.7 3.7 0 0 0 2.432.908c.634.001 1.258-.161 1.811-.472z"/><path fill="#F37052" d="M16.652 6.265a3.7 3.7 0 0 1-1.812.471c-.93 0-1.78-.342-2.432-.908l-.006.076a3.76 3.76 0 0 0 2.438.894c.622.001 1.234-.152 1.781-.446z"/><path fill="#F26E50" d="M16.622 6.352a3.75 3.75 0 0 1-1.781.446c-.93 0-1.781-.336-2.439-.894l-.006.076c.664.55 1.516.88 2.445.88.63 0 1.225-.152 1.75-.422z"/><path fill="#F26D4F" d="M16.59 6.438c-.524.27-1.119.422-1.75.422-.928 0-1.78-.33-2.444-.88l-.005.075c.67.543 1.521.868 2.45.868.617 0 1.2-.144 1.719-.4z"/><path fill="#F26B4E" d="M16.56 6.523a3.9 3.9 0 0 1-1.72.4c-.928 0-1.78-.326-2.45-.868l-.005.075a3.94 3.94 0 0 0 2.456.854c.583 0 1.16-.128 1.687-.377z"/><path fill="#F26A4D" d="M16.528 6.607a3.94 3.94 0 0 1-1.688.377 3.94 3.94 0 0 1-2.455-.854l-.005.075c.703.546 1.57.842 2.46.841.571 0 1.136-.12 1.656-.356z"/><path fill="#F2694C" d="M16.496 6.69a4 4 0 0 1-1.656.356 4 4 0 0 1-2.46-.841l-.005.074c.709.539 1.575.83 2.465.83.559 0 1.112-.115 1.624-.337z"/><path fill="#F2674A" d="M16.464 6.772a4.1 4.1 0 0 1-1.623.336 4.06 4.06 0 0 1-2.466-.83l-.005.075c.714.532 1.58.818 2.47.817.565 0 1.102-.113 1.592-.317z"/><path fill="#F26649" d="M16.432 6.853a4.1 4.1 0 0 1-1.591.317 4.12 4.12 0 0 1-2.47-.817l-.005.073a4.2 4.2 0 0 0 2.475.806 4.2 4.2 0 0 0 1.559-.299z"/><path fill="#F26448" d="M16.4 6.933a4.2 4.2 0 0 1-1.56.299 4.2 4.2 0 0 1-2.474-.806l-.005.073c.7.5 1.555.794 2.48.794.537 0 1.052-.1 1.526-.281z"/><path fill="#F26347" d="M16.367 7.012a4.3 4.3 0 0 1-1.526.282c-.925 0-1.78-.294-2.48-.794l-.004.073c.704.493 1.56.783 2.484.783.51 0 1.015-.09 1.493-.265z"/><path fill="#F16145" d="M16.334 7.091a4.3 4.3 0 0 1-1.493.265c-.924 0-1.78-.29-2.484-.784l-.004.073a4.387 4.387 0 0 0 3.948.524z"/><path fill="#F16044" d="M16.3 7.169a4.4 4.4 0 0 1-1.46.249 4.37 4.37 0 0 1-2.487-.773l-.004.073a4.43 4.43 0 0 0 2.492.762c.499 0 .979-.082 1.427-.234q.016-.04.033-.077"/><path fill="#F15F43" d="M16.267 7.246c-.46.155-.941.234-1.427.234a4.43 4.43 0 0 1-2.491-.763l-.003.073a4.51 4.51 0 0 0 3.888.532z"/><path fill="#F15E42" d="M16.234 7.322c-.45.146-.92.22-1.394.22-.922 0-1.78-.277-2.494-.752l-.003.072a4.576 4.576 0 0 0 3.858.536z"/><path fill="#F15C41" d="M16.2 7.398c-.44.137-.898.206-1.36.205-.92 0-1.779-.273-2.497-.741l-.003.072a4.635 4.635 0 0 0 3.828.539z"/><path fill="#F15B40" d="M16.167 7.472a4.64 4.64 0 0 1-3.828-.539q0 .036-.003.071a4.703 4.703 0 0 0 3.797.543z"/><path fill="#F1593F" d="M16.134 7.547a4.7 4.7 0 0 1-3.798-.543l-.002.072a4.76 4.76 0 0 0 3.766.544z"/><path fill="#F1583E" d="M16.1 7.62a4.76 4.76 0 0 1-3.767-.544l-.002.071a4.826 4.826 0 0 0 3.735.547z"/><path fill="#F0563D" d="M16.066 7.694a4.83 4.83 0 0 1-3.735-.547l-.003.07a4.895 4.895 0 0 0 3.704.549z"/><path fill="#F0553B" d="M16.032 7.767a4.89 4.89 0 0 1-3.703-.549q0 .036-.003.07a4.952 4.952 0 0 0 3.672.55z"/><path fill="#F0533A" d="M15.998 7.839a4.96 4.96 0 0 1-3.672-.55l-.002.07a5.01 5.01 0 0 0 3.64.551z"/><path fill="#F05239" d="M15.964 7.91a5.03 5.03 0 0 1-3.64-.55l-.002.07c.742.426 1.602.67 2.518.67q.562-.002 1.09-.119z"/><path fill="#F05138" d="M15.93 7.981a5.1 5.1 0 0 1-3.608-.551l-.002.07a5.137 5.137 0 0 0 3.575.552z"/><path fill="#F04F37" d="M15.895 8.052A5.15 5.15 0 0 1 12.32 7.5l-.002.07a5.2 5.2 0 0 0 2.523.653q.525-.001 1.02-.1z"/><path fill="#F04E36" d="M15.861 8.122a5.2 5.2 0 0 1-3.543-.553l-.001.07a5.23 5.23 0 0 0 3.51.553z"/><path fill="#F04D36" d="M15.827 8.192a5.28 5.28 0 0 1-3.51-.552l-.002.07a5.347 5.347 0 0 0 3.477.552z"/><path fill="#EF4B35" d="M15.792 8.262a5.293 5.293 0 0 1-3.477-.552l-.001.07a5.36 5.36 0 0 0 3.443.55z"/><path fill="#EF4A34" d="M15.757 8.33q-.456.08-.917.079a5.36 5.36 0 0 1-2.526-.63l-.001.07a5.4 5.4 0 0 0 3.41.55z"/><path fill="#EF4833" d="M15.723 8.399a5.415 5.415 0 0 1-3.41-.55l-.001.069a5.48 5.48 0 0 0 3.376.55z"/><path fill="#EF4632" d="M15.688 8.468q-.415.064-.848.064a5.5 5.5 0 0 1-2.528-.614l-.001.07a5.54 5.54 0 0 0 3.342.547z"/><path fill="#EF4431" d="M15.653 8.535a5.6 5.6 0 0 1-3.342-.548v.07a5.6 5.6 0 0 0 3.308.546z"/><path fill="#EF4330" d="M15.619 8.603a5.6 5.6 0 0 1-3.308-.546l-.001.068a5.66 5.66 0 0 0 3.274.545z"/><path fill="#EF412F" d="M15.584 8.67a5.661 5.661 0 0 1-3.274-.545v.069a5.73 5.73 0 0 0 3.24.543z"/><path fill="#EF3F2E" d="M15.549 8.737a5.723 5.723 0 0 1-3.24-.543v.069a5.8 5.8 0 0 0 3.205.54z"/><path fill="#EE3E2D" d="M15.514 8.803a5.789 5.789 0 0 1-3.205-.54v.068a5.85 5.85 0 0 0 3.17.538z"/><path fill="#EE3C2C" d="M15.48 8.87q-.315.034-.64.034a5.85 5.85 0 0 1-2.531-.572V8.4a5.9 5.9 0 0 0 3.135.536z"/><path fill="#EE3A2C" d="M15.444 8.936q-.3.03-.603.03a5.9 5.9 0 0 1-2.532-.566v.068a6 6 0 0 0 3.1.533z"/><path fill="#EE382B" d="M15.41 9.001a5.974 5.974 0 0 1-3.1-.533v.069a6.04 6.04 0 0 0 3.064.53z"/><path fill="#EE362A" d="M15.374 9.066a6.034 6.034 0 0 1-3.065-.53v.07a6.1 6.1 0 0 0 3.03.526z"/><path fill="#EE3429" d="M15.339 9.132q-.247.02-.498.02c-.903 0-1.76-.196-2.532-.547v.068a6.16 6.16 0 0 0 2.994.523z"/><path fill="#EE3229" d="M15.303 9.197a6.157 6.157 0 0 1-2.994-.523l.001.067a6.2 6.2 0 0 0 2.958.52z"/><path fill="#EE3028" d="M15.268 9.26q-.214.016-.427.016c-.901 0-1.757-.191-2.53-.535v.068a6.3 6.3 0 0 0 2.923.516z"/><path fill="#EE2E27" d="M15.233 9.325q-.194.012-.393.013c-.9 0-1.755-.19-2.53-.529l.001.068a6.35 6.35 0 0 0 2.887.512z"/><path fill="#EE2C27" d="M15.198 9.39q-.18.01-.358.01a6.35 6.35 0 0 1-2.529-.523l.001.068a6.4 6.4 0 0 0 2.85.508z"/><path fill="#EE2A26" d="M15.162 9.454a6.406 6.406 0 0 1-2.85-.509l.002.068a6.5 6.5 0 0 0 2.813.504z"/><path fill="#EE2826" d="M15.127 9.517q-.142.006-.286.007c-.897 0-1.75-.182-2.527-.51v.067a6.5 6.5 0 0 0 2.778.5z"/><path fill="#ED2625" d="M15.091 9.58a6.54 6.54 0 0 1-2.776-.5v.068a6.6 6.6 0 0 0 2.74.495z"/><path fill="#ED2325" d="m15.056 9.643-.216.004a6.6 6.6 0 0 1-2.524-.5v.068a6.7 6.7 0 0 0 2.704.492z"/><path fill="#ED2024" d="m15.02 9.707-.18.002a6.7 6.7 0 0 1-2.523-.494l.001.068a6.7 6.7 0 0 0 2.667.486z"/><path fill="#ED1D24" d="m14.985 9.77-.145.001a6.7 6.7 0 0 1-2.522-.489l.002.068a6.8 6.8 0 0 0 2.629.481z"/><path fill="#ED1C24" d="m14.95 9.832-.11.001c-.89 0-1.74-.171-2.52-.482l.002.067a6.8 6.8 0 0 0 2.519.477h.073z"/><path fill="#ED1C24" d="m14.914 9.894-.073.001c-.89 0-1.74-.169-2.52-.477l.002.067c.78.305 1.63.472 2.517.472h.038z"/><path fill="#ED1C24" d="M14.878 9.957h-.037a6.9 6.9 0 0 1-2.517-.472l.001.067a7 7 0 0 0 2.516.467h.001z"/><path fill="#ED1C24" d="M14.842 10.019h-.002a7 7 0 0 1-2.515-.467l.002.067c.77.294 1.606.457 2.48.461z"/><path fill="#ED1C24" d="M14.806 10.08a7 7 0 0 1-2.48-.461l.003.067c.76.287 1.583.448 2.441.456z"/><path fill="#ED1C24" d="M14.77 10.142a7.1 7.1 0 0 1-2.441-.456l.002.067c.75.28 1.56.438 2.404.45z"/><path fill="#ED1C24" d="M14.735 10.204a7.2 7.2 0 0 1-2.403-.451l.002.067c.739.273 1.535.429 2.365.445z"/><path fill="#ED1C24" d="M14.699 10.265a7.2 7.2 0 0 1-2.365-.445l.002.067a7.3 7.3 0 0 0 2.327.44z"/><path fill="#ED1C24" d="M14.663 10.326a7.3 7.3 0 0 1-2.327-.439l.002.066a7.3 7.3 0 0 0 2.29.434z"/><path fill="#ED1C24" d="M14.627 10.387a7.3 7.3 0 0 1-2.289-.433l.003.066a7.4 7.4 0 0 0 2.25.428z"/><path fill="#ED1C24" d="M14.591 10.448a7.4 7.4 0 0 1-2.25-.428l.003.067a7.5 7.5 0 0 0 2.211.421z"/><path fill="#ED1C24" d="M14.555 10.509a7.5 7.5 0 0 1-2.211-.422l.002.067c.7.245 1.432.385 2.173.415z"/><path fill="#ED1C24" d="M14.52 10.569a7.5 7.5 0 0 1-2.173-.416l.003.067a7.6 7.6 0 0 0 2.133.41z"/><path fill="#ED1C24" d="M14.483 10.63a7.6 7.6 0 0 1-2.134-.41l.003.067a7.6 7.6 0 0 0 2.094.403z"/><path fill="#ED1C24" d="M14.447 10.69a7.6 7.6 0 0 1-2.095-.403l.003.066a7.7 7.7 0 0 0 2.056.397z"/><path fill="#ED1C24" d="M14.41 10.75a7.7 7.7 0 0 1-2.055-.397l.003.067c.652.218 1.33.35 2.016.39z"/><path fill="#ED1C24" d="M14.374 10.81a7.8 7.8 0 0 1-2.016-.39l.003.066a7.8 7.8 0 0 0 1.977.384z"/><path fill="#ED1C24" d="M14.338 10.87a7.8 7.8 0 0 1-1.977-.384l.004.066a8 8 0 0 0 1.937.377z"/><path fill="#ED1C24" d="M14.302 10.93a8 8 0 0 1-1.937-.378l.003.066a8 8 0 0 0 1.897.371z"/><path fill="#ED1C24" d="M14.266 10.989a8 8 0 0 1-1.898-.37l.003.066a8 8 0 0 0 1.858.364z"/><path fill="#ED1C24" d="M14.229 11.049a8 8 0 0 1-1.858-.365l.003.067c.59.188 1.2.308 1.819.357z"/><path fill="#ED1C24" d="M14.193 11.108a8 8 0 0 1-1.819-.357l.004.066c.578.183 1.174.3 1.778.35z"/><path fill="#ED1C24" d="M14.156 11.167a8 8 0 0 1-1.778-.35l.004.066a8.2 8.2 0 0 0 1.738.343z"/><path fill="#ED1C24" d="M14.12 11.226a8.2 8.2 0 0 1-1.738-.343l.004.067a8.2 8.2 0 0 0 1.698.335z"/><path fill="#ED1C24" d="M14.083 11.285a8.3 8.3 0 0 1-1.697-.335l.004.065c.54.166 1.095.276 1.657.329z"/><path fill="#ED1C24" d="M14.047 11.344a8.3 8.3 0 0 1-1.657-.328l.003.065c.527.16 1.069.268 1.617.322z"/><path fill="#ED1C24" d="M14.01 11.403a8.4 8.4 0 0 1-1.616-.322l.004.066q.773.233 1.576.314z"/><path fill="#ED1C24" d="M13.973 11.461a8.4 8.4 0 0 1-1.576-.314l.005.066c.5.15 1.015.252 1.535.307z"/><path fill="#ED1C24" d="M13.937 11.52a8.5 8.5 0 0 1-1.535-.307l.004.066q.724.214 1.494.299z"/><path fill="#ED1C24" d="M13.9 11.578a8.6 8.6 0 0 1-1.494-.3l.005.066q.714.21 1.453.292z"/><path fill="#ED1C24" d="M13.864 11.636a8.7 8.7 0 0 1-1.454-.291l.005.066q.694.2 1.412.283z"/><path fill="#ED1C24" d="M13.827 11.694a8.7 8.7 0 0 1-1.412-.284l.004.066q.674.193 1.371.276z"/><path fill="#ED1C24" d="M13.79 11.752a9 9 0 0 1-1.37-.276l.004.066q.654.186 1.33.268z"/><path fill="#ED1C24" d="M13.754 11.81a9 9 0 0 1-1.33-.268l.004.066q.634.177 1.288.26z"/><path fill="#ED1C24" d="M13.716 11.869a9 9 0 0 1-1.288-.261l.005.065q.615.172 1.247.253z"/><path fill="#ED1C24" d="M13.68 11.926a9 9 0 0 1-1.247-.253l.005.066q.593.162 1.205.244z"/><path fill="#ED1C24" d="M13.643 11.984a9 9 0 0 1-1.205-.245l.005.065q.573.156 1.163.237z"/><path fill="#ED1C24" d="M13.606 12.04a9 9 0 0 1-1.163-.236l.005.065q.553.15 1.121.229z"/><path fill="#ED1C24" d="M13.57 12.098a9 9 0 0 1-1.123-.228l.005.065q.533.143 1.08.22z"/><path fill="#ED1C24" d="M13.532 12.156a9 9 0 0 1-1.08-.22l.005.065q.513.135 1.038.212z"/><path fill="#ED1C24" d="M13.495 12.213A9 9 0 0 1 12.457 12l.005.065q.492.129.995.204z"/><path fill="#EC1C24" d="M13.458 12.27a9 9 0 0 1-.996-.204l.006.066q.472.123.952.196z"/><path fill="#EC1C24" d="M13.42 12.328a9 9 0 0 1-.953-.196l.006.066q.45.116.91.186z"/><path fill="#EC1C24" d="M13.383 12.384a10 10 0 0 1-.91-.187l.005.066q.43.11.868.178z"/><path fill="#EC1C24" d="M13.346 12.441a10 10 0 0 1-.868-.178l.005.065q.407.102.826.17z"/><path fill="#EC1C24" d="M13.309 12.498a10 10 0 0 1-.825-.17l.005.065q.386.096.783.161z"/><path fill="#EC1C24" d="M13.272 12.554a10 10 0 0 1-.783-.161l.005.065q.368.09.74.153z"/><path fill="#EC1C24" d="M13.234 12.61a10 10 0 0 1-.74-.152l.006.065q.345.085.697.144z"/><path fill="#EC1C24" d="M13.197 12.667a10 10 0 0 1-.697-.144l.006.065q.323.08.653.136z"/><path fill="#EC1C24" d="M13.16 12.724a10 10 0 0 1-.654-.136l.006.065q.303.075.61.127z"/><path fill="#EC1C24" d="M13.122 12.78a10 10 0 0 1-.61-.127l.005.065q.28.068.567.119z"/><path fill="#EC1C24" d="M13.084 12.837a10 10 0 0 1-.566-.119l.005.065q.26.062.524.11z"/><path fill="#EC1C24" d="M13.046 12.893a10 10 0 0 1-.523-.11l.006.066q.237.055.48.1z"/><path fill="#EB1C24" d="M13.009 12.949q-.24-.045-.48-.1l.006.065q.217.05.437.09z"/><path fill="#EB1C24" d="M12.972 13.005a10 10 0 0 1-.437-.091l.007.065q.194.045.392.082z"/><path fill="#EA1C24" d="M12.934 13.06a10 10 0 0 1-.392-.08l.006.064q.173.039.348.072z"/><path fill="#EA1C24" d="M12.896 13.116a10 10 0 0 1-.348-.072l.006.064q.15.034.304.064z"/><path fill="#EA1C24" d="M12.858 13.173q-.153-.03-.304-.064l.006.064q.13.03.26.055z"/><path fill="#EA1C24" d="m12.82 13.228-.26-.055.006.065.216.046zM12.782 13.284l-.216-.046.007.065.17.037z"/><path fill="#EA1C24" d="m12.744 13.34-.171-.037.002.022h.001q.004.03.015.045l.092.02h.018a.1.1 0 0 0 .025-.027h.002z"/><path fill="#E91C23" d="m12.683 13.39-.092-.02q.01.015.019.02z"/><path fill="#9A080D" d="M14.226 15.28s-.06.008-.077.053c0 0-.014.06.026.09v.002c.644.464 2.603 1.833 3.547 2.101 0 0 1.743.593 3.26-2.01z"/><path fill="#E21A22" d="M14.157 15.318a13 13 0 0 0 1.293.004l-.89-.031h-.37a.1.1 0 0 0-.034.027"/><path fill="#E11A22" d="M15.45 15.322a13 13 0 0 1-1.293-.004l-.008.014s-.005.023 0 .047q.344.02.691.02.6 0 1.184-.057z"/><path fill="#E11A22" d="M16.023 15.342a12.4 12.4 0 0 1-1.875.037c.004.016.01.033.026.045v.001l.028.02q1.126.057 2.245-.088z"/><path fill="#E01A22" d="M16.447 15.357c-.744.097-1.496.126-2.245.088l.091.065q.273.013.547.013.999-.001 1.954-.154z"/><path fill="#E01A22" d="M16.794 15.37a12.5 12.5 0 0 1-2.5.14l.091.066q.227.008.455.009 1.16-.001 2.26-.205z"/><path fill="#E01A22" d="M17.1 15.38a12.5 12.5 0 0 1-2.715.195l.093.066a12.4 12.4 0 0 0 2.899-.252z"/><path fill="#E01A22" d="M17.377 15.39a12.6 12.6 0 0 1-2.899.251l.091.064q.135.004.27.004c.959 0 1.891-.108 2.788-.31z"/><path fill="#DF1A21" d="M17.627 15.398a12.6 12.6 0 0 1-3.058.307l.09.063.18.002a12.7 12.7 0 0 0 3.021-.364z"/><path fill="#DE1A21" d="M17.86 15.406a12.7 12.7 0 0 1-3.02.364l-.18-.002.09.063.09.001c1.12 0 2.207-.145 3.243-.418z"/><path fill="#DD1A21" d="M18.083 15.414a12.7 12.7 0 0 1-3.243.418l-.09-.001.092.063a12.8 12.8 0 0 0 3.45-.473z"/><path fill="#DD1A21" d="M18.292 15.421a12.8 12.8 0 0 1-3.45.473l.09.06a12.8 12.8 0 0 0 3.558-.526z"/><path fill="#DC1921" d="M18.49 15.428c-1.13.335-2.323.518-3.559.526l.09.061a12.9 12.9 0 0 0 3.662-.58z"/><path fill="#DC1921" d="M18.684 15.435a12.9 12.9 0 0 1-3.663.58l.09.06a13 13 0 0 0 3.753-.634z"/><path fill="#DB1921" d="M18.864 15.441a13 13 0 0 1-3.754.635l.09.06a13 13 0 0 0 3.843-.688z"/><path fill="#DB1921" d="M19.044 15.448c-1.211.412-2.502.652-3.844.688l.088.059a13 13 0 0 0 3.925-.741z"/><path fill="#DA1920" d="M19.213 15.454a13 13 0 0 1-3.925.74l.089.06a13.1 13.1 0 0 0 4.004-.794z"/><path fill="#D91920" d="M19.38 15.46a13.1 13.1 0 0 1-4.003.793l.09.059c1.428-.067 2.798-.361 4.073-.847z"/><path fill="#D81920" d="M19.54 15.465c-1.275.486-2.645.78-4.074.847l.089.057a13.2 13.2 0 0 0 4.144-.898z"/><path fill="#D71920" d="M19.7 15.47c-1.295.51-2.69.822-4.145.9l.087.056a13.3 13.3 0 0 0 4.209-.95z"/><path fill="#D61820" d="M19.85 15.476a13.3 13.3 0 0 1-4.208.95l.088.056a13.3 13.3 0 0 0 4.27-1z"/><path fill="#D51820" d="M20 15.481a13.3 13.3 0 0 1-4.27 1.001l.089.056a13.4 13.4 0 0 0 4.328-1.052z"/><path fill="#D51820" d="M20.147 15.487a13.4 13.4 0 0 1-4.328 1.052l.089.055a13.4 13.4 0 0 0 4.382-1.103z"/><path fill="#D41820" d="M20.29 15.492c-1.388.612-2.87.985-4.382 1.102l.087.055a13.5 13.5 0 0 0 4.438-1.153z"/><path fill="#D3171F" d="M20.433 15.497a13.5 13.5 0 0 1-4.438 1.152l.088.054c1.59-.144 3.1-.56 4.486-1.202z"/><path fill="#D2171F" d="M20.569 15.501a13.6 13.6 0 0 1-4.486 1.202l.09.054a13.6 13.6 0 0 0 4.532-1.251z"/><path fill="#D1171F" d="M20.705 15.506a13.6 13.6 0 0 1-4.533 1.251l.09.054c1.59-.163 3.139-.603 4.577-1.3z"/><path fill="#D0171F" d="M20.84 15.51a13.7 13.7 0 0 1-4.578 1.3l.087.053a13.7 13.7 0 0 0 4.61-1.343v-.005z"/><path fill="#CF171E" d="M20.959 15.52a13.8 13.8 0 0 1-4.61 1.343l.09.052a13.8 13.8 0 0 0 4.49-1.31l.03-.05z"/><path fill="#CE171E" d="M20.93 15.604a13.8 13.8 0 0 1-4.492 1.311l.09.052a13.9 13.9 0 0 0 4.342-1.265z"/><path fill="#CD171E" d="M20.87 15.702a13.9 13.9 0 0 1-4.342 1.265l.092.052a14 14 0 0 0 4.188-1.22z"/><path fill="#CC171E" d="M20.808 15.799a14 14 0 0 1-4.188 1.22l.09.05a14 14 0 0 0 4.033-1.171z"/><path fill="#CB161D" d="M20.743 15.898a14 14 0 0 1-4.033 1.17q.045.026.09.05a14 14 0 0 0 3.874-1.12z"/><path fill="#CA161D" d="M20.674 15.998c-1.23.558-2.535.935-3.873 1.12l.093.05a14.1 14.1 0 0 0 3.709-1.07z"/><path fill="#C8161C" d="M20.603 16.097c-1.182.525-2.43.886-3.71 1.07l.095.05a14.2 14.2 0 0 0 3.54-1.02z"/><path fill="#C7161C" d="M20.527 16.198c-1.13.492-2.32.835-3.539 1.02l.095.047a14.2 14.2 0 0 0 3.363-.964z"/><path fill="#C6151B" d="M20.446 16.301a14.2 14.2 0 0 1-3.363.964l.097.047a14.3 14.3 0 0 0 3.181-.909q.043-.05.085-.102"/><path fill="#C4151B" d="M20.36 16.403c-1.02.425-2.088.73-3.18.909l.1.046a14.4 14.4 0 0 0 2.99-.85z"/><path fill="#C2141B" d="M20.27 16.508c-.964.39-1.966.675-2.99.85q.051.024.103.045a14.4 14.4 0 0 0 2.786-.787q.05-.052.1-.108"/><path fill="#C1141B" d="M20.17 16.615c-.9.356-1.834.62-2.787.788l.106.044c.878-.162 1.74-.404 2.573-.725q.055-.052.107-.107"/><path fill="#BF131A" d="M20.062 16.722c-.834.32-1.695.563-2.573.724q.055.023.112.042c.797-.152 1.58-.37 2.34-.653q.062-.055.121-.113"/><path fill="#BE131A" d="M19.942 16.835c-.76.282-1.544.501-2.34.653q.061.022.12.038l.003.001a15 15 0 0 0 2.08-.577q.07-.056.137-.115"/><path fill="#BC1319" d="M19.806 16.95q-1.019.366-2.081.577c.012.004.063.02.147.034q.902-.19 1.773-.489.083-.059.16-.122"/><path fill="#BB1319" d="M19.645 17.072a15 15 0 0 1-1.773.489q.08.013.195.02.699-.155 1.38-.377a3 3 0 0 0 .198-.132"/><path fill="#B91218" d="M19.446 17.204q-.68.222-1.38.377.131.009.3-.006.395-.096.782-.213a3 3 0 0 0 .298-.158"/><path fill="#B71218" d="M19.148 17.362q-.389.118-.782.213c.221-.02.489-.079.782-.213"/><path fill="#EC1C24" d="M18.973 11.653a9.5 9.5 0 0 0 1.168-.66q-.586.327-1.168.66"/><path fill="#EC1C24" d="M20.141 10.993a9.5 9.5 0 0 1-1.168.66l-.504.289a9.6 9.6 0 0 0 2.186-1.236q-.248.138-.514.287"/><path fill="#EC1C24" d="M20.655 10.706a9.6 9.6 0 0 1-2.186 1.236l-.336.194a9.6 9.6 0 0 0 2.864-1.62z"/><path fill="#EC1C24" d="M20.997 10.516a9.6 9.6 0 0 1-2.864 1.62l-.271.157a9.7 9.7 0 0 0 3.413-1.931z"/><path fill="#EC1C24" d="M21.275 10.362a9.7 9.7 0 0 1-3.413 1.93l-.235.138a9.8 9.8 0 0 0 3.887-2.2z"/><path fill="#EC1C24" d="M21.514 10.23a9.76 9.76 0 0 1-3.887 2.2l-.21.122a9.8 9.8 0 0 0 4.313-2.44z"/><path fill="#EC1C24" d="M21.73 10.111a9.8 9.8 0 0 1-4.312 2.441l-.191.113a9.9 9.9 0 0 0 4.7-2.662z"/><path fill="#EC1C24" d="M21.928 10.003a9.9 9.9 0 0 1-4.7 2.662l-.178.104a9.95 9.95 0 0 0 5.062-2.867z"/><path fill="#EC1C24" d="M22.112 9.902a9.95 9.95 0 0 1-5.063 2.867l-.167.1a10 10 0 0 0 5.401-3.06z"/><path fill="#EC1C24" d="M22.283 9.809a10 10 0 0 1-5.4 3.06l-.157.092a10.07 10.07 0 0 0 5.72-3.24z"/><path fill="#EB1C24" d="M22.446 9.72a10.07 10.07 0 0 1-5.72 3.242l-.148.088A10.14 10.14 0 0 0 22.6 9.637z"/><path fill="#EB1C24" d="M22.601 9.636a10.14 10.14 0 0 1-6.023 3.414l-.144.087a10.2 10.2 0 0 0 6.317-3.582z"/><path fill="#EA1C24" d="M22.75 9.555a10.2 10.2 0 0 1-6.316 3.582l-.136.081a10.26 10.26 0 0 0 6.497-3.62l-.018-.057z"/><path fill="#EA1C24" d="M22.795 9.599a10.26 10.26 0 0 1-6.497 3.62l-.132.08a10.32 10.32 0 0 0 6.65-3.63z"/><path fill="#EA1C24" d="M22.816 9.67a10.32 10.32 0 0 1-6.65 3.629l-.126.076c2.719-.3 5.122-1.648 6.797-3.633z"/><path fill="#EA1C24" d="M22.837 9.741a10.38 10.38 0 0 1-6.797 3.634l-.124.075a10.44 10.44 0 0 0 6.94-3.636z"/><path fill="#EA1C24" d="M22.856 9.815a10.44 10.44 0 0 1-6.94 3.636l-.12.072a10.5 10.5 0 0 0 7.077-3.634z"/><path fill="#EA1C24" d="M22.874 9.89a10.5 10.5 0 0 1-7.077 3.633l-.117.072a10.56 10.56 0 0 0 7.21-3.63z"/><path fill="#E91C23" d="M22.89 9.966a10.56 10.56 0 0 1-7.21 3.63l-.112.069a10.62 10.62 0 0 0 7.337-3.623z"/><path fill="#E91C23" d="M22.905 10.042a10.62 10.62 0 0 1-7.337 3.623l-.112.069a10.68 10.68 0 0 0 7.463-3.614z"/><path fill="#E91C23" d="M22.919 10.12a10.68 10.68 0 0 1-7.463 3.614l-.106.066a10.74 10.74 0 0 0 7.58-3.6z"/><path fill="#E91C23" d="M22.931 10.2a10.74 10.74 0 0 1-7.581 3.6l-.105.066a10.8 10.8 0 0 0 7.697-3.585z"/><path fill="#E81B23" d="M22.942 10.28a10.8 10.8 0 0 1-7.698 3.586l-.104.065a10.86 10.86 0 0 0 7.811-3.567z"/><path fill="#E81B23" d="M22.951 10.364a10.86 10.86 0 0 1-7.81 3.567l-.1.064a10.92 10.92 0 0 0 7.918-3.548z"/><path fill="#E81B23" d="M22.959 10.447a10.92 10.92 0 0 1-7.919 3.548l-.1.063a10.98 10.98 0 0 0 8.024-3.527z"/><path fill="#E81B23" d="M22.964 10.531a10.98 10.98 0 0 1-8.023 3.527l-.098.062h.046c3.186 0 6.058-1.346 8.08-3.502z"/><path fill="#E71B23" d="M22.968 10.618a11.04 11.04 0 0 1-8.079 3.502h-.046l-.094.06.14.002c3.181 0 6.051-1.335 8.081-3.476q0-.045-.002-.088"/><path fill="#E71B23" d="M22.97 10.706a11.1 11.1 0 0 1-8.081 3.476l-.14-.001-.095.06.235.003c3.176 0 6.043-1.323 8.082-3.448z"/><path fill="#E71B23" d="M22.97 10.796a11.17 11.17 0 0 1-8.316 3.445l-.092.06q.164.005.327.005c3.17 0 6.033-1.31 8.08-3.42z"/><path fill="#E71B23" d="M22.97 10.886a11.23 11.23 0 0 1-8.408 3.415l-.09.059q.208.008.417.008c3.162 0 6.021-1.298 8.076-3.39z"/><path fill="#E61B23" d="M22.965 10.979a11.29 11.29 0 0 1-8.493 3.381l-.089.059q.252.01.506.011c3.154 0 6.008-1.283 8.07-3.356q.005-.047.006-.095"/><path fill="#E61B23" d="M22.959 11.074a11.35 11.35 0 0 1-8.576 3.344l-.089.059q.296.015.595.015c3.144 0 5.992-1.269 8.062-3.323z"/><path fill="#E61B23" d="M22.95 11.17a11.4 11.4 0 0 1-8.656 3.307l-.085.057q.338.02.68.02c3.134 0 5.975-1.254 8.051-3.287z"/><path fill="#E61B23" d="M22.94 11.267a11.47 11.47 0 0 1-8.731 3.267l-.084.057q.378.025.764.026a11.53 11.53 0 0 0 8.038-3.25z"/><path fill="#E51B22" d="M22.927 11.366a11.53 11.53 0 0 1-8.802 3.224l-.05.034.002.002s-.012.008-.022.022q.413.03.834.03a11.6 11.6 0 0 0 8.022-3.21z"/><path fill="#E51B22" d="M22.91 11.468a11.6 11.6 0 0 1-8.856 3.18l-.005.007v.055q.416.03.84.03a11.65 11.65 0 0 0 8.003-3.17z"/><path fill="#E41B22" d="M22.892 11.57a11.65 11.65 0 0 1-8.843 3.14v.026l.014.017h1.897a11.7 11.7 0 0 0 6.91-3.078z"/><path fill="#E41B22" d="M22.87 11.676a11.7 11.7 0 0 1-6.91 3.077h.55a11.78 11.78 0 0 0 6.334-2.969z"/><path fill="#E41B22" d="M22.844 11.784a11.78 11.78 0 0 1-6.335 2.969h.407a11.84 11.84 0 0 0 5.9-2.86q.015-.052.028-.11"/><path fill="#E41B22" d="M22.816 11.892a11.84 11.84 0 0 1-5.9 2.861h.34a11.9 11.9 0 0 0 5.527-2.749z"/><path fill="#E41B22" d="M22.783 12.004a11.9 11.9 0 0 1-5.528 2.749h.296a11.97 11.97 0 0 0 5.194-2.633z"/><path fill="#E41B22" d="M22.745 12.12a12 12 0 0 1-5.194 2.633h.267a12 12 0 0 0 4.884-2.515q.02-.053.043-.117"/><path fill="#E41B22" d="M22.703 12.238a12 12 0 0 1-4.885 2.515h.245a12.1 12.1 0 0 0 4.589-2.391z"/><path fill="#E31A22" d="M22.652 12.362a12.1 12.1 0 0 1-4.589 2.391h.23a12.2 12.2 0 0 0 4.298-2.26l.036-.077q.001 0 .025-.054"/><path fill="#E21A22" d="M22.591 12.492a12.2 12.2 0 0 1-4.297 2.261h.217a12.2 12.2 0 0 0 4.013-2.127z"/><path fill="#E11A22" d="M22.524 12.626a12.2 12.2 0 0 1-4.013 2.127h.202a12.3 12.3 0 0 0 3.734-1.987z"/><path fill="#E11A22" d="M22.447 12.766a12.3 12.3 0 0 1-3.734 1.987h.196a12.4 12.4 0 0 0 3.45-1.842q.045-.072.088-.145"/><path fill="#E01A22" d="M22.36 12.91a12.3 12.3 0 0 1-3.45 1.843h.186a12.4 12.4 0 0 0 3.162-1.689q.053-.075.102-.153"/><path fill="#E01A22" d="M22.258 13.064a12.4 12.4 0 0 1-3.162 1.689h.18a12.5 12.5 0 0 0 2.86-1.523q.063-.082.122-.166"/><path fill="#E01A22" d="M22.136 13.23a12.5 12.5 0 0 1-2.86 1.523h.146l.04-.005c.892-.35 1.741-.8 2.53-1.343a4 4 0 0 0 .144-.175"/><path fill="#E01A22" d="M21.992 13.405c-.789.543-1.638.994-2.53 1.343a4 4 0 0 0 .277-.045c.722-.302 1.415-.67 2.07-1.1q.094-.096.183-.198"/><path fill="#DF1A21" d="M21.809 13.603c-.655.43-1.348.798-2.07 1.1q.18-.036.358-.088.754-.34 1.455-.775a4 4 0 0 0 .257-.237"/><path fill="#DE1A21" d="M21.552 13.84q-.703.435-1.455.776.18-.052.357-.12s.094-.03.246-.102q.15-.077.297-.158a4 4 0 0 0 .555-.396"/><path fill="#DD1A21" d="M20.997 14.236q-.147.081-.297.158.152-.072.297-.158"/><path fill="#9A080D" d="M13.534 13.94s.046.035.09.008c.967-.479 4.99-2.529 6.656-4.154 0 0 1.053-.847 1.109-2.21.12-1.89-1.78-3.642-1.78-3.642s-3.517 4.262-6.097 9.891h.002s-.03.065.02.108"/><path fill="#F26347" d="M18.11 5.94q.281-.322.497-.69-.252.342-.498.69"/><path fill="#F16145" d="M18.607 5.249q-.215.37-.498.69l-.23.328c.403-.381.73-.835.964-1.337z"/><path fill="#F16044" d="M18.843 4.93a4.4 4.4 0 0 1-.964 1.337l-.15.217c.562-.474 1-1.08 1.272-1.763z"/><path fill="#F15F43" d="M19.001 4.72a4.47 4.47 0 0 1-1.273 1.764l-.121.177a4.53 4.53 0 0 0 1.522-2.109z"/><path fill="#F15E42" d="M19.13 4.552a4.53 4.53 0 0 1-1.523 2.11l-.105.154a4.6 4.6 0 0 0 1.74-2.41z"/><path fill="#F15C41" d="M19.242 4.406a4.6 4.6 0 0 1-1.74 2.41l-.094.14a4.65 4.65 0 0 0 1.935-2.68z"/><path fill="#F15B40" d="M19.343 4.276a4.65 4.65 0 0 1-1.935 2.679l-.086.128a4.71 4.71 0 0 0 2.115-2.926z"/><path fill="#F1593F" d="M19.437 4.157a4.7 4.7 0 0 1-2.115 2.926l-.08.12a4.77 4.77 0 0 0 2.283-3.156z"/><path fill="#F1583E" d="M19.525 4.047a4.77 4.77 0 0 1-2.283 3.156l-.076.113a4.83 4.83 0 0 0 2.44-3.36h-.008z"/><path fill="#F0563D" d="M19.605 3.957a4.83 4.83 0 0 1-2.439 3.36l-.07.107a4.9 4.9 0 0 0 2.566-3.432l-.037-.035z"/><path fill="#F0553B" d="M19.662 3.992a4.9 4.9 0 0 1-2.567 3.432l-.067.103a4.96 4.96 0 0 0 2.686-3.482z"/><path fill="#F0533A" d="M19.714 4.045a4.96 4.96 0 0 1-2.686 3.482l-.065.1a5.02 5.02 0 0 0 2.804-3.529z"/><path fill="#F05239" d="M19.767 4.098a5.02 5.02 0 0 1-2.804 3.528l-.063.096a5.09 5.09 0 0 0 2.918-3.57z"/><path fill="#F05138" d="M19.818 4.153a5.08 5.08 0 0 1-2.918 3.57l-.06.093a5.15 5.15 0 0 0 3.03-3.608z"/><path fill="#F04F37" d="M19.87 4.207a5.15 5.15 0 0 1-3.03 3.609l-.059.09a5.21 5.21 0 0 0 3.14-3.643z"/><path fill="#F04E36" d="M19.92 4.263a5.21 5.21 0 0 1-3.139 3.644l-.056.088a5.27 5.27 0 0 0 3.245-3.676z"/><path fill="#F04D36" d="M19.97 4.32a5.27 5.27 0 0 1-3.245 3.675l-.055.087a5.33 5.33 0 0 0 3.35-3.706z"/><path fill="#EF4B35" d="M20.02 4.376a5.33 5.33 0 0 1-3.35 3.706l-.054.085c1.69-.583 3-1.986 3.454-3.734z"/><path fill="#EF4A34" d="M20.07 4.433a5.4 5.4 0 0 1-3.455 3.733l-.052.083a5.46 5.46 0 0 0 3.555-3.758z"/><path fill="#EF4833" d="M20.118 4.49a5.46 5.46 0 0 1-3.555 3.76l-.051.081a5.52 5.52 0 0 0 3.654-3.782z"/><path fill="#EF4632" d="M20.166 4.55a5.52 5.52 0 0 1-3.655 3.781l-.05.08a5.58 5.58 0 0 0 3.753-3.803z"/><path fill="#EF4431" d="M20.214 4.608a5.58 5.58 0 0 1-3.753 3.803l-.05.08a5.64 5.64 0 0 0 3.85-3.823z"/><path fill="#EF4330" d="M20.261 4.668a5.64 5.64 0 0 1-3.85 3.822l-.048.078a5.7 5.7 0 0 0 3.945-3.84z"/><path fill="#EF412F" d="M20.308 4.728a5.7 5.7 0 0 1-3.945 3.84l-.048.077a5.77 5.77 0 0 0 4.04-3.857q-.025-.03-.047-.06"/><path fill="#EF3F2E" d="M20.354 4.789a5.77 5.77 0 0 1-4.039 3.856l-.047.076A5.83 5.83 0 0 0 20.4 4.85z"/><path fill="#EE3E2D" d="M20.4 4.85a5.83 5.83 0 0 1-4.132 3.87l-.046.076a5.89 5.89 0 0 0 4.222-3.885z"/><path fill="#EE3C2C" d="M20.444 4.911a5.89 5.89 0 0 1-4.222 3.885l-.045.074a5.95 5.95 0 0 0 4.312-3.896z"/><path fill="#EE3A2C" d="M20.489 4.974a5.95 5.95 0 0 1-4.312 3.896l-.045.073a6.01 6.01 0 0 0 4.4-3.906z"/><path fill="#EE382B" d="M20.533 5.037a6.01 6.01 0 0 1-4.401 3.906l-.045.073A6.07 6.07 0 0 0 20.576 5.1z"/><path fill="#EE362A" d="M20.576 5.1a6.07 6.07 0 0 1-4.489 3.916l-.043.071a6.13 6.13 0 0 0 4.575-3.922z"/><path fill="#EE3429" d="M20.619 5.165a6.13 6.13 0 0 1-4.575 3.922L16 9.158a6.2 6.2 0 0 0 4.66-3.928z"/><path fill="#EE3229" d="M20.66 5.23A6.2 6.2 0 0 1 16 9.16l-.042.07a6.26 6.26 0 0 0 4.744-3.933z"/><path fill="#EE3028" d="M20.702 5.296a6.26 6.26 0 0 1-4.744 3.934l-.042.07a6.32 6.32 0 0 0 4.827-3.937z"/><path fill="#EE2E27" d="M20.743 5.363a6.32 6.32 0 0 1-4.827 3.936l-.042.07a6.38 6.38 0 0 0 4.909-3.939z"/><path fill="#EE2C27" d="M20.783 5.43a6.38 6.38 0 0 1-4.909 3.939l-.041.07a6.44 6.44 0 0 0 4.989-3.941z"/><path fill="#EE2A26" d="M20.822 5.498a6.44 6.44 0 0 1-4.99 3.94l-.04.068a6.5 6.5 0 0 0 5.068-3.939z"/><path fill="#EE2826" d="M20.86 5.567a6.5 6.5 0 0 1-5.068 3.94l-.04.068a6.56 6.56 0 0 0 5.146-3.938z"/><path fill="#ED2625" d="M20.898 5.637a6.56 6.56 0 0 1-5.146 3.938l-.04.068a6.62 6.62 0 0 0 5.223-3.936z"/><path fill="#ED2325" d="M20.935 5.707a6.62 6.62 0 0 1-5.223 3.936l-.04.067a6.69 6.69 0 0 0 5.299-3.931z"/><path fill="#ED2024" d="M20.971 5.78a6.69 6.69 0 0 1-5.299 3.93l-.04.067a6.75 6.75 0 0 0 5.374-3.924z"/><path fill="#ED1D24" d="M21.007 5.853a6.75 6.75 0 0 1-5.374 3.924l-.039.067a6.81 6.81 0 0 0 5.447-3.918z"/><path fill="#ED1C24" d="M21.04 5.926a6.81 6.81 0 0 1-5.446 3.917l-.039.067A6.87 6.87 0 0 0 21.074 6z"/><path fill="#ED1C24" d="M21.074 6a6.87 6.87 0 0 1-5.519 3.91l-.037.065a6.93 6.93 0 0 0 5.589-3.898z"/><path fill="#ED1C24" d="M21.106 6.077a6.93 6.93 0 0 1-5.589 3.898l-.038.066a6.99 6.99 0 0 0 5.658-3.887z"/><path fill="#ED1C24" d="M21.137 6.154a6.99 6.99 0 0 1-5.658 3.887l-.037.065a7.05 7.05 0 0 0 5.725-3.873z"/><path fill="#ED1C24" d="M21.167 6.233a7.05 7.05 0 0 1-5.725 3.873l-.038.066a7.11 7.11 0 0 0 5.792-3.858z"/><path fill="#ED1C24" d="M21.196 6.314a7.11 7.11 0 0 1-5.792 3.858l-.037.064a7.17 7.17 0 0 0 5.857-3.841z"/><path fill="#ED1C24" d="M21.224 6.395a7.17 7.17 0 0 1-5.857 3.841l-.036.064a7.24 7.24 0 0 0 5.919-3.822z"/><path fill="#ED1C24" d="M21.25 6.478a7.24 7.24 0 0 1-5.92 3.822l-.036.065a7.3 7.3 0 0 0 5.98-3.802z"/><path fill="#ED1C24" d="M21.274 6.564a7.3 7.3 0 0 1-5.98 3.8l-.037.065a7.36 7.36 0 0 0 6.04-3.779z"/><path fill="#ED1C24" d="M21.297 6.65a7.36 7.36 0 0 1-6.04 3.78l-.035.063a7.42 7.42 0 0 0 6.096-3.754z"/><path fill="#ED1C24" d="M21.318 6.74a7.42 7.42 0 0 1-6.097 3.753l-.035.063a7.48 7.48 0 0 0 6.15-3.726z"/><path fill="#ED1C24" d="M21.337 6.83a7.48 7.48 0 0 1-6.151 3.726l-.036.063a7.54 7.54 0 0 0 6.204-3.695z"/><path fill="#ED1C24" d="M21.354 6.923a7.54 7.54 0 0 1-6.203 3.696l-.036.063a7.6 7.6 0 0 0 6.253-3.661z"/><path fill="#ED1C24" d="M21.368 7.021a7.6 7.6 0 0 1-6.253 3.662l-.035.063a7.66 7.66 0 0 0 6.3-3.627z"/><path fill="#ED1C24" d="M21.38 7.12a7.66 7.66 0 0 1-6.3 3.626l-.035.063a7.72 7.72 0 0 0 6.343-3.586z"/><path fill="#ED1C24" d="M21.388 7.223a7.72 7.72 0 0 1-6.343 3.586l-.034.062a7.78 7.78 0 0 0 6.382-3.543z"/><path fill="#ED1C24" d="M21.393 7.328a7.78 7.78 0 0 1-6.382 3.543l-.035.063a7.84 7.84 0 0 0 6.418-3.494z"/><path fill="#ED1C24" d="M21.394 7.44a7.84 7.84 0 0 1-6.418 3.494l-.034.062a7.9 7.9 0 0 0 6.449-3.44z"/><path fill="#ED1C24" d="M21.39 7.555a7.9 7.9 0 0 1-6.448 3.44l-.034.063a7.96 7.96 0 0 0 6.476-3.384l.005-.09q0-.015.002-.029"/><path fill="#ED1C24" d="M21.384 7.674a7.97 7.97 0 0 1-6.476 3.384l-.034.062a8.03 8.03 0 0 0 6.498-3.324q.008-.061.012-.122"/><path fill="#ED1C24" d="M21.372 7.796a8.03 8.03 0 0 1-6.498 3.324l-.034.062h.023a8.09 8.09 0 0 0 6.49-3.255z"/><path fill="#ED1C24" d="M21.353 7.927a8.09 8.09 0 0 1-6.49 3.255h-.023l-.033.061.056.001a8.15 8.15 0 0 0 6.464-3.181q.015-.067.026-.136"/><path fill="#ED1C24" d="M21.327 8.063a8.15 8.15 0 0 1-6.464 3.181h-.056l-.034.061.09.001c2.601 0 4.92-1.21 6.427-3.097a2 2 0 0 0 .037-.146"/><path fill="#ED1C24" d="M21.29 8.21a8.2 8.2 0 0 1-6.427 3.096l-.089-.001-.033.062h.122a8.27 8.27 0 0 0 6.38-3q.025-.077.048-.158"/><path fill="#ED1C24" d="M21.242 8.367a8.27 8.27 0 0 1-6.38 3.001l-.122-.001-.032.061.155.002a8.32 8.32 0 0 0 6.315-2.891q.034-.084.064-.172"/><path fill="#ED1C24" d="M21.178 8.539a8.32 8.32 0 0 1-6.47 2.89l-.033.06q.093.003.188.003a8.38 8.38 0 0 0 6.23-2.765q.045-.09.085-.188"/><path fill="#ED1C24" d="M21.094 8.727a8.38 8.38 0 0 1-6.42 2.763l-.032.061q.11.003.22.003A8.44 8.44 0 0 0 20.98 8.94q.06-.104.114-.213"/><path fill="#ED1C24" d="M20.98 8.94a8.44 8.44 0 0 1-6.337 2.611l-.033.06q.126.005.253.005a8.5 8.5 0 0 0 5.96-2.43q.084-.12.158-.247"/><path fill="#ED1C24" d="M20.823 9.187a8.5 8.5 0 0 1-6.213 2.425l-.032.06q.143.006.285.006c2.19 0 4.189-.82 5.707-2.17q.135-.155.253-.321"/><path fill="#ED1C24" d="M20.57 9.507a8.56 8.56 0 0 1-5.992 2.165l-.032.061a8.613 8.613 0 0 0 5.47-1.695q.14-.123.264-.245s.124-.1.29-.286"/><path fill="#ED1C24" d="M20.015 10.038a8.6 8.6 0 0 1-5.469 1.695l-.032.061q.173.007.35.008a8.67 8.67 0 0 0 4.612-1.321q.29-.225.54-.443"/><path fill="#ED1C24" d="M19.476 10.48a8.67 8.67 0 0 1-4.962 1.314l-.032.06q.19.01.38.01c1.507 0 2.925-.38 4.164-1.05q.233-.167.45-.333"/><path fill="#ED1C24" d="M19.026 10.814a8.73 8.73 0 0 1-4.544 1.04l-.031.061q.204.01.412.01c1.36 0 2.648-.307 3.799-.857q.183-.125.364-.254"/><path fill="#ED1C24" d="M18.662 11.069a8.8 8.8 0 0 1-4.211.846l-.032.061q.22.01.444.011a8.9 8.9 0 0 0 3.488-.71q.158-.105.31-.208"/><path fill="#ED1C24" d="M18.351 11.277a8.9 8.9 0 0 1-3.932.699l-.031.06q.235.013.475.013c1.134 0 2.219-.211 3.218-.596q.137-.087.27-.176"/><path fill="#ED1C24" d="M18.081 11.453a8.9 8.9 0 0 1-3.693.584l-.03.06a9 9 0 0 0 3.478-.488z"/><path fill="#ED1C24" d="M17.836 11.609a9 9 0 0 1-3.479.488l-.03.06a9.1 9.1 0 0 0 3.284-.408z"/><path fill="#ED1C24" d="M17.611 11.75a9.1 9.1 0 0 1-3.285.407l-.03.06a9.2 9.2 0 0 0 3.106-.34z"/><path fill="#ED1C24" d="M17.402 11.877a9.1 9.1 0 0 1-3.106.34l-.031.06c.99.065 1.983-.03 2.942-.282z"/><path fill="#ED1C24" d="M17.208 11.995a9.2 9.2 0 0 1-2.943.282l-.03.06a9.2 9.2 0 0 0 2.788-.232z"/><path fill="#ED1C24" d="M17.023 12.105a9.3 9.3 0 0 1-2.789.232l-.03.06q.326.023.659.023c.681 0 1.346-.074 1.986-.212z"/><path fill="#EC1C24" d="M16.849 12.208a9.4 9.4 0 0 1-2.645.189l-.03.06c.839.061 1.682.01 2.507-.152q.083-.047.168-.097"/><path fill="#EC1C24" d="M16.68 12.306a9.4 9.4 0 0 1-2.506.15l-.03.061c.793.06 1.591.02 2.375-.117z"/><path fill="#EC1C24" d="M16.519 12.4a9.5 9.5 0 0 1-2.375.117l-.03.06a9.7 9.7 0 0 0 2.25-.09q.078-.043.155-.087"/><path fill="#EC1C24" d="M16.365 12.488c-.744.118-1.5.148-2.251.09l-.03.059a9.7 9.7 0 0 0 2.132-.064z"/><path fill="#EC1C24" d="M16.215 12.573a9.7 9.7 0 0 1-2.13.063l-.03.06a9.7 9.7 0 0 0 2.014-.04z"/><path fill="#EC1C24" d="M16.07 12.655a9.7 9.7 0 0 1-2.015.041l-.03.06a10 10 0 0 0 1.904-.023z"/><path fill="#EC1C24" d="M15.93 12.733a10 10 0 0 1-1.905.022l-.03.06a10 10 0 0 0 1.797-.005z"/><path fill="#EC1C24" d="M15.792 12.81a10 10 0 0 1-1.796.005l-.03.06a10 10 0 0 0 1.691.009z"/><path fill="#EC1C24" d="M15.658 12.884a10 10 0 0 1-1.691-.01l-.029.06a10 10 0 0 0 1.59.021z"/><path fill="#EC1C24" d="M15.528 12.955a10 10 0 0 1-1.59-.02l-.03.059a10 10 0 0 0 1.49.031z"/><path fill="#EC1C24" d="M15.399 13.025a10 10 0 0 1-1.49-.031l-.029.06a10 10 0 0 0 1.394.038z"/><path fill="#EC1C24" d="M15.274 13.092a10 10 0 0 1-1.394-.039l-.029.06a10 10 0 0 0 1.3.046z"/><path fill="#EB1C24" d="M15.15 13.159a10 10 0 0 1-1.299-.046l-.028.06q.513.051 1.04.052l.168-.002z"/><path fill="#EB1C24" d="m15.03 13.223-.167.002q-.527 0-1.04-.053l-.029.06q.528.054 1.069.055h.048z"/><path fill="#EA1C24" d="M14.911 13.286h-.048q-.54 0-1.069-.055l-.028.06q.507.053 1.028.057z"/><path fill="#EA1C24" d="M14.795 13.348q-.521-.004-1.029-.057l-.028.059q.465.05.942.059z"/><path fill="#EA1C24" d="M14.68 13.409a10 10 0 0 1-.942-.06l-.028.06q.424.046.856.06z"/><path fill="#EA1C24" d="M14.566 13.468a11 11 0 0 1-.856-.06l-.028.06q.383.043.773.058z"/><path fill="#EA1C24" d="M14.455 13.526q-.387-.015-.773-.058l-.027.06q.34.038.689.056z"/><path fill="#EA1C24" d="M14.344 13.584q-.348-.017-.69-.057l-.027.06q.301.034.608.052z"/><path fill="#E91C23" d="M14.236 13.64a11 11 0 0 1-.61-.054l-.026.06q.261.03.528.049z"/><path fill="#E91C23" d="M14.128 13.695a11 11 0 0 1-.529-.05l-.027.06q.223.026.448.044z"/><path fill="#E91C23" d="M14.02 13.75q-.225-.018-.448-.046l-.027.06q.185.022.371.038z"/><path fill="#E91C23" d="M13.916 13.802q-.186-.015-.372-.038l-.027.06q.146.017.294.031z"/><path fill="#E81B23" d="M13.811 13.855q-.147-.014-.294-.032l-.005.01h.002s-.01.023-.008.05q.1.014.201.024z"/><path fill="#E81B23" d="m13.708 13.907-.202-.023q-.001.03.028.057l.02.01.048.006a.1.1 0 0 0 .022-.009zm-.106.05-.048-.005a.1.1 0 0 0 .048.005"/></svg>