<svg xmlns="http://www.w3.org/2000/svg" width="24" height="24" fill="none" viewBox="0 0 24 24"><g clip-path="url(#a)"><path fill="#599707" d="M3.02 8.593h.563L5.89 8.6v.383l-.408.008-.138.025-.09.049-.033.04-.024.066-.008.057-.008.424-.009 3.285-.024.22-.04.204-.042.122-.032.057h-.017l-.016.041-.057.098-.04.081-.074.09-.065.065-.074.09-.081.073-.074.057-.032.025H4.47v.016l-.057.025-.024.04-.106.066-.139.049-.212.065-.31.057-.269.032h-.269l-.318-.04-.342-.066v-.016l-.147-.049-.057-.016-.049-.016-.09-.066-.065-.057-.122-.073-.122-.114-.073-.082-.009-.024-.032-.016-.065-.074-.058-.09-.065-.13-.057-.073-.049-.147-.032-.155-.008-.073v-.237l.016-.138.065-.22.025-.05.04-.04.033-.049.04-.065.041-.041.033-.065.033-.008.008-.033h.032l.033-.033.033-.008.008-.024.17-.082.18-.057.05-.008h.13l.138.033.171.065.098.057.074.065.04.04.057.066.074.114.032.09.017.122v.261l-.025.114-.049.13-.032.05-.033.04-.147.098-.122.065-.09.017-.122-.008-.18-.041-.089-.008-.049.016-.049.033-.049.073-.008.065.025.106.057.114.065.082.122.122.171.073.172.05.138.024.09.008h.253l.163-.016.187-.057.098-.05.04-.032.025-.024.025-.041.057-.05.04-.024.058-.073.065-.13.057-.163.049-.253.016-.122.008-.123V9.327l-.016-.123-.033-.09-.04-.056-.082-.05-.073-.016H3.02l-.008-.016v-.375z"/><path fill="#D41209" d="M5.507 9.258h2.568l.009.008v.31l-.539.008-.081.016-.065.057-.025.033-.016.057-.008.139v2.91l.016.236.033.163.065.196.04.073.09.09.066.082.073.098.082.048.13.057.22.09.114.033.13.016h.27l.008-.008.147-.016.13-.041.18-.065.105-.041.041-.008.033-.025h.032l.008-.04.009.016h.016v-.017h.016v-.024l.016-.016-.008-.025.025-.008v.033h.016v-.041l.04-.008v-.017h.017l.008-.04h.025l.024-.025.017-.032.032-.033.05-.098.072-.171.074-.196.024-.106.008-.081v-2.633l-.016-.114-.04-.098-.074-.13-.098-.14-.065-.056-.155-.057-.122-.025-.188-.016v-.318h1.949l.016.008v.31l-.253.016-.098.025-.122.049-.057.048-.065.106-.057.098-.098.253-.008.049-.008.212-.008 2.478-.017.188-.04.187-.058.188-.065.13-.057.106-.04.04-.05.058-.032.04H9.9v.017l.017.008-.033.016-.008.017-.008.008v.024l-.033.017-.016.032-.073.033h.016v.016l-.033.025-.057.024-.024.016-.008.025-.041.016-.025.024-.04.017-.041.024.032-.008v.016l-.04.025-.074.024-.032.017.024.008-.032.016-.057.008-.082.033-.024.016-.155.041-.147.033-.18.024-.236.016h-.334l-.318-.016-.318-.04-.114-.025v-.008h.057l-.155-.041-.147-.049-.138-.065-.139-.09-.106-.065-.122-.082-.057-.057-.122-.18-.074-.113h-.016l-.049-.13-.033-.098-.04-.245-.017-.196-.008-.252L6.233 10l-.016-.253-.017-.065-.024-.025-.09-.04-.081-.025-.074-.008-.432-.008v-.31zM11.278 11.9h.147l.016.042.057.285.025.188.024-.025.098-.139.082-.081.065-.049.147-.114.081-.04.171-.05.147-.016h.106l.155.016.139.041.081.049.106.081.065.074.066.13.097.229.017.065.008.073.008.318v.856l.008.236.016.066.09.032.139.017.13.008.033.008v.18l-.008.007-1.256-.008-.008-.008v-.18l.147-.016.17-.016.05-.024.024-.057.008-.115v-1.027l-.016-.26-.024-.155-.033-.082-.057-.073-.098-.066-.09-.065-.048-.024-.05-.008h-.236l-.106.024-.081.065-.098.074-.09.081-.032.016-.066.139-.048.13-.025.155-.008.481v.302l.008.391.016.074.066.024.097.016.229.017v.187h-1.272l-.008-.008v-.18l.244-.016.106-.024.041-.033.008-.032.008-.106v-1.46l-.008-.138-.024-.114-.033-.065-.008-.025-.04-.016-.082-.025-.245-.008-.008-.032v-.114l.008-.041.294-.017zM16.22 10.97h.162l.009.864.008.106.782.008v.228l-.008.009h-.562l-.22-.009v1.525l.016.228.016.073.05.058.105.073.073.024h.172l.081-.032.13-.098.05-.065.04-.13.033-.172.024-.18h.139l.049.009-.017.163-.024.13-.065.188-.074.155-.09.13-.064.057-.155.074-.114.024-.09.008h-.155l-.155-.016-.081-.024-.155-.082-.05-.065-.064-.123-.033-.13-.016-.187-.008-1.606-.09-.009h-.342v-.187l.008-.008.179-.033.09-.04h.04l-.016-.033.074-.017.016-.04h.016l.008.008v-.016h.025l.008-.058h.024l.041-.097.049-.098.073-.237.033-.114zM14.602 11.927h.22l.009 2.12.008.089.032.016.057.025.114.008.237.008v.188h-1.386l-.008-.025v-.155l.008-.008.26-.008.123-.017.065-.04.025-.057v-1.696l-.04-.114-.058-.065-.106-.033-.065-.008-.253-.008-.008-.008v-.188l.008-.008zm.66 2.364v.065h.009v-.065zM14.456 10.498h.122l.082.024.04.041.074.106.033.065.008.025v.073l-.033.09-.049.065-.065.057-.065.025h-.163l-.066-.025-.049-.033-.048-.065-.025-.081v-.147l.033-.082.049-.073.057-.049zM13.896 14.385l1.32.008.074.009v.008l-.114.008-1.289-.008zM10.66 14.394h1.044v.008l-.106.008-.538.008h-.39zM12.339 14.385l.913.008v.009l-.05.008-.864.008z"/><path fill="#D41209" d="M15.527 12.184h.35v.008l-.35.008zM11.712 14.394h.204v.016l-.204-.008zM16.398 12.184h.17v.008h-.17zM7.194 14.32l.082.017.024.017-.065-.009-.04-.016zM9.6 13.489l.017.008-.024.024zM13.519 14.394h.048v.008h-.049zM7.113 14.29l.04.009-.024.008zM9.485 13.604l.017.009-.017.016zM11.93 14.394l.009.016-.017-.008zM15.801 11.884l.016.008-.016.008z"/><path fill="#E5E7EB" d="M19.405 14.698v-.414h.22a1.2 1.2 0 0 0 .32-.039.4.4 0 0 0 .234-.156q.086-.126.086-.367v-.477H18.1v-.476l2.218-3.648h1.086v3.609h.813v.515h-.813v.477q0 .242.086.367a.4.4 0 0 0 .234.156q.15.04.32.04h.102v.413zm-.757-1.968h1.617v-1.727q.008-.187.008-.375l.015-.39q.015-.195.031-.375a3 3 0 0 1-.125.25 7 7 0 0 1-.18.336q-.093.171-.179.32a4 4 0 0 1-.133.219z"/></g><defs><clipPath id="a"><path fill="#fff" d="M0 0h24v24H0z"/></clipPath></defs></svg>