<svg xmlns="http://www.w3.org/2000/svg" width="24" height="24" fill="none" viewBox="0 0 24 24"><path fill="#D1D5DB" d="M12.443 4.054c0 .845-.716 1.528-1.602 1.528s-1.59-.695-1.59-1.528.716-1.528 1.59-1.528c.886 0 1.602.683 1.602 1.528"/><path fill="#D1D5DB" d="M20.01 9.384a6.4 6.4 0 0 0-.934-2.292c-1.298-1.876-3.482-3.022-5.848-3.057a7.2 7.2 0 0 0-2.524.487c-2.002.706-3.434 1.956-4.259 2.836.243 1.007.486 2.014.728 3.033l9.562 4.99v-.012l.012.011 3.058-1.053c.364-1.193.667-2.964.206-4.943"/><path fill="#D1D5DB" d="M8.035 10.171s.291 1.991-2.16 2.93c-2.451.937-3.215-.383-4.125 1.388s.897.15 1.431.255c.534.104 3.483.139 4.247-.174 1.153-.463 2.039-1.331 2.5-3.044S8.035 10.17 8.035 10.17M13.377 13.174s-2.172-.104-2.16 2.42S9.35 18 7.905 19.366c-1.966 1.864-1.226-.868-.789-1.169 2.682-1.84 2.208-2.026 2.22-2.825.013-1.192.522-2.303 2.015-3.357 1.492-1.053 2.026 1.158 2.026 1.158M16.303 14.872s-2.038.498-2.026 3.022 1.614 2.732.218 4.167c-.861.88-.825-.428-.788-1.169.024-.51-1.444-3.021-1.444-3.82.012-1.192.521-2.304 2.014-3.357s2.026 1.157 2.026 1.157M22.498 9.174c0 .845-.716 1.528-1.602 1.528s-1.602-.683-1.602-1.528.716-1.528 1.602-1.528c.886.011 1.602.694 1.602 1.528"/></svg>