<svg xmlns="http://www.w3.org/2000/svg" width="24" height="24" fill="none" viewBox="0 0 24 24"><path fill="#000" d="M22.395 12.185c0 5.735-4.65 10.385-10.386 10.385S1.624 17.92 1.624 12.185c0-5.737 4.65-10.386 10.385-10.386 5.736 0 10.386 4.65 10.386 10.386"/><path fill="#D1D5DB" d="M11.998 1.5A10.473 10.473 0 0 1 22.5 12c0 5.8-4.703 10.5-10.502 10.5C6.2 22.5 1.5 17.8 1.5 12S6.2 1.5 11.998 1.5m-.023 12.702L9.038 4.456 5.235 16.934h.714s.48-2.17 1.26-3.467c.424-.704 1.078-1.28 1.953-1.264.617.013 1.15.35 1.817 1.282.4.558 1.018 1.982 1.018 1.982s.617-1.422 1.02-1.982c.664-.933 1.198-1.27 1.816-1.282.874-.015 1.53.56 1.953 1.265.78 1.295 1.26 3.466 1.26 3.466h.715L14.956 4.456l-2.937 9.746-.02.017z"/></svg>