<svg xmlns="http://www.w3.org/2000/svg" width="24" height="24" fill="none" viewBox="0 0 24 24"><path fill="#65C179" d="m5.226 20.262 2.51 2.51a.32.32 0 0 0 .452 0l2.51-2.51a.32.32 0 0 0 0-.452l-2.51-2.51a.32.32 0 0 0-.451 0l-2.511 2.51a.32.32 0 0 0 0 .452M9.283 16.205l2.51 2.51a.32.32 0 0 0 .452 0l2.51-2.51a.32.32 0 0 0 0-.451l-2.51-2.51a.32.32 0 0 0-.452 0l-2.51 2.51a.32.32 0 0 0 0 .451M13.34 12.149l2.51 2.51a.32.32 0 0 0 .452 0l2.51-2.51a.32.32 0 0 0 0-.452l-2.51-2.51a.32.32 0 0 0-.452 0l-2.51 2.51a.32.32 0 0 0 0 .452M5.302 12.225l2.51 2.51a.32.32 0 0 0 .452 0l2.51-2.51a.32.32 0 0 0 0-.452l-2.51-2.51a.32.32 0 0 0-.452 0l-2.51 2.51a.32.32 0 0 0 0 .452M9.36 8.166l2.51 2.51a.32.32 0 0 0 .452 0l2.51-2.51a.32.32 0 0 0 0-.451l-2.51-2.51a.32.32 0 0 0-.452-.001l-2.51 2.51a.32.32 0 0 0 0 .452M5.378 4.188l2.51 2.51a.32.32 0 0 0 .452 0l2.51-2.51a.32.32 0 0 0 0-.452l-2.51-2.51a.32.32 0 0 0-.452 0l-2.51 2.51a.32.32 0 0 0 0 .452"/></svg>