<svg width="32" height="32" viewBox="0 0 32 32" fill="none" xmlns="http://www.w3.org/2000/svg">
<path fill-rule="evenodd" clip-rule="evenodd" d="M31.0345 15.5172C31.0345 24.0874 24.0874 31.0345 15.5172 31.0345C6.94735 31.0345 0 24.0874 0 15.5172C0 6.94735 6.94735 0 15.5172 0C24.0874 0 31.0345 6.94735 31.0345 15.5172Z" fill="#ECB360"/>
<path fill-rule="evenodd" clip-rule="evenodd" d="M26.8966 13.9655C26.8966 21.6784 20.8752 27.931 13.4483 27.931C6.02105 27.931 0 21.6784 0 13.9655C0 6.25263 6.02105 0 13.4483 0C20.8752 0 26.8966 6.25263 26.8966 13.9655Z" fill="#D76835"/>
<path fill-rule="evenodd" clip-rule="evenodd" d="M27.931 12.4136C27.931 19.2697 22.6047 24.8276 16.0341 24.8276C9.46427 24.8276 4.13797 19.2697 4.13797 12.4136C4.13797 5.55788 9.46427 0 16.0341 0C22.6047 0 27.931 5.55788 27.931 12.4136Z" fill="#D33A41"/>
<path fill-rule="evenodd" clip-rule="evenodd" d="M26.8965 13.4485C26.8965 19.7328 22.0332 24.8277 16.0343 24.8277C10.0353 24.8277 5.17233 19.7328 5.17233 13.4485C5.17233 7.16361 10.0353 2.06906 16.0343 2.06906C22.0332 2.06906 26.8965 7.16361 26.8965 13.4485Z" fill="#B6CB46"/>
<path fill-rule="evenodd" clip-rule="evenodd" d="M25.862 14.4826C25.862 20.1959 21.2304 24.8276 15.517 24.8276C9.804 24.8276 5.17233 20.1959 5.17233 14.4826C5.17233 8.76931 9.804 4.13794 15.517 4.13794C21.2304 4.13794 25.862 8.76931 25.862 14.4826Z" fill="#66AD4A"/>
<path fill-rule="evenodd" clip-rule="evenodd" d="M21.7241 12.4138C21.7241 16.9844 18.0189 20.6897 13.4482 20.6897C8.87729 20.6897 5.17233 16.9844 5.17233 12.4138C5.17233 7.84318 8.87729 4.13794 13.4482 4.13794C18.0189 4.13794 21.7241 7.84318 21.7241 12.4138Z" fill="#AED7DC"/>
<path fill-rule="evenodd" clip-rule="evenodd" d="M22.7587 11.3793C22.7587 15.3785 19.5168 18.6207 15.5172 18.6207C11.5177 18.6207 8.27597 15.3785 8.27597 11.3793C8.27597 7.37985 11.5177 4.13794 15.5172 4.13794C19.5168 4.13794 22.7587 7.37985 22.7587 11.3793Z" fill="#5BB1CF"/>
<path fill-rule="evenodd" clip-rule="evenodd" d="M22.7587 11.8963C22.7587 15.61 19.9799 18.6206 16.5518 18.6206C13.1237 18.6206 10.3448 15.61 10.3448 11.8963C10.3448 8.18301 13.1237 5.17236 16.5518 5.17236C19.9799 5.17236 22.7587 8.18301 22.7587 11.8963Z" fill="#25A8C3"/>
<path fill-rule="evenodd" clip-rule="evenodd" d="M15.5172 18.6205C12.6607 18.6205 10.3448 16.0731 10.3448 12.9307C10.3448 9.78839 12.6607 7.24124 15.5172 7.24124C18.3739 7.24124 20.6898 9.78839 20.6898 12.9307C20.6898 16.0731 18.3739 18.6205 15.5172 18.6205Z" fill="#1B1A18"/>
<path fill-rule="evenodd" clip-rule="evenodd" d="M18.3394 11.2904C17.8473 12.1136 16.8799 12.5897 16.1781 12.353C15.4764 12.1167 15.3066 11.2573 15.7983 10.4339C16.2903 9.61038 17.2578 9.13457 17.9595 9.37091C18.6613 9.60725 18.8311 10.4666 18.3394 11.2904Z" fill="#FFFFFE"/>
</svg>
